<svg width="392" height="73" viewBox="0 0 392 73" fill="none" xmlns="http://www.w3.org/2000/svg">
<path d="M100.4 17.72H102.4L107.34 30.24L112.26 17.72H114.26V32H112.9V19.66H112.86L107.98 32H106.7L101.8 19.66H101.76V32H100.4V17.72ZM116.84 21.68H118.1V25.82H121.44C122.44 25.82 123.233 26.0867 123.82 26.62C124.407 27.1533 124.7 27.9067 124.7 28.88C124.7 29.8533 124.407 30.62 123.82 31.18C123.233 31.7267 122.44 32 121.44 32H116.84V21.68ZM121.14 30.94C121.86 30.94 122.42 30.7667 122.82 30.42C123.233 30.0733 123.44 29.56 123.44 28.88C123.44 28.2 123.233 27.7 122.82 27.38C122.42 27.0467 121.86 26.88 121.14 26.88H118.1V30.94H121.14ZM126.64 21.68H127.9V32H126.64V21.68ZM134.765 30.94H135.985C136.478 30.02 136.838 28.9267 137.065 27.66C137.291 26.3933 137.405 24.8533 137.405 23.04V21.68H144.345V30.94H145.885V35.28H144.625V32H136.025V35.28H134.765V30.94ZM143.085 30.94V22.74H138.625V23.46C138.625 25.1933 138.498 26.6867 138.245 27.94C137.991 29.18 137.671 30.18 137.285 30.94H143.085ZM151.611 32.28C150.824 32.28 150.124 32.14 149.511 31.86C148.911 31.5667 148.404 31.1733 147.991 30.68C147.577 30.1867 147.264 29.6133 147.051 28.96C146.837 28.2933 146.731 27.5867 146.731 26.84C146.731 26.1067 146.837 25.4067 147.051 24.74C147.264 24.0733 147.577 23.4933 147.991 23C148.404 22.5067 148.911 22.1133 149.511 21.82C150.124 21.5267 150.824 21.38 151.611 21.38C152.397 21.38 153.091 21.5267 153.691 21.82C154.304 22.1133 154.817 22.5067 155.231 23C155.644 23.4933 155.957 24.0733 156.171 24.74C156.384 25.4067 156.491 26.1067 156.491 26.84C156.491 27.5867 156.384 28.2933 156.171 28.96C155.957 29.6133 155.644 30.1867 155.231 30.68C154.817 31.1733 154.304 31.5667 153.691 31.86C153.091 32.14 152.397 32.28 151.611 32.28ZM151.611 31.24C152.211 31.24 152.737 31.1133 153.191 30.86C153.644 30.6067 154.017 30.2733 154.311 29.86C154.617 29.4467 154.844 28.98 154.991 28.46C155.151 27.9267 155.231 27.3867 155.231 26.84C155.231 26.2933 155.151 25.76 154.991 25.24C154.844 24.7067 154.617 24.2333 154.311 23.82C154.017 23.4067 153.644 23.0733 153.191 22.82C152.737 22.5667 152.211 22.44 151.611 22.44C151.011 22.44 150.484 22.5667 150.031 22.82C149.577 23.0733 149.197 23.4067 148.891 23.82C148.597 24.2333 148.371 24.7067 148.211 25.24C148.064 25.76 147.991 26.2933 147.991 26.84C147.991 27.3867 148.064 27.9267 148.211 28.46C148.371 28.98 148.597 29.4467 148.891 29.86C149.197 30.2733 149.577 30.6067 150.031 30.86C150.484 31.1133 151.011 31.24 151.611 31.24ZM162.724 32.28C161.937 32.28 161.237 32.14 160.624 31.86C160.024 31.5667 159.517 31.1733 159.104 30.68C158.691 30.1867 158.377 29.6133 158.164 28.96C157.951 28.2933 157.844 27.5867 157.844 26.84C157.844 26.1067 157.951 25.4067 158.164 24.74C158.377 24.0733 158.691 23.4933 159.104 23C159.517 22.5067 160.024 22.1133 160.624 21.82C161.237 21.5267 161.937 21.38 162.724 21.38C163.831 21.38 164.764 21.6733 165.524 22.26C166.297 22.8467 166.757 23.7333 166.904 24.92H165.644C165.471 24.1467 165.151 23.54 164.684 23.1C164.217 22.66 163.564 22.44 162.724 22.44C162.124 22.44 161.597 22.5667 161.144 22.82C160.691 23.0733 160.311 23.4067 160.004 23.82C159.711 24.2333 159.484 24.7067 159.324 25.24C159.177 25.76 159.104 26.2933 159.104 26.84C159.104 27.3867 159.177 27.9267 159.324 28.46C159.484 28.98 159.711 29.4467 160.004 29.86C160.311 30.2733 160.691 30.6067 161.144 30.86C161.597 31.1133 162.124 31.24 162.724 31.24C163.111 31.24 163.477 31.1667 163.824 31.02C164.171 30.8733 164.477 30.6733 164.744 30.42C165.011 30.1533 165.231 29.84 165.404 29.48C165.577 29.12 165.684 28.7267 165.724 28.3H166.984C166.811 29.5533 166.351 30.5333 165.604 31.24C164.857 31.9333 163.897 32.28 162.724 32.28ZM171.335 22.74H167.515V21.68H176.415V22.74H172.595V32H171.335V22.74ZM180.502 32.28C180.022 32.28 179.569 32.22 179.142 32.1C178.729 31.9933 178.362 31.82 178.042 31.58C177.736 31.3267 177.489 31.0133 177.302 30.64C177.129 30.2533 177.042 29.8 177.042 29.28C177.042 28.56 177.202 28 177.522 27.6C177.842 27.1867 178.262 26.8733 178.782 26.66C179.316 26.4467 179.909 26.3 180.562 26.22C181.229 26.1267 181.902 26.04 182.582 25.96C182.836 25.9333 183.062 25.9 183.262 25.86C183.476 25.82 183.649 25.7533 183.782 25.66C183.916 25.5533 184.016 25.4133 184.082 25.24C184.162 25.0667 184.202 24.84 184.202 24.56C184.202 24.1333 184.129 23.7867 183.982 23.52C183.849 23.24 183.656 23.02 183.402 22.86C183.162 22.7 182.876 22.5933 182.542 22.54C182.222 22.4733 181.876 22.44 181.502 22.44C180.702 22.44 180.049 22.6333 179.542 23.02C179.036 23.3933 178.769 24 178.742 24.84H177.482C177.562 23.6267 177.976 22.7467 178.722 22.2C179.482 21.6533 180.462 21.38 181.662 21.38C182.116 21.38 182.569 21.4267 183.022 21.52C183.476 21.6 183.882 21.76 184.242 22C184.602 22.24 184.896 22.58 185.122 23.02C185.349 23.4467 185.462 24.0067 185.462 24.7V30.18C185.462 30.6867 185.709 30.94 186.202 30.94C186.362 30.94 186.496 30.9133 186.602 30.86V31.92C186.456 31.9467 186.322 31.9667 186.202 31.98C186.096 31.9933 185.956 32 185.782 32C185.462 32 185.202 31.96 185.002 31.88C184.816 31.7867 184.669 31.66 184.562 31.5C184.456 31.34 184.382 31.1533 184.342 30.94C184.316 30.7133 184.302 30.4667 184.302 30.2H184.262C184.036 30.5333 183.802 30.8333 183.562 31.1C183.336 31.3533 183.076 31.5667 182.782 31.74C182.502 31.9133 182.176 32.0467 181.802 32.14C181.429 32.2333 180.996 32.28 180.502 32.28ZM180.602 31.24C181.082 31.24 181.542 31.1667 181.982 31.02C182.422 30.8733 182.802 30.66 183.122 30.38C183.456 30.1 183.716 29.76 183.902 29.36C184.102 28.96 184.202 28.5067 184.202 28V26.36H184.162C184.082 26.5067 183.929 26.6133 183.702 26.68C183.476 26.7467 183.276 26.7933 183.102 26.82C182.569 26.9133 182.016 27 181.442 27.08C180.882 27.1467 180.369 27.2533 179.902 27.4C179.436 27.5467 179.049 27.76 178.742 28.04C178.449 28.32 178.302 28.7067 178.302 29.2C178.302 29.52 178.362 29.8067 178.482 30.06C178.616 30.3 178.789 30.5133 179.002 30.7C179.216 30.8733 179.456 31.0067 179.722 31.1C180.002 31.1933 180.296 31.24 180.602 31.24ZM187.953 21.68H192.673C193.727 21.68 194.54 21.8867 195.113 22.3C195.687 22.7133 195.973 23.32 195.973 24.12C195.973 24.7333 195.813 25.2467 195.493 25.66C195.187 26.0733 194.753 26.36 194.193 26.52V26.56C194.873 26.68 195.407 26.9467 195.793 27.36C196.18 27.7733 196.373 28.36 196.373 29.12C196.373 30.0533 196.06 30.7667 195.433 31.26C194.807 31.7533 193.887 32 192.673 32H187.953V21.68ZM192.533 30.94C193.413 30.94 194.06 30.78 194.473 30.46C194.9 30.1267 195.113 29.6333 195.113 28.98C195.113 28.38 194.9 27.92 194.473 27.6C194.06 27.28 193.413 27.12 192.533 27.12H189.213V30.94H192.533ZM192.533 26.14C193.253 26.14 193.793 25.9867 194.153 25.68C194.527 25.3733 194.713 24.96 194.713 24.44C194.713 23.3067 193.987 22.74 192.533 22.74H189.213V26.14H192.533ZM198.185 32.1C198.119 32.1 198.039 32.0933 197.945 32.08C197.852 32.0667 197.752 32.0533 197.645 32.04C197.552 32.0267 197.459 32.0133 197.365 32C197.285 31.9733 197.225 31.9533 197.185 31.94V30.84C197.292 30.88 197.452 30.9133 197.665 30.94C197.879 30.9667 198.059 30.98 198.205 30.98C198.339 30.98 198.485 30.96 198.645 30.92C198.805 30.88 198.965 30.7733 199.125 30.6C199.285 30.4133 199.439 30.1267 199.585 29.74C199.732 29.3533 199.859 28.82 199.965 28.14C200.072 27.4467 200.159 26.58 200.225 25.54C200.292 24.4867 200.325 23.2 200.325 21.68H207.225V32H205.965V22.74H201.545C201.545 24.2333 201.499 25.5 201.405 26.54C201.325 27.58 201.205 28.4467 201.045 29.14C200.885 29.8333 200.699 30.38 200.485 30.78C200.272 31.18 200.039 31.48 199.785 31.68C199.545 31.8667 199.285 31.98 199.005 32.02C198.739 32.0733 198.465 32.1 198.185 32.1ZM212.234 27.82C211.314 27.7533 210.581 27.4533 210.034 26.92C209.501 26.3733 209.234 25.6533 209.234 24.76C209.234 24.3067 209.307 23.8933 209.454 23.52C209.601 23.1333 209.807 22.8067 210.074 22.54C210.341 22.2733 210.667 22.0667 211.054 21.92C211.441 21.76 211.874 21.68 212.354 21.68H217.354V32H216.094V27.9H213.654L210.114 32H208.474L212.234 27.82ZM216.094 26.84V22.74H212.654C211.961 22.74 211.427 22.9333 211.054 23.32C210.681 23.6933 210.494 24.18 210.494 24.78C210.494 25.38 210.681 25.8733 211.054 26.26C211.427 26.6467 211.961 26.84 212.654 26.84H216.094ZM223.871 32.28C223.045 32.28 222.338 32.14 221.751 31.86C221.165 31.5667 220.685 31.1733 220.311 30.68C219.938 30.1733 219.658 29.5933 219.471 28.94C219.298 28.2867 219.211 27.5867 219.211 26.84C219.211 26.16 219.298 25.4933 219.471 24.84C219.658 24.1867 219.938 23.6067 220.311 23.1C220.685 22.58 221.165 22.1667 221.751 21.86C222.338 21.54 223.045 21.38 223.871 21.38C224.698 21.38 225.405 21.5467 225.991 21.88C226.578 22.2133 227.051 22.6533 227.411 23.2C227.785 23.7333 228.051 24.3533 228.211 25.06C228.371 25.7533 228.438 26.46 228.411 27.18H220.471C220.471 27.6467 220.531 28.12 220.651 28.6C220.785 29.08 220.991 29.5133 221.271 29.9C221.551 30.2867 221.905 30.6067 222.331 30.86C222.758 31.1133 223.271 31.24 223.871 31.24C224.791 31.24 225.511 31 226.031 30.52C226.551 30.04 226.911 29.4 227.111 28.6H228.371C228.105 29.7733 227.611 30.68 226.891 31.32C226.185 31.96 225.178 32.28 223.871 32.28ZM227.151 26.12C227.138 25.64 227.051 25.18 226.891 24.74C226.745 24.3 226.531 23.9133 226.251 23.58C225.971 23.2333 225.631 22.96 225.231 22.76C224.831 22.5467 224.378 22.44 223.871 22.44C223.351 22.44 222.891 22.5467 222.491 22.76C222.091 22.96 221.751 23.2333 221.471 23.58C221.191 23.9133 220.965 24.3067 220.791 24.76C220.631 25.2 220.525 25.6533 220.471 26.12H227.151ZM230.082 21.68H231.762L235.602 30.58L239.402 21.68H241.082V32H239.822V23.5H239.762L236.142 32H235.022L231.402 23.5H231.342V32H230.082V21.68ZM249.008 21.68H250.688L254.528 30.58L258.328 21.68H260.008V32H258.748V23.5H258.688L255.068 32H253.948L250.328 23.5H250.268V32H249.008V21.68ZM266.748 32.28C265.961 32.28 265.261 32.14 264.648 31.86C264.048 31.5667 263.541 31.1733 263.128 30.68C262.714 30.1867 262.401 29.6133 262.188 28.96C261.974 28.2933 261.868 27.5867 261.868 26.84C261.868 26.1067 261.974 25.4067 262.188 24.74C262.401 24.0733 262.714 23.4933 263.128 23C263.541 22.5067 264.048 22.1133 264.648 21.82C265.261 21.5267 265.961 21.38 266.748 21.38C267.534 21.38 268.228 21.5267 268.828 21.82C269.441 22.1133 269.954 22.5067 270.368 23C270.781 23.4933 271.094 24.0733 271.308 24.74C271.521 25.4067 271.628 26.1067 271.628 26.84C271.628 27.5867 271.521 28.2933 271.308 28.96C271.094 29.6133 270.781 30.1867 270.368 30.68C269.954 31.1733 269.441 31.5667 268.828 31.86C268.228 32.14 267.534 32.28 266.748 32.28ZM266.748 31.24C267.348 31.24 267.874 31.1133 268.328 30.86C268.781 30.6067 269.154 30.2733 269.448 29.86C269.754 29.4467 269.981 28.98 270.128 28.46C270.288 27.9267 270.368 27.3867 270.368 26.84C270.368 26.2933 270.288 25.76 270.128 25.24C269.981 24.7067 269.754 24.2333 269.448 23.82C269.154 23.4067 268.781 23.0733 268.328 22.82C267.874 22.5667 267.348 22.44 266.748 22.44C266.148 22.44 265.621 22.5667 265.168 22.82C264.714 23.0733 264.334 23.4067 264.028 23.82C263.734 24.2333 263.508 24.7067 263.348 25.24C263.201 25.76 263.128 26.2933 263.128 26.84C263.128 27.3867 263.201 27.9267 263.348 28.46C263.508 28.98 263.734 29.4467 264.028 29.86C264.334 30.2733 264.714 30.6067 265.168 30.86C265.621 31.1133 266.148 31.24 266.748 31.24ZM273.501 21.68H274.661V23.64H274.701C274.994 22.92 275.467 22.3667 276.121 21.98C276.787 21.58 277.541 21.38 278.381 21.38C279.167 21.38 279.847 21.5267 280.421 21.82C281.007 22.1133 281.494 22.5133 281.881 23.02C282.267 23.5133 282.554 24.0933 282.741 24.76C282.927 25.4133 283.021 26.1067 283.021 26.84C283.021 27.5867 282.927 28.2867 282.741 28.94C282.554 29.5933 282.267 30.1733 281.881 30.68C281.494 31.1733 281.007 31.5667 280.421 31.86C279.847 32.14 279.167 32.28 278.381 32.28C277.994 32.28 277.614 32.2333 277.241 32.14C276.881 32.0467 276.541 31.9067 276.221 31.72C275.901 31.5333 275.614 31.3 275.361 31.02C275.121 30.74 274.934 30.4133 274.801 30.04H274.761V35.8H273.501V21.68ZM278.381 31.24C278.981 31.24 279.494 31.1133 279.921 30.86C280.347 30.5933 280.694 30.2533 280.961 29.84C281.241 29.4267 281.441 28.96 281.561 28.44C281.694 27.9067 281.761 27.3733 281.761 26.84C281.761 26.3067 281.694 25.78 281.561 25.26C281.441 24.7267 281.241 24.2533 280.961 23.84C280.694 23.4267 280.347 23.0933 279.921 22.84C279.494 22.5733 278.981 22.44 278.381 22.44C277.674 22.44 277.087 22.56 276.621 22.8C276.167 23.04 275.801 23.36 275.521 23.76C275.241 24.16 275.041 24.6267 274.921 25.16C274.814 25.6933 274.761 26.2533 274.761 26.84C274.761 27.3733 274.821 27.9067 274.941 28.44C275.074 28.96 275.281 29.4267 275.561 29.84C275.854 30.2533 276.227 30.5933 276.681 30.86C277.147 31.1133 277.714 31.24 278.381 31.24ZM289.125 32.28C288.298 32.28 287.592 32.14 287.005 31.86C286.418 31.5667 285.938 31.1733 285.565 30.68C285.192 30.1733 284.912 29.5933 284.725 28.94C284.552 28.2867 284.465 27.5867 284.465 26.84C284.465 26.16 284.552 25.4933 284.725 24.84C284.912 24.1867 285.192 23.6067 285.565 23.1C285.938 22.58 286.418 22.1667 287.005 21.86C287.592 21.54 288.298 21.38 289.125 21.38C289.952 21.38 290.658 21.5467 291.245 21.88C291.832 22.2133 292.305 22.6533 292.665 23.2C293.038 23.7333 293.305 24.3533 293.465 25.06C293.625 25.7533 293.692 26.46 293.665 27.18H285.725C285.725 27.6467 285.785 28.12 285.905 28.6C286.038 29.08 286.245 29.5133 286.525 29.9C286.805 30.2867 287.158 30.6067 287.585 30.86C288.012 31.1133 288.525 31.24 289.125 31.24C290.045 31.24 290.765 31 291.285 30.52C291.805 30.04 292.165 29.4 292.365 28.6H293.625C293.358 29.7733 292.865 30.68 292.145 31.32C291.438 31.96 290.432 32.28 289.125 32.28ZM292.405 26.12C292.392 25.64 292.305 25.18 292.145 24.74C291.998 24.3 291.785 23.9133 291.505 23.58C291.225 23.2333 290.885 22.96 290.485 22.76C290.085 22.5467 289.632 22.44 289.125 22.44C288.605 22.44 288.145 22.5467 287.745 22.76C287.345 22.96 287.005 23.2333 286.725 23.58C286.445 23.9133 286.218 24.3067 286.045 24.76C285.885 25.2 285.778 25.6533 285.725 26.12H292.405ZM295.336 21.68H303.576V32H302.316V22.74H296.596V32H295.336V21.68ZM305.962 21.68H307.122V23.64H307.162C307.455 22.92 307.928 22.3667 308.582 21.98C309.248 21.58 310.002 21.38 310.842 21.38C311.628 21.38 312.308 21.5267 312.882 21.82C313.468 22.1133 313.955 22.5133 314.342 23.02C314.728 23.5133 315.015 24.0933 315.202 24.76C315.388 25.4133 315.482 26.1067 315.482 26.84C315.482 27.5867 315.388 28.2867 315.202 28.94C315.015 29.5933 314.728 30.1733 314.342 30.68C313.955 31.1733 313.468 31.5667 312.882 31.86C312.308 32.14 311.628 32.28 310.842 32.28C310.455 32.28 310.075 32.2333 309.702 32.14C309.342 32.0467 309.002 31.9067 308.682 31.72C308.362 31.5333 308.075 31.3 307.822 31.02C307.582 30.74 307.395 30.4133 307.262 30.04H307.222V35.8H305.962V21.68ZM310.842 31.24C311.442 31.24 311.955 31.1133 312.382 30.86C312.808 30.5933 313.155 30.2533 313.422 29.84C313.702 29.4267 313.902 28.96 314.022 28.44C314.155 27.9067 314.222 27.3733 314.222 26.84C314.222 26.3067 314.155 25.78 314.022 25.26C313.902 24.7267 313.702 24.2533 313.422 23.84C313.155 23.4267 312.808 23.0933 312.382 22.84C311.955 22.5733 311.442 22.44 310.842 22.44C310.135 22.44 309.548 22.56 309.082 22.8C308.628 23.04 308.262 23.36 307.982 23.76C307.702 24.16 307.502 24.6267 307.382 25.16C307.275 25.6933 307.222 26.2533 307.222 26.84C307.222 27.3733 307.282 27.9067 307.402 28.44C307.535 28.96 307.742 29.4267 308.022 29.84C308.315 30.2533 308.688 30.5933 309.142 30.86C309.608 31.1133 310.175 31.24 310.842 31.24ZM321.806 32.28C321.019 32.28 320.319 32.14 319.706 31.86C319.106 31.5667 318.599 31.1733 318.186 30.68C317.773 30.1867 317.459 29.6133 317.246 28.96C317.033 28.2933 316.926 27.5867 316.926 26.84C316.926 26.1067 317.033 25.4067 317.246 24.74C317.459 24.0733 317.773 23.4933 318.186 23C318.599 22.5067 319.106 22.1133 319.706 21.82C320.319 21.5267 321.019 21.38 321.806 21.38C322.593 21.38 323.286 21.5267 323.886 21.82C324.499 22.1133 325.013 22.5067 325.426 23C325.839 23.4933 326.153 24.0733 326.366 24.74C326.579 25.4067 326.686 26.1067 326.686 26.84C326.686 27.5867 326.579 28.2933 326.366 28.96C326.153 29.6133 325.839 30.1867 325.426 30.68C325.013 31.1733 324.499 31.5667 323.886 31.86C323.286 32.14 322.593 32.28 321.806 32.28ZM321.806 31.24C322.406 31.24 322.933 31.1133 323.386 30.86C323.839 30.6067 324.213 30.2733 324.506 29.86C324.813 29.4467 325.039 28.98 325.186 28.46C325.346 27.9267 325.426 27.3867 325.426 26.84C325.426 26.2933 325.346 25.76 325.186 25.24C325.039 24.7067 324.813 24.2333 324.506 23.82C324.213 23.4067 323.839 23.0733 323.386 22.82C322.933 22.5667 322.406 22.44 321.806 22.44C321.206 22.44 320.679 22.5667 320.226 22.82C319.773 23.0733 319.393 23.4067 319.086 23.82C318.793 24.2333 318.566 24.7067 318.406 25.24C318.259 25.76 318.186 26.2933 318.186 26.84C318.186 27.3867 318.259 27.9267 318.406 28.46C318.566 28.98 318.793 29.4467 319.086 29.86C319.393 30.2733 319.773 30.6067 320.226 30.86C320.679 31.1133 321.206 31.24 321.806 31.24ZM327.479 30.94H328.699C329.193 30.02 329.553 28.9267 329.779 27.66C330.006 26.3933 330.119 24.8533 330.119 23.04V21.68H337.059V30.94H338.599V35.28H337.339V32H328.739V35.28H327.479V30.94ZM335.799 30.94V22.74H331.339V23.46C331.339 25.1933 331.213 26.6867 330.959 27.94C330.706 29.18 330.386 30.18 329.999 30.94H335.799ZM340.786 35.8C340.532 35.7867 340.332 35.7733 340.186 35.76C340.052 35.76 339.932 35.74 339.826 35.7V34.64C339.972 34.6667 340.112 34.6867 340.246 34.7C340.392 34.7267 340.539 34.74 340.686 34.74C340.966 34.74 341.192 34.7 341.366 34.62C341.552 34.54 341.712 34.4267 341.846 34.28C341.979 34.1467 342.092 33.98 342.186 33.78C342.279 33.58 342.379 33.36 342.486 33.12L342.926 31.96L338.806 21.68H340.146L343.546 30.48L346.726 21.68H347.986L343.506 33.56C343.319 34 343.146 34.36 342.986 34.64C342.826 34.9333 342.646 35.16 342.446 35.32C342.259 35.4933 342.032 35.6133 341.766 35.68C341.512 35.76 341.186 35.8 340.786 35.8ZM349.223 21.68H350.483V26.98L356.203 21.68H357.883L353.503 25.72L358.143 32H356.563L352.583 26.58L350.483 28.52V32H349.223V21.68ZM361.784 22.74H357.964V21.68H366.864V22.74H363.044V32H361.784V22.74ZM368.032 21.68H369.292V25.82H372.632C373.632 25.82 374.425 26.0867 375.012 26.62C375.598 27.1533 375.892 27.9067 375.892 28.88C375.892 29.8533 375.598 30.62 375.012 31.18C374.425 31.7267 373.632 32 372.632 32H368.032V21.68ZM372.332 30.94C373.052 30.94 373.612 30.7667 374.012 30.42C374.425 30.0733 374.632 29.56 374.632 28.88C374.632 28.2 374.425 27.7 374.012 27.38C373.612 27.0467 373.052 26.88 372.332 26.88H369.292V30.94H372.332ZM377.832 21.68H379.092V32H377.832V21.68ZM100.18 45.68H108.42V56H107.16V46.74H101.44V56H100.18V45.68ZM115.165 56.28C114.379 56.28 113.679 56.14 113.065 55.86C112.465 55.5667 111.959 55.1733 111.545 54.68C111.132 54.1867 110.819 53.6133 110.605 52.96C110.392 52.2933 110.285 51.5867 110.285 50.84C110.285 50.1067 110.392 49.4067 110.605 48.74C110.819 48.0733 111.132 47.4933 111.545 47C111.959 46.5067 112.465 46.1133 113.065 45.82C113.679 45.5267 114.379 45.38 115.165 45.38C115.952 45.38 116.645 45.5267 117.245 45.82C117.859 46.1133 118.372 46.5067 118.785 47C119.199 47.4933 119.512 48.0733 119.725 48.74C119.939 49.4067 120.045 50.1067 120.045 50.84C120.045 51.5867 119.939 52.2933 119.725 52.96C119.512 53.6133 119.199 54.1867 118.785 54.68C118.372 55.1733 117.859 55.5667 117.245 55.86C116.645 56.14 115.952 56.28 115.165 56.28ZM115.165 55.24C115.765 55.24 116.292 55.1133 116.745 54.86C117.199 54.6067 117.572 54.2733 117.865 53.86C118.172 53.4467 118.399 52.98 118.545 52.46C118.705 51.9267 118.785 51.3867 118.785 50.84C118.785 50.2933 118.705 49.76 118.545 49.24C118.399 48.7067 118.172 48.2333 117.865 47.82C117.572 47.4067 117.199 47.0733 116.745 46.82C116.292 46.5667 115.765 46.44 115.165 46.44C114.565 46.44 114.039 46.5667 113.585 46.82C113.132 47.0733 112.752 47.4067 112.445 47.82C112.152 48.2333 111.925 48.7067 111.765 49.24C111.619 49.76 111.545 50.2933 111.545 50.84C111.545 51.3867 111.619 51.9267 111.765 52.46C111.925 52.98 112.152 53.4467 112.445 53.86C112.752 54.2733 113.132 54.6067 113.585 54.86C114.039 55.1133 114.565 55.24 115.165 55.24ZM127.465 45.68H132.185C133.238 45.68 134.052 45.8867 134.625 46.3C135.198 46.7133 135.485 47.32 135.485 48.12C135.485 48.7333 135.325 49.2467 135.005 49.66C134.698 50.0733 134.265 50.36 133.705 50.52V50.56C134.385 50.68 134.918 50.9467 135.305 51.36C135.692 51.7733 135.885 52.36 135.885 53.12C135.885 54.0533 135.572 54.7667 134.945 55.26C134.318 55.7533 133.398 56 132.185 56H127.465V45.68ZM132.045 54.94C132.925 54.94 133.572 54.78 133.985 54.46C134.412 54.1267 134.625 53.6333 134.625 52.98C134.625 52.38 134.412 51.92 133.985 51.6C133.572 51.28 132.925 51.12 132.045 51.12H128.725V54.94H132.045ZM132.045 50.14C132.765 50.14 133.305 49.9867 133.665 49.68C134.038 49.3733 134.225 48.96 134.225 48.44C134.225 47.3067 133.498 46.74 132.045 46.74H128.725V50.14H132.045ZM142.177 56.28C141.391 56.28 140.691 56.14 140.077 55.86C139.477 55.5667 138.971 55.1733 138.557 54.68C138.144 54.1867 137.831 53.6133 137.617 52.96C137.404 52.2933 137.297 51.5867 137.297 50.84C137.297 50.1067 137.404 49.4067 137.617 48.74C137.831 48.0733 138.144 47.4933 138.557 47C138.971 46.5067 139.477 46.1133 140.077 45.82C140.691 45.5267 141.391 45.38 142.177 45.38C143.284 45.38 144.217 45.6733 144.977 46.26C145.751 46.8467 146.211 47.7333 146.357 48.92H145.097C144.924 48.1467 144.604 47.54 144.137 47.1C143.671 46.66 143.017 46.44 142.177 46.44C141.577 46.44 141.051 46.5667 140.597 46.82C140.144 47.0733 139.764 47.4067 139.457 47.82C139.164 48.2333 138.937 48.7067 138.777 49.24C138.631 49.76 138.557 50.2933 138.557 50.84C138.557 51.3867 138.631 51.9267 138.777 52.46C138.937 52.98 139.164 53.4467 139.457 53.86C139.764 54.2733 140.144 54.6067 140.597 54.86C141.051 55.1133 141.577 55.24 142.177 55.24C142.564 55.24 142.931 55.1667 143.277 55.02C143.624 54.8733 143.931 54.6733 144.197 54.42C144.464 54.1533 144.684 53.84 144.857 53.48C145.031 53.12 145.137 52.7267 145.177 52.3H146.437C146.264 53.5533 145.804 54.5333 145.057 55.24C144.311 55.9333 143.351 56.28 142.177 56.28ZM152.328 56.28C151.502 56.28 150.795 56.14 150.208 55.86C149.622 55.5667 149.142 55.1733 148.768 54.68C148.395 54.1733 148.115 53.5933 147.928 52.94C147.755 52.2867 147.668 51.5867 147.668 50.84C147.668 50.16 147.755 49.4933 147.928 48.84C148.115 48.1867 148.395 47.6067 148.768 47.1C149.142 46.58 149.622 46.1667 150.208 45.86C150.795 45.54 151.502 45.38 152.328 45.38C153.155 45.38 153.862 45.5467 154.448 45.88C155.035 46.2133 155.508 46.6533 155.868 47.2C156.242 47.7333 156.508 48.3533 156.668 49.06C156.828 49.7533 156.895 50.46 156.868 51.18H148.928C148.928 51.6467 148.988 52.12 149.108 52.6C149.242 53.08 149.448 53.5133 149.728 53.9C150.008 54.2867 150.362 54.6067 150.788 54.86C151.215 55.1133 151.728 55.24 152.328 55.24C153.248 55.24 153.968 55 154.488 54.52C155.008 54.04 155.368 53.4 155.568 52.6H156.828C156.562 53.7733 156.068 54.68 155.348 55.32C154.642 55.96 153.635 56.28 152.328 56.28ZM155.608 50.12C155.595 49.64 155.508 49.18 155.348 48.74C155.202 48.3 154.988 47.9133 154.708 47.58C154.428 47.2333 154.088 46.96 153.688 46.76C153.288 46.5467 152.835 46.44 152.328 46.44C151.808 46.44 151.348 46.5467 150.948 46.76C150.548 46.96 150.208 47.2333 149.928 47.58C149.648 47.9133 149.422 48.3067 149.248 48.76C149.088 49.2 148.982 49.6533 148.928 50.12H155.608ZM158.539 56H160.099L165.799 47.16V56H167.059V45.68H165.499L159.799 54.52V45.68H158.539V56ZM162.759 44.16C163.599 44.16 164.259 43.94 164.739 43.5C165.219 43.0467 165.533 42.4 165.679 41.56H164.899C164.793 42.08 164.553 42.4867 164.179 42.78C163.819 43.06 163.353 43.2 162.779 43.2C162.179 43.2 161.699 43.0533 161.339 42.76C160.993 42.4667 160.786 42.0667 160.719 41.56H159.939C160.046 42.4 160.333 43.0467 160.799 43.5C161.266 43.94 161.919 44.16 162.759 44.16ZM175.205 41.72H177.205L182.145 54.24L187.065 41.72H189.065V56H187.705V43.66H187.665L182.785 56H181.505L176.605 43.66H176.565V56H175.205V41.72ZM196.025 56.28C195.238 56.28 194.538 56.14 193.925 55.86C193.325 55.5667 192.818 55.1733 192.405 54.68C191.992 54.1867 191.678 53.6133 191.465 52.96C191.252 52.2933 191.145 51.5867 191.145 50.84C191.145 50.1067 191.252 49.4067 191.465 48.74C191.678 48.0733 191.992 47.4933 192.405 47C192.818 46.5067 193.325 46.1133 193.925 45.82C194.538 45.5267 195.238 45.38 196.025 45.38C196.812 45.38 197.505 45.5267 198.105 45.82C198.718 46.1133 199.232 46.5067 199.645 47C200.058 47.4933 200.372 48.0733 200.585 48.74C200.798 49.4067 200.905 50.1067 200.905 50.84C200.905 51.5867 200.798 52.2933 200.585 52.96C200.372 53.6133 200.058 54.1867 199.645 54.68C199.232 55.1733 198.718 55.5667 198.105 55.86C197.505 56.14 196.812 56.28 196.025 56.28ZM196.025 55.24C196.625 55.24 197.152 55.1133 197.605 54.86C198.058 54.6067 198.432 54.2733 198.725 53.86C199.032 53.4467 199.258 52.98 199.405 52.46C199.565 51.9267 199.645 51.3867 199.645 50.84C199.645 50.2933 199.565 49.76 199.405 49.24C199.258 48.7067 199.032 48.2333 198.725 47.82C198.432 47.4067 198.058 47.0733 197.605 46.82C197.152 46.5667 196.625 46.44 196.025 46.44C195.425 46.44 194.898 46.5667 194.445 46.82C193.992 47.0733 193.612 47.4067 193.305 47.82C193.012 48.2333 192.785 48.7067 192.625 49.24C192.478 49.76 192.405 50.2933 192.405 50.84C192.405 51.3867 192.478 51.9267 192.625 52.46C192.785 52.98 193.012 53.4467 193.305 53.86C193.612 54.2733 193.992 54.6067 194.445 54.86C194.898 55.1133 195.425 55.24 196.025 55.24ZM207.138 56.28C206.351 56.28 205.651 56.14 205.038 55.86C204.438 55.5667 203.931 55.1733 203.518 54.68C203.105 54.1867 202.791 53.6133 202.578 52.96C202.365 52.2933 202.258 51.5867 202.258 50.84C202.258 50.1067 202.365 49.4067 202.578 48.74C202.791 48.0733 203.105 47.4933 203.518 47C203.931 46.5067 204.438 46.1133 205.038 45.82C205.651 45.5267 206.351 45.38 207.138 45.38C208.245 45.38 209.178 45.6733 209.938 46.26C210.711 46.8467 211.171 47.7333 211.318 48.92H210.058C209.885 48.1467 209.565 47.54 209.098 47.1C208.631 46.66 207.978 46.44 207.138 46.44C206.538 46.44 206.011 46.5667 205.558 46.82C205.105 47.0733 204.725 47.4067 204.418 47.82C204.125 48.2333 203.898 48.7067 203.738 49.24C203.591 49.76 203.518 50.2933 203.518 50.84C203.518 51.3867 203.591 51.9267 203.738 52.46C203.898 52.98 204.125 53.4467 204.418 53.86C204.725 54.2733 205.105 54.6067 205.558 54.86C206.011 55.1133 206.538 55.24 207.138 55.24C207.525 55.24 207.891 55.1667 208.238 55.02C208.585 54.8733 208.891 54.6733 209.158 54.42C209.425 54.1533 209.645 53.84 209.818 53.48C209.991 53.12 210.098 52.7267 210.138 52.3H211.398C211.225 53.5533 210.765 54.5333 210.018 55.24C209.271 55.9333 208.311 56.28 207.138 56.28ZM213.149 45.68H214.409V50.98L220.129 45.68H221.809L217.429 49.72L222.069 56H220.489L216.509 50.58L214.409 52.52V56H213.149V45.68ZM223.09 45.68H227.81C228.863 45.68 229.677 45.8867 230.25 46.3C230.823 46.7133 231.11 47.32 231.11 48.12C231.11 48.7333 230.95 49.2467 230.63 49.66C230.323 50.0733 229.89 50.36 229.33 50.52V50.56C230.01 50.68 230.543 50.9467 230.93 51.36C231.317 51.7733 231.51 52.36 231.51 53.12C231.51 54.0533 231.197 54.7667 230.57 55.26C229.943 55.7533 229.023 56 227.81 56H223.09V45.68ZM227.67 54.94C228.55 54.94 229.197 54.78 229.61 54.46C230.037 54.1267 230.25 53.6333 230.25 52.98C230.25 52.38 230.037 51.92 229.61 51.6C229.197 51.28 228.55 51.12 227.67 51.12H224.35V54.94H227.67ZM227.67 50.14C228.39 50.14 228.93 49.9867 229.29 49.68C229.663 49.3733 229.85 48.96 229.85 48.44C229.85 47.3067 229.123 46.74 227.67 46.74H224.35V50.14H227.67ZM237.582 56.28C236.756 56.28 236.049 56.14 235.462 55.86C234.876 55.5667 234.396 55.1733 234.022 54.68C233.649 54.1733 233.369 53.5933 233.182 52.94C233.009 52.2867 232.922 51.5867 232.922 50.84C232.922 50.16 233.009 49.4933 233.182 48.84C233.369 48.1867 233.649 47.6067 234.022 47.1C234.396 46.58 234.876 46.1667 235.462 45.86C236.049 45.54 236.756 45.38 237.582 45.38C238.409 45.38 239.116 45.5467 239.702 45.88C240.289 46.2133 240.762 46.6533 241.122 47.2C241.496 47.7333 241.762 48.3533 241.922 49.06C242.082 49.7533 242.149 50.46 242.122 51.18H234.182C234.182 51.6467 234.242 52.12 234.362 52.6C234.496 53.08 234.702 53.5133 234.982 53.9C235.262 54.2867 235.616 54.6067 236.042 54.86C236.469 55.1133 236.982 55.24 237.582 55.24C238.502 55.24 239.222 55 239.742 54.52C240.262 54.04 240.622 53.4 240.822 52.6H242.082C241.816 53.7733 241.322 54.68 240.602 55.32C239.896 55.96 238.889 56.28 237.582 56.28ZM240.862 50.12C240.849 49.64 240.762 49.18 240.602 48.74C240.456 48.3 240.242 47.9133 239.962 47.58C239.682 47.2333 239.342 46.96 238.942 46.76C238.542 46.5467 238.089 46.44 237.582 46.44C237.062 46.44 236.602 46.5467 236.202 46.76C235.802 46.96 235.462 47.2333 235.182 47.58C234.902 47.9133 234.676 48.3067 234.502 48.76C234.342 49.2 234.236 49.6533 234.182 50.12H240.862Z" fill="white"/>
<rect x="1" y="1" width="71" height="71" rx="7" stroke="white" stroke-width="2"/>
<path d="M58.9437 43.7638H58.9978H60.9461C61.2708 43.7638 61.4873 43.4932 61.4331 43.1685C61.0002 40.5167 57.5907 39.4344 56.346 39.1097C56.0213 39.0014 55.7507 38.7849 55.6425 38.5144L53.5319 34.0767C53.8025 34.239 54.0731 34.2931 54.3978 34.2931H55.4801C55.6425 34.2931 55.7507 34.1849 55.7507 34.0225V30.4507C55.7507 30.2884 55.6425 30.1801 55.4801 30.1801H54.3978C53.9107 30.1801 53.4236 30.3966 53.0989 30.7754C53.0448 30.5048 52.9366 30.1801 52.8283 29.8013C52.666 29.206 51.9624 29.3142 51.0965 29.5307C49.9059 29.8013 48.7695 30.0719 47.5789 30.1801L47.0918 30.2343C46.9294 29.6931 46.4965 29.2601 45.9553 29.1519L42.9247 28.3942C42.3835 27.7448 41.7341 26.933 40.7058 25.7965C40.5435 25.6342 39.9482 24.8765 38.9199 24.6059C37.9999 24.3895 36.8093 24.0106 35.8352 24.6059C34.861 25.1471 34.2657 26.1213 34.1034 27.2577L33.2375 35.159C33.1834 35.7002 33.3457 36.1873 33.6704 36.5661C33.9951 36.9449 34.5363 37.1614 35.0234 37.1614H42.6L42.3294 43.8721C42.2753 44.9003 43.087 45.7121 44.0612 45.7662H44.1153C45.0894 45.7662 45.9012 45.0086 45.9553 44.0344L46.3341 35.4837C46.3341 34.9967 46.1718 34.5096 45.8471 34.1308C45.5224 33.7519 45.0353 33.5896 44.5482 33.5896H39.8399L40.1646 30.0719C40.5435 30.5048 40.8141 30.8296 40.8141 30.8296C41.0305 31.1001 41.3552 31.3166 41.68 31.3707L45.2518 32.2366C45.36 32.2907 45.5224 32.2907 45.6306 32.2907C46.0094 32.2907 46.3341 32.1825 46.6047 31.9119L48.12 31.6954C48.1742 31.9119 48.2283 32.1825 48.2283 32.4531C48.3906 33.6437 48.7695 34.1308 49.473 34.2931C50.0142 36.2955 50.6095 39.4344 51.0424 41.3826C51.2048 42.3026 50.9342 43.2768 50.2848 43.9803L48.2283 46.1992C47.8494 46.578 47.3624 46.7945 46.8212 46.7945H40.7058C40.0023 46.7945 39.4611 46.2533 39.5152 45.5497L39.6235 41.545H40.2729C40.6517 41.545 41.0305 41.2744 41.1388 40.8414L41.4635 39.5426C41.5717 39.0014 41.1929 38.4602 40.5976 38.4602H23.2256C22.4679 38.4602 22.1974 39.4344 22.7927 39.8673L25.715 41.7615C23.9833 43.6015 23.6585 46.2533 23.6044 47.4439C23.6044 47.7686 23.875 48.0392 24.1997 48.0392H25.4445C25.4445 48.2557 25.3903 48.4721 25.3903 48.6886C25.3903 51.8816 27.988 54.4251 31.1269 54.4251C34.1034 54.4251 36.5387 52.1522 36.8634 49.2839C37.134 49.338 37.3505 49.338 37.6211 49.338H48.4989C49.1483 49.338 49.7436 49.0133 50.1765 48.5262C50.1765 48.5804 50.1765 48.5804 50.1765 48.6345C50.1765 52.0439 53.0989 54.7499 56.5625 54.371C59.0519 54.1004 61.1626 52.0981 61.5955 49.6086C62.0826 47.1733 60.892 44.9003 58.9437 43.7638ZM31.2351 51.9898C29.3951 51.9898 27.9339 50.5286 27.9339 48.6886C27.9339 48.4721 27.9339 48.2557 27.988 48.0392H29.9363C29.828 48.2557 29.7739 48.418 29.7739 48.6886C29.7739 49.5004 30.4233 50.0957 31.181 50.0957C31.9928 50.0957 32.5881 49.4463 32.5881 48.6886C32.5881 48.4721 32.534 48.2557 32.4257 48.0392H34.374V48.2015C34.374 48.3639 34.4281 48.5262 34.4281 48.6886C34.5363 50.5286 33.0751 51.9898 31.2351 51.9898ZM56.0213 51.9898C54.1813 51.9898 52.7201 50.5286 52.7201 48.6886C52.7201 46.8486 54.1813 45.3874 56.0213 45.3874C57.8613 45.3874 59.3225 46.8486 59.3225 48.6886C59.3225 50.5286 57.8072 51.9898 56.0213 51.9898Z" fill="white"/>
<path d="M56.0213 47.2816C55.2096 47.2816 54.6143 47.931 54.6143 48.6886C54.6143 49.5004 55.2637 50.0957 56.0213 50.0957C56.8331 50.0957 57.4284 49.4463 57.4284 48.6886C57.4284 47.8769 56.779 47.2816 56.0213 47.2816Z" fill="white"/>
<path d="M23.3884 37.2156H30.3155C30.9649 37.2156 31.5061 36.6744 31.5061 36.025V29.4767C31.5061 28.8273 30.9649 28.2861 30.3155 28.2861H23.3884C22.7389 28.2861 22.1978 28.8273 22.1978 29.4767V36.025C22.1978 36.6744 22.7389 37.2156 23.3884 37.2156Z" fill="white"/>
<path d="M40.0023 19.7354C39.7858 19.6813 39.6776 19.7354 39.6776 19.7354C39.6776 19.7354 39.6235 19.8977 39.7317 20.1683C39.9482 20.7636 40.6517 21.4672 41.5717 21.6836C42.6 21.9542 43.3035 22.0625 43.7365 22.1166C43.6282 21.5213 43.4118 20.7636 42.9788 19.7354C42.5459 19.8436 41.4635 20.0601 40.0023 19.7354Z" fill="white"/>
<path d="M36.5387 23.3613L42.5458 24.7142C42.9247 24.8225 43.2494 24.606 43.4117 24.2813C43.5741 23.8483 43.7364 23.4695 43.7905 23.0366C43.3035 22.9825 42.5458 22.8742 41.3552 22.6036C39.6776 22.2248 38.487 20.5471 38.7034 19.5189C38.8117 19.0318 39.2446 18.5989 40.1646 18.8153C41.3011 19.0318 42.167 18.9236 42.5999 18.8695C40.9223 16.0553 36.8634 16.7047 35.6187 18.9236C34.6987 20.493 35.6728 22.3872 36.1057 23.0366C36.1599 23.1989 36.3222 23.3072 36.5387 23.3613Z" fill="white"/>
<path d="M18.6258 35.7544C19.2752 35.7544 19.7623 35.2673 19.7623 34.6179C19.7623 33.9685 19.2752 33.4814 18.6258 33.4814H11.4822C10.8328 33.4814 10.3457 33.9685 10.3457 34.6179C10.3457 35.2673 10.8328 35.7544 11.4822 35.7544H18.6258Z" fill="white"/>
<path d="M19.3832 40.6792C20.0326 40.6792 20.5197 40.1921 20.5197 39.5427C20.5197 38.8933 20.0326 38.4062 19.3832 38.4062H12.2396C11.6443 38.4062 11.1572 38.9474 11.1572 39.5427C11.1572 40.1921 11.6443 40.6792 12.2937 40.6792H19.3832Z" fill="white"/>
<path d="M20.1956 43.3309H13.052C12.4026 43.3309 11.9155 43.818 11.9155 44.4674C11.9155 45.1168 12.4026 45.6039 13.052 45.6039H20.1956C20.8451 45.6039 21.3321 45.1168 21.3321 44.4674C21.3321 43.818 20.7909 43.3309 20.1956 43.3309Z" fill="white"/>
</svg>
