<svg width="393" height="73" viewBox="0 0 393 73" fill="none" xmlns="http://www.w3.org/2000/svg">
<path d="M67.021 1H8.22105C4.23298 1 1 4.13401 1 8V65C1 68.866 4.23298 72 8.22105 72H67.021C71.0091 72 74.2421 68.866 74.2421 65V8C74.2421 4.13401 71.0091 1 67.021 1Z" stroke="white" stroke-width="2"/>
<path d="M60.7733 43.7638H60.8291H62.8389C63.1739 43.7638 63.3972 43.4932 63.3413 43.1685C62.8947 40.5167 59.3775 39.4344 58.0935 39.1097C57.7586 39.0014 57.4794 38.7849 57.3678 38.5144L55.1906 34.0767C55.4697 34.239 55.7489 34.2931 56.0838 34.2931H57.2003C57.3678 34.2931 57.4794 34.1849 57.4794 34.0225V30.4507C57.4794 30.2884 57.3678 30.1801 57.2003 30.1801H56.0838C55.5813 30.1801 55.0789 30.3966 54.7439 30.7754C54.6881 30.5048 54.5765 30.1801 54.4648 29.8013C54.2973 29.206 53.5715 29.3142 52.6783 29.5307C51.4501 29.8013 50.2778 30.0719 49.0496 30.1801L48.5471 30.2343C48.3796 29.6931 47.933 29.2601 47.3747 29.1519L44.2484 28.3942C43.6901 27.7448 43.0202 26.933 41.9594 25.7965C41.792 25.6342 41.1779 24.8765 40.1171 24.6059C39.1681 24.3895 37.9399 24.0106 36.935 24.6059C35.9301 25.1471 35.316 26.1213 35.1485 27.2577L34.2553 35.159C34.1995 35.7002 34.3669 36.1873 34.7019 36.5661C35.0368 36.9449 35.5951 37.1614 36.0976 37.1614H43.9135L43.6343 43.8721C43.5785 44.9003 44.4158 45.7121 45.4208 45.7662H45.4766C46.4815 45.7662 47.3189 45.0086 47.3747 44.0344L47.7655 35.4837C47.7655 34.9967 47.598 34.5096 47.2631 34.1308C46.9281 33.7519 46.4257 33.5896 45.9232 33.5896H41.0662L41.4011 30.0719C41.792 30.5048 42.0712 30.8296 42.0712 30.8296C42.2944 31.1001 42.6293 31.3166 42.9644 31.3707L46.649 32.2366C46.7606 32.2907 46.9281 32.2907 47.0398 32.2907C47.4305 32.2907 47.7655 32.1825 48.0446 31.9119L49.6078 31.6954C49.6637 31.9119 49.7195 32.1825 49.7195 32.4531C49.8869 33.6437 50.2778 34.1308 51.0035 34.2931C51.5618 36.2955 52.1759 39.4344 52.6225 41.3826C52.79 42.3026 52.5108 43.2768 51.8409 43.9803L49.7195 46.1992C49.3286 46.578 48.8262 46.7945 48.268 46.7945H41.9594C41.2337 46.7945 40.6754 46.2533 40.7312 45.5497L40.843 41.545H41.5129C41.9036 41.545 42.2944 41.2744 42.4061 40.8414L42.7411 39.5426C42.8527 39.0014 42.4619 38.4602 41.8478 38.4602H23.9272C23.1456 38.4602 22.8666 39.4344 23.4807 39.8673L26.4952 41.7615C24.7089 43.6015 24.3738 46.2533 24.318 47.4439C24.318 47.7686 24.5971 48.0392 24.9321 48.0392H26.2162C26.2162 48.2557 26.1603 48.4721 26.1603 48.6886C26.1603 51.8816 28.84 54.4251 32.078 54.4251C35.1485 54.4251 37.6607 52.1522 37.9957 49.2839C38.2748 49.338 38.4982 49.338 38.7773 49.338H49.9986C50.6685 49.338 51.2826 49.0133 51.7292 48.5262C51.7292 48.5804 51.7292 48.5804 51.7292 48.6345C51.7292 52.0439 54.7439 54.7499 58.3169 54.371C60.8849 54.1004 63.0622 52.0981 63.5088 49.6086C64.0113 47.1733 62.7831 44.9003 60.7733 43.7638ZM32.1897 51.9898C30.2916 51.9898 28.7842 50.5286 28.7842 48.6886C28.7842 48.4721 28.7842 48.2557 28.84 48.0392H30.8498C30.7381 48.2557 30.6823 48.418 30.6823 48.6886C30.6823 49.5004 31.3522 50.0957 32.1339 50.0957C32.9713 50.0957 33.5854 49.4463 33.5854 48.6886C33.5854 48.4721 33.5296 48.2557 33.4179 48.0392H35.4277V48.2015C35.4277 48.3639 35.4835 48.5262 35.4835 48.6886C35.5951 50.5286 34.0878 51.9898 32.1897 51.9898ZM57.7586 51.9898C55.8605 51.9898 54.3531 50.5286 54.3531 48.6886C54.3531 46.8486 55.8605 45.3874 57.7586 45.3874C59.6567 45.3874 61.164 46.8486 61.164 48.6886C61.164 50.5286 59.6009 51.9898 57.7586 51.9898Z" fill="white"/>
<path d="M57.7586 47.2816C56.9212 47.2816 56.3071 47.931 56.3071 48.6886C56.3071 49.5004 56.977 50.0957 57.7586 50.0957C58.596 50.0957 59.2101 49.4463 59.2101 48.6886C59.2101 47.8769 58.5402 47.2816 57.7586 47.2816Z" fill="white"/>
<path d="M24.0954 37.2156H31.2412C31.9111 37.2156 32.4694 36.6744 32.4694 36.025V29.4767C32.4694 28.8273 31.9111 28.2861 31.2412 28.2861H24.0954C23.4254 28.2861 22.8672 28.8273 22.8672 29.4767V36.025C22.8672 36.6744 23.4254 37.2156 24.0954 37.2156Z" fill="white"/>
<path d="M41.2342 19.7354C41.0108 19.6813 40.8992 19.7354 40.8992 19.7354C40.8992 19.7354 40.8434 19.8977 40.955 20.1683C41.1784 20.7636 41.9041 21.4672 42.8531 21.6836C43.9139 21.9542 44.6396 22.0625 45.0863 22.1166C44.9746 21.5213 44.7513 20.7636 44.3047 19.7354C43.8581 19.8436 42.7415 20.0601 41.2342 19.7354Z" fill="white"/>
<path d="M37.6609 23.3613L43.8577 24.7142C44.2485 24.8225 44.5835 24.606 44.7509 24.2813C44.9184 23.8483 45.0859 23.4695 45.1417 23.0366C44.6393 22.9825 43.8577 22.8742 42.6295 22.6036C40.8989 22.2248 39.6707 20.5471 39.8939 19.5189C40.0056 19.0318 40.4522 18.5989 41.4013 18.8153C42.5737 19.0318 43.4669 18.9236 43.9135 18.8695C42.1829 16.0553 37.9958 16.7047 36.7118 18.9236C35.7628 20.493 36.7676 22.3872 37.2142 23.0366C37.2701 23.1989 37.4375 23.3072 37.6609 23.3613Z" fill="white"/>
<path d="M19.1822 35.7544C19.8521 35.7544 20.3546 35.2673 20.3546 34.6179C20.3546 33.9685 19.8521 33.4814 19.1822 33.4814H11.813C11.1431 33.4814 10.6406 33.9685 10.6406 34.6179C10.6406 35.2673 11.1431 35.7544 11.813 35.7544H19.1822Z" fill="white"/>
<path d="M19.9638 40.6792C20.6337 40.6792 21.1362 40.1921 21.1362 39.5427C21.1362 38.8933 20.6337 38.4062 19.9638 38.4062H12.5946C11.9805 38.4062 11.478 38.9474 11.478 39.5427C11.478 40.1921 11.9805 40.6792 12.6504 40.6792H19.9638Z" fill="white"/>
<path d="M20.8018 43.3309H13.4326C12.7627 43.3309 12.2603 43.818 12.2603 44.4674C12.2603 45.1168 12.7627 45.6039 13.4326 45.6039H20.8018C21.4718 45.6039 21.9742 45.1168 21.9742 44.4674C21.9742 43.818 21.4159 43.3309 20.8018 43.3309Z" fill="white"/>
<path d="M111.578 44.28C110.458 44.28 109.471 44.08 108.618 43.68C107.778 43.2667 107.078 42.72 106.518 42.04C105.958 41.36 105.538 40.5733 105.258 39.68C104.978 38.7867 104.838 37.8467 104.838 36.86C104.838 35.8867 104.978 34.9533 105.258 34.06C105.538 33.1533 105.958 32.36 106.518 31.68C107.078 30.9867 107.778 30.44 108.618 30.04C109.471 29.6267 110.458 29.42 111.578 29.42C112.698 29.42 113.678 29.6267 114.518 30.04C115.358 30.44 116.058 30.9867 116.618 31.68C117.178 32.36 117.598 33.1533 117.878 34.06C118.158 34.9533 118.298 35.8867 118.298 36.86C118.298 37.8467 118.158 38.7867 117.878 39.68C117.598 40.5733 117.178 41.36 116.618 42.04C116.058 42.72 115.358 43.2667 114.518 43.68C113.678 44.08 112.698 44.28 111.578 44.28ZM111.578 43.14C112.511 43.14 113.318 42.96 113.998 42.6C114.678 42.24 115.231 41.7667 115.658 41.18C116.098 40.58 116.418 39.9067 116.618 39.16C116.831 38.4133 116.938 37.6467 116.938 36.86C116.938 36.0867 116.831 35.3267 116.618 34.58C116.418 33.82 116.098 33.1467 115.658 32.56C115.231 31.96 114.678 31.48 113.998 31.12C113.318 30.76 112.511 30.58 111.578 30.58C110.631 30.58 109.818 30.76 109.138 31.12C108.458 31.48 107.898 31.96 107.458 32.56C107.031 33.1467 106.711 33.82 106.498 34.58C106.298 35.3267 106.198 36.0867 106.198 36.86C106.198 37.6467 106.298 38.4133 106.498 39.16C106.711 39.9067 107.031 40.58 107.458 41.18C107.898 41.7667 108.458 42.24 109.138 42.6C109.818 42.96 110.631 43.14 111.578 43.14ZM120.182 33.68H121.442V38.98L127.162 33.68H128.842L124.462 37.72L129.102 44H127.522L123.542 38.58L121.442 40.52V44H120.182V33.68ZM134.283 44.28C133.456 44.28 132.75 44.14 132.163 43.86C131.576 43.5667 131.096 43.1733 130.723 42.68C130.35 42.1733 130.07 41.5933 129.883 40.94C129.71 40.2867 129.623 39.5867 129.623 38.84C129.623 38.16 129.71 37.4933 129.883 36.84C130.07 36.1867 130.35 35.6067 130.723 35.1C131.096 34.58 131.576 34.1667 132.163 33.86C132.75 33.54 133.456 33.38 134.283 33.38C135.11 33.38 135.816 33.5467 136.403 33.88C136.99 34.2133 137.463 34.6533 137.823 35.2C138.196 35.7333 138.463 36.3533 138.623 37.06C138.783 37.7533 138.85 38.46 138.823 39.18H130.883C130.883 39.6467 130.943 40.12 131.063 40.6C131.196 41.08 131.403 41.5133 131.683 41.9C131.963 42.2867 132.316 42.6067 132.743 42.86C133.17 43.1133 133.683 43.24 134.283 43.24C135.203 43.24 135.923 43 136.443 42.52C136.963 42.04 137.323 41.4 137.523 40.6H138.783C138.516 41.7733 138.023 42.68 137.303 43.32C136.596 43.96 135.59 44.28 134.283 44.28ZM137.563 38.12C137.55 37.64 137.463 37.18 137.303 36.74C137.156 36.3 136.943 35.9133 136.663 35.58C136.383 35.2333 136.043 34.96 135.643 34.76C135.243 34.5467 134.79 34.44 134.283 34.44C133.763 34.44 133.303 34.5467 132.903 34.76C132.503 34.96 132.163 35.2333 131.883 35.58C131.603 35.9133 131.376 36.3067 131.203 36.76C131.043 37.2 130.936 37.6533 130.883 38.12H137.563ZM143.414 44.28C142.934 44.28 142.481 44.22 142.054 44.1C141.641 43.9933 141.274 43.82 140.954 43.58C140.647 43.3267 140.401 43.0133 140.214 42.64C140.041 42.2533 139.954 41.8 139.954 41.28C139.954 40.56 140.114 40 140.434 39.6C140.754 39.1867 141.174 38.8733 141.694 38.66C142.227 38.4467 142.821 38.3 143.474 38.22C144.141 38.1267 144.814 38.04 145.494 37.96C145.747 37.9333 145.974 37.9 146.174 37.86C146.387 37.82 146.561 37.7533 146.694 37.66C146.827 37.5533 146.927 37.4133 146.994 37.24C147.074 37.0667 147.114 36.84 147.114 36.56C147.114 36.1333 147.041 35.7867 146.894 35.52C146.761 35.24 146.567 35.02 146.314 34.86C146.074 34.7 145.787 34.5933 145.454 34.54C145.134 34.4733 144.787 34.44 144.414 34.44C143.614 34.44 142.961 34.6333 142.454 35.02C141.947 35.3933 141.681 36 141.654 36.84H140.394C140.474 35.6267 140.887 34.7467 141.634 34.2C142.394 33.6533 143.374 33.38 144.574 33.38C145.027 33.38 145.481 33.4267 145.934 33.52C146.387 33.6 146.794 33.76 147.154 34C147.514 34.24 147.807 34.58 148.034 35.02C148.261 35.4467 148.374 36.0067 148.374 36.7V42.18C148.374 42.6867 148.621 42.94 149.114 42.94C149.274 42.94 149.407 42.9133 149.514 42.86V43.92C149.367 43.9467 149.234 43.9667 149.114 43.98C149.007 43.9933 148.867 44 148.694 44C148.374 44 148.114 43.96 147.914 43.88C147.727 43.7867 147.581 43.66 147.474 43.5C147.367 43.34 147.294 43.1533 147.254 42.94C147.227 42.7133 147.214 42.4667 147.214 42.2H147.174C146.947 42.5333 146.714 42.8333 146.474 43.1C146.247 43.3533 145.987 43.5667 145.694 43.74C145.414 43.9133 145.087 44.0467 144.714 44.14C144.341 44.2333 143.907 44.28 143.414 44.28ZM143.514 43.24C143.994 43.24 144.454 43.1667 144.894 43.02C145.334 42.8733 145.714 42.66 146.034 42.38C146.367 42.1 146.627 41.76 146.814 41.36C147.014 40.96 147.114 40.5067 147.114 40V38.36H147.074C146.994 38.5067 146.841 38.6133 146.614 38.68C146.387 38.7467 146.187 38.7933 146.014 38.82C145.481 38.9133 144.927 39 144.354 39.08C143.794 39.1467 143.281 39.2533 142.814 39.4C142.347 39.5467 141.961 39.76 141.654 40.04C141.361 40.32 141.214 40.7067 141.214 41.2C141.214 41.52 141.274 41.8067 141.394 42.06C141.527 42.3 141.701 42.5133 141.914 42.7C142.127 42.8733 142.367 43.0067 142.634 43.1C142.914 43.1933 143.207 43.24 143.514 43.24ZM150.865 33.68H152.125V38.06H157.985V33.68H159.245V44H157.985V39.12H152.125V44H150.865V33.68ZM171.654 44.28C170.707 44.28 169.927 44.1067 169.314 43.76C168.7 43.4133 168.214 42.9533 167.854 42.38C167.494 41.8067 167.24 41.1467 167.094 40.4C166.947 39.6533 166.874 38.88 166.874 38.08C166.874 37.5867 166.894 37.0733 166.934 36.54C166.974 35.9933 167.04 35.46 167.134 34.94C167.24 34.4067 167.374 33.9 167.534 33.42C167.694 32.94 167.9 32.5067 168.154 32.12C168.62 31.4 169.18 30.8867 169.834 30.58C170.487 30.2733 171.307 30.0867 172.294 30.02L173.254 29.96C173.787 29.9333 174.147 29.88 174.334 29.8C174.52 29.72 174.654 29.5933 174.734 29.42H176.134C176.027 30.0333 175.754 30.4533 175.314 30.68C174.887 30.8933 174.234 31.0267 173.354 31.08L171.834 31.18C170.66 31.26 169.767 31.68 169.154 32.44C168.54 33.2 168.12 34.38 167.894 35.98H167.954C168.3 35.2867 168.814 34.7333 169.494 34.32C170.174 33.8933 170.934 33.68 171.774 33.68C172.467 33.68 173.094 33.8 173.654 34.04C174.227 34.28 174.72 34.6267 175.134 35.08C175.547 35.5333 175.867 36.0867 176.094 36.74C176.32 37.3933 176.434 38.1267 176.434 38.94C176.434 39.74 176.32 40.4733 176.094 41.14C175.867 41.7933 175.54 42.3533 175.114 42.82C174.7 43.2867 174.2 43.6467 173.614 43.9C173.027 44.1533 172.374 44.28 171.654 44.28ZM171.654 43.24C172.16 43.24 172.627 43.14 173.054 42.94C173.494 42.7267 173.867 42.4333 174.174 42.06C174.494 41.6733 174.74 41.22 174.914 40.7C175.087 40.1667 175.174 39.58 175.174 38.94C175.174 38.3133 175.087 37.74 174.914 37.22C174.74 36.7 174.494 36.26 174.174 35.9C173.867 35.5267 173.5 35.24 173.074 35.04C172.66 34.8267 172.207 34.72 171.714 34.72C171.18 34.72 170.694 34.82 170.254 35.02C169.814 35.22 169.434 35.5067 169.114 35.88C168.807 36.24 168.567 36.68 168.394 37.2C168.22 37.72 168.134 38.3 168.134 38.94C168.134 39.58 168.22 40.1667 168.394 40.7C168.567 41.22 168.807 41.6733 169.114 42.06C169.434 42.4333 169.807 42.7267 170.234 42.94C170.674 43.14 171.147 43.24 171.654 43.24ZM178.187 44.1C178.12 44.1 178.04 44.0933 177.947 44.08C177.854 44.0667 177.754 44.0533 177.647 44.04C177.554 44.0267 177.46 44.0133 177.367 44C177.287 43.9733 177.227 43.9533 177.187 43.94V42.84C177.294 42.88 177.454 42.9133 177.667 42.94C177.88 42.9667 178.06 42.98 178.207 42.98C178.34 42.98 178.487 42.96 178.647 42.92C178.807 42.88 178.967 42.7733 179.127 42.6C179.287 42.4133 179.44 42.1267 179.587 41.74C179.734 41.3533 179.86 40.82 179.967 40.14C180.074 39.4467 180.16 38.58 180.227 37.54C180.294 36.4867 180.327 35.2 180.327 33.68H187.227V44H185.967V34.74H181.547C181.547 36.2333 181.5 37.5 181.407 38.54C181.327 39.58 181.207 40.4467 181.047 41.14C180.887 41.8333 180.7 42.38 180.487 42.78C180.274 43.18 180.04 43.48 179.787 43.68C179.547 43.8667 179.287 43.98 179.007 44.02C178.74 44.0733 178.467 44.1 178.187 44.1ZM189.596 33.68H190.856V42.52L196.556 33.68H198.116V44H196.856V35.16L191.156 44H189.596V33.68ZM203.614 38L199.594 33.68H201.294L206.034 38.96V33.68H207.294V38.94L212.034 33.68H213.734L209.714 38L214.174 44H212.634L208.834 38.84L207.294 40.44V44H206.034V40.44L204.494 38.84L200.694 44H199.154L203.614 38ZM219.381 44.28C218.554 44.28 217.847 44.14 217.261 43.86C216.674 43.5667 216.194 43.1733 215.821 42.68C215.447 42.1733 215.167 41.5933 214.981 40.94C214.807 40.2867 214.721 39.5867 214.721 38.84C214.721 38.16 214.807 37.4933 214.981 36.84C215.167 36.1867 215.447 35.6067 215.821 35.1C216.194 34.58 216.674 34.1667 217.261 33.86C217.847 33.54 218.554 33.38 219.381 33.38C220.207 33.38 220.914 33.5467 221.501 33.88C222.087 34.2133 222.561 34.6533 222.921 35.2C223.294 35.7333 223.561 36.3533 223.721 37.06C223.881 37.7533 223.947 38.46 223.921 39.18H215.981C215.981 39.6467 216.041 40.12 216.161 40.6C216.294 41.08 216.501 41.5133 216.781 41.9C217.061 42.2867 217.414 42.6067 217.841 42.86C218.267 43.1133 218.781 43.24 219.381 43.24C220.301 43.24 221.021 43 221.541 42.52C222.061 42.04 222.421 41.4 222.621 40.6H223.881C223.614 41.7733 223.121 42.68 222.401 43.32C221.694 43.96 220.687 44.28 219.381 44.28ZM222.661 38.12C222.647 37.64 222.561 37.18 222.401 36.74C222.254 36.3 222.041 35.9133 221.761 35.58C221.481 35.2333 221.141 34.96 220.741 34.76C220.341 34.5467 219.887 34.44 219.381 34.44C218.861 34.44 218.401 34.5467 218.001 34.76C217.601 34.96 217.261 35.2333 216.981 35.58C216.701 35.9133 216.474 36.3067 216.301 36.76C216.141 37.2 216.034 37.6533 215.981 38.12H222.661ZM228.032 41.88H226.352V44H227.192C227.205 44.1467 227.192 44.3133 227.152 44.5C227.125 44.7 227.072 44.8867 226.992 45.06C226.912 45.2467 226.812 45.4133 226.692 45.56C226.572 45.7067 226.432 45.8067 226.272 45.86V46.72C226.565 46.64 226.818 46.5067 227.032 46.32C227.258 46.1333 227.445 45.9133 227.592 45.66C227.738 45.42 227.845 45.1533 227.912 44.86C227.992 44.58 228.032 44.2933 228.032 44V41.88ZM243.064 39.5C242.864 39.58 242.631 39.66 242.364 39.74C242.111 39.8067 241.831 39.8733 241.524 39.94C241.231 39.9933 240.924 40.04 240.604 40.08C240.284 40.1067 239.964 40.12 239.644 40.12C238.604 40.12 237.798 39.8667 237.224 39.36C236.664 38.8533 236.384 38 236.384 36.8V33.68H237.644V36.94C237.644 37.4467 237.711 37.84 237.844 38.12C237.991 38.3867 238.171 38.5867 238.384 38.72C238.611 38.84 238.858 38.9133 239.124 38.94C239.391 38.9667 239.651 38.98 239.904 38.98C240.451 38.98 241.018 38.92 241.604 38.8C242.204 38.6667 242.691 38.52 243.064 38.36V33.68H244.324V44H243.064V39.5ZM250.845 44.28C250.019 44.28 249.312 44.14 248.725 43.86C248.139 43.5667 247.659 43.1733 247.285 42.68C246.912 42.1733 246.632 41.5933 246.445 40.94C246.272 40.2867 246.185 39.5867 246.185 38.84C246.185 38.16 246.272 37.4933 246.445 36.84C246.632 36.1867 246.912 35.6067 247.285 35.1C247.659 34.58 248.139 34.1667 248.725 33.86C249.312 33.54 250.019 33.38 250.845 33.38C251.672 33.38 252.379 33.5467 252.965 33.88C253.552 34.2133 254.025 34.6533 254.385 35.2C254.759 35.7333 255.025 36.3533 255.185 37.06C255.345 37.7533 255.412 38.46 255.385 39.18H247.445C247.445 39.6467 247.505 40.12 247.625 40.6C247.759 41.08 247.965 41.5133 248.245 41.9C248.525 42.2867 248.879 42.6067 249.305 42.86C249.732 43.1133 250.245 43.24 250.845 43.24C251.765 43.24 252.485 43 253.005 42.52C253.525 42.04 253.885 41.4 254.085 40.6H255.345C255.079 41.7733 254.585 42.68 253.865 43.32C253.159 43.96 252.152 44.28 250.845 44.28ZM254.125 38.12C254.112 37.64 254.025 37.18 253.865 36.74C253.719 36.3 253.505 35.9133 253.225 35.58C252.945 35.2333 252.605 34.96 252.205 34.76C251.805 34.5467 251.352 34.44 250.845 34.44C250.325 34.44 249.865 34.5467 249.465 34.76C249.065 34.96 248.725 35.2333 248.445 35.58C248.165 35.9133 247.939 36.3067 247.765 36.76C247.605 37.2 247.499 37.6533 247.445 38.12H254.125ZM257.056 33.68H258.736L262.576 42.58L266.376 33.68H268.056V44H266.796V35.5H266.736L263.116 44H261.996L258.376 35.5H258.316V44H257.056V33.68ZM278.602 34.74H274.782V33.68H283.682V34.74H279.862V44H278.602V34.74ZM284.849 33.68H286.109V37.82H289.449C290.449 37.82 291.243 38.0867 291.829 38.62C292.416 39.1533 292.709 39.9067 292.709 40.88C292.709 41.8533 292.416 42.62 291.829 43.18C291.243 43.7267 290.449 44 289.449 44H284.849V33.68ZM289.149 42.94C289.869 42.94 290.429 42.7667 290.829 42.42C291.243 42.0733 291.449 41.56 291.449 40.88C291.449 40.2 291.243 39.7 290.829 39.38C290.429 39.0467 289.869 38.88 289.149 38.88H286.109V42.94H289.149ZM294.649 33.68H295.909V44H294.649V33.68ZM302.774 42.94H303.994C304.487 42.02 304.847 40.9267 305.074 39.66C305.3 38.3933 305.414 36.8533 305.414 35.04V33.68H312.354V42.94H313.894V47.28H312.634V44H304.034V47.28H302.774V42.94ZM311.094 42.94V34.74H306.634V35.46C306.634 37.1933 306.507 38.6867 306.254 39.94C306 41.18 305.68 42.18 305.294 42.94H311.094ZM316.08 47.8C315.827 47.7867 315.627 47.7733 315.48 47.76C315.347 47.76 315.227 47.74 315.12 47.7V46.64C315.267 46.6667 315.407 46.6867 315.54 46.7C315.687 46.7267 315.833 46.74 315.98 46.74C316.26 46.74 316.487 46.7 316.66 46.62C316.847 46.54 317.007 46.4267 317.14 46.28C317.273 46.1467 317.387 45.98 317.48 45.78C317.573 45.58 317.673 45.36 317.78 45.12L318.22 43.96L314.1 33.68H315.44L318.84 42.48L322.02 33.68H323.28L318.8 45.56C318.613 46 318.44 46.36 318.28 46.64C318.12 46.9333 317.94 47.16 317.74 47.32C317.553 47.4933 317.327 47.6133 317.06 47.68C316.807 47.76 316.48 47.8 316.08 47.8ZM324.498 33.68H326.178L330.018 42.58L333.818 33.68H335.498V44H334.238V35.5H334.178L330.558 44H329.438L325.818 35.5H325.758V44H324.498V33.68ZM340.777 44.28C340.297 44.28 339.844 44.22 339.417 44.1C339.004 43.9933 338.637 43.82 338.317 43.58C338.011 43.3267 337.764 43.0133 337.577 42.64C337.404 42.2533 337.317 41.8 337.317 41.28C337.317 40.56 337.477 40 337.797 39.6C338.117 39.1867 338.537 38.8733 339.057 38.66C339.591 38.4467 340.184 38.3 340.837 38.22C341.504 38.1267 342.177 38.04 342.857 37.96C343.111 37.9333 343.337 37.9 343.537 37.86C343.751 37.82 343.924 37.7533 344.057 37.66C344.191 37.5533 344.291 37.4133 344.357 37.24C344.437 37.0667 344.477 36.84 344.477 36.56C344.477 36.1333 344.404 35.7867 344.257 35.52C344.124 35.24 343.931 35.02 343.677 34.86C343.437 34.7 343.151 34.5933 342.817 34.54C342.497 34.4733 342.151 34.44 341.777 34.44C340.977 34.44 340.324 34.6333 339.817 35.02C339.311 35.3933 339.044 36 339.017 36.84H337.757C337.837 35.6267 338.251 34.7467 338.997 34.2C339.757 33.6533 340.737 33.38 341.937 33.38C342.391 33.38 342.844 33.4267 343.297 33.52C343.751 33.6 344.157 33.76 344.517 34C344.877 34.24 345.171 34.58 345.397 35.02C345.624 35.4467 345.737 36.0067 345.737 36.7V42.18C345.737 42.6867 345.984 42.94 346.477 42.94C346.637 42.94 346.771 42.9133 346.877 42.86V43.92C346.731 43.9467 346.597 43.9667 346.477 43.98C346.371 43.9933 346.231 44 346.057 44C345.737 44 345.477 43.96 345.277 43.88C345.091 43.7867 344.944 43.66 344.837 43.5C344.731 43.34 344.657 43.1533 344.617 42.94C344.591 42.7133 344.577 42.4667 344.577 42.2H344.537C344.311 42.5333 344.077 42.8333 343.837 43.1C343.611 43.3533 343.351 43.5667 343.057 43.74C342.777 43.9133 342.451 44.0467 342.077 44.14C341.704 44.2333 341.271 44.28 340.777 44.28ZM340.877 43.24C341.357 43.24 341.817 43.1667 342.257 43.02C342.697 42.8733 343.077 42.66 343.397 42.38C343.731 42.1 343.991 41.76 344.177 41.36C344.377 40.96 344.477 40.5067 344.477 40V38.36H344.437C344.357 38.5067 344.204 38.6133 343.977 38.68C343.751 38.7467 343.551 38.7933 343.377 38.82C342.844 38.9133 342.291 39 341.717 39.08C341.157 39.1467 340.644 39.2533 340.177 39.4C339.711 39.5467 339.324 39.76 339.017 40.04C338.724 40.32 338.577 40.7067 338.577 41.2C338.577 41.52 338.637 41.8067 338.757 42.06C338.891 42.3 339.064 42.5133 339.277 42.7C339.491 42.8733 339.731 43.0067 339.997 43.1C340.277 43.1933 340.571 43.24 340.877 43.24ZM352.388 44.28C351.562 44.28 350.855 44.14 350.268 43.86C349.682 43.5667 349.202 43.1733 348.828 42.68C348.455 42.1733 348.175 41.5933 347.988 40.94C347.815 40.2867 347.728 39.5867 347.728 38.84C347.728 38.16 347.815 37.4933 347.988 36.84C348.175 36.1867 348.455 35.6067 348.828 35.1C349.202 34.58 349.682 34.1667 350.268 33.86C350.855 33.54 351.562 33.38 352.388 33.38C353.215 33.38 353.922 33.5467 354.508 33.88C355.095 34.2133 355.568 34.6533 355.928 35.2C356.302 35.7333 356.568 36.3533 356.728 37.06C356.888 37.7533 356.955 38.46 356.928 39.18H348.988C348.988 39.6467 349.048 40.12 349.168 40.6C349.302 41.08 349.508 41.5133 349.788 41.9C350.068 42.2867 350.422 42.6067 350.848 42.86C351.275 43.1133 351.788 43.24 352.388 43.24C353.308 43.24 354.028 43 354.548 42.52C355.068 42.04 355.428 41.4 355.628 40.6H356.888C356.622 41.7733 356.128 42.68 355.408 43.32C354.702 43.96 353.695 44.28 352.388 44.28ZM355.668 38.12C355.655 37.64 355.568 37.18 355.408 36.74C355.262 36.3 355.048 35.9133 354.768 35.58C354.488 35.2333 354.148 34.96 353.748 34.76C353.348 34.5467 352.895 34.44 352.388 34.44C351.868 34.44 351.408 34.5467 351.008 34.76C350.608 34.96 350.268 35.2333 349.988 35.58C349.708 35.9133 349.482 36.3067 349.308 36.76C349.148 37.2 349.042 37.6533 348.988 38.12H355.668ZM358.599 33.68H359.859V42.94H364.619V33.68H365.879V42.94H370.639V33.68H371.899V44H358.599V33.68ZM374.363 33.68H375.623V37.82H379.323C380.323 37.82 381.117 38.0867 381.703 38.62C382.29 39.1533 382.583 39.9067 382.583 40.88C382.583 41.8533 382.29 42.62 381.703 43.18C381.117 43.7267 380.323 44 379.323 44H374.363V33.68ZM379.023 42.94C379.743 42.94 380.303 42.7667 380.703 42.42C381.117 42.0733 381.323 41.56 381.323 40.88C381.323 40.2 381.117 39.7 380.703 39.38C380.303 39.0467 379.743 38.88 379.023 38.88H375.623V42.94H379.023Z" fill="white"/>
</svg>
