<svg width="424" height="79" viewBox="0 0 424 79" fill="none" xmlns="http://www.w3.org/2000/svg">
<path d="M15.088 19.144C13.4753 22.7793 11.193 24.9387 8.241 25.622C7.88567 25.704 7.53033 25.745 7.175 25.745C5.617 25.745 4.04533 24.8977 2.46 23.203C1.394 22.055 0.861 20.5653 0.861 18.734C0.861 16.7113 1.46233 14.5383 2.665 12.215C3.18433 11.231 3.813 10.3837 4.551 9.673C5.39833 8.82567 6.20467 8.402 6.97 8.402C7.40733 8.402 7.81733 8.566 8.2 8.894C8.58267 9.222 9.60767 9.65933 11.275 10.206C12.587 10.6433 13.5163 11.3813 14.063 12.42C15.0197 14.2513 15.498 15.823 15.498 17.135C15.498 17.873 15.3613 18.5427 15.088 19.144ZM11.808 16.602C11.6167 14.6067 11.0837 13.4177 10.209 13.035C10.0723 12.9803 9.94933 12.953 9.84 12.953C9.512 12.953 9.102 13.2263 8.61 13.773C8.06333 14.4017 7.63967 14.7707 7.339 14.88C7.14767 14.962 6.87433 14.88 6.519 14.634C6.16367 14.388 5.93133 14.265 5.822 14.265C5.74 14.265 5.67167 14.2923 5.617 14.347C4.66033 15.167 4.182 16.438 4.182 18.16C4.182 19.3353 4.45533 20.333 5.002 21.153C5.76733 22.2737 6.40967 22.834 6.929 22.834C8.13167 22.834 9.29333 22.0823 10.414 20.579C11.48 19.1577 11.9447 17.832 11.808 16.602ZM17.1704 2.498H18.1954C19.562 2.498 20.2454 3.728 20.2454 6.188C20.382 7.52733 20.4504 9.222 20.4504 11.272V12.297C20.6144 12.297 23.1974 9.509 28.1994 3.933H29.2244C29.935 3.933 30.3997 4.20633 30.6184 4.753C30.6184 6.03767 27.6254 9.837 21.6394 16.151L21.2294 16.971C25.5754 19.185 28.91 21.44 31.2334 23.736V24.105C31.2334 25.0617 30.427 25.54 28.8144 25.54C28.295 24.9933 25.5754 23.2987 20.6554 20.456V20.661C20.7647 23.6403 20.8194 25.8817 20.8194 27.385C20.3274 27.795 19.8627 28 19.4254 28C17.7854 28 16.9654 26.1687 16.9654 22.506V9.632C16.9654 8.21067 16.8287 5.96933 16.5554 2.908L17.1704 2.498ZM45.0254 2.703H45.4354C46.884 2.703 47.7314 3.33166 47.9774 4.589V5.245C47.9227 5.43633 44.752 6.557 38.4654 8.607C38.3287 9.12633 38.2604 10.6707 38.2604 13.24C38.5064 13.3767 38.7934 13.445 39.1214 13.445C42.0734 13.1717 43.686 13.035 43.9594 13.035C45.3534 13.2263 46.0504 13.855 46.0504 14.921C46.0504 15.905 43.6724 16.5337 38.9164 16.807C37.7684 16.807 37.1944 18.6383 37.1944 22.301C37.1944 23.859 38.3287 24.638 40.5974 24.638C40.5974 24.7747 41.0894 24.843 42.0734 24.843H44.5744C45.0937 24.4057 45.5857 24.187 46.0504 24.187C46.8977 24.4877 47.3214 25.2667 47.3214 26.524V26.934C47.3214 27.1253 46.966 27.4807 46.2554 28H43.0984C38.6977 28 35.896 27.221 34.6934 25.663C33.9827 24.843 33.6274 23.7223 33.6274 22.301V17.053L32.7664 15.987V15.331C33.7504 14.6477 34.2424 13.5953 34.2424 12.174V10.083C32.8484 9.70033 32.1514 9.27667 32.1514 8.812V8.197C32.1514 6.311 36.4427 4.47966 45.0254 2.703ZM64.4754 26.032C64.6394 26.4693 64.7214 26.852 64.7214 27.18C64.7214 27.7267 64.4891 28.205 64.0244 28.615C63.5597 29.025 63.2454 29.2163 63.0814 29.189C61.742 28.943 60.8947 27.8633 60.5394 25.95C60.1567 23.8727 59.7057 22.137 59.1864 20.743C58.257 20.825 57.3277 20.907 56.3984 20.989C55.3324 21.1257 54.4987 21.4537 53.8974 21.973C53.5967 22.8203 53.2004 24.3237 52.7084 26.483C52.2437 28.4783 51.7927 29.9953 51.3554 31.034C51.1367 31.526 50.672 31.6627 49.9614 31.444C49.0594 31.1433 48.581 30.7333 48.5264 30.214C48.4444 29.1753 48.745 27.7813 49.4284 26.032C50.2484 24.0367 50.6994 22.6153 50.7814 21.768C50.8087 21.522 50.631 21.2487 50.2484 20.948C49.8657 20.6473 49.6744 20.415 49.6744 20.251C49.6744 20.1143 49.729 19.9777 49.8384 19.841C49.975 19.677 50.262 19.554 50.6994 19.472C51.164 19.3627 51.4237 19.2123 51.4784 19.021C51.9704 17.6543 52.7494 15.1123 53.8154 11.395C54.7174 8.16967 55.5237 5.696 56.2344 3.974C56.3984 3.59133 56.74 3.4 57.2594 3.4C57.642 3.4 57.9837 3.523 58.2844 3.769C59.0497 4.425 59.5417 5.409 59.7604 6.721C59.9244 7.84167 60.0747 8.96233 60.2114 10.083C61.5781 16.5337 62.9994 21.85 64.4754 26.032ZM58.4894 18.201C58.4074 17.1897 58.2297 16.0553 57.9564 14.798C57.6831 13.7047 57.4234 12.6113 57.1774 11.518C56.3574 13.7867 55.6467 16.0553 55.0454 18.324C55.4827 18.242 56.6307 18.201 58.4894 18.201ZM79.9932 5.081C79.9386 7.51367 79.5422 11.3677 78.8042 16.643C78.1209 21.645 77.7792 25.4853 77.7792 28.164C77.7792 29.0113 77.8066 29.8177 77.8612 30.583C77.8612 30.7743 77.7792 30.952 77.6152 31.116C77.4512 31.3073 77.2599 31.403 77.0412 31.403C76.2759 31.403 75.7702 31.3347 75.5242 31.198C74.4856 30.5967 73.9662 29.4623 73.9662 27.795C73.9662 27.467 73.9799 26.9613 74.0072 26.278C74.0619 25.5673 74.0892 25.048 74.0892 24.72C74.0892 24.1733 74.1576 23.3397 74.2942 22.219C74.4309 21.0983 74.4992 20.2373 74.4992 19.636C74.1166 19.6633 73.5836 19.6087 72.9002 19.472C72.2442 19.3353 71.7659 19.267 71.4652 19.267C71.1099 19.267 70.7682 19.3217 70.4402 19.431C69.7842 21.5903 69.4016 24.7747 69.2922 28.984C68.3629 29.3667 67.4609 29.3257 66.5862 28.861C65.9576 28.533 65.6432 27.877 65.6432 26.893C65.6432 26.6743 65.6569 26.3873 65.6842 26.032C65.7389 25.6493 65.7662 25.417 65.7662 25.335C65.8482 23.859 66.1626 20.9343 66.7092 16.561C67.1739 12.8983 67.3926 9.98733 67.3652 7.828C67.3652 7.52733 67.5702 7.336 67.9802 7.254C68.4176 7.172 68.6636 7.09 68.7182 7.008C68.8822 7.19933 69.2786 7.36333 69.9072 7.5C70.4266 7.60933 70.7409 7.85533 70.8502 8.238C71.0689 8.92133 71.1782 9.68667 71.1782 10.534C71.1782 11.1353 71.0826 12.092 70.8912 13.404C70.7272 14.6887 70.6452 15.6727 70.6452 16.356C70.9732 16.602 71.3832 16.7523 71.8752 16.807C72.2032 16.8617 72.6679 16.8753 73.2692 16.848C74.0619 16.7933 74.5402 16.766 74.7042 16.766C75.3876 13.896 75.9889 10.1787 76.5082 5.614C76.6176 4.65733 76.9592 4.179 77.5332 4.179C78.9819 4.04233 79.8019 4.343 79.9932 5.081ZM105.505 3.564H105.669C106.271 3.564 106.708 3.83733 106.981 4.384V4.548C106.981 6.844 106.544 11.5453 105.669 18.652L106.489 18.488C107.145 18.488 107.583 18.816 107.801 19.472C107.692 21.8773 107.637 23.6813 107.637 24.884H107.473L107.637 25.212V27.016C107.637 27.18 107.419 27.3987 106.981 27.672H106.653C105.287 27.672 104.521 26.7973 104.357 25.048V22.588H104.193C103.373 22.588 100.312 23.3533 95.0095 24.884V27.508C95.0095 27.672 94.8455 27.836 94.5175 28H93.6975C92.4948 28 91.8935 27.508 91.8935 26.524V25.376L91.7295 23.736H91.8935L91.7295 23.408C91.7568 23.2167 92.9595 22.6153 95.3375 21.604C95.9935 17.504 96.4855 12.42 96.8135 6.352C102.061 4.49333 104.959 3.564 105.505 3.564ZM99.9295 8.976C99.4922 15.208 99.1095 19.0893 98.7815 20.62H98.9455C100.749 20.0733 101.843 19.8 102.225 19.8C102.225 19.5267 102.717 15.4267 103.701 7.5H103.537C101.159 8.21067 99.9568 8.648 99.9295 8.812V8.976ZM123.234 19.144C121.621 22.7793 119.339 24.9387 116.387 25.622C116.031 25.704 115.676 25.745 115.321 25.745C113.763 25.745 112.191 24.8977 110.606 23.203C109.54 22.055 109.007 20.5653 109.007 18.734C109.007 16.7113 109.608 14.5383 110.811 12.215C111.33 11.231 111.959 10.3837 112.697 9.673C113.544 8.82567 114.35 8.402 115.116 8.402C115.553 8.402 115.963 8.566 116.346 8.894C116.728 9.222 117.753 9.65933 119.421 10.206C120.733 10.6433 121.662 11.3813 122.209 12.42C123.165 14.2513 123.644 15.823 123.644 17.135C123.644 17.873 123.507 18.5427 123.234 19.144ZM119.954 16.602C119.762 14.6067 119.229 13.4177 118.355 13.035C118.218 12.9803 118.095 12.953 117.986 12.953C117.658 12.953 117.248 13.2263 116.756 13.773C116.209 14.4017 115.785 14.7707 115.485 14.88C115.293 14.962 115.02 14.88 114.665 14.634C114.309 14.388 114.077 14.265 113.968 14.265C113.886 14.265 113.817 14.2923 113.763 14.347C112.806 15.167 112.328 16.438 112.328 18.16C112.328 19.3353 112.601 20.333 113.148 21.153C113.913 22.2737 114.555 22.834 115.075 22.834C116.277 22.834 117.439 22.0823 118.56 20.579C119.626 19.1577 120.09 17.832 119.954 16.602ZM136.263 3.277C136.263 4.015 135.771 4.47967 134.787 4.671C133.502 4.917 132.71 5.204 132.409 5.532C129.348 8.75733 127.817 12.9257 127.817 18.037C127.817 20.4423 128.2 22.711 128.965 24.843C129.594 26.5923 130.045 27.7403 130.318 28.287C131.001 29.6263 131.835 30.583 132.819 31.157C133.229 31.3483 133.639 31.526 134.049 31.69C134.486 31.936 134.705 32.2777 134.705 32.715C134.705 33.1523 134.555 33.5487 134.254 33.904C133.981 34.2593 133.68 34.396 133.352 34.314C132.997 34.2593 132.45 34.0817 131.712 33.781C130.4 33.0157 128.979 31.3893 127.448 28.902C127.065 28.2733 126.669 27.631 126.259 26.975C125.876 26.2917 125.589 25.6493 125.398 25.048C125.261 24.6107 125.029 22.8477 124.701 19.759C124.592 18.8023 124.537 17.873 124.537 16.971C124.537 12.133 125.945 8.01933 128.76 4.63C130.4 2.662 132.108 1.678 133.885 1.678C134.65 1.678 135.347 1.91033 135.976 2.375C136.167 2.51167 136.263 2.81233 136.263 3.277ZM156.303 2.457C156.057 3.441 155.593 4.015 154.909 4.179C153.133 4.61633 150.044 5.19033 145.643 5.901C145.097 12.707 144.823 18.3787 144.823 22.916C144.823 24.638 144.851 26.3327 144.905 28C144.933 28.5193 144.905 28.9157 144.823 29.189C144.687 29.6263 144.413 29.8313 144.003 29.804C143.211 29.7767 142.555 29.435 142.035 28.779C141.516 28.1503 141.229 27.4397 141.174 26.647C141.12 25.6357 141.092 24.5697 141.092 23.449C141.092 21.645 141.215 18.7887 141.461 14.88C141.707 11.1353 141.817 8.279 141.789 6.311C141.051 6.25633 140.026 6.32467 138.714 6.516C137.211 6.73467 136.172 6.844 135.598 6.844C134.259 6.844 133.166 6.48867 132.318 5.778C131.99 5.06733 131.826 4.69833 131.826 4.671C131.826 4.47967 131.922 4.27467 132.113 4.056C132.988 3.75533 134.778 3.482 137.484 3.236C139.862 2.99 141.639 2.55267 142.814 1.924C143.771 2.22467 144.864 2.375 146.094 2.375C147.324 2.375 148.5 2.22467 149.62 1.924C149.948 1.89667 150.782 1.70533 152.121 1.35C153.105 1.104 153.925 1.022 154.581 1.104C155.073 1.104 155.278 1.309 155.196 1.719C155.934 1.719 156.303 1.965 156.303 2.457ZM166.815 26.032C166.979 26.4693 167.061 26.852 167.061 27.18C167.061 27.7267 166.829 28.205 166.364 28.615C165.9 29.025 165.585 29.2163 165.421 29.189C164.082 28.943 163.235 27.8633 162.879 25.95C162.497 23.8727 162.046 22.137 161.526 20.743C160.597 20.825 159.668 20.907 158.738 20.989C157.672 21.1257 156.839 21.4537 156.237 21.973C155.937 22.8203 155.54 24.3237 155.048 26.483C154.584 28.4783 154.133 29.9953 153.695 31.034C153.477 31.526 153.012 31.6627 152.301 31.444C151.399 31.1433 150.921 30.7333 150.866 30.214C150.784 29.1753 151.085 27.7813 151.768 26.032C152.588 24.0367 153.039 22.6153 153.121 21.768C153.149 21.522 152.971 21.2487 152.588 20.948C152.206 20.6473 152.014 20.415 152.014 20.251C152.014 20.1143 152.069 19.9777 152.178 19.841C152.315 19.677 152.602 19.554 153.039 19.472C153.504 19.3627 153.764 19.2123 153.818 19.021C154.31 17.6543 155.089 15.1123 156.155 11.395C157.057 8.16967 157.864 5.696 158.574 3.974C158.738 3.59133 159.08 3.4 159.599 3.4C159.982 3.4 160.324 3.523 160.624 3.769C161.39 4.425 161.882 5.409 162.1 6.721C162.264 7.84167 162.415 8.96233 162.551 10.083C163.918 16.5337 165.339 21.85 166.815 26.032ZM160.829 18.201C160.747 17.1897 160.57 16.0553 160.296 14.798C160.023 13.7047 159.763 12.6113 159.517 11.518C158.697 13.7867 157.987 16.0553 157.385 18.324C157.823 18.242 158.971 18.201 160.829 18.201ZM182.374 10.165C182.019 11.641 181.117 12.9803 179.668 14.183C178.274 15.167 176.88 16.1373 175.486 17.094C175.568 17.504 175.841 17.8183 176.306 18.037C176.798 18.2283 177.263 18.4197 177.7 18.611C179.969 20.087 181.103 21.8363 181.103 23.859C181.103 25.417 180.57 26.852 179.504 28.164C178.684 29.1753 177.468 30.173 175.855 31.157C174.543 31.9223 173.231 32.6877 171.919 33.453C171.591 33.6443 171.236 33.74 170.853 33.74C169.951 33.74 169.322 33.371 168.967 32.633C169.022 30.337 169.076 28.0547 169.131 25.786C169.186 23.0527 169.336 20.7977 169.582 19.021C169.008 18.6383 168.721 18.201 168.721 17.709C168.721 17.463 168.817 17.2443 169.008 17.053C169.227 16.8343 169.514 16.602 169.869 16.356C170.197 12.2013 170.265 8.37467 170.074 4.876C168.789 4.63 167.942 4.056 167.532 3.154C167.505 3.04467 167.546 2.88067 167.655 2.662C167.792 2.44333 167.86 2.26566 167.86 2.129C168.489 1.66433 169.186 1.432 169.951 1.432C170.498 1.432 171.755 1.60967 173.723 1.965C174.734 2.129 175.787 2.498 176.88 3.072C179.832 4.60266 181.568 6.09233 182.087 7.541C182.442 8.57967 182.538 9.45433 182.374 10.165ZM178.52 8.115C178.383 7.10367 177.563 6.32467 176.06 5.778C175.841 5.696 175.5 5.51833 175.035 5.245C174.707 5.02633 174.434 4.917 174.215 4.917C174.106 4.917 173.983 4.94433 173.846 4.999C173.819 5.46367 173.805 5.95567 173.805 6.475C173.805 7.18567 173.86 8.38833 173.969 10.083C174.051 11.641 174.078 12.8573 174.051 13.732C174.242 13.732 174.529 13.5953 174.912 13.322C175.295 13.0213 175.513 12.8573 175.568 12.83C176.388 12.4473 177.112 11.805 177.741 10.903C178.37 10.001 178.629 9.07167 178.52 8.115ZM177.29 24.187C177.345 23.8863 177.372 23.5993 177.372 23.326C177.372 22.506 177.112 21.7817 176.593 21.153C175.199 20.4697 174.311 20.128 173.928 20.128C173.709 20.128 173.504 20.169 173.313 20.251C173.34 20.5243 173.354 20.825 173.354 21.153C173.354 21.727 173.272 22.6153 173.108 23.818C172.971 24.9933 172.903 25.8817 172.903 26.483C172.903 27.3577 173.012 28.1503 173.231 28.861C173.559 28.4783 174.065 28.082 174.748 27.672C175.459 27.2347 175.951 26.852 176.224 26.524C176.716 25.95 177.071 25.171 177.29 24.187ZM184.333 2.498H185.358C186.725 2.498 187.408 3.728 187.408 6.188C187.545 7.52733 187.613 9.222 187.613 11.272V12.297C187.777 12.297 190.36 9.509 195.362 3.933H196.387C197.098 3.933 197.563 4.20633 197.781 4.753C197.781 6.03767 194.788 9.837 188.802 16.151L188.392 16.971C192.738 19.185 196.073 21.44 198.396 23.736V24.105C198.396 25.0617 197.59 25.54 195.977 25.54C195.458 24.9933 192.738 23.2987 187.818 20.456V20.661C187.928 23.6403 187.982 25.8817 187.982 27.385C187.49 27.795 187.026 28 186.588 28C184.948 28 184.128 26.1687 184.128 22.506V9.632C184.128 8.21067 183.992 5.96933 183.718 2.908L184.333 2.498ZM203.455 3.318C203.865 3.50933 204.139 3.83733 204.275 4.302C203.401 10.0967 202.963 15.3447 202.963 20.046L203.291 20.21C207.2 11.4633 209.879 6.65266 211.327 5.778H212.147C212.694 6.07867 212.967 6.40667 212.967 6.762C212.53 10.7253 212.311 14.7707 212.311 18.898V25.622C212.311 27.0433 211.819 27.754 210.835 27.754H209.851C209.687 27.754 209.523 27.59 209.359 27.262V14.142H209.195C205.259 22.342 202.963 26.7153 202.307 27.262C201.897 27.59 201.515 27.754 201.159 27.754H200.339C200.066 27.754 199.902 27.5353 199.847 27.098C200.121 11.4633 200.831 3.646 201.979 3.646C202.69 3.42733 203.182 3.318 203.455 3.318ZM239.509 5.081C239.454 7.51367 239.058 11.3677 238.32 16.643C237.637 21.645 237.295 25.4853 237.295 28.164C237.295 29.0113 237.322 29.8177 237.377 30.583C237.377 30.7743 237.295 30.952 237.131 31.116C236.967 31.3073 236.776 31.403 236.557 31.403C235.792 31.403 235.286 31.3347 235.04 31.198C234.001 30.5967 233.482 29.4623 233.482 27.795C233.482 27.467 233.496 26.9613 233.523 26.278C233.578 25.5673 233.605 25.048 233.605 24.72C233.605 24.1733 233.673 23.3397 233.81 22.219C233.947 21.0983 234.015 20.2373 234.015 19.636C233.632 19.6633 233.099 19.6087 232.416 19.472C231.76 19.3353 231.282 19.267 230.981 19.267C230.626 19.267 230.284 19.3217 229.956 19.431C229.3 21.5903 228.917 24.7747 228.808 28.984C227.879 29.3667 226.977 29.3257 226.102 28.861C225.473 28.533 225.159 27.877 225.159 26.893C225.159 26.6743 225.173 26.3873 225.2 26.032C225.255 25.6493 225.282 25.417 225.282 25.335C225.364 23.859 225.678 20.9343 226.225 16.561C226.69 12.8983 226.908 9.98733 226.881 7.828C226.881 7.52733 227.086 7.336 227.496 7.254C227.933 7.172 228.179 7.09 228.234 7.008C228.398 7.19933 228.794 7.36333 229.423 7.5C229.942 7.60933 230.257 7.85533 230.366 8.238C230.585 8.92133 230.694 9.68667 230.694 10.534C230.694 11.1353 230.598 12.092 230.407 13.404C230.243 14.6887 230.161 15.6727 230.161 16.356C230.489 16.602 230.899 16.7523 231.391 16.807C231.719 16.8617 232.184 16.8753 232.785 16.848C233.578 16.7933 234.056 16.766 234.22 16.766C234.903 13.896 235.505 10.1787 236.024 5.614C236.133 4.65733 236.475 4.179 237.049 4.179C238.498 4.04233 239.318 4.343 239.509 5.081ZM256.903 26.032C257.067 26.4693 257.149 26.852 257.149 27.18C257.149 27.7267 256.917 28.205 256.452 28.615C255.987 29.025 255.673 29.2163 255.509 29.189C254.17 28.943 253.322 27.8633 252.967 25.95C252.584 23.8727 252.133 22.137 251.614 20.743C250.685 20.825 249.755 20.907 248.826 20.989C247.76 21.1257 246.926 21.4537 246.325 21.973C246.024 22.8203 245.628 24.3237 245.136 26.483C244.671 28.4783 244.22 29.9953 243.783 31.034C243.564 31.526 243.1 31.6627 242.389 31.444C241.487 31.1433 241.009 30.7333 240.954 30.214C240.872 29.1753 241.173 27.7813 241.856 26.032C242.676 24.0367 243.127 22.6153 243.209 21.768C243.236 21.522 243.059 21.2487 242.676 20.948C242.293 20.6473 242.102 20.415 242.102 20.251C242.102 20.1143 242.157 19.9777 242.266 19.841C242.403 19.677 242.69 19.554 243.127 19.472C243.592 19.3627 243.851 19.2123 243.906 19.021C244.398 17.6543 245.177 15.1123 246.243 11.395C247.145 8.16967 247.951 5.696 248.662 3.974C248.826 3.59133 249.168 3.4 249.687 3.4C250.07 3.4 250.411 3.523 250.712 3.769C251.477 4.425 251.969 5.409 252.188 6.721C252.352 7.84167 252.502 8.96233 252.639 10.083C254.006 16.5337 255.427 21.85 256.903 26.032ZM250.917 18.201C250.835 17.1897 250.657 16.0553 250.384 14.798C250.111 13.7047 249.851 12.6113 249.605 11.518C248.785 13.7867 248.074 16.0553 247.473 18.324C247.91 18.242 249.058 18.201 250.917 18.201ZM281.277 3.564H281.441C282.042 3.564 282.48 3.83733 282.753 4.384V4.548C282.753 6.844 282.316 11.5453 281.441 18.652L282.261 18.488C282.917 18.488 283.354 18.816 283.573 19.472C283.464 21.8773 283.409 23.6813 283.409 24.884H283.245L283.409 25.212V27.016C283.409 27.18 283.19 27.3987 282.753 27.672H282.425C281.058 27.672 280.293 26.7973 280.129 25.048V22.588H279.965C279.145 22.588 276.084 23.3533 270.781 24.884V27.508C270.781 27.672 270.617 27.836 270.289 28H269.469C268.266 28 267.665 27.508 267.665 26.524V25.376L267.501 23.736H267.665L267.501 23.408C267.528 23.2167 268.731 22.6153 271.109 21.604C271.765 17.504 272.257 12.42 272.585 6.352C277.833 4.49333 280.73 3.564 281.277 3.564ZM275.701 8.976C275.264 15.208 274.881 19.0893 274.553 20.62H274.717C276.521 20.0733 277.614 19.8 277.997 19.8C277.997 19.5267 278.489 15.4267 279.473 7.5H279.309C276.931 8.21067 275.728 8.648 275.701 8.812V8.976ZM299.005 19.144C297.392 22.7793 295.11 24.9387 292.158 25.622C291.803 25.704 291.447 25.745 291.092 25.745C289.534 25.745 287.962 24.8977 286.377 23.203C285.311 22.055 284.778 20.5653 284.778 18.734C284.778 16.7113 285.379 14.5383 286.582 12.215C287.101 11.231 287.73 10.3837 288.468 9.673C289.315 8.82567 290.122 8.402 290.887 8.402C291.324 8.402 291.734 8.566 292.117 8.894C292.5 9.222 293.525 9.65933 295.192 10.206C296.504 10.6433 297.433 11.3813 297.98 12.42C298.937 14.2513 299.415 15.823 299.415 17.135C299.415 17.873 299.278 18.5427 299.005 19.144ZM295.725 16.602C295.534 14.6067 295.001 13.4177 294.126 13.035C293.989 12.9803 293.866 12.953 293.757 12.953C293.429 12.953 293.019 13.2263 292.527 13.773C291.98 14.4017 291.557 14.7707 291.256 14.88C291.065 14.962 290.791 14.88 290.436 14.634C290.081 14.388 289.848 14.265 289.739 14.265C289.657 14.265 289.589 14.2923 289.534 14.347C288.577 15.167 288.099 16.438 288.099 18.16C288.099 19.3353 288.372 20.333 288.919 21.153C289.684 22.2737 290.327 22.834 290.846 22.834C292.049 22.834 293.21 22.0823 294.331 20.579C295.397 19.1577 295.862 17.832 295.725 16.602ZM320.972 28.697C321.082 29.2437 320.685 29.5443 319.783 29.599C319.182 29.6263 318.567 29.3667 317.938 28.82C317.419 28.3553 317.009 27.6037 316.708 26.565C316.435 25.6083 316.271 24.2553 316.216 22.506C316.162 20.538 316.066 19.185 315.929 18.447C315.574 19.677 314.986 21.5083 314.166 23.941C313.674 25.2803 313.374 26.0457 313.264 26.237C312.827 27.0843 312.28 27.467 311.624 27.385C310.312 27.0843 309.301 26.3463 308.59 25.171C308.126 24.4057 307.688 23.1893 307.278 21.522C306.841 19.6907 306.472 18.4607 306.171 17.832C304.996 23.5447 303.739 27.8087 302.399 30.624C302.208 31.034 301.634 31.0067 300.677 30.542C299.885 30.1593 299.488 29.6127 299.488 28.902C299.488 28.656 299.775 27.7813 300.349 26.278C300.595 25.622 301.552 22.465 303.219 16.807C303.793 14.839 304.395 11.3813 305.023 6.434C305.078 6.37933 305.215 6.09233 305.433 5.573C305.57 5.19033 305.816 4.999 306.171 4.999C307.101 4.999 307.743 5.17666 308.098 5.532C308.098 6.32466 308.221 7.60933 308.467 9.386C308.741 11.1353 308.877 12.461 308.877 13.363C309.123 14.8937 309.356 16.438 309.574 17.996C309.875 19.7453 310.422 21.1803 311.214 22.301C313.838 15.003 315.506 9.23567 316.216 4.999C316.326 4.56167 316.736 4.343 317.446 4.343C318.458 4.343 319.032 4.671 319.168 5.327C319.36 6.311 319.455 7.44533 319.455 8.73C319.455 9.14 319.428 10.0283 319.373 11.395C319.346 12.543 319.346 13.4723 319.373 14.183C319.619 19.9503 320.152 24.7883 320.972 28.697ZM4.141 47.318C4.551 47.5093 4.82433 47.8373 4.961 48.302C4.08633 54.0967 3.649 59.3447 3.649 64.046L3.977 64.21C7.88567 55.4633 10.5643 50.6527 12.013 49.778H12.833C13.3797 50.0787 13.653 50.4067 13.653 50.762C13.2157 54.7253 12.997 58.7707 12.997 62.898V69.622C12.997 71.0433 12.505 71.754 11.521 71.754H10.537C10.373 71.754 10.209 71.59 10.045 71.262V58.142H9.881C5.945 66.342 3.649 70.7153 2.993 71.262C2.583 71.59 2.20033 71.754 1.845 71.754H1.025C0.751667 71.754 0.587667 71.5353 0.533 71.098C0.806333 55.4633 1.517 47.646 2.665 47.646C3.37567 47.4273 3.86767 47.318 4.141 47.318ZM22.4004 48.056H22.8924C26.2817 48.302 27.9764 49.122 27.9764 50.516V51.172C27.9764 52.2927 26.5551 54.4247 23.7124 57.568C26.2271 57.568 27.8671 58.7707 28.6324 61.176C28.7417 61.7773 28.7964 62.2693 28.7964 62.652V63.308C28.7964 64.456 27.4297 67.9 24.6964 73.64C23.7671 74.5147 22.8924 74.952 22.0724 74.952H20.9244C19.2571 74.952 18.0544 73.9133 17.3164 71.836V71.344C17.3164 71.016 17.9724 70.688 19.2844 70.36C20.0224 71.2347 20.7877 71.836 21.5804 72.164C22.4824 72.082 23.8491 69.7313 25.6804 65.112C25.7897 64.0187 25.8444 63.1987 25.8444 62.652V61.832C25.8444 60.7387 25.4617 60.192 24.6964 60.192C24.2591 60.192 23.0017 60.4107 20.9244 60.848L19.2844 59.208C19.2844 58.7433 20.9244 56.4473 24.2044 52.32C24.4231 51.9647 24.5324 51.6367 24.5324 51.336C24.5324 50.8987 23.9311 50.6253 22.7284 50.516C21.9631 50.516 20.6511 50.8987 18.7924 51.664C18.4644 51.254 18.3004 50.8713 18.3004 50.516V50.352C19.2024 48.8213 20.5691 48.056 22.4004 48.056ZM54.2734 57.814C53.2348 60.0553 52.3464 61.545 51.6084 62.283C50.4604 63.431 49.8318 64.0597 49.7224 64.169C48.9298 64.7977 48.1371 65.1803 47.3444 65.317C47.2351 65.8637 47.1804 66.506 47.1804 67.244C47.1804 67.7633 47.2214 68.556 47.3034 69.622C47.3854 70.6607 47.4264 71.426 47.4264 71.918C47.4264 73.7767 46.9891 75.1707 46.1144 76.1C46.1144 76.1 45.7318 75.895 44.9664 75.485C44.5018 75.239 44.2421 74.9383 44.1874 74.583C43.9141 72.8063 43.7774 70.8247 43.7774 68.638C43.7774 67.1893 43.8594 65.03 44.0234 62.16C44.1874 59.29 44.2694 57.117 44.2694 55.641C44.2694 53.509 44.1464 51.5547 43.9004 49.778C43.6818 49.86 43.4768 49.7233 43.2854 49.368C43.0941 49.0127 42.9301 48.8077 42.7934 48.753C42.9301 47.8783 43.1624 47.441 43.4904 47.441C43.9004 47.3043 44.7478 47.3317 46.0324 47.523C49.5858 48.097 52.2644 49.655 54.0684 52.197C54.6424 53.017 54.9294 53.9463 54.9294 54.985C54.9294 55.887 54.7108 56.83 54.2734 57.814ZM51.6084 54.657C51.7451 53.5637 51.2804 52.7027 50.2144 52.074C50.1598 52.074 49.1758 51.6777 47.2624 50.885C47.5631 55.9143 47.6588 59.4403 47.5494 61.463C49.9821 59.167 51.3351 56.8983 51.6084 54.657ZM70.7304 46.703H71.1404C72.5891 46.703 73.4364 47.3317 73.6824 48.589V49.245C73.6278 49.4363 70.4571 50.557 64.1704 52.607C64.0338 53.1263 63.9654 54.6707 63.9654 57.24C64.2114 57.3767 64.4984 57.445 64.8264 57.445C67.7784 57.1717 69.3911 57.035 69.6644 57.035C71.0584 57.2263 71.7554 57.855 71.7554 58.921C71.7554 59.905 69.3774 60.5337 64.6214 60.807C63.4734 60.807 62.8994 62.6383 62.8994 66.301C62.8994 67.859 64.0338 68.638 66.3024 68.638C66.3024 68.7747 66.7944 68.843 67.7784 68.843H70.2794C70.7988 68.4057 71.2908 68.187 71.7554 68.187C72.6028 68.4877 73.0264 69.2667 73.0264 70.524V70.934C73.0264 71.1253 72.6711 71.4807 71.9604 72H68.8034C64.4028 72 61.6011 71.221 60.3984 69.663C59.6878 68.843 59.3324 67.7223 59.3324 66.301V61.053L58.4714 59.987V59.331C59.4554 58.6477 59.9474 57.5953 59.9474 56.174V54.083C58.5534 53.7003 57.8564 53.2767 57.8564 52.812V52.197C57.8564 50.311 62.1478 48.4797 70.7304 46.703ZM86.6545 47.277C86.6545 48.015 86.1625 48.4797 85.1785 48.671C83.8938 48.917 83.1011 49.204 82.8005 49.532C79.7391 52.7573 78.2085 56.9257 78.2085 62.037C78.2085 64.4423 78.5911 66.711 79.3565 68.843C79.9851 70.5923 80.4361 71.7403 80.7095 72.287C81.3928 73.6263 82.2265 74.583 83.2105 75.157C83.6205 75.3483 84.0305 75.526 84.4405 75.69C84.8778 75.936 85.0965 76.2777 85.0965 76.715C85.0965 77.1523 84.9461 77.5487 84.6455 77.904C84.3721 78.2593 84.0715 78.396 83.7435 78.314C83.3881 78.2593 82.8415 78.0817 82.1035 77.781C80.7915 77.0157 79.3701 75.3893 77.8395 72.902C77.4568 72.2733 77.0605 71.631 76.6505 70.975C76.2678 70.2917 75.9808 69.6493 75.7895 69.048C75.6528 68.6107 75.4205 66.8477 75.0925 63.759C74.9831 62.8023 74.9285 61.873 74.9285 60.971C74.9285 56.133 76.3361 52.0193 79.1515 48.63C80.7915 46.662 82.4998 45.678 84.2765 45.678C85.0418 45.678 85.7388 45.9103 86.3675 46.375C86.5588 46.5117 86.6545 46.8123 86.6545 47.277ZM106.695 46.457C106.449 47.441 105.984 48.015 105.301 48.179C103.524 48.6163 100.435 49.1903 96.0348 49.901C95.4881 56.707 95.2148 62.3787 95.2148 66.916C95.2148 68.638 95.2421 70.3327 95.2968 72C95.3241 72.5193 95.2968 72.9157 95.2148 73.189C95.0781 73.6263 94.8048 73.8313 94.3948 73.804C93.6021 73.7767 92.9461 73.435 92.4268 72.779C91.9075 72.1503 91.6205 71.4397 91.5658 70.647C91.5111 69.6357 91.4838 68.5697 91.4838 67.449C91.4838 65.645 91.6068 62.7887 91.8528 58.88C92.0988 55.1353 92.2081 52.279 92.1808 50.311C91.4428 50.2563 90.4178 50.3247 89.1058 50.516C87.6025 50.7347 86.5638 50.844 85.9898 50.844C84.6505 50.844 83.5571 50.4887 82.7098 49.778C82.3818 49.0673 82.2178 48.6983 82.2178 48.671C82.2178 48.4797 82.3135 48.2747 82.5048 48.056C83.3795 47.7553 85.1698 47.482 87.8758 47.236C90.2538 46.99 92.0305 46.5527 93.2058 45.924C94.1625 46.2247 95.2558 46.375 96.4858 46.375C97.7158 46.375 98.8911 46.2247 100.012 45.924C100.34 45.8967 101.173 45.7053 102.513 45.35C103.497 45.104 104.317 45.022 104.973 45.104C105.465 45.104 105.67 45.309 105.588 45.719C106.326 45.719 106.695 45.965 106.695 46.457ZM116.387 63.144C114.774 66.7793 112.492 68.9387 109.54 69.622C109.184 69.704 108.829 69.745 108.474 69.745C106.916 69.745 105.344 68.8977 103.759 67.203C102.693 66.055 102.16 64.5653 102.16 62.734C102.16 60.7113 102.761 58.5383 103.964 56.215C104.483 55.231 105.112 54.3837 105.85 53.673C106.697 52.8257 107.503 52.402 108.269 52.402C108.706 52.402 109.116 52.566 109.499 52.894C109.881 53.222 110.906 53.6593 112.574 54.206C113.886 54.6433 114.815 55.3813 115.362 56.42C116.318 58.2513 116.797 59.823 116.797 61.135C116.797 61.873 116.66 62.5427 116.387 63.144ZM113.107 60.602C112.915 58.6067 112.382 57.4177 111.508 57.035C111.371 56.9803 111.248 56.953 111.139 56.953C110.811 56.953 110.401 57.2263 109.909 57.773C109.362 58.4017 108.938 58.7707 108.638 58.88C108.446 58.962 108.173 58.88 107.818 58.634C107.462 58.388 107.23 58.265 107.121 58.265C107.039 58.265 106.97 58.2923 106.916 58.347C105.959 59.167 105.481 60.438 105.481 62.16C105.481 63.3353 105.754 64.333 106.301 65.153C107.066 66.2737 107.708 66.834 108.228 66.834C109.43 66.834 110.592 66.0823 111.713 64.579C112.779 63.1577 113.243 61.832 113.107 60.602ZM129.867 57.814C128.829 60.0553 127.94 61.545 127.202 62.283C126.054 63.431 125.426 64.0597 125.316 64.169C124.524 64.7977 123.731 65.1803 122.938 65.317C122.829 65.8637 122.774 66.506 122.774 67.244C122.774 67.7633 122.815 68.556 122.897 69.622C122.979 70.6607 123.02 71.426 123.02 71.918C123.02 73.7767 122.583 75.1707 121.708 76.1C121.708 76.1 121.326 75.895 120.56 75.485C120.096 75.239 119.836 74.9383 119.781 74.583C119.508 72.8063 119.371 70.8247 119.371 68.638C119.371 67.1893 119.453 65.03 119.617 62.16C119.781 59.29 119.863 57.117 119.863 55.641C119.863 53.509 119.74 51.5547 119.494 49.778C119.276 49.86 119.071 49.7233 118.879 49.368C118.688 49.0127 118.524 48.8077 118.387 48.753C118.524 47.8783 118.756 47.441 119.084 47.441C119.494 47.3043 120.342 47.3317 121.626 47.523C125.18 48.097 127.858 49.655 129.662 52.197C130.236 53.017 130.523 53.9463 130.523 54.985C130.523 55.887 130.305 56.83 129.867 57.814ZM127.202 54.657C127.339 53.5637 126.874 52.7027 125.808 52.074C125.754 52.074 124.77 51.6777 122.856 50.885C123.157 55.9143 123.253 59.4403 123.143 61.463C125.576 59.167 126.929 56.8983 127.202 54.657ZM149.358 70.032C149.522 70.4693 149.604 70.852 149.604 71.18C149.604 71.7267 149.372 72.205 148.907 72.615C148.443 73.025 148.128 73.2163 147.964 73.189C146.625 72.943 145.778 71.8633 145.422 69.95C145.04 67.8727 144.589 66.137 144.069 64.743C143.14 64.825 142.211 64.907 141.281 64.989C140.215 65.1257 139.382 65.4537 138.78 65.973C138.48 66.8203 138.083 68.3237 137.591 70.483C137.127 72.4783 136.676 73.9953 136.238 75.034C136.02 75.526 135.555 75.6627 134.844 75.444C133.942 75.1433 133.464 74.7333 133.409 74.214C133.327 73.1753 133.628 71.7813 134.311 70.032C135.131 68.0367 135.582 66.6153 135.664 65.768C135.692 65.522 135.514 65.2487 135.131 64.948C134.749 64.6473 134.557 64.415 134.557 64.251C134.557 64.1143 134.612 63.9777 134.721 63.841C134.858 63.677 135.145 63.554 135.582 63.472C136.047 63.3627 136.307 63.2123 136.361 63.021C136.853 61.6543 137.632 59.1123 138.698 55.395C139.6 52.1697 140.407 49.696 141.117 47.974C141.281 47.5913 141.623 47.4 142.142 47.4C142.525 47.4 142.867 47.523 143.167 47.769C143.933 48.425 144.425 49.409 144.643 50.721C144.807 51.8417 144.958 52.9623 145.094 54.083C146.461 60.5337 147.882 65.85 149.358 70.032ZM143.372 62.201C143.29 61.1897 143.113 60.0553 142.839 58.798C142.566 57.7047 142.306 56.6113 142.06 55.518C141.24 57.7867 140.53 60.0553 139.928 62.324C140.366 62.242 141.514 62.201 143.372 62.201ZM164.876 49.081C164.821 51.5137 164.425 55.3677 163.687 60.643C163.004 65.645 162.662 69.4853 162.662 72.164C162.662 73.0113 162.689 73.8177 162.744 74.583C162.744 74.7743 162.662 74.952 162.498 75.116C162.334 75.3073 162.143 75.403 161.924 75.403C161.159 75.403 160.653 75.3347 160.407 75.198C159.368 74.5967 158.849 73.4623 158.849 71.795C158.849 71.467 158.863 70.9613 158.89 70.278C158.945 69.5673 158.972 69.048 158.972 68.72C158.972 68.1733 159.04 67.3397 159.177 66.219C159.314 65.0983 159.382 64.2373 159.382 63.636C158.999 63.6633 158.466 63.6087 157.783 63.472C157.127 63.3353 156.649 63.267 156.348 63.267C155.993 63.267 155.651 63.3217 155.323 63.431C154.667 65.5903 154.284 68.7747 154.175 72.984C153.246 73.3667 152.344 73.3257 151.469 72.861C150.84 72.533 150.526 71.877 150.526 70.893C150.526 70.6743 150.54 70.3873 150.567 70.032C150.622 69.6493 150.649 69.417 150.649 69.335C150.731 67.859 151.045 64.9343 151.592 60.561C152.057 56.8983 152.275 53.9873 152.248 51.828C152.248 51.5273 152.453 51.336 152.863 51.254C153.3 51.172 153.546 51.09 153.601 51.008C153.765 51.1993 154.161 51.3633 154.79 51.5C155.309 51.6093 155.624 51.8553 155.733 52.238C155.952 52.9213 156.061 53.6867 156.061 54.534C156.061 55.1353 155.965 56.092 155.774 57.404C155.61 58.6887 155.528 59.6727 155.528 60.356C155.856 60.602 156.266 60.7523 156.758 60.807C157.086 60.8617 157.551 60.8753 158.152 60.848C158.945 60.7933 159.423 60.766 159.587 60.766C160.27 57.896 160.872 54.1787 161.391 49.614C161.5 48.6573 161.842 48.179 162.416 48.179C163.865 48.0423 164.685 48.343 164.876 49.081ZM182.27 70.032C182.434 70.4693 182.516 70.852 182.516 71.18C182.516 71.7267 182.284 72.205 181.819 72.615C181.355 73.025 181.04 73.2163 180.876 73.189C179.537 72.943 178.69 71.8633 178.334 69.95C177.952 67.8727 177.501 66.137 176.981 64.743C176.052 64.825 175.123 64.907 174.193 64.989C173.127 65.1257 172.294 65.4537 171.692 65.973C171.392 66.8203 170.995 68.3237 170.503 70.483C170.039 72.4783 169.588 73.9953 169.15 75.034C168.932 75.526 168.467 75.6627 167.756 75.444C166.854 75.1433 166.376 74.7333 166.321 74.214C166.239 73.1753 166.54 71.7813 167.223 70.032C168.043 68.0367 168.494 66.6153 168.576 65.768C168.604 65.522 168.426 65.2487 168.043 64.948C167.661 64.6473 167.469 64.415 167.469 64.251C167.469 64.1143 167.524 63.9777 167.633 63.841C167.77 63.677 168.057 63.554 168.494 63.472C168.959 63.3627 169.219 63.2123 169.273 63.021C169.765 61.6543 170.544 59.1123 171.61 55.395C172.512 52.1697 173.319 49.696 174.029 47.974C174.193 47.5913 174.535 47.4 175.054 47.4C175.437 47.4 175.779 47.523 176.079 47.769C176.845 48.425 177.337 49.409 177.555 50.721C177.719 51.8417 177.87 52.9623 178.006 54.083C179.373 60.5337 180.794 65.85 182.27 70.032ZM176.284 62.201C176.202 61.1897 176.025 60.0553 175.751 58.798C175.478 57.7047 175.218 56.6113 174.972 55.518C174.152 57.7867 173.442 60.0553 172.84 62.324C173.278 62.242 174.426 62.201 176.284 62.201ZM214.188 72.697C214.297 73.2437 213.901 73.5443 212.999 73.599C212.398 73.6263 211.783 73.3667 211.154 72.82C210.635 72.3553 210.225 71.6037 209.924 70.565C209.651 69.6083 209.487 68.2553 209.432 66.506C209.377 64.538 209.282 63.185 209.145 62.447C208.79 63.677 208.202 65.5083 207.382 67.941C206.89 69.2803 206.589 70.0457 206.48 70.237C206.043 71.0843 205.496 71.467 204.84 71.385C203.528 71.0843 202.517 70.3463 201.806 69.171C201.341 68.4057 200.904 67.1893 200.494 65.522C200.057 63.6907 199.688 62.4607 199.387 61.832C198.212 67.5447 196.954 71.8087 195.615 74.624C195.424 75.034 194.85 75.0067 193.893 74.542C193.1 74.1593 192.704 73.6127 192.704 72.902C192.704 72.656 192.991 71.7813 193.565 70.278C193.811 69.622 194.768 66.465 196.435 60.807C197.009 58.839 197.61 55.3813 198.239 50.434C198.294 50.3793 198.43 50.0923 198.649 49.573C198.786 49.1903 199.032 48.999 199.387 48.999C200.316 48.999 200.959 49.1767 201.314 49.532C201.314 50.3247 201.437 51.6093 201.683 53.386C201.956 55.1353 202.093 56.461 202.093 57.363C202.339 58.8937 202.571 60.438 202.79 61.996C203.091 63.7453 203.637 65.1803 204.43 66.301C207.054 59.003 208.721 53.2357 209.432 48.999C209.541 48.5617 209.951 48.343 210.662 48.343C211.673 48.343 212.247 48.671 212.384 49.327C212.575 50.311 212.671 51.4453 212.671 52.73C212.671 53.14 212.644 54.0283 212.589 55.395C212.562 56.543 212.562 57.4723 212.589 58.183C212.835 63.9503 213.368 68.7883 214.188 72.697ZM230.298 63.144C228.685 66.7793 226.403 68.9387 223.451 69.622C223.096 69.704 222.74 69.745 222.385 69.745C220.827 69.745 219.255 68.8977 217.67 67.203C216.604 66.055 216.071 64.5653 216.071 62.734C216.071 60.7113 216.672 58.5383 217.875 56.215C218.394 55.231 219.023 54.3837 219.761 53.673C220.608 52.8257 221.415 52.402 222.18 52.402C222.617 52.402 223.027 52.566 223.41 52.894C223.793 53.222 224.818 53.6593 226.485 54.206C227.797 54.6433 228.726 55.3813 229.273 56.42C230.23 58.2513 230.708 59.823 230.708 61.135C230.708 61.873 230.571 62.5427 230.298 63.144ZM227.018 60.602C226.827 58.6067 226.294 57.4177 225.419 57.035C225.282 56.9803 225.159 56.953 225.05 56.953C224.722 56.953 224.312 57.2263 223.82 57.773C223.273 58.4017 222.85 58.7707 222.549 58.88C222.358 58.962 222.084 58.88 221.729 58.634C221.374 58.388 221.141 58.265 221.032 58.265C220.95 58.265 220.882 58.2923 220.827 58.347C219.87 59.167 219.392 60.438 219.392 62.16C219.392 63.3353 219.665 64.333 220.212 65.153C220.977 66.2737 221.62 66.834 222.139 66.834C223.342 66.834 224.503 66.0823 225.624 64.579C226.69 63.1577 227.155 61.832 227.018 60.602ZM243.778 57.814C242.74 60.0553 241.851 61.545 241.113 62.283C239.965 63.431 239.337 64.0597 239.227 64.169C238.435 64.7977 237.642 65.1803 236.849 65.317C236.74 65.8637 236.685 66.506 236.685 67.244C236.685 67.7633 236.726 68.556 236.808 69.622C236.89 70.6607 236.931 71.426 236.931 71.918C236.931 73.7767 236.494 75.1707 235.619 76.1C235.619 76.1 235.237 75.895 234.471 75.485C234.007 75.239 233.747 74.9383 233.692 74.583C233.419 72.8063 233.282 70.8247 233.282 68.638C233.282 67.1893 233.364 65.03 233.528 62.16C233.692 59.29 233.774 57.117 233.774 55.641C233.774 53.509 233.651 51.5547 233.405 49.778C233.187 49.86 232.982 49.7233 232.79 49.368C232.599 49.0127 232.435 48.8077 232.298 48.753C232.435 47.8783 232.667 47.441 232.995 47.441C233.405 47.3043 234.253 47.3317 235.537 47.523C239.091 48.097 241.769 49.655 243.573 52.197C244.147 53.017 244.434 53.9463 244.434 54.985C244.434 55.887 244.216 56.83 243.778 57.814ZM241.113 54.657C241.25 53.5637 240.785 52.7027 239.719 52.074C239.665 52.074 238.681 51.6777 236.767 50.885C237.068 55.9143 237.164 59.4403 237.054 61.463C239.487 59.167 240.84 56.8983 241.113 54.657ZM260.235 46.703H260.645C262.094 46.703 262.941 47.3317 263.187 48.589V49.245C263.133 49.4363 259.962 50.557 253.675 52.607C253.539 53.1263 253.47 54.6707 253.47 57.24C253.716 57.3767 254.003 57.445 254.331 57.445C257.283 57.1717 258.896 57.035 259.169 57.035C260.563 57.2263 261.26 57.855 261.26 58.921C261.26 59.905 258.882 60.5337 254.126 60.807C252.978 60.807 252.404 62.6383 252.404 66.301C252.404 67.859 253.539 68.638 255.807 68.638C255.807 68.7747 256.299 68.843 257.283 68.843H259.784C260.304 68.4057 260.796 68.187 261.26 68.187C262.108 68.4877 262.531 69.2667 262.531 70.524V70.934C262.531 71.1253 262.176 71.4807 261.465 72H258.308C253.908 72 251.106 71.221 249.903 69.663C249.193 68.843 248.837 67.7223 248.837 66.301V61.053L247.976 59.987V59.331C248.96 58.6477 249.452 57.5953 249.452 56.174V54.083C248.058 53.7003 247.361 53.2767 247.361 52.812V52.197C247.361 50.311 251.653 48.4797 260.235 46.703ZM276.528 46.498H278.168C278.934 46.498 279.426 46.7713 279.644 47.318V48.179L277.553 68.187C277.553 68.5423 277.485 69.5947 277.348 71.344C277.485 72.082 277.553 72.8473 277.553 73.64L276.733 74.255H275.052C273.658 73.4623 272.961 72.2733 272.961 70.688C272.961 69.13 273.385 63.2943 274.232 53.181H273.986C272.046 53.181 271.075 53.0443 271.075 52.771C269.955 52.771 269.394 53.6047 269.394 55.272L267.754 71.754L266.688 71.959H266.483C264.679 71.795 263.777 71.098 263.777 69.868V69.663C263.777 68.597 264.406 61.6407 265.663 48.794V47.769L267.098 47.113C268.137 47.113 269.258 47.9467 270.46 49.614C270.706 49.7507 271.335 49.901 272.346 50.065C274.424 50.065 275.462 49.778 275.462 49.204C275.654 47.4 276.009 46.498 276.528 46.498ZM293.026 57.814C291.988 60.0553 291.099 61.545 290.361 62.283C289.213 63.431 288.585 64.0597 288.475 64.169C287.683 64.7977 286.89 65.1803 286.097 65.317C285.988 65.8637 285.933 66.506 285.933 67.244C285.933 67.7633 285.974 68.556 286.056 69.622C286.138 70.6607 286.179 71.426 286.179 71.918C286.179 73.7767 285.742 75.1707 284.867 76.1C284.867 76.1 284.485 75.895 283.719 75.485C283.255 75.239 282.995 74.9383 282.94 74.583C282.667 72.8063 282.53 70.8247 282.53 68.638C282.53 67.1893 282.612 65.03 282.776 62.16C282.94 59.29 283.022 57.117 283.022 55.641C283.022 53.509 282.899 51.5547 282.653 49.778C282.435 49.86 282.23 49.7233 282.038 49.368C281.847 49.0127 281.683 48.8077 281.546 48.753C281.683 47.8783 281.915 47.441 282.243 47.441C282.653 47.3043 283.501 47.3317 284.785 47.523C288.339 48.097 291.017 49.655 292.821 52.197C293.395 53.017 293.682 53.9463 293.682 54.985C293.682 55.887 293.464 56.83 293.026 57.814ZM290.361 54.657C290.498 53.5637 290.033 52.7027 288.967 52.074C288.913 52.074 287.929 51.6777 286.015 50.885C286.316 55.9143 286.412 59.4403 286.302 61.463C288.735 59.167 290.088 56.8983 290.361 54.657ZM311.697 63.144C310.085 66.7793 307.802 68.9387 304.85 69.622C304.495 69.704 304.14 69.745 303.784 69.745C302.226 69.745 300.655 68.8977 299.069 67.203C298.003 66.055 297.47 64.5653 297.47 62.734C297.47 60.7113 298.072 58.5383 299.274 56.215C299.794 55.231 300.422 54.3837 301.16 53.673C302.008 52.8257 302.814 52.402 303.579 52.402C304.017 52.402 304.427 52.566 304.809 52.894C305.192 53.222 306.217 53.6593 307.884 54.206C309.196 54.6433 310.126 55.3813 310.672 56.42C311.629 58.2513 312.107 59.823 312.107 61.135C312.107 61.873 311.971 62.5427 311.697 63.144ZM308.417 60.602C308.226 58.6067 307.693 57.4177 306.818 57.035C306.682 56.9803 306.559 56.953 306.449 56.953C306.121 56.953 305.711 57.2263 305.219 57.773C304.673 58.4017 304.249 58.7707 303.948 58.88C303.757 58.962 303.484 58.88 303.128 58.634C302.773 58.388 302.541 58.265 302.431 58.265C302.349 58.265 302.281 58.2923 302.226 58.347C301.27 59.167 300.791 60.438 300.791 62.16C300.791 63.3353 301.065 64.333 301.611 65.153C302.377 66.2737 303.019 66.834 303.538 66.834C304.741 66.834 305.903 66.0823 307.023 64.579C308.089 63.1577 308.554 61.832 308.417 60.602ZM326.121 47.564H326.285C326.886 47.564 327.323 47.8373 327.597 48.384V48.548C327.597 50.844 327.159 55.5453 326.285 62.652L327.105 62.488C327.761 62.488 328.198 62.816 328.417 63.472C328.307 65.8773 328.253 67.6813 328.253 68.884H328.089L328.253 69.212V71.016C328.253 71.18 328.034 71.3987 327.597 71.672H327.269C325.902 71.672 325.137 70.7973 324.973 69.048V66.588H324.809C323.989 66.588 320.927 67.3533 315.625 68.884V71.508C315.625 71.672 315.461 71.836 315.133 72H314.313C313.11 72 312.509 71.508 312.509 70.524V69.376L312.345 67.736H312.509L312.345 67.408C312.372 67.2167 313.575 66.6153 315.953 65.604C316.609 61.504 317.101 56.42 317.429 50.352C322.677 48.4933 325.574 47.564 326.121 47.564ZM320.545 52.976C320.107 59.208 319.725 63.0893 319.397 64.62H319.561C321.365 64.0733 322.458 63.8 322.841 63.8C322.841 63.5267 323.333 59.4267 324.317 51.5H324.153C321.775 52.2107 320.572 52.648 320.545 52.812V52.976ZM330.196 46.498H331.221C332.587 46.498 333.271 47.728 333.271 50.188C333.407 51.5273 333.476 53.222 333.476 55.272V56.297C333.64 56.297 336.223 53.509 341.225 47.933H342.25C342.96 47.933 343.425 48.2063 343.644 48.753C343.644 50.0377 340.651 53.837 334.665 60.151L334.255 60.971C338.601 63.185 341.935 65.44 344.259 67.736V68.105C344.259 69.0617 343.452 69.54 341.84 69.54C341.32 68.9933 338.601 67.2987 333.681 64.456V64.661C333.79 67.6403 333.845 69.8817 333.845 71.385C333.353 71.795 332.888 72 332.451 72C330.811 72 329.991 70.1687 329.991 66.506V53.632C329.991 52.2107 329.854 49.9693 329.581 46.908L330.196 46.498ZM357.354 46.621C358.064 46.621 358.529 46.8807 358.748 47.4C357.354 52.3747 354.634 59.6727 350.589 69.294C350.343 70.196 350.22 70.975 350.22 71.631V72.984C350.22 73.6947 349.892 74.214 349.236 74.542H348.252C347.541 74.542 346.967 74.1593 346.53 73.394V72.984C346.53 70.6333 347.76 66.3693 350.22 60.192V59.987L345.546 49.122V48.958C345.928 48.302 346.311 47.974 346.694 47.974C348.306 47.974 349.482 49.204 350.22 51.664C350.821 52.5387 351.463 53.96 352.147 55.928H352.352C353.718 51.008 355.003 47.9057 356.206 46.621H357.354ZM360.425 46.498H361.45C362.817 46.498 363.5 47.728 363.5 50.188C363.637 51.5273 363.705 53.222 363.705 55.272V56.297C363.869 56.297 366.452 53.509 371.454 47.933H372.479C373.19 47.933 373.655 48.2063 373.873 48.753C373.873 50.0377 370.88 53.837 364.894 60.151L364.484 60.971C368.83 63.185 372.165 65.44 374.488 67.736V68.105C374.488 69.0617 373.682 69.54 372.069 69.54C371.55 68.9933 368.83 67.2987 363.91 64.456V64.661C364.02 67.6403 364.074 69.8817 364.074 71.385C363.582 71.795 363.118 72 362.68 72C361.04 72 360.22 70.1687 360.22 66.506V53.632C360.22 52.2107 360.084 49.9693 359.81 46.908L360.425 46.498ZM397.218 46.457C396.972 47.441 396.508 48.015 395.824 48.179C394.048 48.6163 390.959 49.1903 386.558 49.901C386.012 56.707 385.738 62.3787 385.738 66.916C385.738 68.638 385.766 70.3327 385.82 72C385.848 72.5193 385.82 72.9157 385.738 73.189C385.602 73.6263 385.328 73.8313 384.918 73.804C384.126 73.7767 383.47 73.435 382.95 72.779C382.431 72.1503 382.144 71.4397 382.089 70.647C382.035 69.6357 382.007 68.5697 382.007 67.449C382.007 65.645 382.13 62.7887 382.376 58.88C382.622 55.1353 382.732 52.279 382.704 50.311C381.966 50.2563 380.941 50.3247 379.629 50.516C378.126 50.7347 377.087 50.844 376.513 50.844C375.174 50.844 374.081 50.4887 373.233 49.778C372.905 49.0673 372.741 48.6983 372.741 48.671C372.741 48.4797 372.837 48.2747 373.028 48.056C373.903 47.7553 375.693 47.482 378.399 47.236C380.777 46.99 382.554 46.5527 383.729 45.924C384.686 46.2247 385.779 46.375 387.009 46.375C388.239 46.375 389.415 46.2247 390.535 45.924C390.863 45.8967 391.697 45.7053 393.036 45.35C394.02 45.104 394.84 45.022 395.496 45.104C395.988 45.104 396.193 45.309 396.111 45.719C396.849 45.719 397.218 45.965 397.218 46.457ZM406.91 63.144C405.298 66.7793 403.015 68.9387 400.063 69.622C399.708 69.704 399.353 69.745 398.997 69.745C397.439 69.745 395.868 68.8977 394.282 67.203C393.216 66.055 392.683 64.5653 392.683 62.734C392.683 60.7113 393.285 58.5383 394.487 56.215C395.007 55.231 395.635 54.3837 396.373 53.673C397.221 52.8257 398.027 52.402 398.792 52.402C399.23 52.402 399.64 52.566 400.022 52.894C400.405 53.222 401.43 53.6593 403.097 54.206C404.409 54.6433 405.339 55.3813 405.885 56.42C406.842 58.2513 407.32 59.823 407.32 61.135C407.32 61.873 407.184 62.5427 406.91 63.144ZM403.63 60.602C403.439 58.6067 402.906 57.4177 402.031 57.035C401.895 56.9803 401.772 56.953 401.662 56.953C401.334 56.953 400.924 57.2263 400.432 57.773C399.886 58.4017 399.462 58.7707 399.161 58.88C398.97 58.962 398.697 58.88 398.341 58.634C397.986 58.388 397.754 58.265 397.644 58.265C397.562 58.265 397.494 58.2923 397.439 58.347C396.483 59.167 396.004 60.438 396.004 62.16C396.004 63.3353 396.278 64.333 396.824 65.153C397.59 66.2737 398.232 66.834 398.751 66.834C399.954 66.834 401.116 66.0823 402.236 64.579C403.302 63.1577 403.767 61.832 403.63 60.602ZM422.769 54.165C422.413 55.641 421.511 56.9803 420.063 58.183C418.669 59.167 417.275 60.1373 415.881 61.094C415.963 61.504 416.236 61.8183 416.701 62.037C417.193 62.2283 417.657 62.4197 418.095 62.611C420.363 64.087 421.498 65.8363 421.498 67.859C421.498 69.417 420.965 70.852 419.899 72.164C419.079 73.1753 417.862 74.173 416.25 75.157C414.938 75.9223 413.626 76.6877 412.314 77.453C411.986 77.6443 411.63 77.74 411.248 77.74C410.346 77.74 409.717 77.371 409.362 76.633C409.416 74.337 409.471 72.0547 409.526 69.786C409.58 67.0527 409.731 64.7977 409.977 63.021C409.403 62.6383 409.116 62.201 409.116 61.709C409.116 61.463 409.211 61.2443 409.403 61.053C409.621 60.8343 409.908 60.602 410.264 60.356C410.592 56.2013 410.66 52.3747 410.469 48.876C409.184 48.63 408.337 48.056 407.927 47.154C407.899 47.0447 407.94 46.8807 408.05 46.662C408.186 46.4433 408.255 46.2657 408.255 46.129C408.883 45.6643 409.58 45.432 410.346 45.432C410.892 45.432 412.15 45.6097 414.118 45.965C415.129 46.129 416.181 46.498 417.275 47.072C420.227 48.6027 421.962 50.0923 422.482 51.541C422.837 52.5797 422.933 53.4543 422.769 54.165ZM418.915 52.115C418.778 51.1037 417.958 50.3247 416.455 49.778C416.236 49.696 415.894 49.5183 415.43 49.245C415.102 49.0263 414.828 48.917 414.61 48.917C414.5 48.917 414.377 48.9443 414.241 48.999C414.213 49.4637 414.2 49.9557 414.2 50.475C414.2 51.1857 414.254 52.3883 414.364 54.083C414.446 55.641 414.473 56.8573 414.446 57.732C414.637 57.732 414.924 57.5953 415.307 57.322C415.689 57.0213 415.908 56.8573 415.963 56.83C416.783 56.4473 417.507 55.805 418.136 54.903C418.764 54.001 419.024 53.0717 418.915 52.115ZM417.685 68.187C417.739 67.8863 417.767 67.5993 417.767 67.326C417.767 66.506 417.507 65.7817 416.988 65.153C415.594 64.4697 414.705 64.128 414.323 64.128C414.104 64.128 413.899 64.169 413.708 64.251C413.735 64.5243 413.749 64.825 413.749 65.153C413.749 65.727 413.667 66.6153 413.503 67.818C413.366 68.9933 413.298 69.8817 413.298 70.483C413.298 71.3577 413.407 72.1503 413.626 72.861C413.954 72.4783 414.459 72.082 415.143 71.672C415.853 71.2347 416.345 70.852 416.619 70.524C417.111 69.95 417.466 69.171 417.685 68.187Z" fill="white"/>
</svg>
