<svg width="208" height="51" viewBox="0 0 208 51" fill="none" xmlns="http://www.w3.org/2000/svg">
<path d="M1.31 2.948H2.96C5.16 2.948 6.26 4.928 6.26 8.888C6.48 11.044 6.59 13.772 6.59 17.072V18.722C6.854 18.722 11.012 14.234 19.064 5.258H20.714C21.858 5.258 22.606 5.698 22.958 6.578C22.958 8.646 18.14 14.762 8.504 24.926L7.844 26.246C14.84 29.81 20.208 33.44 23.948 37.136V37.73C23.948 39.27 22.65 40.04 20.054 40.04C19.218 39.16 14.84 36.432 6.92 31.856V32.186C7.096 36.982 7.184 40.59 7.184 43.01C6.392 43.67 5.644 44 4.94 44C2.3 44 0.98 41.052 0.98 35.156V14.432C0.98 12.144 0.76 8.536 0.32 3.608L1.31 2.948ZM49.7138 29.744C47.1178 35.596 43.4438 39.072 38.6918 40.172C38.1198 40.304 37.5478 40.37 36.9758 40.37C34.4678 40.37 31.9378 39.006 29.3858 36.278C27.6698 34.43 26.8118 32.032 26.8118 29.084C26.8118 25.828 27.7798 22.33 29.7158 18.59C30.5518 17.006 31.5638 15.642 32.7518 14.498C34.1158 13.134 35.4138 12.452 36.6458 12.452C37.3498 12.452 38.0098 12.716 38.6258 13.244C39.2418 13.772 40.8918 14.476 43.5758 15.356C45.6878 16.06 47.1838 17.248 48.0638 18.92C49.6038 21.868 50.3738 24.398 50.3738 26.51C50.3738 27.698 50.1538 28.776 49.7138 29.744ZM44.4338 25.652C44.1258 22.44 43.2678 20.526 41.8598 19.91C41.6398 19.822 41.4418 19.778 41.2658 19.778C40.7378 19.778 40.0778 20.218 39.2858 21.098C38.4058 22.11 37.7238 22.704 37.2398 22.88C36.9318 23.012 36.4918 22.88 35.9198 22.484C35.3478 22.088 34.9738 21.89 34.7978 21.89C34.6658 21.89 34.5558 21.934 34.4678 22.022C32.9278 23.342 32.1578 25.388 32.1578 28.16C32.1578 30.052 32.5978 31.658 33.4778 32.978C34.7098 34.782 35.7438 35.684 36.5798 35.684C38.5158 35.684 40.3858 34.474 42.1898 32.054C43.9058 29.766 44.6538 27.632 44.4338 25.652ZM75.1759 7.106C75.0879 11.022 74.4499 17.226 73.2619 25.718C72.1619 33.77 71.6119 39.952 71.6119 44.264C71.6119 45.628 71.6559 46.926 71.7439 48.158C71.7439 48.466 71.6119 48.752 71.3479 49.016C71.0839 49.324 70.7759 49.478 70.4239 49.478C69.1919 49.478 68.3779 49.368 67.9819 49.148C66.3099 48.18 65.4739 46.354 65.4739 43.67C65.4739 43.142 65.4959 42.328 65.5399 41.228C65.6279 40.084 65.6719 39.248 65.6719 38.72C65.6719 37.84 65.7819 36.498 66.0019 34.694C66.2219 32.89 66.3319 31.504 66.3319 30.536C65.7159 30.58 64.8579 30.492 63.7579 30.272C62.7019 30.052 61.9319 29.942 61.4479 29.942C60.8759 29.942 60.3259 30.03 59.7979 30.206C58.7419 33.682 58.1259 38.808 57.9499 45.584C56.4539 46.2 55.0019 46.134 53.5939 45.386C52.5819 44.858 52.0759 43.802 52.0759 42.218C52.0759 41.866 52.0979 41.404 52.1419 40.832C52.2299 40.216 52.2739 39.842 52.2739 39.71C52.4059 37.334 52.9119 32.626 53.7919 25.586C54.5399 19.69 54.8919 15.004 54.8479 11.528C54.8479 11.044 55.1779 10.736 55.8379 10.604C56.5419 10.472 56.9379 10.34 57.0259 10.208C57.2899 10.516 57.9279 10.78 58.9399 11C59.7759 11.176 60.2819 11.572 60.4579 12.188C60.8099 13.288 60.9859 14.52 60.9859 15.884C60.9859 16.852 60.8319 18.392 60.5239 20.504C60.2599 22.572 60.1279 24.156 60.1279 25.256C60.6559 25.652 61.3159 25.894 62.1079 25.982C62.6359 26.07 63.3839 26.092 64.3519 26.048C65.6279 25.96 66.3979 25.916 66.6619 25.916C67.7619 21.296 68.7299 15.312 69.5659 7.964C69.7419 6.424 70.2919 5.654 71.2159 5.654C73.5479 5.434 74.8679 5.918 75.1759 7.106ZM112.68 2.882C112.284 4.466 111.536 5.39 110.436 5.654C107.576 6.358 102.604 7.282 95.5204 8.426C94.6404 19.382 94.2004 28.512 94.2004 35.816C94.2004 38.588 94.2444 41.316 94.3324 44C94.3764 44.836 94.3324 45.474 94.2004 45.914C93.9804 46.618 93.5404 46.948 92.8804 46.904C91.6044 46.86 90.5484 46.31 89.7124 45.254C88.8764 44.242 88.4144 43.098 88.3264 41.822C88.2384 40.194 88.1944 38.478 88.1944 36.674C88.1944 33.77 88.3924 29.172 88.7884 22.88C89.1844 16.852 89.3604 12.254 89.3164 9.086C88.1284 8.998 86.4784 9.108 84.3664 9.416C81.9464 9.768 80.2744 9.944 79.3504 9.944C77.1944 9.944 75.4344 9.372 74.0704 8.228C73.5424 7.084 73.2784 6.49 73.2784 6.446C73.2784 6.138 73.4324 5.808 73.7404 5.456C75.1484 4.972 78.0304 4.532 82.3864 4.136C86.2144 3.74 89.0744 3.036 90.9664 2.024C92.5064 2.508 94.2664 2.75 96.2464 2.75C98.2264 2.75 100.118 2.508 101.922 2.024C102.45 1.98 103.792 1.672 105.948 1.1C107.532 0.703997 108.852 0.571998 109.908 0.703999C110.7 0.703999 111.03 1.034 110.898 1.694C112.086 1.694 112.68 2.09 112.68 2.882ZM129.602 40.832C129.866 41.536 129.998 42.152 129.998 42.68C129.998 43.56 129.624 44.33 128.876 44.99C128.128 45.65 127.622 45.958 127.358 45.914C125.202 45.518 123.838 43.78 123.266 40.7C122.65 37.356 121.924 34.562 121.088 32.318C119.592 32.45 118.096 32.582 116.6 32.714C114.884 32.934 113.542 33.462 112.574 34.298C112.09 35.662 111.452 38.082 110.66 41.558C109.912 44.77 109.186 47.212 108.482 48.884C108.13 49.676 107.382 49.896 106.238 49.544C104.786 49.06 104.016 48.4 103.928 47.564C103.796 45.892 104.28 43.648 105.38 40.832C106.7 37.62 107.426 35.332 107.558 33.968C107.602 33.572 107.316 33.132 106.7 32.648C106.084 32.164 105.776 31.79 105.776 31.526C105.776 31.306 105.864 31.086 106.04 30.866C106.26 30.602 106.722 30.404 107.426 30.272C108.174 30.096 108.592 29.854 108.68 29.546C109.472 27.346 110.726 23.254 112.442 17.27C113.894 12.078 115.192 8.096 116.336 5.324C116.6 4.708 117.15 4.4 117.986 4.4C118.602 4.4 119.152 4.598 119.636 4.994C120.868 6.05 121.66 7.634 122.012 9.746C122.276 11.55 122.518 13.354 122.738 15.158C124.938 25.542 127.226 34.1 129.602 40.832ZM119.966 28.226C119.834 26.598 119.548 24.772 119.108 22.748C118.668 20.988 118.25 19.228 117.854 17.468C116.534 21.12 115.39 24.772 114.422 28.424C115.126 28.292 116.974 28.226 119.966 28.226ZM132.472 2.948H134.122C136.322 2.948 137.422 4.928 137.422 8.888C137.642 11.044 137.752 13.772 137.752 17.072V18.722C138.016 18.722 142.174 14.234 150.226 5.258H151.876C153.02 5.258 153.768 5.698 154.12 6.578C154.12 8.646 149.302 14.762 139.666 24.926L139.006 26.246C146.002 29.81 151.37 33.44 155.11 37.136V37.73C155.11 39.27 153.812 40.04 151.216 40.04C150.38 39.16 146.002 36.432 138.082 31.856V32.186C138.258 36.982 138.346 40.59 138.346 43.01C137.554 43.67 136.806 44 136.102 44C133.462 44 132.142 41.052 132.142 35.156V14.432C132.142 12.144 131.922 8.536 131.482 3.608L132.472 2.948ZM191.7 2.882C191.304 4.466 190.556 5.39 189.456 5.654C186.596 6.358 181.624 7.282 174.54 8.426C173.66 19.382 173.22 28.512 173.22 35.816C173.22 38.588 173.264 41.316 173.352 44C173.396 44.836 173.352 45.474 173.22 45.914C173 46.618 172.56 46.948 171.9 46.904C170.624 46.86 169.568 46.31 168.732 45.254C167.896 44.242 167.434 43.098 167.346 41.822C167.258 40.194 167.214 38.478 167.214 36.674C167.214 33.77 167.412 29.172 167.808 22.88C168.204 16.852 168.38 12.254 168.336 9.086C167.148 8.998 165.498 9.108 163.386 9.416C160.966 9.768 159.294 9.944 158.37 9.944C156.214 9.944 154.454 9.372 153.09 8.228C152.562 7.084 152.298 6.49 152.298 6.446C152.298 6.138 152.452 5.808 152.76 5.456C154.168 4.972 157.05 4.532 161.406 4.136C165.234 3.74 168.094 3.036 169.986 2.024C171.526 2.508 173.286 2.75 175.266 2.75C177.246 2.75 179.138 2.508 180.942 2.024C181.47 1.98 182.812 1.672 184.968 1.1C186.552 0.703997 187.872 0.571998 188.928 0.703999C189.72 0.703999 190.05 1.034 189.918 1.694C191.106 1.694 191.7 2.09 191.7 2.882ZM186.314 5.258H187.7C188.976 5.258 189.614 5.962 189.614 7.37C189.746 8.514 189.812 9.152 189.812 9.284C189.328 15.576 189.086 19.8 189.086 21.956V22.154H189.614C192.342 22.154 194.762 23.804 196.874 27.104C197.182 27.632 197.336 28.094 197.336 28.49V29.678C197.336 35.706 194.916 39.688 190.076 41.624C187.964 43.208 186.556 44 185.852 44H185.126C184.29 44 183.674 43.604 183.278 42.812C183.454 31.24 183.674 25.454 183.938 25.454C183.718 25.454 183.41 25.146 183.014 24.53V23.606C184.246 22.682 184.862 20.482 184.862 17.006C185.346 13.266 185.588 9.834 185.588 6.71C185.456 6.402 185.39 6.16 185.39 5.984L186.314 5.258ZM204.134 5.258H204.596C206.488 5.258 207.434 5.808 207.434 6.908V10.472L205.322 42.35V42.812L204.134 43.736H203.21C201.626 43.736 200.834 42.108 200.834 38.852L203.408 7.634L203.21 5.984L204.134 5.258ZM188.624 25.454C188.492 29.062 188.272 32.12 187.964 34.628V35.816L188.162 38.126C191.286 36.674 192.848 34.254 192.848 30.866V28.754C192.848 26.95 191.682 25.85 189.35 25.454H188.624Z" fill="#11315F"/>
</svg>
