<svg width="307" height="39" viewBox="0 0 307 39" fill="none" xmlns="http://www.w3.org/2000/svg">
<path d="M13.892 3.262C13.892 4.09 13.34 4.61133 12.236 4.826C10.7947 5.102 9.90533 5.424 9.568 5.792C6.13333 9.41067 4.416 14.0873 4.416 19.822C4.416 22.5207 4.84533 25.066 5.704 27.458C6.40933 29.4207 6.91533 30.7087 7.222 31.322C7.98867 32.8247 8.924 33.898 10.028 34.542C10.488 34.7567 10.948 34.956 11.408 35.14C11.8987 35.416 12.144 35.7993 12.144 36.29C12.144 36.7807 11.9753 37.2253 11.638 37.624C11.3313 38.0227 10.994 38.176 10.626 38.084C10.2273 38.0227 9.614 37.8233 8.786 37.486C7.314 36.6273 5.71933 34.8027 4.002 32.012C3.57267 31.3067 3.128 30.586 2.668 29.85C2.23867 29.0833 1.91667 28.3627 1.702 27.688C1.54867 27.1973 1.288 25.2193 0.92 21.754C0.797333 20.6807 0.736 19.638 0.736 18.626C0.736 13.198 2.31533 8.58267 5.474 4.78C7.314 2.572 9.23067 1.468 11.224 1.468C12.0827 1.468 12.8647 1.72867 13.57 2.25C13.7847 2.40333 13.892 2.74067 13.892 3.262ZM36.3763 2.342C36.1003 3.446 35.579 4.09 34.8123 4.274C32.819 4.76467 29.3536 5.40867 24.4163 6.206C23.803 13.842 23.4963 20.2053 23.4963 25.296C23.4963 27.228 23.527 29.1293 23.5883 31C23.619 31.5827 23.5883 32.0273 23.4963 32.334C23.343 32.8247 23.0363 33.0547 22.5763 33.024C21.687 32.9933 20.951 32.61 20.3683 31.874C19.7856 31.1687 19.4636 30.3713 19.4023 29.482C19.341 28.3473 19.3103 27.1513 19.3103 25.894C19.3103 23.87 19.4483 20.6653 19.7243 16.28C20.0003 12.0787 20.123 8.874 20.0923 6.666C19.2643 6.60467 18.1143 6.68133 16.6423 6.896C14.9556 7.14133 13.7903 7.264 13.1463 7.264C11.6436 7.264 10.417 6.86533 9.4663 6.068C9.0983 5.27067 8.9143 4.85667 8.9143 4.826C8.9143 4.61133 9.02163 4.38133 9.2363 4.136C10.2176 3.79867 12.2263 3.492 15.2623 3.216C17.9303 2.94 19.9236 2.44933 21.2423 1.744C22.3156 2.08133 23.5423 2.25 24.9223 2.25C26.3023 2.25 27.621 2.08133 28.8783 1.744C29.2463 1.71333 30.1816 1.49867 31.6843 1.1C32.7883 0.823998 33.7083 0.731999 34.4443 0.823999C34.9963 0.823999 35.2263 1.054 35.1343 1.514C35.9623 1.514 36.3763 1.79 36.3763 2.342ZM47.2503 21.064C45.4409 25.1427 42.8803 27.5653 39.5683 28.332C39.1696 28.424 38.7709 28.47 38.3723 28.47C36.6243 28.47 34.8609 27.5193 33.0823 25.618C31.8863 24.33 31.2883 22.6587 31.2883 20.604C31.2883 18.3347 31.9629 15.8967 33.3123 13.29C33.8949 12.186 34.6003 11.2353 35.4283 10.438C36.3789 9.48733 37.2836 9.012 38.1423 9.012C38.6329 9.012 39.0929 9.196 39.5223 9.564C39.9516 9.932 41.1016 10.4227 42.9723 11.036C44.4443 11.5267 45.4869 12.3547 46.1003 13.52C47.1736 15.5747 47.7103 17.338 47.7103 18.81C47.7103 19.638 47.5569 20.3893 47.2503 21.064ZM43.5703 18.212C43.3556 15.9733 42.7576 14.6393 41.7763 14.21C41.6229 14.1487 41.4849 14.118 41.3623 14.118C40.9943 14.118 40.5343 14.4247 39.9823 15.038C39.3689 15.7433 38.8936 16.1573 38.5563 16.28C38.3416 16.372 38.0349 16.28 37.6363 16.004C37.2376 15.728 36.9769 15.59 36.8543 15.59C36.7623 15.59 36.6856 15.6207 36.6243 15.682C35.5509 16.602 35.0143 18.028 35.0143 19.96C35.0143 21.2787 35.3209 22.398 35.9343 23.318C36.7929 24.5753 37.5136 25.204 38.0963 25.204C39.4456 25.204 40.7489 24.3607 42.0063 22.674C43.2023 21.0793 43.7236 19.592 43.5703 18.212ZM53.4966 3.4C53.9566 3.61466 54.2632 3.98266 54.4166 4.504C53.4352 11.0053 52.9446 16.8933 52.9446 22.168L53.3126 22.352C57.6979 12.5387 60.7032 7.14133 62.3286 6.16H63.2486C63.8619 6.49733 64.1686 6.86533 64.1686 7.264C63.6779 11.7107 63.4326 16.2493 63.4326 20.88V28.424C63.4326 30.0187 62.8806 30.816 61.7766 30.816H60.6726C60.4886 30.816 60.3046 30.632 60.1206 30.264V15.544H59.9366C55.5206 24.744 52.9446 29.6507 52.2086 30.264C51.7486 30.632 51.3192 30.816 50.9206 30.816H50.0006C49.6939 30.816 49.5099 30.5707 49.4486 30.08C49.7552 12.5387 50.5526 3.768 51.8406 3.768C52.6379 3.52267 53.1899 3.4 53.4966 3.4ZM90.3145 31.782C90.4372 32.3953 89.9925 32.7327 88.9805 32.794C88.3059 32.8247 87.6159 32.5333 86.9105 31.92C86.3279 31.3987 85.8679 30.5553 85.5305 29.39C85.2239 28.3167 85.0399 26.7987 84.9785 24.836C84.9172 22.628 84.8099 21.11 84.6565 20.282C84.2579 21.662 83.5985 23.7167 82.6785 26.446C82.1265 27.9487 81.7892 28.8073 81.6665 29.022C81.1759 29.9727 80.5625 30.402 79.8265 30.31C78.3545 29.9727 77.2199 29.1447 76.4225 27.826C75.9012 26.9673 75.4105 25.6027 74.9505 23.732C74.4599 21.6773 74.0459 20.2973 73.7085 19.592C72.3899 26.0013 70.9792 30.7853 69.4765 33.944C69.2619 34.404 68.6179 34.3733 67.5445 33.852C66.6552 33.4227 66.2105 32.8093 66.2105 32.012C66.2105 31.736 66.5325 30.7547 67.1765 29.068C67.4525 28.332 68.5259 24.79 70.3965 18.442C71.0405 16.234 71.7152 12.3547 72.4205 6.804C72.4819 6.74267 72.6352 6.42067 72.8805 5.838C73.0339 5.40866 73.3099 5.194 73.7085 5.194C74.7512 5.194 75.4719 5.39333 75.8705 5.792C75.8705 6.68133 76.0085 8.12266 76.2845 10.116C76.5912 12.0787 76.7445 13.566 76.7445 14.578C77.0205 16.2953 77.2812 18.028 77.5265 19.776C77.8639 21.7387 78.4772 23.3487 79.3665 24.606C82.3105 16.418 84.1812 9.94733 84.9785 5.194C85.1012 4.70333 85.5612 4.458 86.3585 4.458C87.4932 4.458 88.1372 4.826 88.2905 5.562C88.5052 6.666 88.6125 7.93867 88.6125 9.38C88.6125 9.84 88.5819 10.8367 88.5205 12.37C88.4899 13.658 88.4899 14.7007 88.5205 15.498C88.7965 21.9687 89.3945 27.3967 90.3145 31.782ZM108.389 21.064C106.58 25.1427 104.019 27.5653 100.707 28.332C100.308 28.424 99.9096 28.47 99.5109 28.47C97.7629 28.47 95.9996 27.5193 94.2209 25.618C93.0249 24.33 92.4269 22.6587 92.4269 20.604C92.4269 18.3347 93.1016 15.8967 94.4509 13.29C95.0336 12.186 95.7389 11.2353 96.5669 10.438C97.5176 9.48733 98.4223 9.012 99.2809 9.012C99.7716 9.012 100.232 9.196 100.661 9.564C101.09 9.932 102.24 10.4227 104.111 11.036C105.583 11.5267 106.626 12.3547 107.239 13.52C108.312 15.5747 108.849 17.338 108.849 18.81C108.849 19.638 108.696 20.3893 108.389 21.064ZM104.709 18.212C104.494 15.9733 103.896 14.6393 102.915 14.21C102.762 14.1487 102.624 14.118 102.501 14.118C102.133 14.118 101.673 14.4247 101.121 15.038C100.508 15.7433 100.032 16.1573 99.6949 16.28C99.4803 16.372 99.1736 16.28 98.7749 16.004C98.3763 15.728 98.1156 15.59 97.9929 15.59C97.9009 15.59 97.8243 15.6207 97.7629 15.682C96.6896 16.602 96.1529 18.028 96.1529 19.96C96.1529 21.2787 96.4596 22.398 97.0729 23.318C97.9316 24.5753 98.6523 25.204 99.2349 25.204C100.584 25.204 101.888 24.3607 103.145 22.674C104.341 21.0793 104.862 19.592 104.709 18.212ZM123.007 3.262C123.007 4.09 122.455 4.61133 121.351 4.826C119.91 5.102 119.021 5.424 118.683 5.792C115.249 9.41067 113.531 14.0873 113.531 19.822C113.531 22.5207 113.961 25.066 114.819 27.458C115.525 29.4207 116.031 30.7087 116.337 31.322C117.104 32.8247 118.039 33.898 119.143 34.542C119.603 34.7567 120.063 34.956 120.523 35.14C121.014 35.416 121.259 35.7993 121.259 36.29C121.259 36.7807 121.091 37.2253 120.753 37.624C120.447 38.0227 120.109 38.176 119.741 38.084C119.343 38.0227 118.729 37.8233 117.901 37.486C116.429 36.6273 114.835 34.8027 113.117 32.012C112.688 31.3067 112.243 30.586 111.783 29.85C111.354 29.0833 111.032 28.3627 110.817 27.688C110.664 27.1973 110.403 25.2193 110.035 21.754C109.913 20.6807 109.851 19.638 109.851 18.626C109.851 13.198 111.431 8.58267 114.589 4.78C116.429 2.572 118.346 1.468 120.339 1.468C121.198 1.468 121.98 1.72867 122.685 2.25C122.9 2.40333 123.007 2.74067 123.007 3.262ZM145.492 2.342C145.216 3.446 144.694 4.09 143.928 4.274C141.934 4.76467 138.469 5.40867 133.532 6.206C132.918 13.842 132.612 20.2053 132.612 25.296C132.612 27.228 132.642 29.1293 132.704 31C132.734 31.5827 132.704 32.0273 132.612 32.334C132.458 32.8247 132.152 33.0547 131.692 33.024C130.802 32.9933 130.066 32.61 129.484 31.874C128.901 31.1687 128.579 30.3713 128.518 29.482C128.456 28.3473 128.426 27.1513 128.426 25.894C128.426 23.87 128.564 20.6653 128.84 16.28C129.116 12.0787 129.238 8.874 129.208 6.666C128.38 6.60467 127.23 6.68133 125.758 6.896C124.071 7.14133 122.906 7.264 122.262 7.264C120.759 7.264 119.532 6.86533 118.582 6.068C118.214 5.27067 118.03 4.85667 118.03 4.826C118.03 4.61133 118.137 4.38133 118.352 4.136C119.333 3.79867 121.342 3.492 124.378 3.216C127.046 2.94 129.039 2.44933 130.358 1.744C131.431 2.08133 132.658 2.25 134.038 2.25C135.418 2.25 136.736 2.08133 137.994 1.744C138.362 1.71333 139.297 1.49867 140.8 1.1C141.904 0.823998 142.824 0.731999 143.56 0.823999C144.112 0.823999 144.342 1.054 144.25 1.514C145.078 1.514 145.492 1.79 145.492 2.342ZM146.568 2.848H147.074C147.871 3.06267 148.331 3.17 148.454 3.17C148.454 4.12067 148.515 5.04067 148.638 5.93C148.27 10.5607 148.086 13.4587 148.086 14.624V15.13H148.454C150.447 15.13 152.21 16.326 153.744 18.718C153.958 19.086 154.066 19.4233 154.066 19.73V20.742C154.066 25.1887 152.026 28.2093 147.948 29.804C146.966 30.6013 146.23 31 145.74 31H145.188C144.574 31 144.13 30.7087 143.854 30.126C144.007 21.7233 144.176 17.522 144.36 17.522C144.176 17.522 143.946 17.292 143.67 16.832V16.142C144.59 15.498 145.05 13.9033 145.05 11.358C145.387 8.72067 145.556 6.28267 145.556 4.044L145.372 3.354C145.801 3.01667 146.2 2.848 146.568 2.848ZM147.764 17.522C147.764 18.3807 147.595 20.7727 147.258 24.698V25.02L147.442 26.722C149.711 25.5873 150.846 23.9467 150.846 21.8V19.914C150.846 18.5647 149.987 17.7673 148.27 17.522H147.764ZM184.811 3.584H184.995C185.67 3.584 186.161 3.89067 186.467 4.504V4.688C186.467 7.264 185.977 12.5387 184.995 20.512L185.915 20.328C186.651 20.328 187.142 20.696 187.387 21.432C187.265 24.1307 187.203 26.1547 187.203 27.504H187.019L187.203 27.872V29.896C187.203 30.08 186.958 30.3253 186.467 30.632H186.099C184.566 30.632 183.707 29.6507 183.523 27.688V24.928H183.339C182.419 24.928 178.985 25.7867 173.035 27.504V30.448C173.035 30.632 172.851 30.816 172.483 31H171.563C170.214 31 169.539 30.448 169.539 29.344V28.056L169.355 26.216H169.539L169.355 25.848C169.386 25.6333 170.735 24.9587 173.403 23.824C174.139 19.224 174.691 13.52 175.059 6.712C180.947 4.62667 184.198 3.584 184.811 3.584ZM178.555 9.656C178.065 16.648 177.635 21.0027 177.267 22.72H177.451C179.475 22.1067 180.702 21.8 181.131 21.8C181.131 21.4933 181.683 16.8933 182.787 8H182.603C179.935 8.79733 178.586 9.288 178.555 9.472V9.656ZM204.701 21.064C202.892 25.1427 200.331 27.5653 197.019 28.332C196.621 28.424 196.222 28.47 195.823 28.47C194.075 28.47 192.312 27.5193 190.533 25.618C189.337 24.33 188.739 22.6587 188.739 20.604C188.739 18.3347 189.414 15.8967 190.763 13.29C191.346 12.186 192.051 11.2353 192.879 10.438C193.83 9.48733 194.735 9.012 195.593 9.012C196.084 9.012 196.544 9.196 196.973 9.564C197.403 9.932 198.553 10.4227 200.423 11.036C201.895 11.5267 202.938 12.3547 203.551 13.52C204.625 15.5747 205.161 17.338 205.161 18.81C205.161 19.638 205.008 20.3893 204.701 21.064ZM201.021 18.212C200.807 15.9733 200.209 14.6393 199.227 14.21C199.074 14.1487 198.936 14.118 198.813 14.118C198.445 14.118 197.985 14.4247 197.433 15.038C196.82 15.7433 196.345 16.1573 196.007 16.28C195.793 16.372 195.486 16.28 195.087 16.004C194.689 15.728 194.428 15.59 194.305 15.59C194.213 15.59 194.137 15.6207 194.075 15.682C193.002 16.602 192.465 18.028 192.465 19.96C192.465 21.2787 192.772 22.398 193.385 23.318C194.244 24.5753 194.965 25.204 195.547 25.204C196.897 25.204 198.2 24.3607 199.457 22.674C200.653 21.0793 201.175 19.592 201.021 18.212ZM219.32 3.262C219.32 4.09 218.768 4.61133 217.664 4.826C216.222 5.102 215.333 5.424 214.996 5.792C211.561 9.41067 209.844 14.0873 209.844 19.822C209.844 22.5207 210.273 25.066 211.132 27.458C211.837 29.4207 212.343 30.7087 212.65 31.322C213.416 32.8247 214.352 33.898 215.456 34.542C215.916 34.7567 216.376 34.956 216.836 35.14C217.326 35.416 217.572 35.7993 217.572 36.29C217.572 36.7807 217.403 37.2253 217.066 37.624C216.759 38.0227 216.422 38.176 216.054 38.084C215.655 38.0227 215.042 37.8233 214.214 37.486C212.742 36.6273 211.147 34.8027 209.43 32.012C209 31.3067 208.556 30.586 208.096 29.85C207.666 29.0833 207.344 28.3627 207.13 27.688C206.976 27.1973 206.716 25.2193 206.348 21.754C206.225 20.6807 206.164 19.638 206.164 18.626C206.164 13.198 207.743 8.58267 210.902 4.78C212.742 2.572 214.658 1.468 216.652 1.468C217.51 1.468 218.292 1.72867 218.998 2.25C219.212 2.40333 219.32 2.74067 219.32 3.262ZM241.804 2.342C241.528 3.446 241.007 4.09 240.24 4.274C238.247 4.76467 234.781 5.40867 229.844 6.206C229.231 13.842 228.924 20.2053 228.924 25.296C228.924 27.228 228.955 29.1293 229.016 31C229.047 31.5827 229.016 32.0273 228.924 32.334C228.771 32.8247 228.464 33.0547 228.004 33.024C227.115 32.9933 226.379 32.61 225.796 31.874C225.213 31.1687 224.891 30.3713 224.83 29.482C224.769 28.3473 224.738 27.1513 224.738 25.894C224.738 23.87 224.876 20.6653 225.152 16.28C225.428 12.0787 225.551 8.874 225.52 6.666C224.692 6.60467 223.542 6.68133 222.07 6.896C220.383 7.14133 219.218 7.264 218.574 7.264C217.071 7.264 215.845 6.86533 214.894 6.068C214.526 5.27067 214.342 4.85667 214.342 4.826C214.342 4.61133 214.449 4.38133 214.664 4.136C215.645 3.79867 217.654 3.492 220.69 3.216C223.358 2.94 225.351 2.44933 226.67 1.744C227.743 2.08133 228.97 2.25 230.35 2.25C231.73 2.25 233.049 2.08133 234.306 1.744C234.674 1.71333 235.609 1.49867 237.112 1.1C238.216 0.823998 239.136 0.731999 239.872 0.823999C240.424 0.823999 240.654 1.054 240.562 1.514C241.39 1.514 241.804 1.79 241.804 2.342ZM253.598 28.792C253.782 29.2827 253.874 29.712 253.874 30.08C253.874 30.6933 253.613 31.23 253.092 31.69C252.571 32.15 252.218 32.3647 252.034 32.334C250.531 32.058 249.581 30.8467 249.182 28.7C248.753 26.3693 248.247 24.422 247.664 22.858C246.621 22.95 245.579 23.042 244.536 23.134C243.34 23.2873 242.405 23.6553 241.73 24.238C241.393 25.1887 240.948 26.8753 240.396 29.298C239.875 31.5367 239.369 33.2387 238.878 34.404C238.633 34.956 238.111 35.1093 237.314 34.864C236.302 34.5267 235.765 34.0667 235.704 33.484C235.612 32.3187 235.949 30.7547 236.716 28.792C237.636 26.5533 238.142 24.9587 238.234 24.008C238.265 23.732 238.065 23.4253 237.636 23.088C237.207 22.7507 236.992 22.49 236.992 22.306C236.992 22.1527 237.053 21.9993 237.176 21.846C237.329 21.662 237.651 21.524 238.142 21.432C238.663 21.3093 238.955 21.1407 239.016 20.926C239.568 19.3927 240.442 16.5407 241.638 12.37C242.65 8.75133 243.555 5.976 244.352 4.044C244.536 3.61467 244.919 3.4 245.502 3.4C245.931 3.4 246.315 3.538 246.652 3.814C247.511 4.55 248.063 5.654 248.308 7.126C248.492 8.38333 248.661 9.64067 248.814 10.898C250.347 18.1353 251.942 24.1 253.598 28.792ZM246.882 20.006C246.79 18.8713 246.591 17.5987 246.284 16.188C245.977 14.9613 245.686 13.7347 245.41 12.508C244.49 15.0533 243.693 17.5987 243.018 20.144C243.509 20.052 244.797 20.006 246.882 20.006ZM271.054 10.99C270.656 12.646 269.644 14.1487 268.018 15.498C266.454 16.602 264.89 17.6907 263.326 18.764C263.418 19.224 263.725 19.5767 264.246 19.822C264.798 20.0367 265.32 20.2513 265.81 20.466C268.356 22.122 269.628 24.0847 269.628 26.354C269.628 28.102 269.03 29.712 267.834 31.184C266.914 32.3187 265.55 33.438 263.74 34.542C262.268 35.4007 260.796 36.2593 259.324 37.118C258.956 37.3327 258.558 37.44 258.128 37.44C257.116 37.44 256.411 37.026 256.012 36.198C256.074 33.622 256.135 31.0613 256.196 28.516C256.258 25.4493 256.426 22.9193 256.702 20.926C256.058 20.4967 255.736 20.006 255.736 19.454C255.736 19.178 255.844 18.9327 256.058 18.718C256.304 18.4727 256.626 18.212 257.024 17.936C257.392 13.2747 257.469 8.98133 257.254 5.056C255.813 4.78 254.862 4.136 254.402 3.124C254.372 3.00133 254.418 2.81733 254.54 2.572C254.694 2.32666 254.77 2.12733 254.77 1.974C255.476 1.45267 256.258 1.192 257.116 1.192C257.73 1.192 259.14 1.39133 261.348 1.79C262.483 1.974 263.664 2.388 264.89 3.032C268.202 4.74933 270.15 6.42067 270.732 8.046C271.131 9.21133 271.238 10.1927 271.054 10.99ZM266.73 8.69C266.577 7.55533 265.657 6.68133 263.97 6.068C263.725 5.976 263.342 5.77667 262.82 5.47C262.452 5.22467 262.146 5.102 261.9 5.102C261.778 5.102 261.64 5.13267 261.486 5.194C261.456 5.71533 261.44 6.26733 261.44 6.85C261.44 7.64733 261.502 8.99667 261.624 10.898C261.716 12.646 261.747 14.0107 261.716 14.992C261.931 14.992 262.253 14.8387 262.682 14.532C263.112 14.1947 263.357 14.0107 263.418 13.98C264.338 13.5507 265.151 12.83 265.856 11.818C266.562 10.806 266.853 9.76333 266.73 8.69ZM265.35 26.722C265.412 26.3847 265.442 26.0627 265.442 25.756C265.442 24.836 265.151 24.0233 264.568 23.318C263.004 22.5513 262.008 22.168 261.578 22.168C261.333 22.168 261.103 22.214 260.888 22.306C260.919 22.6127 260.934 22.95 260.934 23.318C260.934 23.962 260.842 24.9587 260.658 26.308C260.505 27.6267 260.428 28.6233 260.428 29.298C260.428 30.2793 260.551 31.1687 260.796 31.966C261.164 31.5367 261.732 31.092 262.498 30.632C263.296 30.1413 263.848 29.712 264.154 29.344C264.706 28.7 265.105 27.826 265.35 26.722ZM273.253 2.388H274.403C275.936 2.388 276.703 3.768 276.703 6.528C276.856 8.03067 276.933 9.932 276.933 12.232V13.382C277.117 13.382 280.015 10.254 285.627 3.998H286.777C287.574 3.998 288.095 4.30467 288.341 4.918C288.341 6.35933 284.983 10.622 278.267 17.706L277.807 18.626C282.683 21.11 286.424 23.64 289.031 26.216V26.63C289.031 27.7033 288.126 28.24 286.317 28.24C285.734 27.6267 282.683 25.7253 277.163 22.536V22.766C277.285 26.1087 277.347 28.6233 277.347 30.31C276.795 30.77 276.273 31 275.783 31C273.943 31 273.023 28.9453 273.023 24.836V10.392C273.023 8.79733 272.869 6.28267 272.563 2.848L273.253 2.388ZM295.581 3.4C296.041 3.61466 296.347 3.98266 296.501 4.504C295.519 11.0053 295.029 16.8933 295.029 22.168L295.397 22.352C299.782 12.5387 302.787 7.14133 304.413 6.16H305.333C305.946 6.49733 306.253 6.86533 306.253 7.264C305.762 11.7107 305.517 16.2493 305.517 20.88V28.424C305.517 30.0187 304.965 30.816 303.861 30.816H302.757C302.573 30.816 302.389 30.632 302.205 30.264V15.544H302.021C297.605 24.744 295.029 29.6507 294.293 30.264C293.833 30.632 293.403 30.816 293.005 30.816H292.085C291.778 30.816 291.594 30.5707 291.533 30.08C291.839 12.5387 292.637 3.768 293.925 3.768C294.722 3.52267 295.274 3.4 295.581 3.4Z" fill="#11315F"/>
</svg>
