<svg width="237" height="37" viewBox="0 0 237 37" fill="none" xmlns="http://www.w3.org/2000/svg">
<path d="M14.306 1.388H16.146C17.0047 1.388 17.5567 1.69466 17.802 2.308V3.274L15.456 25.722C15.456 26.1207 15.3793 27.3013 15.226 29.264C15.3793 30.092 15.456 30.9507 15.456 31.84L14.536 32.53H12.65C11.086 31.6407 10.304 30.3067 10.304 28.528C10.304 26.78 10.7793 20.2327 11.73 8.886H11.454C9.27667 8.886 8.188 8.73267 8.188 8.426C6.93067 8.426 6.302 9.36133 6.302 11.232L4.462 29.724L3.266 29.954H3.036C1.012 29.77 0 28.988 0 27.608V27.378C0 26.182 0.705333 18.3773 2.116 3.964V2.814L3.726 2.078C4.89133 2.078 6.14867 3.01333 7.498 4.884C7.774 5.03733 8.47933 5.206 9.614 5.39C11.9447 5.39 13.11 5.068 13.11 4.424C13.3247 2.4 13.7233 1.388 14.306 1.388ZM32.816 14.084C31.6506 16.5987 30.654 18.27 29.826 19.098C28.538 20.386 27.8326 21.0913 27.71 21.214C26.8206 21.9193 25.9313 22.3487 25.042 22.502C24.9193 23.1153 24.858 23.836 24.858 24.664C24.858 25.2467 24.904 26.136 24.996 27.332C25.088 28.4973 25.134 29.356 25.134 29.908C25.134 31.9933 24.6433 33.5573 23.662 34.6C23.662 34.6 23.2326 34.37 22.374 33.91C21.8526 33.634 21.5613 33.2967 21.5 32.898C21.1933 30.9047 21.04 28.6813 21.04 26.228C21.04 24.6027 21.132 22.18 21.316 18.96C21.5 15.74 21.592 13.302 21.592 11.646C21.592 9.254 21.454 7.06133 21.178 5.068C20.9326 5.16 20.7026 5.00666 20.488 4.608C20.2733 4.20933 20.0893 3.97933 19.936 3.918C20.0893 2.93667 20.35 2.446 20.718 2.446C21.178 2.29267 22.1286 2.32333 23.57 2.538C27.5566 3.182 30.562 4.93 32.586 7.782C33.23 8.702 33.552 9.74467 33.552 10.91C33.552 11.922 33.3066 12.98 32.816 14.084ZM29.826 10.542C29.9793 9.31533 29.458 8.34933 28.262 7.644C28.2006 7.644 27.0966 7.19933 24.95 6.31C25.2873 11.9527 25.3946 15.9087 25.272 18.178C28.0013 15.602 29.5193 13.0567 29.826 10.542ZM42.3559 2.4C42.8159 2.61466 43.1226 2.98266 43.2759 3.504C42.2946 10.0053 41.8039 15.8933 41.8039 21.168L42.1719 21.352C46.5573 11.5387 49.5626 6.14133 51.1879 5.16H52.1079C52.7213 5.49733 53.0279 5.86533 53.0279 6.264C52.5373 10.7107 52.2919 15.2493 52.2919 19.88V27.424C52.2919 29.0187 51.7399 29.816 50.6359 29.816H49.5319C49.3479 29.816 49.1639 29.632 48.9799 29.264V14.544H48.7959C44.3799 23.744 41.8039 28.6507 41.0679 29.264C40.6079 29.632 40.1786 29.816 39.7799 29.816H38.8599C38.5533 29.816 38.3693 29.5707 38.3079 29.08C38.6146 11.5387 39.4119 2.768 40.6999 2.768C41.4973 2.52267 42.0493 2.4 42.3559 2.4ZM69.6979 1.618H70.1579C71.7832 1.618 72.7339 2.32333 73.0099 3.734V4.47C72.9486 4.68467 69.3912 5.942 62.3379 8.242C62.1846 8.82467 62.1079 10.5573 62.1079 13.44C62.3839 13.5933 62.7059 13.67 63.0739 13.67C66.3859 13.3633 68.1952 13.21 68.5019 13.21C70.0659 13.4247 70.8479 14.13 70.8479 15.326C70.8479 16.43 68.1799 17.1353 62.8439 17.442C61.5559 17.442 60.9119 19.4967 60.9119 23.606C60.9119 25.354 62.1846 26.228 64.7299 26.228C64.7299 26.3813 65.2819 26.458 66.3859 26.458H69.1919C69.7746 25.9673 70.3266 25.722 70.8479 25.722C71.7986 26.0593 72.2739 26.9333 72.2739 28.344V28.804C72.2739 29.0187 71.8752 29.4173 71.0779 30H67.5359C62.5986 30 59.4552 29.126 58.1059 27.378C57.3086 26.458 56.9099 25.2007 56.9099 23.606V17.718L55.9439 16.522V15.786C57.0479 15.0193 57.5999 13.8387 57.5999 12.244V9.898C56.0359 9.46867 55.2539 8.99333 55.2539 8.472V7.782C55.2539 5.666 60.0686 3.61133 69.6979 1.618ZM97.5919 30.782C97.7145 31.3953 97.2699 31.7327 96.2579 31.794C95.5832 31.8247 94.8932 31.5333 94.1879 30.92C93.6052 30.3987 93.1452 29.5553 92.8079 28.39C92.5012 27.3167 92.3172 25.7987 92.2559 23.836C92.1945 21.628 92.0872 20.11 91.9339 19.282C91.5352 20.662 90.8759 22.7167 89.9559 25.446C89.4039 26.9487 89.0665 27.8073 88.9439 28.022C88.4532 28.9727 87.8399 29.402 87.1039 29.31C85.6319 28.9727 84.4972 28.1447 83.6999 26.826C83.1785 25.9673 82.6879 24.6027 82.2279 22.732C81.7372 20.6773 81.3232 19.2973 80.9859 18.592C79.6672 25.0013 78.2565 29.7853 76.7539 32.944C76.5392 33.404 75.8952 33.3733 74.8219 32.852C73.9325 32.4227 73.4879 31.8093 73.4879 31.012C73.4879 30.736 73.8099 29.7547 74.4539 28.068C74.7299 27.332 75.8032 23.79 77.6739 17.442C78.3179 15.234 78.9925 11.3547 79.6979 5.804C79.7592 5.74267 79.9125 5.42067 80.1579 4.838C80.3112 4.40866 80.5872 4.194 80.9859 4.194C82.0285 4.194 82.7492 4.39333 83.1479 4.792C83.1479 5.68133 83.2859 7.12266 83.5619 9.116C83.8685 11.0787 84.0219 12.566 84.0219 13.578C84.2979 15.2953 84.5585 17.028 84.8039 18.776C85.1412 20.7387 85.7545 22.3487 86.6439 23.606C89.5879 15.418 91.4585 8.94733 92.2559 4.194C92.3785 3.70333 92.8385 3.458 93.6359 3.458C94.7705 3.458 95.4145 3.826 95.5679 4.562C95.7825 5.666 95.8899 6.93867 95.8899 8.38C95.8899 8.84 95.8592 9.83667 95.7979 11.37C95.7672 12.658 95.7672 13.7007 95.7979 14.498C96.0739 20.9687 96.6719 26.3967 97.5919 30.782ZM118.794 3.136H119.346C123.149 3.412 125.05 4.332 125.05 5.896V6.632C125.05 7.88933 123.456 10.2813 120.266 13.808C123.088 13.808 124.928 15.1573 125.786 17.856C125.909 18.5307 125.97 19.0827 125.97 19.512V20.248C125.97 21.536 124.437 25.4 121.37 31.84C120.328 32.8213 119.346 33.312 118.426 33.312H117.138C115.268 33.312 113.918 32.1467 113.09 29.816V29.264C113.09 28.896 113.826 28.528 115.298 28.16C116.126 29.1413 116.985 29.816 117.874 30.184C118.886 30.092 120.42 27.4547 122.474 22.272C122.597 21.0453 122.658 20.1253 122.658 19.512V18.592C122.658 17.3653 122.229 16.752 121.37 16.752C120.88 16.752 119.469 16.9973 117.138 17.488L115.298 15.648C115.298 15.1267 117.138 12.5507 120.818 7.92C121.064 7.52133 121.186 7.15333 121.186 6.816C121.186 6.32533 120.512 6.01866 119.162 5.896C118.304 5.896 116.832 6.32533 114.746 7.184C114.378 6.724 114.194 6.29466 114.194 5.896V5.712C115.206 3.99467 116.74 3.136 118.794 3.136ZM146.504 27.792C146.688 28.2827 146.78 28.712 146.78 29.08C146.78 29.6933 146.52 30.23 145.998 30.69C145.477 31.15 145.124 31.3647 144.94 31.334C143.438 31.058 142.487 29.8467 142.088 27.7C141.659 25.3693 141.153 23.422 140.57 21.858C139.528 21.95 138.485 22.042 137.442 22.134C136.246 22.2873 135.311 22.6553 134.636 23.238C134.299 24.1887 133.854 25.8753 133.302 28.298C132.781 30.5367 132.275 32.2387 131.784 33.404C131.539 33.956 131.018 34.1093 130.22 33.864C129.208 33.5267 128.672 33.0667 128.61 32.484C128.518 31.3187 128.856 29.7547 129.622 27.792C130.542 25.5533 131.048 23.9587 131.14 23.008C131.171 22.732 130.972 22.4253 130.542 22.088C130.113 21.7507 129.898 21.49 129.898 21.306C129.898 21.1527 129.96 20.9993 130.082 20.846C130.236 20.662 130.558 20.524 131.048 20.432C131.57 20.3093 131.861 20.1407 131.922 19.926C132.474 18.3927 133.348 15.5407 134.544 11.37C135.556 7.75133 136.461 4.976 137.258 3.044C137.442 2.61467 137.826 2.4 138.408 2.4C138.838 2.4 139.221 2.538 139.558 2.814C140.417 3.55 140.969 4.654 141.214 6.126C141.398 7.38333 141.567 8.64067 141.72 9.898C143.254 17.1353 144.848 23.1 146.504 27.792ZM139.788 19.006C139.696 17.8713 139.497 16.5987 139.19 15.188C138.884 13.9613 138.592 12.7347 138.316 11.508C137.396 14.0533 136.599 16.5987 135.924 19.144C136.415 19.052 137.703 19.006 139.788 19.006ZM148.505 1.388H149.655C151.188 1.388 151.955 2.768 151.955 5.528C152.108 7.03067 152.185 8.932 152.185 11.232V12.382C152.369 12.382 155.267 9.254 160.879 2.998H162.029C162.826 2.998 163.347 3.30467 163.593 3.918C163.593 5.35933 160.235 9.622 153.519 16.706L153.059 17.626C157.935 20.11 161.676 22.64 164.283 25.216V25.63C164.283 26.7033 163.378 27.24 161.569 27.24C160.986 26.6267 157.935 24.7253 152.415 21.536V21.766C152.537 25.1087 152.599 27.6233 152.599 29.31C152.047 29.77 151.525 30 151.035 30C149.195 30 148.275 27.9453 148.275 23.836V9.392C148.275 7.79733 148.121 5.28267 147.815 1.848L148.505 1.388ZM183.161 27.792C183.345 28.2827 183.437 28.712 183.437 29.08C183.437 29.6933 183.176 30.23 182.655 30.69C182.133 31.15 181.781 31.3647 181.597 31.334C180.094 31.058 179.143 29.8467 178.745 27.7C178.315 25.3693 177.809 23.422 177.227 21.858C176.184 21.95 175.141 22.042 174.099 22.134C172.903 22.2873 171.967 22.6553 171.293 23.238C170.955 24.1887 170.511 25.8753 169.959 28.298C169.437 30.5367 168.931 32.2387 168.441 33.404C168.195 33.956 167.674 34.1093 166.877 33.864C165.865 33.5267 165.328 33.0667 165.266 32.484C165.174 31.3187 165.512 29.7547 166.279 27.792C167.199 25.5533 167.705 23.9587 167.797 23.008C167.827 22.732 167.628 22.4253 167.199 22.088C166.769 21.7507 166.555 21.49 166.555 21.306C166.555 21.1527 166.616 20.9993 166.739 20.846C166.892 20.662 167.214 20.524 167.705 20.432C168.226 20.3093 168.517 20.1407 168.579 19.926C169.131 18.3927 170.005 15.5407 171.201 11.37C172.213 7.75133 173.117 4.976 173.915 3.044C174.099 2.61467 174.482 2.4 175.065 2.4C175.494 2.4 175.877 2.538 176.215 2.814C177.073 3.55 177.625 4.654 177.871 6.126C178.055 7.38333 178.223 8.64067 178.377 9.898C179.91 17.1353 181.505 23.1 183.161 27.792ZM176.445 19.006C176.353 17.8713 176.153 16.5987 175.847 15.188C175.54 13.9613 175.249 12.7347 174.973 11.508C174.053 14.0533 173.255 16.5987 172.581 19.144C173.071 19.052 174.359 19.006 176.445 19.006ZM192.107 3.136H192.659C196.461 3.412 198.363 4.332 198.363 5.896V6.632C198.363 7.88933 196.768 10.2813 193.579 13.808C196.4 13.808 198.24 15.1573 199.099 17.856C199.221 18.5307 199.283 19.0827 199.283 19.512V20.248C199.283 21.536 197.749 25.4 194.683 31.84C193.64 32.8213 192.659 33.312 191.739 33.312H190.451C188.58 33.312 187.231 32.1467 186.403 29.816V29.264C186.403 28.896 187.139 28.528 188.611 28.16C189.439 29.1413 190.297 29.816 191.187 30.184C192.199 30.092 193.732 27.4547 195.787 22.272C195.909 21.0453 195.971 20.1253 195.971 19.512V18.592C195.971 17.3653 195.541 16.752 194.683 16.752C194.192 16.752 192.781 16.9973 190.451 17.488L188.611 15.648C188.611 15.1267 190.451 12.5507 194.131 7.92C194.376 7.52133 194.499 7.15333 194.499 6.816C194.499 6.32533 193.824 6.01866 192.475 5.896C191.616 5.896 190.144 6.32533 188.059 7.184C187.691 6.724 187.507 6.29466 187.507 5.896V5.712C188.519 3.99467 190.052 3.136 192.107 3.136ZM218.897 20.064C217.087 24.1427 214.527 26.5653 211.215 27.332C210.816 27.424 210.417 27.47 210.019 27.47C208.271 27.47 206.507 26.5193 204.729 24.618C203.533 23.33 202.935 21.6587 202.935 19.604C202.935 17.3347 203.609 14.8967 204.959 12.29C205.541 11.186 206.247 10.2353 207.075 9.438C208.025 8.48733 208.93 8.012 209.789 8.012C210.279 8.012 210.739 8.196 211.169 8.564C211.598 8.932 212.748 9.42267 214.619 10.036C216.091 10.5267 217.133 11.3547 217.747 12.52C218.82 14.5747 219.357 16.338 219.357 17.81C219.357 18.638 219.203 19.3893 218.897 20.064ZM215.217 17.212C215.002 14.9733 214.404 13.6393 213.423 13.21C213.269 13.1487 213.131 13.118 213.009 13.118C212.641 13.118 212.181 13.4247 211.629 14.038C211.015 14.7433 210.54 15.1573 210.203 15.28C209.988 15.372 209.681 15.28 209.283 15.004C208.884 14.728 208.623 14.59 208.501 14.59C208.409 14.59 208.332 14.6207 208.271 14.682C207.197 15.602 206.661 17.028 206.661 18.96C206.661 20.2787 206.967 21.398 207.581 22.318C208.439 23.5753 209.16 24.204 209.743 24.204C211.092 24.204 212.395 23.3607 213.653 21.674C214.849 20.0793 215.37 18.592 215.217 17.212ZM236.689 9.99C236.29 11.646 235.278 13.1487 233.653 14.498C232.089 15.602 230.525 16.6907 228.961 17.764C229.053 18.224 229.36 18.5767 229.881 18.822C230.433 19.0367 230.954 19.2513 231.445 19.466C233.99 21.122 235.263 23.0847 235.263 25.354C235.263 27.102 234.665 28.712 233.469 30.184C232.549 31.3187 231.184 32.438 229.375 33.542C227.903 34.4007 226.431 35.2593 224.959 36.118C224.591 36.3327 224.192 36.44 223.763 36.44C222.751 36.44 222.046 36.026 221.647 35.198C221.708 32.622 221.77 30.0613 221.831 27.516C221.892 24.4493 222.061 21.9193 222.337 19.926C221.693 19.4967 221.371 19.006 221.371 18.454C221.371 18.178 221.478 17.9327 221.693 17.718C221.938 17.4727 222.26 17.212 222.659 16.936C223.027 12.2747 223.104 7.98133 222.889 4.056C221.448 3.78 220.497 3.136 220.037 2.124C220.006 2.00133 220.052 1.81733 220.175 1.572C220.328 1.32666 220.405 1.12733 220.405 0.973998C221.11 0.452666 221.892 0.192 222.751 0.192C223.364 0.192 224.775 0.391333 226.983 0.789998C228.118 0.973999 229.298 1.388 230.525 2.032C233.837 3.74933 235.784 5.42067 236.367 7.046C236.766 8.21133 236.873 9.19267 236.689 9.99ZM232.365 7.69C232.212 6.55533 231.292 5.68133 229.605 5.068C229.36 4.976 228.976 4.77667 228.455 4.47C228.087 4.22467 227.78 4.102 227.535 4.102C227.412 4.102 227.274 4.13267 227.121 4.194C227.09 4.71533 227.075 5.26733 227.075 5.85C227.075 6.64733 227.136 7.99667 227.259 9.898C227.351 11.646 227.382 13.0107 227.351 13.992C227.566 13.992 227.888 13.8387 228.317 13.532C228.746 13.1947 228.992 13.0107 229.053 12.98C229.973 12.5507 230.786 11.83 231.491 10.818C232.196 9.806 232.488 8.76333 232.365 7.69ZM230.985 25.722C231.046 25.3847 231.077 25.0627 231.077 24.756C231.077 23.836 230.786 23.0233 230.203 22.318C228.639 21.5513 227.642 21.168 227.213 21.168C226.968 21.168 226.738 21.214 226.523 21.306C226.554 21.6127 226.569 21.95 226.569 22.318C226.569 22.962 226.477 23.9587 226.293 25.308C226.14 26.6267 226.063 27.6233 226.063 28.298C226.063 29.2793 226.186 30.1687 226.431 30.966C226.799 30.5367 227.366 30.092 228.133 29.632C228.93 29.1413 229.482 28.712 229.789 28.344C230.341 27.7 230.74 26.826 230.985 25.722Z" fill="#11315F"/>
</svg>
