<svg width="309" height="36" viewBox="0 0 309 36" fill="none" xmlns="http://www.w3.org/2000/svg">
<path d="M1.61 2.388H2.76C4.29333 2.388 5.06 3.768 5.06 6.528C5.21333 8.03067 5.29 9.932 5.29 12.232V13.382C5.474 13.382 8.372 10.254 13.984 3.998H15.134C15.9313 3.998 16.4527 4.30467 16.698 4.918C16.698 6.35933 13.34 10.622 6.624 17.706L6.164 18.626C11.04 21.11 14.7813 23.64 17.388 26.216V26.63C17.388 27.7033 16.4833 28.24 14.674 28.24C14.0913 27.6267 11.04 25.7253 5.52 22.536V22.766C5.64267 26.1087 5.704 28.6233 5.704 30.31C5.152 30.77 4.63067 31 4.14 31C2.3 31 1.38 28.9453 1.38 24.836V10.392C1.38 8.79733 1.22667 6.28267 0.92 2.848L1.61 2.388ZM36.266 28.792C36.45 29.2827 36.542 29.712 36.542 30.08C36.542 30.6933 36.2813 31.23 35.76 31.69C35.2386 32.15 34.886 32.3647 34.702 32.334C33.1993 32.058 32.2486 30.8467 31.85 28.7C31.4206 26.3693 30.9146 24.422 30.332 22.858C29.2893 22.95 28.2466 23.042 27.204 23.134C26.008 23.2873 25.0726 23.6553 24.398 24.238C24.0606 25.1887 23.616 26.8753 23.064 29.298C22.5426 31.5367 22.0366 33.2387 21.546 34.404C21.3006 34.956 20.7793 35.1093 19.982 34.864C18.97 34.5267 18.4333 34.0667 18.372 33.484C18.28 32.3187 18.6173 30.7547 19.384 28.792C20.304 26.5533 20.81 24.9587 20.902 24.008C20.9326 23.732 20.7333 23.4253 20.304 23.088C19.8746 22.7507 19.66 22.49 19.66 22.306C19.66 22.1527 19.7213 21.9993 19.844 21.846C19.9973 21.662 20.3193 21.524 20.81 21.432C21.3313 21.3093 21.6226 21.1407 21.684 20.926C22.236 19.3927 23.11 16.5407 24.306 12.37C25.318 8.75133 26.2226 5.976 27.02 4.044C27.204 3.61467 27.5873 3.4 28.17 3.4C28.5993 3.4 28.9826 3.538 29.32 3.814C30.1786 4.55 30.7306 5.654 30.976 7.126C31.16 8.38333 31.3286 9.64067 31.482 10.898C33.0153 18.1353 34.61 24.1 36.266 28.792ZM29.55 20.006C29.458 18.8713 29.2586 17.5987 28.952 16.188C28.6453 14.9613 28.354 13.7347 28.078 12.508C27.158 15.0533 26.3606 17.5987 25.686 20.144C26.1766 20.052 27.4646 20.006 29.55 20.006ZM38.2663 2.388H39.4163C40.9496 2.388 41.7163 3.768 41.7163 6.528C41.8696 8.03067 41.9463 9.932 41.9463 12.232V13.382C42.1303 13.382 45.0283 10.254 50.6403 3.998H51.7903C52.5876 3.998 53.1089 4.30467 53.3543 4.918C53.3543 6.35933 49.9963 10.622 43.2803 17.706L42.8203 18.626C47.6963 21.11 51.4376 23.64 54.0443 26.216V26.63C54.0443 27.7033 53.1396 28.24 51.3303 28.24C50.7476 27.6267 47.6963 25.7253 42.1763 22.536V22.766C42.2989 26.1087 42.3603 28.6233 42.3603 30.31C41.8083 30.77 41.2869 31 40.7963 31C38.9563 31 38.0363 28.9453 38.0363 24.836V10.392C38.0363 8.79733 37.8829 6.28267 37.5763 2.848L38.2663 2.388ZM80.8802 2.388H82.7202C83.5789 2.388 84.1309 2.69466 84.3762 3.308V4.274L82.0302 26.722C82.0302 27.1207 81.9536 28.3013 81.8002 30.264C81.9536 31.092 82.0302 31.9507 82.0302 32.84L81.1102 33.53H79.2242C77.6602 32.6407 76.8782 31.3067 76.8782 29.528C76.8782 27.78 77.3536 21.2327 78.3042 9.886H78.0282C75.8509 9.886 74.7622 9.73267 74.7622 9.426C73.5049 9.426 72.8762 10.3613 72.8762 12.232L71.0362 30.724L69.8402 30.954H69.6102C67.5862 30.77 66.5742 29.988 66.5742 28.608V28.378C66.5742 27.182 67.2796 19.3773 68.6902 4.964V3.814L70.3002 3.078C71.4656 3.078 72.7229 4.01333 74.0722 5.884C74.3482 6.03733 75.0536 6.206 76.1882 6.39C78.5189 6.39 79.6842 6.068 79.6842 5.424C79.8989 3.4 80.2976 2.388 80.8802 2.388ZM101.92 21.064C100.111 25.1427 97.5502 27.5653 94.2382 28.332C93.8395 28.424 93.4409 28.47 93.0422 28.47C91.2942 28.47 89.5309 27.5193 87.7522 25.618C86.5562 24.33 85.9582 22.6587 85.9582 20.604C85.9582 18.3347 86.6329 15.8967 87.9822 13.29C88.5649 12.186 89.2702 11.2353 90.0982 10.438C91.0489 9.48733 91.9535 9.012 92.8122 9.012C93.3029 9.012 93.7629 9.196 94.1922 9.564C94.6215 9.932 95.7715 10.4227 97.6422 11.036C99.1142 11.5267 100.157 12.3547 100.77 13.52C101.844 15.5747 102.38 17.338 102.38 18.81C102.38 19.638 102.227 20.3893 101.92 21.064ZM98.2402 18.212C98.0255 15.9733 97.4275 14.6393 96.4462 14.21C96.2929 14.1487 96.1549 14.118 96.0322 14.118C95.6642 14.118 95.2042 14.4247 94.6522 15.038C94.0389 15.7433 93.5635 16.1573 93.2262 16.28C93.0115 16.372 92.7049 16.28 92.3062 16.004C91.9075 15.728 91.6469 15.59 91.5242 15.59C91.4322 15.59 91.3555 15.6207 91.2942 15.682C90.2209 16.602 89.6842 18.028 89.6842 19.96C89.6842 21.2787 89.9909 22.398 90.6042 23.318C91.4629 24.5753 92.1835 25.204 92.7662 25.204C94.1155 25.204 95.4189 24.3607 96.6762 22.674C97.8722 21.0793 98.3935 19.592 98.2402 18.212ZM111.432 3.906H112.03C113.656 3.906 114.714 6.54333 115.204 11.818C116.247 16.3873 117.566 21.3247 119.16 26.63V27.458C119.16 27.642 118.7 28.102 117.78 28.838C115.94 28.838 114.622 25.94 113.824 20.144C113.211 18.396 112.613 15.82 112.03 12.416H111.616L106.28 30.816L105.912 31H105.314C104.118 30.724 103.52 30.402 103.52 30.034V29.022C103.52 28.5007 104.578 24.8053 106.694 17.936C108.994 9.41067 110.574 4.734 111.432 3.906ZM134.726 2.526C135.524 2.526 136.045 2.81733 136.29 3.4C134.726 8.98133 131.675 17.1693 127.136 27.964C126.86 28.976 126.722 29.85 126.722 30.586V32.104C126.722 32.9013 126.354 33.484 125.618 33.852H124.514C123.717 33.852 123.073 33.4227 122.582 32.564V32.104C122.582 29.4667 123.962 24.6827 126.722 17.752V17.522L121.478 5.332V5.148C121.908 4.412 122.337 4.044 122.766 4.044C124.576 4.044 125.894 5.424 126.722 8.184C127.397 9.16533 128.118 10.76 128.884 12.968H129.114C130.648 7.448 132.089 3.96733 133.438 2.526H134.726ZM140.059 2.25H140.381C141.423 2.46467 141.945 2.756 141.945 3.124C141.699 8.21467 141.577 12.14 141.577 14.9C141.577 15.6053 141.807 17.0313 142.267 19.178C142.359 19.178 143.11 19.2393 144.521 19.362C144.674 19.362 145.517 19.1933 147.051 18.856C147.327 9.25733 147.679 4.458 148.109 4.458C148.599 3.56867 149.167 3.124 149.811 3.124H149.995C150.608 3.124 151.007 3.33867 151.191 3.768V6.022C150.148 16.7553 149.627 24.974 149.627 30.678L149.121 31H148.247C147.235 31 146.729 30.1413 146.729 28.424C147.066 26.124 147.235 24.2993 147.235 22.95V22.444C147.235 22.352 147.066 22.1833 146.729 21.938L141.439 22.766C139.568 21.9993 138.479 19.1013 138.173 14.072V12.002C138.326 5.62333 138.725 2.434 139.369 2.434C139.583 2.31133 139.813 2.25 140.059 2.25ZM159.626 3.308C160.086 3.52266 160.393 3.89067 160.546 4.412C159.565 10.9133 159.074 16.8013 159.074 22.076L159.442 22.26C163.828 12.4467 166.833 7.04933 168.458 6.068H169.378C169.992 6.40533 170.298 6.77333 170.298 7.172C169.808 11.6187 169.562 16.1573 169.562 20.788V28.332C169.562 29.9267 169.01 30.724 167.906 30.724H166.802C166.618 30.724 166.434 30.54 166.25 30.172V15.452H166.066C161.65 24.652 159.074 29.5587 158.338 30.172C157.878 30.54 157.449 30.724 157.05 30.724H156.13C155.824 30.724 155.64 30.4787 155.578 29.988C155.885 12.4467 156.682 3.676 157.97 3.676C158.768 3.43066 159.32 3.308 159.626 3.308ZM196.029 2.342C195.753 3.446 195.231 4.09 194.465 4.274C192.471 4.76467 189.006 5.40867 184.069 6.206C183.455 13.842 183.149 20.2053 183.149 25.296C183.149 27.228 183.179 29.1293 183.241 31C183.271 31.5827 183.241 32.0273 183.149 32.334C182.995 32.8247 182.689 33.0547 182.229 33.024C181.339 32.9933 180.603 32.61 180.021 31.874C179.438 31.1687 179.116 30.3713 179.055 29.482C178.993 28.3473 178.963 27.1513 178.963 25.894C178.963 23.87 179.101 20.6653 179.377 16.28C179.653 12.0787 179.775 8.874 179.745 6.666C178.917 6.60467 177.767 6.68133 176.295 6.896C174.608 7.14133 173.443 7.264 172.799 7.264C171.296 7.264 170.069 6.86533 169.119 6.068C168.751 5.27067 168.567 4.85667 168.567 4.826C168.567 4.61133 168.674 4.38133 168.889 4.136C169.87 3.79867 171.879 3.492 174.915 3.216C177.583 2.94 179.576 2.44933 180.895 1.744C181.968 2.08133 183.195 2.25 184.575 2.25C185.955 2.25 187.273 2.08133 188.531 1.744C188.899 1.71333 189.834 1.49867 191.337 1.1C192.441 0.823998 193.361 0.731999 194.097 0.823999C194.649 0.823999 194.879 1.054 194.787 1.514C195.615 1.514 196.029 1.79 196.029 2.342ZM197.105 2.848H197.611C198.408 3.06267 198.868 3.17 198.991 3.17C198.991 4.12067 199.052 5.04067 199.175 5.93C198.807 10.5607 198.623 13.4587 198.623 14.624V15.13H198.991C200.984 15.13 202.747 16.326 204.281 18.718C204.495 19.086 204.603 19.4233 204.603 19.73V20.742C204.603 25.1887 202.563 28.2093 198.485 29.804C197.503 30.6013 196.767 31 196.277 31H195.725C195.111 31 194.667 30.7087 194.391 30.126C194.544 21.7233 194.713 17.522 194.897 17.522C194.713 17.522 194.483 17.292 194.207 16.832V16.142C195.127 15.498 195.587 13.9033 195.587 11.358C195.924 8.72067 196.093 6.28267 196.093 4.044L195.909 3.354C196.338 3.01667 196.737 2.848 197.105 2.848ZM198.301 17.522C198.301 18.3807 198.132 20.7727 197.795 24.698V25.02L197.979 26.722C200.248 25.5873 201.383 23.9467 201.383 21.8V19.914C201.383 18.5647 200.524 17.7673 198.807 17.522H198.301ZM228.449 4.136H229.001C232.803 4.412 234.705 5.332 234.705 6.896V7.632C234.705 8.88933 233.11 11.2813 229.921 14.808C232.742 14.808 234.582 16.1573 235.441 18.856C235.563 19.5307 235.625 20.0827 235.625 20.512V21.248C235.625 22.536 234.091 26.4 231.025 32.84C229.982 33.8213 229.001 34.312 228.081 34.312H226.793C224.922 34.312 223.573 33.1467 222.745 30.816V30.264C222.745 29.896 223.481 29.528 224.953 29.16C225.781 30.1413 226.639 30.816 227.529 31.184C228.541 31.092 230.074 28.4547 232.129 23.272C232.251 22.0453 232.313 21.1253 232.313 20.512V19.592C232.313 18.3653 231.883 17.752 231.025 17.752C230.534 17.752 229.123 17.9973 226.793 18.488L224.953 16.648C224.953 16.1267 226.793 13.5507 230.473 8.92C230.718 8.52133 230.841 8.15333 230.841 7.816C230.841 7.32533 230.166 7.01866 228.817 6.896C227.958 6.896 226.486 7.32533 224.401 8.184C224.033 7.724 223.849 7.29466 223.849 6.896V6.712C224.861 4.99467 226.394 4.136 228.449 4.136ZM256.159 28.792C256.343 29.2827 256.435 29.712 256.435 30.08C256.435 30.6933 256.174 31.23 255.653 31.69C255.131 32.15 254.779 32.3647 254.595 32.334C253.092 32.058 252.141 30.8467 251.743 28.7C251.313 26.3693 250.807 24.422 250.225 22.858C249.182 22.95 248.139 23.042 247.097 23.134C245.901 23.2873 244.965 23.6553 244.291 24.238C243.953 25.1887 243.509 26.8753 242.957 29.298C242.435 31.5367 241.929 33.2387 241.439 34.404C241.193 34.956 240.672 35.1093 239.875 34.864C238.863 34.5267 238.326 34.0667 238.265 33.484C238.173 32.3187 238.51 30.7547 239.277 28.792C240.197 26.5533 240.703 24.9587 240.795 24.008C240.825 23.732 240.626 23.4253 240.197 23.088C239.767 22.7507 239.553 22.49 239.553 22.306C239.553 22.1527 239.614 21.9993 239.737 21.846C239.89 21.662 240.212 21.524 240.703 21.432C241.224 21.3093 241.515 21.1407 241.577 20.926C242.129 19.3927 243.003 16.5407 244.199 12.37C245.211 8.75133 246.115 5.976 246.913 4.044C247.097 3.61467 247.48 3.4 248.063 3.4C248.492 3.4 248.875 3.538 249.213 3.814C250.071 4.55 250.623 5.654 250.869 7.126C251.053 8.38333 251.221 9.64067 251.375 10.898C252.908 18.1353 254.503 24.1 256.159 28.792ZM249.443 20.006C249.351 18.8713 249.151 17.5987 248.845 16.188C248.538 14.9613 248.247 13.7347 247.971 12.508C247.051 15.0533 246.253 17.5987 245.579 20.144C246.069 20.052 247.357 20.006 249.443 20.006ZM258.159 2.388H259.309C260.842 2.388 261.609 3.768 261.609 6.528C261.762 8.03067 261.839 9.932 261.839 12.232V13.382C262.023 13.382 264.921 10.254 270.533 3.998H271.683C272.48 3.998 273.001 4.30467 273.247 4.918C273.247 6.35933 269.889 10.622 263.173 17.706L262.713 18.626C267.589 21.11 271.33 23.64 273.937 26.216V26.63C273.937 27.7033 273.032 28.24 271.223 28.24C270.64 27.6267 267.589 25.7253 262.069 22.536V22.766C262.191 26.1087 262.253 28.6233 262.253 30.31C261.701 30.77 261.179 31 260.689 31C258.849 31 257.929 28.9453 257.929 24.836V10.392C257.929 8.79733 257.775 6.28267 257.469 2.848L258.159 2.388ZM292.815 28.792C292.999 29.2827 293.091 29.712 293.091 30.08C293.091 30.6933 292.83 31.23 292.309 31.69C291.787 32.15 291.435 32.3647 291.251 32.334C289.748 32.058 288.797 30.8467 288.399 28.7C287.969 26.3693 287.463 24.422 286.881 22.858C285.838 22.95 284.795 23.042 283.753 23.134C282.557 23.2873 281.621 23.6553 280.947 24.238C280.609 25.1887 280.165 26.8753 279.613 29.298C279.091 31.5367 278.585 33.2387 278.095 34.404C277.849 34.956 277.328 35.1093 276.531 34.864C275.519 34.5267 274.982 34.0667 274.921 33.484C274.829 32.3187 275.166 30.7547 275.933 28.792C276.853 26.5533 277.359 24.9587 277.451 24.008C277.481 23.732 277.282 23.4253 276.853 23.088C276.423 22.7507 276.209 22.49 276.209 22.306C276.209 22.1527 276.27 21.9993 276.393 21.846C276.546 21.662 276.868 21.524 277.359 21.432C277.88 21.3093 278.171 21.1407 278.233 20.926C278.785 19.3927 279.659 16.5407 280.855 12.37C281.867 8.75133 282.771 5.976 283.569 4.044C283.753 3.61467 284.136 3.4 284.719 3.4C285.148 3.4 285.531 3.538 285.869 3.814C286.727 4.55 287.279 5.654 287.525 7.126C287.709 8.38333 287.877 9.64067 288.031 10.898C289.564 18.1353 291.159 24.1 292.815 28.792ZM286.099 20.006C286.007 18.8713 285.807 17.5987 285.501 16.188C285.194 14.9613 284.903 13.7347 284.627 12.508C283.707 15.0533 282.909 17.5987 282.235 20.144C282.725 20.052 284.013 20.006 286.099 20.006ZM301.761 4.136H302.313C306.116 4.412 308.017 5.332 308.017 6.896V7.632C308.017 8.88933 306.422 11.2813 303.233 14.808C306.054 14.808 307.894 16.1573 308.753 18.856C308.876 19.5307 308.937 20.0827 308.937 20.512V21.248C308.937 22.536 307.404 26.4 304.337 32.84C303.294 33.8213 302.313 34.312 301.393 34.312H300.105C298.234 34.312 296.885 33.1467 296.057 30.816V30.264C296.057 29.896 296.793 29.528 298.265 29.16C299.093 30.1413 299.952 30.816 300.841 31.184C301.853 31.092 303.386 28.4547 305.441 23.272C305.564 22.0453 305.625 21.1253 305.625 20.512V19.592C305.625 18.3653 305.196 17.752 304.337 17.752C303.846 17.752 302.436 17.9973 300.105 18.488L298.265 16.648C298.265 16.1267 300.105 13.5507 303.785 8.92C304.03 8.52133 304.153 8.15333 304.153 7.816C304.153 7.32533 303.478 7.01866 302.129 6.896C301.27 6.896 299.798 7.32533 297.713 8.184C297.345 7.724 297.161 7.29466 297.161 6.896V6.712C298.173 4.99467 299.706 4.136 301.761 4.136Z" fill="#11315F"/>
</svg>
