<svg width="235" height="39" viewBox="0 0 235 39" fill="none" xmlns="http://www.w3.org/2000/svg">
<path d="M13.892 3.262C13.892 4.09 13.34 4.61133 12.236 4.826C10.7947 5.102 9.90533 5.424 9.568 5.792C6.13333 9.41067 4.416 14.0873 4.416 19.822C4.416 22.5207 4.84533 25.066 5.704 27.458C6.40933 29.4207 6.91533 30.7087 7.222 31.322C7.98867 32.8247 8.924 33.898 10.028 34.542C10.488 34.7567 10.948 34.956 11.408 35.14C11.8987 35.416 12.144 35.7993 12.144 36.29C12.144 36.7807 11.9753 37.2253 11.638 37.624C11.3313 38.0227 10.994 38.176 10.626 38.084C10.2273 38.0227 9.614 37.8233 8.786 37.486C7.314 36.6273 5.71933 34.8027 4.002 32.012C3.57267 31.3067 3.128 30.586 2.668 29.85C2.23867 29.0833 1.91667 28.3627 1.702 27.688C1.54867 27.1973 1.288 25.2193 0.92 21.754C0.797333 20.6807 0.736 19.638 0.736 18.626C0.736 13.198 2.31533 8.58267 5.474 4.78C7.314 2.572 9.23067 1.468 11.224 1.468C12.0827 1.468 12.8647 1.72867 13.57 2.25C13.7847 2.40333 13.892 2.74067 13.892 3.262ZM26.2103 2.388H28.0503C28.909 2.388 29.461 2.69466 29.7063 3.308V4.274L27.3603 26.722C27.3603 27.1207 27.2836 28.3013 27.1303 30.264C27.2836 31.092 27.3603 31.9507 27.3603 32.84L26.4403 33.53H24.5543C22.9903 32.6407 22.2083 31.3067 22.2083 29.528C22.2083 27.78 22.6836 21.2327 23.6343 9.886H23.3583C21.181 9.886 20.0923 9.73267 20.0923 9.426C18.835 9.426 18.2063 10.3613 18.2063 12.232L16.3663 30.724L15.1703 30.954H14.9403C12.9163 30.77 11.9043 29.988 11.9043 28.608V28.378C11.9043 27.182 12.6096 19.3773 14.0203 4.964V3.814L15.6303 3.078C16.7956 3.078 18.053 4.01333 19.4023 5.884C19.6783 6.03733 20.3836 6.206 21.5183 6.39C23.849 6.39 25.0143 6.068 25.0143 5.424C25.229 3.4 25.6276 2.388 26.2103 2.388ZM47.2503 21.064C45.4409 25.1427 42.8803 27.5653 39.5683 28.332C39.1696 28.424 38.7709 28.47 38.3723 28.47C36.6243 28.47 34.8609 27.5193 33.0823 25.618C31.8863 24.33 31.2883 22.6587 31.2883 20.604C31.2883 18.3347 31.9629 15.8967 33.3123 13.29C33.8949 12.186 34.6003 11.2353 35.4283 10.438C36.3789 9.48733 37.2836 9.012 38.1423 9.012C38.6329 9.012 39.0929 9.196 39.5223 9.564C39.9516 9.932 41.1016 10.4227 42.9723 11.036C44.4443 11.5267 45.4869 12.3547 46.1003 13.52C47.1736 15.5747 47.7103 17.338 47.7103 18.81C47.7103 19.638 47.5569 20.3893 47.2503 21.064ZM43.5703 18.212C43.3556 15.9733 42.7576 14.6393 41.7763 14.21C41.6229 14.1487 41.4849 14.118 41.3623 14.118C40.9943 14.118 40.5343 14.4247 39.9823 15.038C39.3689 15.7433 38.8936 16.1573 38.5563 16.28C38.3416 16.372 38.0349 16.28 37.6363 16.004C37.2376 15.728 36.9769 15.59 36.8543 15.59C36.7623 15.59 36.6856 15.6207 36.6243 15.682C35.5509 16.602 35.0143 18.028 35.0143 19.96C35.0143 21.2787 35.3209 22.398 35.9343 23.318C36.7929 24.5753 37.5136 25.204 38.0963 25.204C39.4456 25.204 40.7489 24.3607 42.0063 22.674C43.2023 21.0793 43.7236 19.592 43.5703 18.212ZM61.8686 3.262C61.8686 4.09 61.3166 4.61133 60.2126 4.826C58.7712 5.102 57.8819 5.424 57.5446 5.792C54.1099 9.41067 52.3926 14.0873 52.3926 19.822C52.3926 22.5207 52.8219 25.066 53.6806 27.458C54.3859 29.4207 54.8919 30.7087 55.1986 31.322C55.9652 32.8247 56.9006 33.898 58.0046 34.542C58.4646 34.7567 58.9246 34.956 59.3846 35.14C59.8752 35.416 60.1206 35.7993 60.1206 36.29C60.1206 36.7807 59.9519 37.2253 59.6146 37.624C59.3079 38.0227 58.9706 38.176 58.6026 38.084C58.2039 38.0227 57.5906 37.8233 56.7626 37.486C55.2906 36.6273 53.6959 34.8027 51.9786 32.012C51.5492 31.3067 51.1046 30.586 50.6446 29.85C50.2152 29.0833 49.8932 28.3627 49.6786 27.688C49.5252 27.1973 49.2646 25.2193 48.8966 21.754C48.7739 20.6807 48.7126 19.638 48.7126 18.626C48.7126 13.198 50.2919 8.58267 53.4506 4.78C55.2906 2.572 57.2072 1.468 59.2006 1.468C60.0592 1.468 60.8412 1.72867 61.5466 2.25C61.7612 2.40333 61.8686 2.74067 61.8686 3.262ZM76.8089 21.064C74.9995 25.1427 72.4389 27.5653 69.1269 28.332C68.7282 28.424 68.3295 28.47 67.9309 28.47C66.1829 28.47 64.4195 27.5193 62.6409 25.618C61.4449 24.33 60.8469 22.6587 60.8469 20.604C60.8469 18.3347 61.5215 15.8967 62.8709 13.29C63.4535 12.186 64.1589 11.2353 64.9869 10.438C65.9375 9.48733 66.8422 9.012 67.7009 9.012C68.1915 9.012 68.6515 9.196 69.0809 9.564C69.5102 9.932 70.6602 10.4227 72.5309 11.036C74.0029 11.5267 75.0455 12.3547 75.6589 13.52C76.7322 15.5747 77.2689 17.338 77.2689 18.81C77.2689 19.638 77.1155 20.3893 76.8089 21.064ZM73.1289 18.212C72.9142 15.9733 72.3162 14.6393 71.3349 14.21C71.1815 14.1487 71.0435 14.118 70.9209 14.118C70.5529 14.118 70.0929 14.4247 69.5409 15.038C68.9275 15.7433 68.4522 16.1573 68.1149 16.28C67.9002 16.372 67.5935 16.28 67.1949 16.004C66.7962 15.728 66.5355 15.59 66.4129 15.59C66.3209 15.59 66.2442 15.6207 66.1829 15.682C65.1095 16.602 64.5729 18.028 64.5729 19.96C64.5729 21.2787 64.8795 22.398 65.4929 23.318C66.3515 24.5753 67.0722 25.204 67.6549 25.204C69.0042 25.204 70.3075 24.3607 71.5649 22.674C72.7609 21.0793 73.2822 19.592 73.1289 18.212ZM81.9512 1.928H82.5032C86.9805 1.928 90.5992 3.64533 93.3592 7.08C93.6045 7.57067 93.7272 8.24533 93.7272 9.104C93.7272 9.748 93.4818 10.1773 92.9912 10.392H92.2552C90.6605 10.392 89.8632 9.288 89.8632 7.08C89.4338 6.712 88.3912 6.09867 86.7352 5.24H85.9992C86.1218 8.33733 86.1832 10.6067 86.1832 12.048V13.888H86.5512C88.7592 13.888 90.6605 15.176 92.2552 17.752C92.5005 18.1507 92.6232 18.5187 92.6232 18.856V19.776C92.6232 24.4987 90.7218 27.6267 86.9192 29.16C85.2325 30.3867 84.1285 31 83.6072 31H83.0552C82.3805 31 81.8898 30.6933 81.5832 30.08V29.712C81.5832 25.0507 81.7058 20.5733 81.9512 16.28C81.7058 16.28 81.4605 15.912 81.2152 15.176C81.9512 14.348 82.3192 13.7347 82.3192 13.336C82.4418 12.1707 82.5032 10.8827 82.5032 9.472V5.056C81.7365 5.056 81.0005 4.56533 80.2952 3.584V3.4C80.2952 2.41867 80.8472 1.928 81.9512 1.928ZM85.6312 16.464C85.6312 16.7093 85.6925 16.832 85.8152 16.832C85.4472 19.6533 85.2632 22.536 85.2632 25.48L85.4472 26.4C87.9005 25.204 89.1272 23.3027 89.1272 20.696V19.04C89.1272 17.66 88.1458 16.74 86.1832 16.28C85.9378 16.4027 85.7538 16.464 85.6312 16.464ZM98.2531 3.998H99.2191C100.108 3.998 100.553 4.48867 100.553 5.47C100.645 6.26733 100.691 6.712 100.691 6.804C100.354 11.1893 100.185 14.1333 100.185 15.636V15.774H100.553C102.454 15.774 104.141 16.924 105.613 19.224C105.828 19.592 105.935 19.914 105.935 20.19V21.018C105.935 25.2193 104.248 27.9947 100.875 29.344C99.4031 30.448 98.4218 31 97.9311 31H97.4251C96.8425 31 96.4131 30.724 96.1371 30.172C96.2598 22.1067 96.4131 18.074 96.5971 18.074C96.4438 18.074 96.2291 17.8593 95.9531 17.43V16.786C96.8118 16.142 97.2411 14.6087 97.2411 12.186C97.5785 9.57933 97.7471 7.18733 97.7471 5.01C97.6551 4.79533 97.6091 4.62667 97.6091 4.504L98.2531 3.998ZM110.673 3.998H110.995C112.314 3.998 112.973 4.38133 112.973 5.148V7.632L111.501 29.85V30.172L110.673 30.816H110.029C108.925 30.816 108.373 29.6813 108.373 27.412L110.167 5.654L110.029 4.504L110.673 3.998ZM99.8631 18.074C99.7711 20.5887 99.6178 22.72 99.4031 24.468V25.296L99.5411 26.906C101.718 25.894 102.807 24.2073 102.807 21.846V20.374C102.807 19.1167 101.994 18.35 100.369 18.074H99.8631ZM142.799 21.064C140.99 25.1427 138.429 27.5653 135.117 28.332C134.718 28.424 134.32 28.47 133.921 28.47C132.173 28.47 130.41 27.5193 128.631 25.618C127.435 24.33 126.837 22.6587 126.837 20.604C126.837 18.3347 127.512 15.8967 128.861 13.29C129.444 12.186 130.149 11.2353 130.977 10.438C131.928 9.48733 132.832 9.012 133.691 9.012C134.182 9.012 134.642 9.196 135.071 9.564C135.5 9.932 136.65 10.4227 138.521 11.036C139.993 11.5267 141.036 12.3547 141.649 13.52C142.722 15.5747 143.259 17.338 143.259 18.81C143.259 19.638 143.106 20.3893 142.799 21.064ZM139.119 18.212C138.904 15.9733 138.306 14.6393 137.325 14.21C137.172 14.1487 137.034 14.118 136.911 14.118C136.543 14.118 136.083 14.4247 135.531 15.038C134.918 15.7433 134.442 16.1573 134.105 16.28C133.89 16.372 133.584 16.28 133.185 16.004C132.786 15.728 132.526 15.59 132.403 15.59C132.311 15.59 132.234 15.6207 132.173 15.682C131.1 16.602 130.563 18.028 130.563 19.96C130.563 21.2787 130.87 22.398 131.483 23.318C132.342 24.5753 133.062 25.204 133.645 25.204C134.994 25.204 136.298 24.3607 137.555 22.674C138.751 21.0793 139.272 19.592 139.119 18.212ZM157.831 2.388H159.671C160.53 2.388 161.082 2.69466 161.327 3.308V4.274L158.981 26.722C158.981 27.1207 158.905 28.3013 158.751 30.264C158.905 31.092 158.981 31.9507 158.981 32.84L158.061 33.53H156.175C154.611 32.6407 153.829 31.3067 153.829 29.528C153.829 27.78 154.305 21.2327 155.255 9.886H154.979C152.802 9.886 151.713 9.73267 151.713 9.426C150.456 9.426 149.827 10.3613 149.827 12.232L147.987 30.724L146.791 30.954H146.561C144.537 30.77 143.525 29.988 143.525 28.608V28.378C143.525 27.182 144.231 19.3773 145.641 4.964V3.814L147.251 3.078C148.417 3.078 149.674 4.01333 151.023 5.884C151.299 6.03733 152.005 6.206 153.139 6.39C155.47 6.39 156.635 6.068 156.635 5.424C156.85 3.4 157.249 2.388 157.831 2.388ZM170.729 3.906H171.327C172.953 3.906 174.011 6.54333 174.501 11.818C175.544 16.3873 176.863 21.3247 178.457 26.63V27.458C178.457 27.642 177.997 28.102 177.077 28.838C175.237 28.838 173.919 25.94 173.121 20.144C172.508 18.396 171.91 15.82 171.327 12.416H170.913L165.577 30.816L165.209 31H164.611C163.415 30.724 162.817 30.402 162.817 30.034V29.022C162.817 28.5007 163.875 24.8053 165.991 17.936C168.291 9.41067 169.871 4.734 170.729 3.906ZM198.209 28.792C198.393 29.2827 198.485 29.712 198.485 30.08C198.485 30.6933 198.225 31.23 197.703 31.69C197.182 32.15 196.829 32.3647 196.645 32.334C195.143 32.058 194.192 30.8467 193.793 28.7C193.364 26.3693 192.858 24.422 192.275 22.858C191.233 22.95 190.19 23.042 189.147 23.134C187.951 23.2873 187.016 23.6553 186.341 24.238C186.004 25.1887 185.559 26.8753 185.007 29.298C184.486 31.5367 183.98 33.2387 183.489 34.404C183.244 34.956 182.723 35.1093 181.925 34.864C180.913 34.5267 180.377 34.0667 180.315 33.484C180.223 32.3187 180.561 30.7547 181.327 28.792C182.247 26.5533 182.753 24.9587 182.845 24.008C182.876 23.732 182.677 23.4253 182.247 23.088C181.818 22.7507 181.603 22.49 181.603 22.306C181.603 22.1527 181.665 21.9993 181.787 21.846C181.941 21.662 182.263 21.524 182.753 21.432C183.275 21.3093 183.566 21.1407 183.627 20.926C184.179 19.3927 185.053 16.5407 186.249 12.37C187.261 8.75133 188.166 5.976 188.963 4.044C189.147 3.61467 189.531 3.4 190.113 3.4C190.543 3.4 190.926 3.538 191.263 3.814C192.122 4.55 192.674 5.654 192.919 7.126C193.103 8.38333 193.272 9.64067 193.425 10.898C194.959 18.1353 196.553 24.1 198.209 28.792ZM191.493 20.006C191.401 18.8713 191.202 17.5987 190.895 16.188C190.589 14.9613 190.297 13.7347 190.021 12.508C189.101 15.0533 188.304 17.5987 187.629 20.144C188.12 20.052 189.408 20.006 191.493 20.006ZM223.072 2.342C222.796 3.446 222.274 4.09 221.508 4.274C219.514 4.76467 216.049 5.40867 211.112 6.206C210.498 13.842 210.192 20.2053 210.192 25.296C210.192 27.228 210.222 29.1293 210.284 31C210.314 31.5827 210.284 32.0273 210.192 32.334C210.038 32.8247 209.732 33.0547 209.272 33.024C208.382 32.9933 207.646 32.61 207.064 31.874C206.481 31.1687 206.159 30.3713 206.098 29.482C206.036 28.3473 206.006 27.1513 206.006 25.894C206.006 23.87 206.144 20.6653 206.42 16.28C206.696 12.0787 206.818 8.874 206.788 6.666C205.96 6.60467 204.81 6.68133 203.338 6.896C201.651 7.14133 200.486 7.264 199.842 7.264C198.339 7.264 197.112 6.86533 196.162 6.068C195.794 5.27067 195.61 4.85667 195.61 4.826C195.61 4.61133 195.717 4.38133 195.932 4.136C196.913 3.79867 198.922 3.492 201.958 3.216C204.626 2.94 206.619 2.44933 207.938 1.744C209.011 2.08133 210.238 2.25 211.618 2.25C212.998 2.25 214.316 2.08133 215.574 1.744C215.942 1.71333 216.877 1.49867 218.38 1.1C219.484 0.823998 220.404 0.731999 221.14 0.823999C221.692 0.823999 221.922 1.054 221.83 1.514C222.658 1.514 223.072 1.79 223.072 2.342ZM219.318 3.998H220.284C221.173 3.998 221.618 4.48867 221.618 5.47C221.71 6.26733 221.756 6.712 221.756 6.804C221.418 11.1893 221.25 14.1333 221.25 15.636V15.774H221.618C223.519 15.774 225.206 16.924 226.678 19.224C226.892 19.592 227 19.914 227 20.19V21.018C227 25.2193 225.313 27.9947 221.94 29.344C220.468 30.448 219.486 31 218.996 31H218.49C217.907 31 217.478 30.724 217.202 30.172C217.324 22.1067 217.478 18.074 217.662 18.074C217.508 18.074 217.294 17.8593 217.018 17.43V16.786C217.876 16.142 218.306 14.6087 218.306 12.186C218.643 9.57933 218.812 7.18733 218.812 5.01C218.72 4.79533 218.674 4.62667 218.674 4.504L219.318 3.998ZM231.738 3.998H232.06C233.378 3.998 234.038 4.38133 234.038 5.148V7.632L232.566 29.85V30.172L231.738 30.816H231.094C229.99 30.816 229.438 29.6813 229.438 27.412L231.232 5.654L231.094 4.504L231.738 3.998ZM220.928 18.074C220.836 20.5887 220.682 22.72 220.468 24.468V25.296L220.606 26.906C222.783 25.894 223.872 24.2073 223.872 21.846V20.374C223.872 19.1167 223.059 18.35 221.434 18.074H220.928Z" fill="#11315F"/>
</svg>
