<svg width="446" height="38" viewBox="0 0 446 38" fill="none" xmlns="http://www.w3.org/2000/svg">
<path d="M24.92 30.782C25.0427 31.3953 24.598 31.7327 23.586 31.794C22.9113 31.8247 22.2213 31.5333 21.516 30.92C20.9333 30.3987 20.4733 29.5553 20.136 28.39C19.8293 27.3167 19.6453 25.7987 19.584 23.836C19.5227 21.628 19.4153 20.11 19.262 19.282C18.8633 20.662 18.204 22.7167 17.284 25.446C16.732 26.9487 16.3947 27.8073 16.272 28.022C15.7813 28.9727 15.168 29.402 14.432 29.31C12.96 28.9727 11.8253 28.1447 11.028 26.826C10.5067 25.9673 10.016 24.6027 9.556 22.732C9.06533 20.6773 8.65133 19.2973 8.314 18.592C6.99533 25.0013 5.58467 29.7853 4.082 32.944C3.86733 33.404 3.22333 33.3733 2.15 32.852C1.26067 32.4227 0.816 31.8093 0.816 31.012C0.816 30.736 1.138 29.7547 1.782 28.068C2.058 27.332 3.13133 23.79 5.002 17.442C5.646 15.234 6.32067 11.3547 7.026 5.804C7.08733 5.74267 7.24067 5.42067 7.486 4.838C7.63933 4.40866 7.91533 4.194 8.314 4.194C9.35667 4.194 10.0773 4.39333 10.476 4.792C10.476 5.68133 10.614 7.12266 10.89 9.116C11.1967 11.0787 11.35 12.566 11.35 13.578C11.626 15.2953 11.8867 17.028 12.132 18.776C12.4693 20.7387 13.0827 22.3487 13.972 23.606C16.916 15.418 18.7867 8.94733 19.584 4.194C19.7067 3.70333 20.1667 3.458 20.964 3.458C22.0987 3.458 22.7427 3.826 22.896 4.562C23.1107 5.666 23.218 6.93867 23.218 8.38C23.218 8.84 23.1873 9.83667 23.126 11.37C23.0953 12.658 23.0953 13.7007 23.126 14.498C23.402 20.9687 24 26.3967 24.92 30.782ZM31.5864 2.4C32.0464 2.61466 32.3531 2.98266 32.5064 3.504C31.5251 10.0053 31.0344 15.8933 31.0344 21.168L31.4024 21.352C35.7877 11.5387 38.7931 6.14133 40.4184 5.16H41.3384C41.9517 5.49733 42.2584 5.86533 42.2584 6.264C41.7677 10.7107 41.5224 15.2493 41.5224 19.88V27.424C41.5224 29.0187 40.9704 29.816 39.8664 29.816H38.7624C38.5784 29.816 38.3944 29.632 38.2104 29.264V14.544H38.0264C33.6104 23.744 31.0344 28.6507 30.2984 29.264C29.8384 29.632 29.4091 29.816 29.0104 29.816H28.0904C27.7837 29.816 27.5997 29.5707 27.5384 29.08C27.8451 11.5387 28.6424 2.768 29.9304 2.768C30.7277 2.52267 31.2797 2.4 31.5864 2.4ZM61.5044 4.286C61.443 7.01533 60.9984 11.3393 60.1704 17.258C59.4037 22.87 59.0204 27.1787 59.0204 30.184C59.0204 31.1347 59.051 32.0393 59.1124 32.898C59.1124 33.1127 59.0204 33.312 58.8364 33.496C58.6524 33.7107 58.4377 33.818 58.1924 33.818C57.3337 33.818 56.7664 33.7413 56.4904 33.588C55.325 32.9133 54.7424 31.6407 54.7424 29.77C54.7424 29.402 54.7577 28.8347 54.7884 28.068C54.8497 27.2707 54.8804 26.688 54.8804 26.32C54.8804 25.7067 54.957 24.7713 55.1104 23.514C55.2637 22.2567 55.3404 21.2907 55.3404 20.616C54.911 20.6467 54.313 20.5853 53.5464 20.432C52.8104 20.2787 52.2737 20.202 51.9364 20.202C51.5377 20.202 51.1544 20.2633 50.7864 20.386C50.0504 22.8087 49.621 26.3813 49.4984 31.104C48.4557 31.5333 47.4437 31.4873 46.4624 30.966C45.757 30.598 45.4044 29.862 45.4044 28.758C45.4044 28.5127 45.4197 28.1907 45.4504 27.792C45.5117 27.3627 45.5424 27.102 45.5424 27.01C45.6344 25.354 45.987 22.0727 46.6004 17.166C47.1217 13.0567 47.367 9.79067 47.3364 7.368C47.3364 7.03067 47.5664 6.816 48.0264 6.724C48.517 6.632 48.793 6.54 48.8544 6.448C49.0384 6.66267 49.483 6.84667 50.1884 7C50.771 7.12267 51.1237 7.39867 51.2464 7.828C51.4917 8.59467 51.6144 9.45333 51.6144 10.404C51.6144 11.0787 51.507 12.152 51.2924 13.624C51.1084 15.0653 51.0164 16.1693 51.0164 16.936C51.3844 17.212 51.8444 17.3807 52.3964 17.442C52.7644 17.5033 53.2857 17.5187 53.9604 17.488C54.8497 17.4267 55.3864 17.396 55.5704 17.396C56.337 14.176 57.0117 10.0053 57.5944 4.884C57.717 3.81067 58.1004 3.274 58.7444 3.274C60.3697 3.12067 61.2897 3.458 61.5044 4.286ZM68.6919 2.4C69.1519 2.61466 69.4585 2.98266 69.6119 3.504C68.6305 10.0053 68.1399 15.8933 68.1399 21.168L68.5079 21.352C72.8932 11.5387 75.8985 6.14133 77.5239 5.16H78.4439C79.0572 5.49733 79.3639 5.86533 79.3639 6.264C78.8732 10.7107 78.6279 15.2493 78.6279 19.88V27.424C78.6279 29.0187 78.0759 29.816 76.9719 29.816H75.8679C75.6839 29.816 75.4999 29.632 75.3159 29.264V14.544H75.1319C70.7159 23.744 68.1399 28.6507 67.4039 29.264C66.9439 29.632 66.5145 29.816 66.1159 29.816H65.1959C64.8892 29.816 64.7052 29.5707 64.6439 29.08C64.9505 11.5387 65.7479 2.768 67.0359 2.768C67.8332 2.52267 68.3852 2.4 68.6919 2.4ZM105.51 30.782C105.633 31.3953 105.188 31.7327 104.176 31.794C103.501 31.8247 102.811 31.5333 102.106 30.92C101.523 30.3987 101.063 29.5553 100.726 28.39C100.419 27.3167 100.235 25.7987 100.174 23.836C100.113 21.628 100.005 20.11 99.8518 19.282C99.4532 20.662 98.7938 22.7167 97.8738 25.446C97.3218 26.9487 96.9845 27.8073 96.8618 28.022C96.3712 28.9727 95.7578 29.402 95.0218 29.31C93.5498 28.9727 92.4152 28.1447 91.6178 26.826C91.0965 25.9673 90.6058 24.6027 90.1458 22.732C89.6552 20.6773 89.2412 19.2973 88.9038 18.592C87.5852 25.0013 86.1745 29.7853 84.6718 32.944C84.4572 33.404 83.8132 33.3733 82.7398 32.852C81.8505 32.4227 81.4058 31.8093 81.4058 31.012C81.4058 30.736 81.7278 29.7547 82.3718 28.068C82.6478 27.332 83.7212 23.79 85.5918 17.442C86.2358 15.234 86.9105 11.3547 87.6158 5.804C87.6772 5.74267 87.8305 5.42067 88.0758 4.838C88.2292 4.40866 88.5052 4.194 88.9038 4.194C89.9465 4.194 90.6672 4.39333 91.0658 4.792C91.0658 5.68133 91.2038 7.12266 91.4798 9.116C91.7865 11.0787 91.9398 12.566 91.9398 13.578C92.2158 15.2953 92.4765 17.028 92.7218 18.776C93.0592 20.7387 93.6725 22.3487 94.5618 23.606C97.5058 15.418 99.3765 8.94733 100.174 4.194C100.297 3.70333 100.757 3.458 101.554 3.458C102.689 3.458 103.333 3.826 103.486 4.562C103.701 5.666 103.808 6.93867 103.808 8.38C103.808 8.84 103.777 9.83667 103.716 11.37C103.685 12.658 103.685 13.7007 103.716 14.498C103.992 20.9687 104.59 26.3967 105.51 30.782ZM124.504 27.792C124.688 28.2827 124.78 28.712 124.78 29.08C124.78 29.6933 124.52 30.23 123.998 30.69C123.477 31.15 123.124 31.3647 122.94 31.334C121.438 31.058 120.487 29.8467 120.088 27.7C119.659 25.3693 119.153 23.422 118.57 21.858C117.528 21.95 116.485 22.042 115.442 22.134C114.246 22.2873 113.311 22.6553 112.636 23.238C112.299 24.1887 111.854 25.8753 111.302 28.298C110.781 30.5367 110.275 32.2387 109.784 33.404C109.539 33.956 109.018 34.1093 108.22 33.864C107.208 33.5267 106.672 33.0667 106.61 32.484C106.518 31.3187 106.856 29.7547 107.622 27.792C108.542 25.5533 109.048 23.9587 109.14 23.008C109.171 22.732 108.972 22.4253 108.542 22.088C108.113 21.7507 107.898 21.49 107.898 21.306C107.898 21.1527 107.96 20.9993 108.082 20.846C108.236 20.662 108.558 20.524 109.048 20.432C109.57 20.3093 109.861 20.1407 109.922 19.926C110.474 18.3927 111.348 15.5407 112.544 11.37C113.556 7.75133 114.461 4.976 115.258 3.044C115.442 2.61467 115.826 2.4 116.408 2.4C116.838 2.4 117.221 2.538 117.558 2.814C118.417 3.55 118.969 4.654 119.214 6.126C119.398 7.38333 119.567 8.64067 119.72 9.898C121.254 17.1353 122.848 23.1 124.504 27.792ZM117.788 19.006C117.696 17.8713 117.497 16.5987 117.19 15.188C116.884 13.9613 116.592 12.7347 116.316 11.508C115.396 14.0533 114.599 16.5987 113.924 19.144C114.415 19.052 115.703 19.006 117.788 19.006ZM133.681 2.906H134.279C135.904 2.906 136.962 5.54333 137.453 10.818C138.495 15.3873 139.814 20.3247 141.409 25.63V26.458C141.409 26.642 140.949 27.102 140.029 27.838C138.189 27.838 136.87 24.94 136.073 19.144C135.459 17.396 134.861 14.82 134.279 11.416H133.865L128.529 29.816L128.161 30H127.563C126.367 29.724 125.769 29.402 125.769 29.034V28.022C125.769 27.5007 126.827 23.8053 128.943 16.936C131.243 8.41067 132.822 3.734 133.681 2.906ZM150.443 1.848H150.949C151.746 2.06267 152.206 2.17 152.329 2.17C152.329 3.12067 152.39 4.04067 152.513 4.93C152.145 9.56067 151.961 12.4587 151.961 13.624V14.13H152.329C154.322 14.13 156.085 15.326 157.619 17.718C157.833 18.086 157.941 18.4233 157.941 18.73V19.742C157.941 24.1887 155.901 27.2093 151.823 28.804C150.841 29.6013 150.105 30 149.615 30H149.062C148.449 30 148.005 29.7087 147.729 29.126C147.882 20.7233 148.051 16.522 148.235 16.522C148.051 16.522 147.821 16.292 147.545 15.832V15.142C148.465 14.498 148.925 12.9033 148.925 10.358C149.262 7.72067 149.431 5.28267 149.431 3.044L149.247 2.354C149.676 2.01667 150.075 1.848 150.443 1.848ZM151.639 16.522C151.639 17.3807 151.47 19.7727 151.133 23.698V24.02L151.317 25.722C153.586 24.5873 154.721 22.9467 154.721 20.8V18.914C154.721 17.5647 153.862 16.7673 152.145 16.522H151.639ZM178.75 4.286C178.689 7.01533 178.244 11.3393 177.416 17.258C176.65 22.87 176.266 27.1787 176.266 30.184C176.266 31.1347 176.297 32.0393 176.358 32.898C176.358 33.1127 176.266 33.312 176.082 33.496C175.898 33.7107 175.684 33.818 175.438 33.818C174.58 33.818 174.012 33.7413 173.736 33.588C172.571 32.9133 171.988 31.6407 171.988 29.77C171.988 29.402 172.004 28.8347 172.034 28.068C172.096 27.2707 172.126 26.688 172.126 26.32C172.126 25.7067 172.203 24.7713 172.356 23.514C172.51 22.2567 172.586 21.2907 172.586 20.616C172.157 20.6467 171.559 20.5853 170.792 20.432C170.056 20.2787 169.52 20.202 169.182 20.202C168.784 20.202 168.4 20.2633 168.032 20.386C167.296 22.8087 166.867 26.3813 166.744 31.104C165.702 31.5333 164.69 31.4873 163.708 30.966C163.003 30.598 162.65 29.862 162.65 28.758C162.65 28.5127 162.666 28.1907 162.696 27.792C162.758 27.3627 162.788 27.102 162.788 27.01C162.88 25.354 163.233 22.0727 163.846 17.166C164.368 13.0567 164.613 9.79067 164.582 7.368C164.582 7.03067 164.812 6.816 165.272 6.724C165.763 6.632 166.039 6.54 166.1 6.448C166.284 6.66267 166.729 6.84667 167.434 7C168.017 7.12267 168.37 7.39867 168.492 7.828C168.738 8.59467 168.86 9.45333 168.86 10.404C168.86 11.0787 168.753 12.152 168.538 13.624C168.354 15.0653 168.262 16.1693 168.262 16.936C168.63 17.212 169.09 17.3807 169.642 17.442C170.01 17.5033 170.532 17.5187 171.206 17.488C172.096 17.4267 172.632 17.396 172.816 17.396C173.583 14.176 174.258 10.0053 174.84 4.884C174.963 3.81067 175.346 3.274 175.99 3.274C177.616 3.12067 178.536 3.458 178.75 4.286ZM198.266 27.792C198.45 28.2827 198.542 28.712 198.542 29.08C198.542 29.6933 198.281 30.23 197.76 30.69C197.239 31.15 196.886 31.3647 196.702 31.334C195.199 31.058 194.249 29.8467 193.85 27.7C193.421 25.3693 192.915 23.422 192.332 21.858C191.289 21.95 190.247 22.042 189.204 22.134C188.008 22.2873 187.073 22.6553 186.398 23.238C186.061 24.1887 185.616 25.8753 185.064 28.298C184.543 30.5367 184.037 32.2387 183.546 33.404C183.301 33.956 182.779 34.1093 181.982 33.864C180.97 33.5267 180.433 33.0667 180.372 32.484C180.28 31.3187 180.617 29.7547 181.384 27.792C182.304 25.5533 182.81 23.9587 182.902 23.008C182.933 22.732 182.733 22.4253 182.304 22.088C181.875 21.7507 181.66 21.49 181.66 21.306C181.66 21.1527 181.721 20.9993 181.844 20.846C181.997 20.662 182.319 20.524 182.81 20.432C183.331 20.3093 183.623 20.1407 183.684 19.926C184.236 18.3927 185.11 15.5407 186.306 11.37C187.318 7.75133 188.223 4.976 189.02 3.044C189.204 2.61467 189.587 2.4 190.17 2.4C190.599 2.4 190.983 2.538 191.32 2.814C192.179 3.55 192.731 4.654 192.976 6.126C193.16 7.38333 193.329 8.64067 193.482 9.898C195.015 17.1353 196.61 23.1 198.266 27.792ZM191.55 19.006C191.458 17.8713 191.259 16.5987 190.952 15.188C190.645 13.9613 190.354 12.7347 190.078 11.508C189.158 14.0533 188.361 16.5987 187.686 19.144C188.177 19.052 189.465 19.006 191.55 19.006ZM211.168 1.618C213.99 1.618 215.4 3.16666 215.4 6.264C215.676 8.87067 215.814 12.198 215.814 16.246V20.662C215.814 20.9073 215.952 23.4527 216.228 28.298C216.228 29.2793 215.462 29.8467 213.928 30H213.698C212.809 30 212.165 26.182 211.766 18.546C204.682 25.5993 201.018 29.1413 200.772 29.172H200.542C199.285 28.8653 198.656 28.5127 198.656 28.114V27.884C198.656 26.6267 202.321 22.8087 209.65 16.43V15.786C206.124 13.2407 204.36 10.8487 204.36 8.61V8.38C204.36 5.19067 205.986 2.93667 209.236 1.618H211.168ZM207.764 7.552C207.764 9.42267 209.037 11.2627 211.582 13.072V12.612C211.582 11.6307 211.644 9.72933 211.766 6.908C211.644 5.49733 211.368 4.792 210.938 4.792H210.294C208.608 4.792 207.764 5.712 207.764 7.552ZM242.466 2.262C242.466 3.09 241.914 3.61133 240.81 3.826C239.369 4.102 238.48 4.424 238.142 4.792C234.708 8.41067 232.99 13.0873 232.99 18.822C232.99 21.5207 233.42 24.066 234.278 26.458C234.984 28.4207 235.49 29.7087 235.796 30.322C236.563 31.8247 237.498 32.898 238.602 33.542C239.062 33.7567 239.522 33.956 239.982 34.14C240.473 34.416 240.718 34.7993 240.718 35.29C240.718 35.7807 240.55 36.2253 240.212 36.624C239.906 37.0227 239.568 37.176 239.2 37.084C238.802 37.0227 238.188 36.8233 237.36 36.486C235.888 35.6273 234.294 33.8027 232.576 31.012C232.147 30.3067 231.702 29.586 231.242 28.85C230.813 28.0833 230.491 27.3627 230.276 26.688C230.123 26.1973 229.862 24.2193 229.494 20.754C229.372 19.6807 229.31 18.638 229.31 17.626C229.31 12.198 230.89 7.58267 234.048 3.78C235.888 1.572 237.805 0.467999 239.798 0.467999C240.657 0.467999 241.439 0.728666 242.144 1.25C242.359 1.40333 242.466 1.74067 242.466 2.262ZM254.141 1.526C254.938 1.526 255.459 1.81733 255.705 2.4C254.141 7.98133 251.089 16.1693 246.551 26.964C246.275 27.976 246.137 28.85 246.137 29.586V31.104C246.137 31.9013 245.769 32.484 245.033 32.852H243.929C243.131 32.852 242.487 32.4227 241.997 31.564V31.104C241.997 28.4667 243.377 23.6827 246.137 16.752V16.522L240.893 4.332V4.148C241.322 3.412 241.751 3.044 242.181 3.044C243.99 3.044 245.309 4.424 246.137 7.184C246.811 8.16533 247.532 9.76 248.299 11.968H248.529C250.062 6.448 251.503 2.96733 252.853 1.526H254.141ZM279.897 30.782C280.019 31.3953 279.575 31.7327 278.563 31.794C277.888 31.8247 277.198 31.5333 276.493 30.92C275.91 30.3987 275.45 29.5553 275.113 28.39C274.806 27.3167 274.622 25.7987 274.561 23.836C274.499 21.628 274.392 20.11 274.239 19.282C273.84 20.662 273.181 22.7167 272.261 25.446C271.709 26.9487 271.371 27.8073 271.249 28.022C270.758 28.9727 270.145 29.402 269.409 29.31C267.937 28.9727 266.802 28.1447 266.005 26.826C265.483 25.9673 264.993 24.6027 264.533 22.732C264.042 20.6773 263.628 19.2973 263.291 18.592C261.972 25.0013 260.561 29.7853 259.059 32.944C258.844 33.404 258.2 33.3733 257.127 32.852C256.237 32.4227 255.793 31.8093 255.793 31.012C255.793 30.736 256.115 29.7547 256.759 28.068C257.035 27.332 258.108 23.79 259.979 17.442C260.623 15.234 261.297 11.3547 262.003 5.804C262.064 5.74267 262.217 5.42067 262.463 4.838C262.616 4.40866 262.892 4.194 263.291 4.194C264.333 4.194 265.054 4.39333 265.453 4.792C265.453 5.68133 265.591 7.12266 265.867 9.116C266.173 11.0787 266.327 12.566 266.327 13.578C266.603 15.2953 266.863 17.028 267.109 18.776C267.446 20.7387 268.059 22.3487 268.949 23.606C271.893 15.418 273.763 8.94733 274.561 4.194C274.683 3.70333 275.143 3.458 275.941 3.458C277.075 3.458 277.719 3.826 277.873 4.562C278.087 5.666 278.195 6.93867 278.195 8.38C278.195 8.84 278.164 9.83667 278.103 11.37C278.072 12.658 278.072 13.7007 278.103 14.498C278.379 20.9687 278.977 26.3967 279.897 30.782ZM304.963 30.782C305.086 31.3953 304.641 31.7327 303.629 31.794C302.954 31.8247 302.264 31.5333 301.559 30.92C300.976 30.3987 300.516 29.5553 300.179 28.39C299.872 27.3167 299.688 25.7987 299.627 23.836C299.566 21.628 299.458 20.11 299.305 19.282C298.906 20.662 298.247 22.7167 297.327 25.446C296.775 26.9487 296.438 27.8073 296.315 28.022C295.824 28.9727 295.211 29.402 294.475 29.31C293.003 28.9727 291.868 28.1447 291.071 26.826C290.55 25.9673 290.059 24.6027 289.599 22.732C289.108 20.6773 288.694 19.2973 288.357 18.592C287.038 25.0013 285.628 29.7853 284.125 32.944C283.91 33.404 283.266 33.3733 282.193 32.852C281.304 32.4227 280.859 31.8093 280.859 31.012C280.859 30.736 281.181 29.7547 281.825 28.068C282.101 27.332 283.174 23.79 285.045 17.442C285.689 15.234 286.364 11.3547 287.069 5.804C287.13 5.74267 287.284 5.42067 287.529 4.838C287.682 4.40866 287.958 4.194 288.357 4.194C289.4 4.194 290.12 4.39333 290.519 4.792C290.519 5.68133 290.657 7.12266 290.933 9.116C291.24 11.0787 291.393 12.566 291.393 13.578C291.669 15.2953 291.93 17.028 292.175 18.776C292.512 20.7387 293.126 22.3487 294.015 23.606C296.959 15.418 298.83 8.94733 299.627 4.194C299.75 3.70333 300.21 3.458 301.007 3.458C302.142 3.458 302.786 3.826 302.939 4.562C303.154 5.666 303.261 6.93867 303.261 8.38C303.261 8.84 303.23 9.83667 303.169 11.37C303.138 12.658 303.138 13.7007 303.169 14.498C303.445 20.9687 304.043 26.3967 304.963 30.782ZM323.957 27.792C324.141 28.2827 324.233 28.712 324.233 29.08C324.233 29.6933 323.973 30.23 323.451 30.69C322.93 31.15 322.577 31.3647 322.393 31.334C320.891 31.058 319.94 29.8467 319.541 27.7C319.112 25.3693 318.606 23.422 318.023 21.858C316.981 21.95 315.938 22.042 314.895 22.134C313.699 22.2873 312.764 22.6553 312.089 23.238C311.752 24.1887 311.307 25.8753 310.755 28.298C310.234 30.5367 309.728 32.2387 309.237 33.404C308.992 33.956 308.471 34.1093 307.673 33.864C306.661 33.5267 306.125 33.0667 306.063 32.484C305.971 31.3187 306.309 29.7547 307.075 27.792C307.995 25.5533 308.501 23.9587 308.593 23.008C308.624 22.732 308.425 22.4253 307.995 22.088C307.566 21.7507 307.351 21.49 307.351 21.306C307.351 21.1527 307.413 20.9993 307.535 20.846C307.689 20.662 308.011 20.524 308.501 20.432C309.023 20.3093 309.314 20.1407 309.375 19.926C309.927 18.3927 310.801 15.5407 311.997 11.37C313.009 7.75133 313.914 4.976 314.711 3.044C314.895 2.61467 315.279 2.4 315.861 2.4C316.291 2.4 316.674 2.538 317.011 2.814C317.87 3.55 318.422 4.654 318.667 6.126C318.851 7.38333 319.02 8.64067 319.173 9.898C320.707 17.1353 322.301 23.1 323.957 27.792ZM317.241 19.006C317.149 17.8713 316.95 16.5987 316.643 15.188C316.337 13.9613 316.045 12.7347 315.769 11.508C314.849 14.0533 314.052 16.5987 313.377 19.144C313.868 19.052 315.156 19.006 317.241 19.006ZM344.404 3.136H344.956C348.758 3.412 350.66 4.332 350.66 5.896V6.632C350.66 7.88933 349.065 10.2813 345.876 13.808C348.697 13.808 350.537 15.1573 351.396 17.856C351.518 18.5307 351.58 19.0827 351.58 19.512V20.248C351.58 21.536 350.046 25.4 346.98 31.84C345.937 32.8213 344.956 33.312 344.036 33.312H342.748C340.877 33.312 339.528 32.1467 338.7 29.816V29.264C338.7 28.896 339.436 28.528 340.908 28.16C341.736 29.1413 342.594 29.816 343.484 30.184C344.496 30.092 346.029 27.4547 348.084 22.272C348.206 21.0453 348.268 20.1253 348.268 19.512V18.592C348.268 17.3653 347.838 16.752 346.98 16.752C346.489 16.752 345.078 16.9973 342.748 17.488L340.908 15.648C340.908 15.1267 342.748 12.5507 346.428 7.92C346.673 7.52133 346.796 7.15333 346.796 6.816C346.796 6.32533 346.121 6.01866 344.772 5.896C343.913 5.896 342.441 6.32533 340.356 7.184C339.988 6.724 339.804 6.29466 339.804 5.896V5.712C340.816 3.99467 342.349 3.136 344.404 3.136ZM372.114 27.792C372.298 28.2827 372.39 28.712 372.39 29.08C372.39 29.6933 372.129 30.23 371.608 30.69C371.086 31.15 370.734 31.3647 370.55 31.334C369.047 31.058 368.096 29.8467 367.698 27.7C367.268 25.3693 366.762 23.422 366.18 21.858C365.137 21.95 364.094 22.042 363.052 22.134C361.856 22.2873 360.92 22.6553 360.246 23.238C359.908 24.1887 359.464 25.8753 358.912 28.298C358.39 30.5367 357.884 32.2387 357.394 33.404C357.148 33.956 356.627 34.1093 355.83 33.864C354.818 33.5267 354.281 33.0667 354.22 32.484C354.128 31.3187 354.465 29.7547 355.232 27.792C356.152 25.5533 356.658 23.9587 356.75 23.008C356.78 22.732 356.581 22.4253 356.152 22.088C355.722 21.7507 355.508 21.49 355.508 21.306C355.508 21.1527 355.569 20.9993 355.692 20.846C355.845 20.662 356.167 20.524 356.658 20.432C357.179 20.3093 357.47 20.1407 357.532 19.926C358.084 18.3927 358.958 15.5407 360.154 11.37C361.166 7.75133 362.07 4.976 362.868 3.044C363.052 2.61467 363.435 2.4 364.018 2.4C364.447 2.4 364.83 2.538 365.168 2.814C366.026 3.55 366.578 4.654 366.824 6.126C367.008 7.38333 367.176 8.64067 367.33 9.898C368.863 17.1353 370.458 23.1 372.114 27.792ZM365.398 19.006C365.306 17.8713 365.106 16.5987 364.8 15.188C364.493 13.9613 364.202 12.7347 363.926 11.508C363.006 14.0533 362.208 16.5987 361.534 19.144C362.024 19.052 363.312 19.006 365.398 19.006ZM374.114 1.388H375.264C376.797 1.388 377.564 2.768 377.564 5.528C377.717 7.03067 377.794 8.932 377.794 11.232V12.382C377.978 12.382 380.876 9.254 386.488 2.998H387.638C388.435 2.998 388.957 3.30467 389.202 3.918C389.202 5.35933 385.844 9.622 379.128 16.706L378.668 17.626C383.544 20.11 387.285 22.64 389.892 25.216V25.63C389.892 26.7033 388.987 27.24 387.178 27.24C386.595 26.6267 383.544 24.7253 378.024 21.536V21.766C378.147 25.1087 378.208 27.6233 378.208 29.31C377.656 29.77 377.135 30 376.644 30C374.804 30 373.884 27.9453 373.884 23.836V9.392C373.884 7.79733 373.731 5.28267 373.424 1.848L374.114 1.388ZM408.77 27.792C408.954 28.2827 409.046 28.712 409.046 29.08C409.046 29.6933 408.785 30.23 408.264 30.69C407.743 31.15 407.39 31.3647 407.206 31.334C405.703 31.058 404.753 29.8467 404.354 27.7C403.925 25.3693 403.419 23.422 402.836 21.858C401.793 21.95 400.751 22.042 399.708 22.134C398.512 22.2873 397.577 22.6553 396.902 23.238C396.565 24.1887 396.12 25.8753 395.568 28.298C395.047 30.5367 394.541 32.2387 394.05 33.404C393.805 33.956 393.283 34.1093 392.486 33.864C391.474 33.5267 390.937 33.0667 390.876 32.484C390.784 31.3187 391.121 29.7547 391.888 27.792C392.808 25.5533 393.314 23.9587 393.406 23.008C393.437 22.732 393.237 22.4253 392.808 22.088C392.379 21.7507 392.164 21.49 392.164 21.306C392.164 21.1527 392.225 20.9993 392.348 20.846C392.501 20.662 392.823 20.524 393.314 20.432C393.835 20.3093 394.127 20.1407 394.188 19.926C394.74 18.3927 395.614 15.5407 396.81 11.37C397.822 7.75133 398.727 4.976 399.524 3.044C399.708 2.61467 400.091 2.4 400.674 2.4C401.103 2.4 401.487 2.538 401.824 2.814C402.683 3.55 403.235 4.654 403.48 6.126C403.664 7.38333 403.833 8.64067 403.986 9.898C405.519 17.1353 407.114 23.1 408.77 27.792ZM402.054 19.006C401.962 17.8713 401.763 16.5987 401.456 15.188C401.149 13.9613 400.858 12.7347 400.582 11.508C399.662 14.0533 398.865 16.5987 398.19 19.144C398.681 19.052 399.969 19.006 402.054 19.006ZM417.716 3.136H418.268C422.071 3.412 423.972 4.332 423.972 5.896V6.632C423.972 7.88933 422.377 10.2813 419.188 13.808C422.009 13.808 423.849 15.1573 424.708 17.856C424.831 18.5307 424.892 19.0827 424.892 19.512V20.248C424.892 21.536 423.359 25.4 420.292 31.84C419.249 32.8213 418.268 33.312 417.348 33.312H416.06C414.189 33.312 412.84 32.1467 412.012 29.816V29.264C412.012 28.896 412.748 28.528 414.22 28.16C415.048 29.1413 415.907 29.816 416.796 30.184C417.808 30.092 419.341 27.4547 421.396 22.272C421.519 21.0453 421.58 20.1253 421.58 19.512V18.592C421.58 17.3653 421.151 16.752 420.292 16.752C419.801 16.752 418.391 16.9973 416.06 17.488L414.22 15.648C414.22 15.1267 416.06 12.5507 419.74 7.92C419.985 7.52133 420.108 7.15333 420.108 6.816C420.108 6.32533 419.433 6.01866 418.084 5.896C417.225 5.896 415.753 6.32533 413.668 7.184C413.3 6.724 413.116 6.29466 413.116 5.896V5.712C414.128 3.99467 415.661 3.136 417.716 3.136ZM445.426 27.792C445.61 28.2827 445.702 28.712 445.702 29.08C445.702 29.6933 445.441 30.23 444.92 30.69C444.399 31.15 444.046 31.3647 443.862 31.334C442.359 31.058 441.409 29.8467 441.01 27.7C440.581 25.3693 440.075 23.422 439.492 21.858C438.449 21.95 437.407 22.042 436.364 22.134C435.168 22.2873 434.233 22.6553 433.558 23.238C433.221 24.1887 432.776 25.8753 432.224 28.298C431.703 30.5367 431.197 32.2387 430.706 33.404C430.461 33.956 429.939 34.1093 429.142 33.864C428.13 33.5267 427.593 33.0667 427.532 32.484C427.44 31.3187 427.777 29.7547 428.544 27.792C429.464 25.5533 429.97 23.9587 430.062 23.008C430.093 22.732 429.893 22.4253 429.464 22.088C429.035 21.7507 428.82 21.49 428.82 21.306C428.82 21.1527 428.881 20.9993 429.004 20.846C429.157 20.662 429.479 20.524 429.97 20.432C430.491 20.3093 430.783 20.1407 430.844 19.926C431.396 18.3927 432.27 15.5407 433.466 11.37C434.478 7.75133 435.383 4.976 436.18 3.044C436.364 2.61467 436.747 2.4 437.33 2.4C437.759 2.4 438.143 2.538 438.48 2.814C439.339 3.55 439.891 4.654 440.136 6.126C440.32 7.38333 440.489 8.64067 440.642 9.898C442.175 17.1353 443.77 23.1 445.426 27.792ZM438.71 19.006C438.618 17.8713 438.419 16.5987 438.112 15.188C437.805 13.9613 437.514 12.7347 437.238 11.508C436.318 14.0533 435.521 16.5987 434.846 19.144C435.337 19.052 436.625 19.006 438.71 19.006Z" fill="#11315F"/>
</svg>
