<svg width="335" height="39" viewBox="0 0 335 39" fill="none" xmlns="http://www.w3.org/2000/svg">
<path d="M27.472 2.342C27.196 3.446 26.6747 4.09 25.908 4.274C23.9147 4.76467 20.4493 5.40867 15.512 6.206C14.8987 13.842 14.592 20.2053 14.592 25.296C14.592 27.228 14.6227 29.1293 14.684 31C14.7147 31.5827 14.684 32.0273 14.592 32.334C14.4387 32.8247 14.132 33.0547 13.672 33.024C12.7827 32.9933 12.0467 32.61 11.464 31.874C10.8813 31.1687 10.5593 30.3713 10.498 29.482C10.4367 28.3473 10.406 27.1513 10.406 25.894C10.406 23.87 10.544 20.6653 10.82 16.28C11.096 12.0787 11.2187 8.874 11.188 6.666C10.36 6.60467 9.21 6.68133 7.738 6.896C6.05133 7.14133 4.886 7.264 4.242 7.264C2.73933 7.264 1.51267 6.86533 0.562 6.068C0.194 5.27067 0.00999977 4.85667 0.00999977 4.826C0.00999977 4.61133 0.117333 4.38133 0.332 4.136C1.31333 3.79867 3.322 3.492 6.358 3.216C9.026 2.94 11.0193 2.44933 12.338 1.744C13.4113 2.08133 14.638 2.25 16.018 2.25C17.398 2.25 18.7167 2.08133 19.974 1.744C20.342 1.71333 21.2773 1.49867 22.78 1.1C23.884 0.823998 24.804 0.731999 25.54 0.823999C26.092 0.823999 26.322 1.054 26.23 1.514C27.058 1.514 27.472 1.79 27.472 2.342ZM35.862 2.618H36.322C37.9473 2.618 38.898 3.32333 39.174 4.734V5.47C39.1126 5.68467 35.5553 6.942 28.502 9.242C28.3486 9.82467 28.272 11.5573 28.272 14.44C28.548 14.5933 28.87 14.67 29.238 14.67C32.55 14.3633 34.3593 14.21 34.666 14.21C36.23 14.4247 37.012 15.13 37.012 16.326C37.012 17.43 34.344 18.1353 29.008 18.442C27.72 18.442 27.076 20.4967 27.076 24.606C27.076 26.354 28.3486 27.228 30.894 27.228C30.894 27.3813 31.446 27.458 32.55 27.458H35.356C35.9386 26.9673 36.4906 26.722 37.012 26.722C37.9626 27.0593 38.438 27.9333 38.438 29.344V29.804C38.438 30.0187 38.0393 30.4173 37.242 31H33.7C28.7626 31 25.6193 30.126 24.27 28.378C23.4726 27.458 23.074 26.2007 23.074 24.606V18.718L22.108 17.522V16.786C23.212 16.0193 23.764 14.8387 23.764 13.244V10.898C22.2 10.4687 21.418 9.99333 21.418 9.472V8.782C21.418 6.666 26.2326 4.61133 35.862 2.618ZM54.2339 15.084C53.0686 17.5987 52.0719 19.27 51.2439 20.098C49.9559 21.386 49.2506 22.0913 49.1279 22.214C48.2386 22.9193 47.3493 23.3487 46.4599 23.502C46.3373 24.1153 46.2759 24.836 46.2759 25.664C46.2759 26.2467 46.3219 27.136 46.4139 28.332C46.5059 29.4973 46.5519 30.356 46.5519 30.908C46.5519 32.9933 46.0613 34.5573 45.0799 35.6C45.0799 35.6 44.6506 35.37 43.7919 34.91C43.2706 34.634 42.9793 34.2967 42.9179 33.898C42.6113 31.9047 42.4579 29.6813 42.4579 27.228C42.4579 25.6027 42.5499 23.18 42.7339 19.96C42.9179 16.74 43.0099 14.302 43.0099 12.646C43.0099 10.254 42.8719 8.06133 42.5959 6.068C42.3506 6.16 42.1206 6.00666 41.9059 5.608C41.6913 5.20933 41.5073 4.97933 41.3539 4.918C41.5073 3.93667 41.7679 3.446 42.1359 3.446C42.5959 3.29267 43.5466 3.32333 44.9879 3.538C48.9746 4.182 51.9799 5.93 54.0039 8.782C54.6479 9.702 54.9699 10.7447 54.9699 11.91C54.9699 12.922 54.7246 13.98 54.2339 15.084ZM51.2439 11.542C51.3973 10.3153 50.8759 9.34933 49.6799 8.644C49.6186 8.644 48.5146 8.19933 46.3679 7.31C46.7053 12.9527 46.8126 16.9087 46.6899 19.178C49.4193 16.602 50.9373 14.0567 51.2439 11.542ZM72.6519 15.084C71.4866 17.5987 70.4899 19.27 69.6619 20.098C68.3739 21.386 67.6686 22.0913 67.5459 22.214C66.6566 22.9193 65.7672 23.3487 64.8779 23.502C64.7552 24.1153 64.6939 24.836 64.6939 25.664C64.6939 26.2467 64.7399 27.136 64.8319 28.332C64.9239 29.4973 64.9699 30.356 64.9699 30.908C64.9699 32.9933 64.4792 34.5573 63.4979 35.6C63.4979 35.6 63.0686 35.37 62.2099 34.91C61.6886 34.634 61.3972 34.2967 61.3359 33.898C61.0292 31.9047 60.8759 29.6813 60.8759 27.228C60.8759 25.6027 60.9679 23.18 61.1519 19.96C61.3359 16.74 61.4279 14.302 61.4279 12.646C61.4279 10.254 61.2899 8.06133 61.0139 6.068C60.7686 6.16 60.5386 6.00666 60.3239 5.608C60.1092 5.20933 59.9252 4.97933 59.7719 4.918C59.9252 3.93667 60.1859 3.446 60.5539 3.446C61.0139 3.29267 61.9646 3.32333 63.4059 3.538C67.3926 4.182 70.3979 5.93 72.4219 8.782C73.0659 9.702 73.3879 10.7447 73.3879 11.91C73.3879 12.922 73.1426 13.98 72.6519 15.084ZM69.6619 11.542C69.8152 10.3153 69.2939 9.34933 68.0979 8.644C68.0366 8.644 66.9326 8.19933 64.7859 7.31C65.1232 12.9527 65.2306 16.9087 65.1079 19.178C67.8372 16.602 69.3552 14.0567 69.6619 11.542ZM82.1919 3.4C82.6519 3.61466 82.9585 3.98266 83.1119 4.504C82.1305 11.0053 81.6399 16.8933 81.6399 22.168L82.0079 22.352C86.3932 12.5387 89.3985 7.14133 91.0239 6.16H91.9439C92.5572 6.49733 92.8639 6.86533 92.8639 7.264C92.3732 11.7107 92.1279 16.2493 92.1279 20.88V28.424C92.1279 30.0187 91.5759 30.816 90.4719 30.816H89.3679C89.1839 30.816 88.9999 30.632 88.8159 30.264V15.544H88.6319C84.2159 24.744 81.6399 29.6507 80.9039 30.264C80.4439 30.632 80.0145 30.816 79.6159 30.816H78.6959C78.3892 30.816 78.2052 30.5707 78.1439 30.08C78.4505 12.5387 79.2479 3.768 80.5359 3.768C81.3332 3.52267 81.8852 3.4 82.1919 3.4ZM119.562 2.342C119.286 3.446 118.765 4.09 117.998 4.274C116.005 4.76467 112.539 5.40867 107.602 6.206C106.989 13.842 106.682 20.2053 106.682 25.296C106.682 27.228 106.713 29.1293 106.774 31C106.805 31.5827 106.774 32.0273 106.682 32.334C106.529 32.8247 106.222 33.0547 105.762 33.024C104.873 32.9933 104.137 32.61 103.554 31.874C102.971 31.1687 102.649 30.3713 102.588 29.482C102.527 28.3473 102.496 27.1513 102.496 25.894C102.496 23.87 102.634 20.6653 102.91 16.28C103.186 12.0787 103.309 8.874 103.278 6.666C102.45 6.60467 101.3 6.68133 99.8278 6.896C98.1412 7.14133 96.9758 7.264 96.3318 7.264C94.8292 7.264 93.6025 6.86533 92.6518 6.068C92.2838 5.27067 92.0998 4.85667 92.0998 4.826C92.0998 4.61133 92.2072 4.38133 92.4218 4.136C93.4032 3.79867 95.4118 3.492 98.4478 3.216C101.116 2.94 103.109 2.44933 104.428 1.744C105.501 2.08133 106.728 2.25 108.108 2.25C109.488 2.25 110.807 2.08133 112.064 1.744C112.432 1.71333 113.367 1.49867 114.87 1.1C115.974 0.823998 116.894 0.731999 117.63 0.823999C118.182 0.823999 118.412 1.054 118.32 1.514C119.148 1.514 119.562 1.79 119.562 2.342ZM130.436 21.064C128.626 25.1427 126.066 27.5653 122.754 28.332C122.355 28.424 121.956 28.47 121.558 28.47C119.81 28.47 118.046 27.5193 116.268 25.618C115.072 24.33 114.474 22.6587 114.474 20.604C114.474 18.3347 115.148 15.8967 116.498 13.29C117.08 12.186 117.786 11.2353 118.614 10.438C119.564 9.48733 120.469 9.012 121.328 9.012C121.818 9.012 122.278 9.196 122.708 9.564C123.137 9.932 124.287 10.4227 126.158 11.036C127.63 11.5267 128.672 12.3547 129.286 13.52C130.359 15.5747 130.896 17.338 130.896 18.81C130.896 19.638 130.742 20.3893 130.436 21.064ZM126.756 18.212C126.541 15.9733 125.943 14.6393 124.962 14.21C124.808 14.1487 124.67 14.118 124.548 14.118C124.18 14.118 123.72 14.4247 123.168 15.038C122.554 15.7433 122.079 16.1573 121.742 16.28C121.527 16.372 121.22 16.28 120.822 16.004C120.423 15.728 120.162 15.59 120.04 15.59C119.948 15.59 119.871 15.6207 119.81 15.682C118.736 16.602 118.2 18.028 118.2 19.96C118.2 21.2787 118.506 22.398 119.12 23.318C119.978 24.5753 120.699 25.204 121.282 25.204C122.631 25.204 123.934 24.3607 125.192 22.674C126.388 21.0793 126.909 19.592 126.756 18.212ZM145.56 15.084C144.395 17.5987 143.398 19.27 142.57 20.098C141.282 21.386 140.577 22.0913 140.454 22.214C139.565 22.9193 138.675 23.3487 137.786 23.502C137.663 24.1153 137.602 24.836 137.602 25.664C137.602 26.2467 137.648 27.136 137.74 28.332C137.832 29.4973 137.878 30.356 137.878 30.908C137.878 32.9933 137.387 34.5573 136.406 35.6C136.406 35.6 135.977 35.37 135.118 34.91C134.597 34.634 134.305 34.2967 134.244 33.898C133.937 31.9047 133.784 29.6813 133.784 27.228C133.784 25.6027 133.876 23.18 134.06 19.96C134.244 16.74 134.336 14.302 134.336 12.646C134.336 10.254 134.198 8.06133 133.922 6.068C133.677 6.16 133.447 6.00666 133.232 5.608C133.017 5.20933 132.833 4.97933 132.68 4.918C132.833 3.93667 133.094 3.446 133.462 3.446C133.922 3.29267 134.873 3.32333 136.314 3.538C140.301 4.182 143.306 5.93 145.33 8.782C145.974 9.702 146.296 10.7447 146.296 11.91C146.296 12.922 146.051 13.98 145.56 15.084ZM142.57 11.542C142.723 10.3153 142.202 9.34933 141.006 8.644C140.945 8.644 139.841 8.19933 137.694 7.31C138.031 12.9527 138.139 16.9087 138.016 19.178C140.745 16.602 142.263 14.0567 142.57 11.542ZM155.1 3.4C155.56 3.61466 155.867 3.98266 156.02 4.504C155.039 11.0053 154.548 16.8933 154.548 22.168L154.916 22.352C159.301 12.5387 162.307 7.14133 163.932 6.16H164.852C165.465 6.49733 165.772 6.86533 165.772 7.264C165.281 11.7107 165.036 16.2493 165.036 20.88V28.424C165.036 30.0187 164.484 30.816 163.38 30.816H162.276C162.092 30.816 161.908 30.632 161.724 30.264V15.544H161.54C157.124 24.744 154.548 29.6507 153.812 30.264C153.352 30.632 152.923 30.816 152.524 30.816H151.604C151.297 30.816 151.113 30.5707 151.052 30.08C151.359 12.5387 152.156 3.768 153.444 3.768C154.241 3.52267 154.793 3.4 155.1 3.4ZM180.51 2.618C183.331 2.618 184.742 4.16666 184.742 7.264C185.018 9.87067 185.156 13.198 185.156 17.246V21.662C185.156 21.9073 185.294 24.4527 185.57 29.298C185.57 30.2793 184.803 30.8467 183.27 31H183.04C182.151 31 181.507 27.182 181.108 19.546C174.024 26.5993 170.359 30.1413 170.114 30.172H169.884C168.627 29.8653 167.998 29.5127 167.998 29.114V28.884C167.998 27.6267 171.663 23.8087 178.992 17.43V16.786C175.465 14.2407 173.702 11.8487 173.702 9.61V9.38C173.702 6.19067 175.327 3.93667 178.578 2.618H180.51ZM177.106 8.552C177.106 10.4227 178.379 12.2627 180.924 14.072V13.612C180.924 12.6307 180.985 10.7293 181.108 7.908C180.985 6.49733 180.709 5.792 180.28 5.792H179.636C177.949 5.792 177.106 6.712 177.106 8.552ZM213.372 3.584H213.556C214.231 3.584 214.721 3.89067 215.028 4.504V4.688C215.028 7.264 214.537 12.5387 213.556 20.512L214.476 20.328C215.212 20.328 215.703 20.696 215.948 21.432C215.825 24.1307 215.764 26.1547 215.764 27.504H215.58L215.764 27.872V29.896C215.764 30.08 215.519 30.3253 215.028 30.632H214.66C213.127 30.632 212.268 29.6507 212.084 27.688V24.928H211.9C210.98 24.928 207.545 25.7867 201.596 27.504V30.448C201.596 30.632 201.412 30.816 201.044 31H200.124C198.775 31 198.1 30.448 198.1 29.344V28.056L197.916 26.216H198.1L197.916 25.848C197.947 25.6333 199.296 24.9587 201.964 23.824C202.7 19.224 203.252 13.52 203.62 6.712C209.508 4.62667 212.759 3.584 213.372 3.584ZM207.116 9.656C206.625 16.648 206.196 21.0027 205.828 22.72H206.012C208.036 22.1067 209.263 21.8 209.692 21.8C209.692 21.4933 210.244 16.8933 211.348 8H211.164C208.496 8.79733 207.147 9.288 207.116 9.472V9.656ZM233.262 21.064C231.453 25.1427 228.892 27.5653 225.58 28.332C225.181 28.424 224.783 28.47 224.384 28.47C222.636 28.47 220.873 27.5193 219.094 25.618C217.898 24.33 217.3 22.6587 217.3 20.604C217.3 18.3347 217.975 15.8967 219.324 13.29C219.907 12.186 220.612 11.2353 221.44 10.438C222.391 9.48733 223.295 9.012 224.154 9.012C224.645 9.012 225.105 9.196 225.534 9.564C225.963 9.932 227.113 10.4227 228.984 11.036C230.456 11.5267 231.499 12.3547 232.112 13.52C233.185 15.5747 233.722 17.338 233.722 18.81C233.722 19.638 233.569 20.3893 233.262 21.064ZM229.582 18.212C229.367 15.9733 228.769 14.6393 227.788 14.21C227.635 14.1487 227.497 14.118 227.374 14.118C227.006 14.118 226.546 14.4247 225.994 15.038C225.381 15.7433 224.905 16.1573 224.568 16.28C224.353 16.372 224.047 16.28 223.648 16.004C223.249 15.728 222.989 15.59 222.866 15.59C222.774 15.59 222.697 15.6207 222.636 15.682C221.563 16.602 221.026 18.028 221.026 19.96C221.026 21.2787 221.333 22.398 221.946 23.318C222.805 24.5753 223.525 25.204 224.108 25.204C225.457 25.204 226.761 24.3607 228.018 22.674C229.214 21.0793 229.735 19.592 229.582 18.212ZM247.88 3.262C247.88 4.09 247.328 4.61133 246.224 4.826C244.783 5.102 243.894 5.424 243.556 5.792C240.122 9.41067 238.404 14.0873 238.404 19.822C238.404 22.5207 238.834 25.066 239.692 27.458C240.398 29.4207 240.904 30.7087 241.21 31.322C241.977 32.8247 242.912 33.898 244.016 34.542C244.476 34.7567 244.936 34.956 245.396 35.14C245.887 35.416 246.132 35.7993 246.132 36.29C246.132 36.7807 245.964 37.2253 245.626 37.624C245.32 38.0227 244.982 38.176 244.614 38.084C244.216 38.0227 243.602 37.8233 242.774 37.486C241.302 36.6273 239.708 34.8027 237.99 32.012C237.561 31.3067 237.116 30.586 236.656 29.85C236.227 29.0833 235.905 28.3627 235.69 27.688C235.537 27.1973 235.276 25.2193 234.908 21.754C234.786 20.6807 234.724 19.638 234.724 18.626C234.724 13.198 236.304 8.58267 239.462 4.78C241.302 2.572 243.219 1.468 245.212 1.468C246.071 1.468 246.853 1.72867 247.558 2.25C247.773 2.40333 247.88 2.74067 247.88 3.262ZM270.365 2.342C270.089 3.446 269.567 4.09 268.801 4.274C266.807 4.76467 263.342 5.40867 258.405 6.206C257.791 13.842 257.485 20.2053 257.485 25.296C257.485 27.228 257.515 29.1293 257.577 31C257.607 31.5827 257.577 32.0273 257.485 32.334C257.331 32.8247 257.025 33.0547 256.565 33.024C255.675 32.9933 254.939 32.61 254.357 31.874C253.774 31.1687 253.452 30.3713 253.391 29.482C253.329 28.3473 253.299 27.1513 253.299 25.894C253.299 23.87 253.437 20.6653 253.713 16.28C253.989 12.0787 254.111 8.874 254.081 6.666C253.253 6.60467 252.103 6.68133 250.631 6.896C248.944 7.14133 247.779 7.264 247.135 7.264C245.632 7.264 244.405 6.86533 243.455 6.068C243.087 5.27067 242.903 4.85667 242.903 4.826C242.903 4.61133 243.01 4.38133 243.225 4.136C244.206 3.79867 246.215 3.492 249.251 3.216C251.919 2.94 253.912 2.44933 255.231 1.744C256.304 2.08133 257.531 2.25 258.911 2.25C260.291 2.25 261.609 2.08133 262.867 1.744C263.235 1.71333 264.17 1.49867 265.673 1.1C266.777 0.823998 267.697 0.731999 268.433 0.823999C268.985 0.823999 269.215 1.054 269.123 1.514C269.951 1.514 270.365 1.79 270.365 2.342ZM282.159 28.792C282.343 29.2827 282.435 29.712 282.435 30.08C282.435 30.6933 282.174 31.23 281.653 31.69C281.131 32.15 280.779 32.3647 280.595 32.334C279.092 32.058 278.141 30.8467 277.743 28.7C277.313 26.3693 276.807 24.422 276.225 22.858C275.182 22.95 274.139 23.042 273.097 23.134C271.901 23.2873 270.965 23.6553 270.291 24.238C269.953 25.1887 269.509 26.8753 268.957 29.298C268.435 31.5367 267.929 33.2387 267.439 34.404C267.193 34.956 266.672 35.1093 265.875 34.864C264.863 34.5267 264.326 34.0667 264.265 33.484C264.173 32.3187 264.51 30.7547 265.277 28.792C266.197 26.5533 266.703 24.9587 266.795 24.008C266.825 23.732 266.626 23.4253 266.197 23.088C265.767 22.7507 265.553 22.49 265.553 22.306C265.553 22.1527 265.614 21.9993 265.737 21.846C265.89 21.662 266.212 21.524 266.703 21.432C267.224 21.3093 267.515 21.1407 267.577 20.926C268.129 19.3927 269.003 16.5407 270.199 12.37C271.211 8.75133 272.115 5.976 272.913 4.044C273.097 3.61467 273.48 3.4 274.063 3.4C274.492 3.4 274.875 3.538 275.213 3.814C276.071 4.55 276.623 5.654 276.869 7.126C277.053 8.38333 277.221 9.64067 277.375 10.898C278.908 18.1353 280.503 24.1 282.159 28.792ZM275.443 20.006C275.351 18.8713 275.151 17.5987 274.845 16.188C274.538 14.9613 274.247 13.7347 273.971 12.508C273.051 15.0533 272.253 17.5987 271.579 20.144C272.069 20.052 273.357 20.006 275.443 20.006ZM299.615 10.99C299.216 12.646 298.204 14.1487 296.579 15.498C295.015 16.602 293.451 17.6907 291.887 18.764C291.979 19.224 292.285 19.5767 292.807 19.822C293.359 20.0367 293.88 20.2513 294.371 20.466C296.916 22.122 298.189 24.0847 298.189 26.354C298.189 28.102 297.591 29.712 296.395 31.184C295.475 32.3187 294.11 33.438 292.301 34.542C290.829 35.4007 289.357 36.2593 287.885 37.118C287.517 37.3327 287.118 37.44 286.689 37.44C285.677 37.44 284.971 37.026 284.573 36.198C284.634 33.622 284.695 31.0613 284.757 28.516C284.818 25.4493 284.987 22.9193 285.263 20.926C284.619 20.4967 284.297 20.006 284.297 19.454C284.297 19.178 284.404 18.9327 284.619 18.718C284.864 18.4727 285.186 18.212 285.585 17.936C285.953 13.2747 286.029 8.98133 285.815 5.056C284.373 4.78 283.423 4.136 282.963 3.124C282.932 3.00133 282.978 2.81733 283.101 2.572C283.254 2.32666 283.331 2.12733 283.331 1.974C284.036 1.45267 284.818 1.192 285.677 1.192C286.29 1.192 287.701 1.39133 289.909 1.79C291.043 1.974 292.224 2.388 293.451 3.032C296.763 4.74933 298.71 6.42067 299.293 8.046C299.691 9.21133 299.799 10.1927 299.615 10.99ZM295.291 8.69C295.137 7.55533 294.217 6.68133 292.531 6.068C292.285 5.976 291.902 5.77667 291.381 5.47C291.013 5.22467 290.706 5.102 290.461 5.102C290.338 5.102 290.2 5.13267 290.047 5.194C290.016 5.71533 290.001 6.26733 290.001 6.85C290.001 7.64733 290.062 8.99667 290.185 10.898C290.277 12.646 290.307 14.0107 290.277 14.992C290.491 14.992 290.813 14.8387 291.243 14.532C291.672 14.1947 291.917 14.0107 291.979 13.98C292.899 13.5507 293.711 12.83 294.417 11.818C295.122 10.806 295.413 9.76333 295.291 8.69ZM293.911 26.722C293.972 26.3847 294.003 26.0627 294.003 25.756C294.003 24.836 293.711 24.0233 293.129 23.318C291.565 22.5513 290.568 22.168 290.139 22.168C289.893 22.168 289.663 22.214 289.449 22.306C289.479 22.6127 289.495 22.95 289.495 23.318C289.495 23.962 289.403 24.9587 289.219 26.308C289.065 27.6267 288.989 28.6233 288.989 29.298C288.989 30.2793 289.111 31.1687 289.357 31.966C289.725 31.5367 290.292 31.092 291.059 30.632C291.856 30.1413 292.408 29.712 292.715 29.344C293.267 28.7 293.665 27.826 293.911 26.722ZM301.813 2.388H302.963C304.496 2.388 305.263 3.768 305.263 6.528C305.416 8.03067 305.493 9.932 305.493 12.232V13.382C305.677 13.382 308.575 10.254 314.187 3.998H315.337C316.134 3.998 316.656 4.30467 316.901 4.918C316.901 6.35933 313.543 10.622 306.827 17.706L306.367 18.626C311.243 21.11 314.984 23.64 317.591 26.216V26.63C317.591 27.7033 316.686 28.24 314.877 28.24C314.294 27.6267 311.243 25.7253 305.723 22.536V22.766C305.846 26.1087 305.907 28.6233 305.907 30.31C305.355 30.77 304.834 31 304.343 31C302.503 31 301.583 28.9453 301.583 24.836V10.392C301.583 8.79733 301.43 6.28267 301.123 2.848L301.813 2.388ZM324.141 3.4C324.601 3.61466 324.908 3.98266 325.061 4.504C324.08 11.0053 323.589 16.8933 323.589 22.168L323.957 22.352C328.342 12.5387 331.348 7.14133 332.973 6.16H333.893C334.506 6.49733 334.813 6.86533 334.813 7.264C334.322 11.7107 334.077 16.2493 334.077 20.88V28.424C334.077 30.0187 333.525 30.816 332.421 30.816H331.317C331.133 30.816 330.949 30.632 330.765 30.264V15.544H330.581C326.165 24.744 323.589 29.6507 322.853 30.264C322.393 30.632 321.964 30.816 321.565 30.816H320.645C320.338 30.816 320.154 30.5707 320.093 30.08C320.4 12.5387 321.197 3.768 322.485 3.768C323.282 3.52267 323.834 3.4 324.141 3.4Z" fill="#11315F"/>
</svg>
