<svg width="126" height="49" viewBox="0 0 126 49" fill="none" xmlns="http://www.w3.org/2000/svg">
<path d="M26.608 38.832C26.872 39.536 27.004 40.152 27.004 40.68C27.004 41.56 26.63 42.33 25.882 42.99C25.134 43.65 24.628 43.958 24.364 43.914C22.208 43.518 20.844 41.78 20.272 38.7C19.656 35.356 18.93 32.562 18.094 30.318C16.598 30.45 15.102 30.582 13.606 30.714C11.89 30.934 10.548 31.462 9.58 32.298C9.096 33.662 8.458 36.082 7.666 39.558C6.918 42.77 6.192 45.212 5.488 46.884C5.136 47.676 4.388 47.896 3.244 47.544C1.792 47.06 1.022 46.4 0.934 45.564C0.802 43.892 1.286 41.648 2.386 38.832C3.706 35.62 4.432 33.332 4.564 31.968C4.608 31.572 4.322 31.132 3.706 30.648C3.09 30.164 2.782 29.79 2.782 29.526C2.782 29.306 2.87 29.086 3.046 28.866C3.266 28.602 3.728 28.404 4.432 28.272C5.18 28.096 5.598 27.854 5.686 27.546C6.478 25.346 7.732 21.254 9.448 15.27C10.9 10.078 12.198 6.096 13.342 3.324C13.606 2.708 14.156 2.4 14.992 2.4C15.608 2.4 16.158 2.598 16.642 2.994C17.874 4.05 18.666 5.634 19.018 7.746C19.282 9.55 19.524 11.354 19.744 13.158C21.944 23.542 24.232 32.1 26.608 38.832ZM16.972 26.226C16.84 24.598 16.554 22.772 16.114 20.748C15.674 18.988 15.256 17.228 14.86 15.468C13.54 19.12 12.396 22.772 11.428 26.424C12.132 26.292 13.98 26.226 16.972 26.226ZM29.478 0.947997H31.128C33.328 0.947997 34.428 2.928 34.428 6.888C34.648 9.044 34.758 11.772 34.758 15.072V16.722C35.022 16.722 39.18 12.234 47.232 3.258H48.882C50.026 3.258 50.774 3.698 51.126 4.578C51.126 6.646 46.308 12.762 36.672 22.926L36.012 24.246C43.008 27.81 48.376 31.44 52.116 35.136V35.73C52.116 37.27 50.818 38.04 48.222 38.04C47.386 37.16 43.008 34.432 35.088 29.856V30.186C35.264 34.982 35.352 38.59 35.352 41.01C34.56 41.67 33.812 42 33.108 42C30.468 42 29.148 39.052 29.148 33.156V12.432C29.148 10.144 28.928 6.536 28.488 1.608L29.478 0.947997ZM73.6578 3.39H76.0998C77.0678 3.918 77.5738 4.314 77.6178 4.578V4.908C77.6178 7.328 75.3958 16.414 70.9518 32.166C72.7558 38.282 73.6578 41.714 73.6578 42.462C73.3058 43.386 72.6018 44.2 71.5458 44.904H71.2158C69.1918 44.904 67.7838 42.99 66.9918 39.162C65.0558 40.966 63.5378 41.868 62.4378 41.868H60.3258C56.8938 39.58 55.1778 34.432 55.1778 26.424V23.388C55.4858 11.86 56.1898 6.096 57.2898 6.096H59.1378C60.6338 6.36 61.4258 6.778 61.5138 7.35C61.5138 9.946 61.4258 17.316 61.2498 29.46C61.2498 30.032 61.5578 31.946 62.1738 35.202H62.4378C64.1538 35.202 66.2878 28.932 68.8398 16.392C70.3798 12.124 71.5898 8.098 72.4698 4.314L73.6578 3.39ZM86.6855 2.268C87.3455 2.576 87.7855 3.104 88.0055 3.852C86.5975 13.18 85.8935 21.628 85.8935 29.196L86.4215 29.46C92.7135 15.38 97.0255 7.636 99.3575 6.228H100.678C101.558 6.712 101.998 7.24 101.998 7.812C101.294 14.192 100.942 20.704 100.942 27.348V38.172C100.942 40.46 100.15 41.604 98.5655 41.604H96.9815C96.7175 41.604 96.4535 41.34 96.1895 40.812V19.692H95.9255C89.5895 32.892 85.8935 39.932 84.8375 40.812C84.1775 41.34 83.5615 41.604 82.9895 41.604H81.6695C81.2295 41.604 80.9655 41.252 80.8775 40.548C81.3175 15.38 82.4615 2.796 84.3095 2.796C85.4535 2.444 86.2455 2.268 86.6855 2.268ZM110.469 2.268C111.129 2.576 111.569 3.104 111.789 3.852C110.381 13.18 109.677 21.628 109.677 29.196L110.205 29.46C116.497 15.38 120.809 7.636 123.141 6.228H124.461C125.341 6.712 125.781 7.24 125.781 7.812C125.077 14.192 124.725 20.704 124.725 27.348V38.172C124.725 40.46 123.933 41.604 122.349 41.604H120.765C120.501 41.604 120.237 41.34 119.973 40.812V19.692H119.709C113.373 32.892 109.677 39.932 108.621 40.812C107.961 41.34 107.345 41.604 106.773 41.604H105.453C105.013 41.604 104.749 41.252 104.661 40.548C105.101 15.38 106.245 2.796 108.093 2.796C109.237 2.444 110.029 2.268 110.469 2.268Z" fill="#11315F"/>
</svg>
