<svg width="45" height="63" viewBox="0 0 45 63" fill="none" xmlns="http://www.w3.org/2000/svg">
<path d="M9.99255 18.73C10.1072 22.7433 9.93521 28.4193 9.47655 35.758C9.01788 43.7273 8.78855 49.4033 8.78855 52.786C8.78855 55.1367 8.84588 57.344 8.96055 59.408C9.07521 60.8413 8.55921 61.558 7.41255 61.558C3.91521 61.558 1.99455 60.784 1.65055 59.236C0.905214 55.9107 0.532547 52.1553 0.532547 47.97C0.532547 45.046 0.790547 40.6313 1.30655 34.726C1.82255 28.7633 2.08055 24.3487 2.08055 21.482C2.08055 17.8127 1.79388 14.4873 1.22055 11.506C1.16321 11.1047 1.30655 10.646 1.65055 10.13C2.05188 9.614 2.48188 9.27 2.94055 9.098C5.29121 8.29533 7.01121 8.69666 8.10055 10.302C9.24721 11.9073 9.87788 14.7167 9.99255 18.73ZM42.6732 2.734C43.7626 4.11 44.3072 5.62933 44.3072 7.292C44.3072 8.84 43.8199 10.7033 42.8452 12.882C41.8706 14.6593 40.9246 16.4653 40.0072 18.3C38.2299 21.912 36.7392 24.6927 35.5352 26.642C36.9686 30.1967 38.3159 34.8693 39.5772 40.66C40.1506 43.3547 40.4372 45.218 40.4372 46.25C40.4372 47.7407 40.1506 49.1453 39.5772 50.464C39.5772 50.5213 39.2046 51.582 38.4592 53.646C38.0579 54.7927 37.5706 55.6527 36.9972 56.226C35.7359 57.4873 33.3852 59.064 29.9452 60.956C28.5692 61.7013 27.0499 62.074 25.3872 62.074C23.5526 62.074 21.8039 61.6153 20.1412 60.698C17.1599 59.0353 15.6119 56.6273 15.4972 53.474C15.4399 50.894 16.0992 48.056 17.4752 44.96C18.7939 42.4373 20.1126 39.886 21.4312 37.306C21.7752 36.5607 23.1226 34.554 25.4732 31.286C27.1932 28.9353 28.1106 26.8713 28.2252 25.094C28.3399 23.202 28.0246 20.536 27.2792 17.096C26.4192 13.2547 25.9606 10.5313 25.9032 8.926C25.8459 6.518 26.4766 4.54 27.7952 2.992C28.5406 2.132 29.3719 1.702 30.2892 1.702C30.5759 1.702 31.0632 1.788 31.7512 1.96C32.4966 2.07466 33.0699 2.132 33.4712 2.132C34.3886 2.132 35.2772 1.84533 36.1372 1.272C36.7679 0.813332 37.5419 0.583998 38.4592 0.583998C40.2366 0.583998 41.6412 1.30066 42.6732 2.734ZM35.3632 10.904C34.7899 9.7 34.1019 9.098 33.2992 9.098C32.7832 9.098 32.4392 9.356 32.2672 9.872C32.0379 10.732 32.0379 11.936 32.2672 13.484C32.4966 15.1467 32.9266 16.2073 33.5572 16.666C33.7292 16.322 34.2166 15.462 35.0192 14.086C35.4779 13.3407 35.7072 12.71 35.7072 12.194C35.7072 11.7927 35.5926 11.3627 35.3632 10.904ZM33.1272 49.432C33.7579 48.3427 34.0732 47.11 34.0732 45.734C34.0732 44.7593 33.8726 43.5267 33.4712 42.036C33.1846 40.7747 32.8692 39.542 32.5252 38.338C32.3532 37.5353 31.8659 36.274 31.0632 34.554C29.1139 37.306 27.1932 40.0867 25.3012 42.896C22.9506 46.336 21.7752 49.174 21.7752 51.41C21.7752 52.958 22.2912 54.42 23.3232 55.796C23.7819 56.4267 24.3839 56.742 25.1292 56.742C26.3332 56.742 27.7666 55.882 29.4292 54.162C30.8626 52.786 32.0952 51.2093 33.1272 49.432Z" fill="#E26F44"/>
</svg>
