<svg width="80" height="72" viewBox="0 0 80 72" fill="none" xmlns="http://www.w3.org/2000/svg">
<path d="M27.8012 50.946C27.3425 51.978 25.9952 52.6373 23.7592 52.924C21.8672 53.1533 19.5739 53.268 16.8792 53.268C13.3819 53.2107 11.1745 53.2107 10.2572 53.268C8.53719 53.3827 7.47652 53.44 7.07519 53.44C3.63519 53.44 1.42785 52.2073 0.453188 49.742C1.82919 46.4167 4.17985 41.744 7.50519 35.724C10.8879 29.4747 13.2385 24.8307 14.5572 21.792C15.3599 20.0147 16.1912 18.2087 17.0512 16.374C17.9685 14.138 18.4272 12.3033 18.4272 10.87C18.4272 8.462 17.8252 7.258 16.6212 7.258C15.9332 7.258 15.1019 8.06067 14.1272 9.666C13.2099 11.214 12.3499 12.7047 11.5472 14.138C11.4325 14.3673 11.3752 14.6253 11.3752 14.912C11.3752 15.1987 11.5185 15.7433 11.8052 16.546C12.1492 17.3487 12.3212 17.9793 12.3212 18.438C12.3212 19.0113 12.0919 19.556 11.6332 20.072C11.1745 20.5307 10.6299 20.76 9.99919 20.76C9.19652 20.76 7.64852 19.6707 5.35519 17.492C4.60985 16.804 4.23719 15.8867 4.23719 14.74C4.23719 13.364 4.75319 11.73 5.78519 9.838C8.30785 5.194 12.0919 2.21266 17.1372 0.893997C17.7679 0.721999 18.3699 0.636 18.9432 0.636C21.5805 0.636 23.3005 1.84 24.1032 4.248C24.6192 5.91067 24.8772 7.65933 24.8772 9.494C24.8772 12.3033 24.1892 15.5713 22.8132 19.298C21.4372 22.394 20.0899 25.49 18.7712 28.586C18.0259 30.306 16.5639 33.1153 14.3852 37.014C12.4359 40.3967 11.0599 43.2633 10.2572 45.614C11.1745 45.6713 13.7545 45.7 17.9972 45.7C21.1505 45.7 23.7019 45.958 25.6512 46.474C27.2565 46.9327 28.0592 48.0507 28.0592 49.828C28.0592 50.2293 27.9732 50.602 27.8012 50.946ZM44.1976 11.73C44.3123 15.7433 44.1403 21.4193 43.6816 28.758C43.223 36.7273 42.9936 42.4033 42.9936 45.786C42.9936 48.1367 43.051 50.344 43.1656 52.408C43.2803 53.8413 42.7643 54.558 41.6176 54.558C38.1203 54.558 36.1996 53.784 35.8556 52.236C35.1103 48.9107 34.7376 45.1553 34.7376 40.97C34.7376 38.046 34.9956 33.6313 35.5116 27.726C36.0276 21.7633 36.2856 17.3487 36.2856 14.482C36.2856 10.8127 35.999 7.48733 35.4256 4.506C35.3683 4.10466 35.5116 3.646 35.8556 3.13C36.257 2.614 36.687 2.27 37.1456 2.098C39.4963 1.29533 41.2163 1.69666 42.3056 3.302C43.4523 4.90733 44.083 7.71666 44.1976 11.73ZM79.2863 5.022C77.3943 6.62733 74.4416 7.88866 70.4283 8.806C65.727 9.95266 62.5736 10.956 60.9683 11.816C58.847 17.32 57.557 21.878 57.0983 25.49C65.641 28.0127 70.3423 31.8253 71.2023 36.928C71.6036 39.4507 71.8043 41.9733 71.8043 44.496C71.8043 54.816 68.7656 63.33 62.6883 70.038C61.6563 71.1847 60.653 71.758 59.6783 71.758C59.2196 71.758 58.7896 71.6147 58.3883 71.328C57.5856 70.9267 56.8116 70.554 56.0663 70.21C55.149 69.6367 54.633 68.8627 54.5183 67.888C54.3463 66.3973 54.8623 65.3653 56.0663 64.792C57.901 63.8747 59.1623 62.8427 59.8503 61.696C63.233 56.364 64.9243 50.5733 64.9243 44.324C64.9243 40.7693 64.2363 37.616 62.8603 34.864C62.1723 33.488 60.7676 32.714 58.6463 32.542C55.5503 32.3127 53.8303 32.1407 53.4863 32.026C51.021 31.1087 49.817 29.9907 49.8743 28.672C50.0463 22.2507 52.4543 13.278 57.0983 1.754C57.4423 0.893997 58.2736 0.463997 59.5923 0.463997C61.427 0.463997 62.5163 1.12333 62.8603 2.442C63.4336 2.72866 64.093 2.872 64.8383 2.872C65.8703 2.872 67.5043 2.49933 69.7403 1.754C71.9763 0.951329 73.6676 0.549996 74.8143 0.549996C76.305 0.549996 77.595 1.03733 78.6843 2.012C79.315 2.92933 79.5156 3.93266 79.2863 5.022Z" fill="#E26F44"/>
</svg>
