<svg width="60" height="63" viewBox="0 0 60 63" fill="none" xmlns="http://www.w3.org/2000/svg">
<path d="M27.7533 59.946C27.2947 60.978 25.9473 61.6373 23.7113 61.924C21.8193 62.1533 19.526 62.268 16.8313 62.268C13.334 62.2107 11.1267 62.2107 10.2093 62.268C8.48934 62.3827 7.42867 62.44 7.02734 62.44C3.58734 62.44 1.38 61.2073 0.405336 58.742C1.78134 55.4167 4.132 50.744 7.45734 44.724C10.84 38.4747 13.1907 33.8307 14.5093 30.792C15.312 29.0147 16.1433 27.2087 17.0033 25.374C17.9207 23.138 18.3793 21.3033 18.3793 19.87C18.3793 17.462 17.7773 16.258 16.5733 16.258C15.8853 16.258 15.054 17.0607 14.0793 18.666C13.162 20.214 12.302 21.7047 11.4993 23.138C11.3847 23.3673 11.3273 23.6253 11.3273 23.912C11.3273 24.1987 11.4707 24.7433 11.7573 25.546C12.1013 26.3487 12.2733 26.9793 12.2733 27.438C12.2733 28.0113 12.044 28.556 11.5853 29.072C11.1267 29.5307 10.582 29.76 9.95134 29.76C9.14867 29.76 7.60067 28.6707 5.30734 26.492C4.562 25.804 4.18934 24.8867 4.18934 23.74C4.18934 22.364 4.70534 20.73 5.73734 18.838C8.26 14.194 12.044 11.2127 17.0893 9.894C17.72 9.722 18.322 9.636 18.8953 9.636C21.5327 9.636 23.2527 10.84 24.0553 13.248C24.5713 14.9107 24.8293 16.6593 24.8293 18.494C24.8293 21.3033 24.1413 24.5713 22.7653 28.298C21.3893 31.394 20.042 34.49 18.7233 37.586C17.978 39.306 16.516 42.1153 14.3373 46.014C12.388 49.3967 11.012 52.2633 10.2093 54.614C11.1267 54.6713 13.7067 54.7 17.9493 54.7C21.1027 54.7 23.654 54.958 25.6033 55.474C27.2087 55.9327 28.0113 57.0507 28.0113 58.828C28.0113 59.2293 27.9253 59.602 27.7533 59.946ZM59.3718 2.928C59.7158 3.21467 59.8878 3.64467 59.8878 4.218C59.8878 5.36466 59.4864 6.08133 58.6838 6.368C56.7344 6.99866 54.9571 8.11667 53.3518 9.722C48.3638 14.71 44.0924 22.6793 40.5378 33.63C41.2831 33.63 42.3151 33.286 43.6338 32.598C45.0098 31.91 46.0991 31.566 46.9018 31.566C47.4178 31.566 47.9338 31.6807 48.4498 31.91C52.6924 33.63 55.1864 36.468 55.9318 40.424C56.1038 41.284 56.1898 42.1727 56.1898 43.09C56.1898 46.3007 55.0718 49.4253 52.8358 52.464C50.9438 55.1013 48.4784 57.366 45.4398 59.258C44.5798 59.774 43.6911 60.032 42.7738 60.032C41.6271 60.032 39.8211 59.344 37.3558 57.968C33.5144 55.7893 31.5938 51.8047 31.5938 46.014C31.5938 44.0073 31.8231 41.886 32.2818 39.65C34.0018 31.6807 36.3524 25.0013 39.3338 19.612C42.9458 13.1333 44.9524 9.57866 45.3538 8.948C47.9911 5.10666 50.9438 2.46933 54.2118 1.036C54.7278 0.806664 55.1864 0.691997 55.5878 0.691997C56.3904 0.691997 57.6518 1.43733 59.3718 2.928ZM49.1378 42.144C49.1378 41.284 48.8798 40.3667 48.3638 39.392C47.9051 38.36 47.3031 37.844 46.5578 37.844C46.0991 37.844 45.3251 38.188 44.2358 38.876C43.1464 39.5067 42.3151 39.822 41.7418 39.822C41.0538 39.822 40.4518 39.478 39.9358 38.79C38.9038 40.0513 38.3878 41.8287 38.3878 44.122C38.3878 45.326 38.5598 46.96 38.9038 49.024C39.3624 51.8907 40.0504 53.324 40.9678 53.324C41.2544 53.324 41.5411 53.238 41.8278 53.066C43.8344 52.0913 45.5544 50.572 46.9878 48.508C48.4211 46.444 49.1378 44.3227 49.1378 42.144Z" fill="#E26F44"/>
</svg>
