<svg width="498" height="71" viewBox="0 0 498 71" fill="none" xmlns="http://www.w3.org/2000/svg">
<path d="M18.932 20.202C18.932 21.39 18.14 22.138 16.556 22.446C14.488 22.842 13.212 23.304 12.728 23.832C7.8 29.024 5.336 35.734 5.336 43.962C5.336 47.834 5.952 51.486 7.184 54.918C8.196 57.734 8.922 59.582 9.362 60.462C10.462 62.618 11.804 64.158 13.388 65.082C14.048 65.39 14.708 65.676 15.368 65.94C16.072 66.336 16.424 66.886 16.424 67.59C16.424 68.294 16.182 68.932 15.698 69.504C15.258 70.076 14.774 70.296 14.246 70.164C13.674 70.076 12.794 69.79 11.606 69.306C9.494 68.074 7.206 65.456 4.742 61.452C4.126 60.44 3.488 59.406 2.828 58.35C2.212 57.25 1.75 56.216 1.442 55.248C1.222 54.544 0.848 51.706 0.32 46.734C0.144 45.194 0.0560001 43.698 0.0560001 42.246C0.0560001 34.458 2.322 27.836 6.854 22.38C9.494 19.212 12.244 17.628 15.104 17.628C16.336 17.628 17.458 18.002 18.47 18.75C18.778 18.97 18.932 19.454 18.932 20.202ZM37.5961 18.75H38.0581C39.5541 19.058 40.3021 19.476 40.3021 20.004C39.9501 27.308 39.7741 32.94 39.7741 36.9C39.7741 37.912 40.1041 39.958 40.7641 43.038C40.8961 43.038 41.9741 43.126 43.9981 43.302C44.2181 43.302 45.4281 43.06 47.6281 42.576C48.0241 28.804 48.5301 21.918 49.1461 21.918C49.8501 20.642 50.6641 20.004 51.5881 20.004H51.8521C52.7321 20.004 53.3041 20.312 53.5681 20.928V24.162C52.0721 39.562 51.3241 51.354 51.3241 59.538L50.5981 60H49.3441C47.8921 60 47.1661 58.768 47.1661 56.304C47.6501 53.004 47.8921 50.386 47.8921 48.45V47.724C47.8921 47.592 47.6501 47.35 47.1661 46.998L39.5761 48.186C36.8921 47.086 35.3301 42.928 34.8901 35.712V32.742C35.1101 23.59 35.6821 19.014 36.6061 19.014C36.9141 18.838 37.2441 18.75 37.5961 18.75ZM79.7299 19.278H80.3899C82.7219 19.278 84.0859 20.29 84.4819 22.314V23.37C84.3939 23.678 79.2899 25.482 69.1699 28.782C68.9499 29.618 68.8399 32.104 68.8399 36.24C69.2359 36.46 69.6979 36.57 70.2259 36.57C74.9779 36.13 77.5739 35.91 78.0139 35.91C80.2579 36.218 81.3799 37.23 81.3799 38.946C81.3799 40.53 77.5519 41.542 69.8959 41.982C68.0479 41.982 67.1239 44.93 67.1239 50.826C67.1239 53.334 68.9499 54.588 72.6019 54.588C72.6019 54.808 73.3939 54.918 74.9779 54.918H79.0039C79.8399 54.214 80.6319 53.862 81.3799 53.862C82.7439 54.346 83.4259 55.6 83.4259 57.624V58.284C83.4259 58.592 82.8539 59.164 81.7099 60H76.6279C69.5439 60 65.0339 58.746 63.0979 56.238C61.9539 54.918 61.3819 53.114 61.3819 50.826V42.378L59.9959 40.662V39.606C61.5799 38.506 62.3719 36.812 62.3719 34.524V31.158C60.1279 30.542 59.0059 29.86 59.0059 29.112V28.122C59.0059 25.086 65.9139 22.138 79.7299 19.278ZM106.618 19.344H107.146C108.026 19.344 108.664 19.74 109.06 20.532V21.984C108.444 23.304 107.564 23.964 106.42 23.964C105.76 23.612 105.188 23.436 104.704 23.436C97.7516 25.24 94.2756 26.692 94.2756 27.792V32.412C94.2756 35.844 94.2096 38.99 94.0776 41.85C94.3856 45.678 94.5396 49.88 94.5396 54.456C94.0556 58.152 93.4176 60 92.6256 60H92.3616C90.6016 60 89.7216 58.46 89.7216 55.38C90.0296 49.66 90.1836 45.964 90.1836 44.292V35.778C90.1836 34.106 90.0956 31.532 89.9196 28.056C89.3036 28.056 88.4236 27.33 87.2796 25.878V24.69C87.2796 24.03 89.9416 23.128 95.2656 21.984C100.106 20.224 103.89 19.344 106.618 19.344ZM136.145 45.744C133.549 51.596 129.875 55.072 125.123 56.172C124.551 56.304 123.979 56.37 123.407 56.37C120.899 56.37 118.369 55.006 115.817 52.278C114.101 50.43 113.243 48.032 113.243 45.084C113.243 41.828 114.211 38.33 116.147 34.59C116.983 33.006 117.995 31.642 119.183 30.498C120.547 29.134 121.845 28.452 123.077 28.452C123.781 28.452 124.441 28.716 125.057 29.244C125.673 29.772 127.323 30.476 130.007 31.356C132.119 32.06 133.615 33.248 134.495 34.92C136.035 37.868 136.805 40.398 136.805 42.51C136.805 43.698 136.585 44.776 136.145 45.744ZM130.865 41.652C130.557 38.44 129.699 36.526 128.291 35.91C128.071 35.822 127.873 35.778 127.697 35.778C127.169 35.778 126.509 36.218 125.717 37.098C124.837 38.11 124.155 38.704 123.671 38.88C123.363 39.012 122.923 38.88 122.351 38.484C121.779 38.088 121.405 37.89 121.229 37.89C121.097 37.89 120.987 37.934 120.899 38.022C119.359 39.342 118.589 41.388 118.589 44.16C118.589 46.052 119.029 47.658 119.909 48.978C121.141 50.782 122.175 51.684 123.011 51.684C124.947 51.684 126.817 50.474 128.621 48.054C130.337 45.766 131.085 43.632 130.865 41.652ZM178.174 31.29C177.602 33.666 176.15 35.822 173.818 37.758C171.574 39.342 169.33 40.904 167.086 42.444C167.218 43.104 167.658 43.61 168.406 43.962C169.198 44.27 169.946 44.578 170.649 44.886C174.302 47.262 176.128 50.078 176.128 53.334C176.128 55.842 175.27 58.152 173.554 60.264C172.234 61.892 170.276 63.498 167.68 65.082C165.568 66.314 163.456 67.546 161.344 68.778C160.816 69.086 160.244 69.24 159.628 69.24C158.176 69.24 157.164 68.646 156.592 67.458C156.68 63.762 156.768 60.088 156.856 56.436C156.944 52.036 157.186 48.406 157.582 45.546C156.658 44.93 156.196 44.226 156.196 43.434C156.196 43.038 156.35 42.686 156.658 42.378C157.01 42.026 157.472 41.652 158.043 41.256C158.572 34.568 158.682 28.408 158.374 22.776C156.306 22.38 154.942 21.456 154.282 20.004C154.238 19.828 154.304 19.564 154.48 19.212C154.7 18.86 154.81 18.574 154.81 18.354C155.822 17.606 156.944 17.232 158.176 17.232C159.056 17.232 161.08 17.518 164.248 18.09C165.876 18.354 167.57 18.948 169.33 19.872C174.082 22.336 176.876 24.734 177.712 27.066C178.284 28.738 178.438 30.146 178.174 31.29ZM171.97 27.99C171.75 26.362 170.43 25.108 168.01 24.228C167.658 24.096 167.108 23.81 166.36 23.37C165.832 23.018 165.392 22.842 165.04 22.842C164.864 22.842 164.666 22.886 164.446 22.974C164.402 23.722 164.38 24.514 164.38 25.35C164.38 26.494 164.468 28.43 164.644 31.158C164.776 33.666 164.82 35.624 164.776 37.032C165.084 37.032 165.546 36.812 166.162 36.372C166.778 35.888 167.13 35.624 167.218 35.58C168.538 34.964 169.704 33.93 170.716 32.478C171.728 31.026 172.146 29.53 171.97 27.99ZM169.99 53.862C170.078 53.378 170.122 52.916 170.122 52.476C170.122 51.156 169.704 49.99 168.868 48.978C166.624 47.878 165.194 47.328 164.578 47.328C164.226 47.328 163.896 47.394 163.588 47.526C163.632 47.966 163.654 48.45 163.654 48.978C163.654 49.902 163.522 51.332 163.258 53.268C163.038 55.16 162.928 56.59 162.928 57.558C162.928 58.966 163.104 60.242 163.456 61.386C163.984 60.77 164.798 60.132 165.898 59.472C167.042 58.768 167.834 58.152 168.274 57.624C169.066 56.7 169.638 55.446 169.99 53.862ZM198.95 20.202C198.95 21.39 198.158 22.138 196.574 22.446C194.506 22.842 193.23 23.304 192.746 23.832C187.818 29.024 185.354 35.734 185.354 43.962C185.354 47.834 185.97 51.486 187.202 54.918C188.214 57.734 188.94 59.582 189.38 60.462C190.48 62.618 191.822 64.158 193.406 65.082C194.066 65.39 194.726 65.676 195.386 65.94C196.09 66.336 196.442 66.886 196.442 67.59C196.442 68.294 196.2 68.932 195.716 69.504C195.276 70.076 194.792 70.296 194.264 70.164C193.692 70.076 192.812 69.79 191.624 69.306C189.512 68.074 187.224 65.456 184.76 61.452C184.144 60.44 183.506 59.406 182.846 58.35C182.23 57.25 181.768 56.216 181.46 55.248C181.24 54.544 180.866 51.706 180.338 46.734C180.162 45.194 180.074 43.698 180.074 42.246C180.074 34.458 182.34 27.836 186.872 22.38C189.512 19.212 192.262 17.628 195.122 17.628C196.354 17.628 197.476 18.002 198.488 18.75C198.796 18.97 198.95 19.454 198.95 20.202ZM228.834 60H202.5V12.876H228.834V18.09H208.44V32.808H227.646V37.956H208.44V54.786H228.834V60ZM206.922 3.306C206.922 2.162 207.23 1.348 207.846 0.863998C208.462 0.335997 209.188 0.0719966 210.024 0.0719966C210.86 0.0719966 211.586 0.335997 212.202 0.863998C212.818 1.348 213.126 2.162 213.126 3.306C213.126 4.406 212.818 5.242 212.202 5.814C211.586 6.342 210.86 6.606 210.024 6.606C209.188 6.606 208.462 6.342 207.846 5.814C207.23 5.242 206.922 4.406 206.922 3.306ZM219.33 3.306C219.33 2.162 219.616 1.348 220.188 0.863998C220.804 0.335997 221.53 0.0719966 222.366 0.0719966C223.202 0.0719966 223.928 0.335997 224.544 0.863998C225.16 1.348 225.468 2.162 225.468 3.306C225.468 4.406 225.16 5.242 224.544 5.814C223.928 6.342 223.202 6.606 222.366 6.606C221.53 6.606 220.804 6.342 220.188 5.814C219.616 5.242 219.33 4.406 219.33 3.306ZM273.691 23.106C273.603 27.022 272.965 33.226 271.777 41.718C270.677 49.77 270.127 55.952 270.127 60.264C270.127 61.628 270.171 62.926 270.259 64.158C270.259 64.466 270.127 64.752 269.863 65.016C269.599 65.324 269.291 65.478 268.939 65.478C267.707 65.478 266.893 65.368 266.497 65.148C264.825 64.18 263.989 62.354 263.989 59.67C263.989 59.142 264.011 58.328 264.055 57.228C264.143 56.084 264.187 55.248 264.187 54.72C264.187 53.84 264.297 52.498 264.517 50.694C264.737 48.89 264.847 47.504 264.847 46.536C264.231 46.58 263.373 46.492 262.273 46.272C261.217 46.052 260.447 45.942 259.963 45.942C259.391 45.942 258.841 46.03 258.313 46.206C257.257 49.682 256.641 54.808 256.465 61.584C254.969 62.2 253.517 62.134 252.109 61.386C251.097 60.858 250.591 59.802 250.591 58.218C250.591 57.866 250.613 57.404 250.657 56.832C250.745 56.216 250.789 55.842 250.789 55.71C250.921 53.334 251.427 48.626 252.307 41.586C253.055 35.69 253.407 31.004 253.363 27.528C253.363 27.044 253.693 26.736 254.353 26.604C255.057 26.472 255.453 26.34 255.541 26.208C255.805 26.516 256.443 26.78 257.455 27C258.291 27.176 258.797 27.572 258.973 28.188C259.325 29.288 259.501 30.52 259.501 31.884C259.501 32.852 259.347 34.392 259.039 36.504C258.775 38.572 258.643 40.156 258.643 41.256C259.171 41.652 259.831 41.894 260.623 41.982C261.151 42.07 261.899 42.092 262.867 42.048C264.143 41.96 264.913 41.916 265.177 41.916C266.277 37.296 267.245 31.312 268.081 23.964C268.257 22.424 268.807 21.654 269.731 21.654C272.063 21.434 273.383 21.918 273.691 23.106ZM301.692 56.832C301.956 57.536 302.088 58.152 302.088 58.68C302.088 59.56 301.714 60.33 300.966 60.99C300.218 61.65 299.712 61.958 299.448 61.914C297.292 61.518 295.928 59.78 295.356 56.7C294.74 53.356 294.014 50.562 293.178 48.318C291.682 48.45 290.186 48.582 288.69 48.714C286.974 48.934 285.632 49.462 284.664 50.298C284.18 51.662 283.542 54.082 282.75 57.558C282.002 60.77 281.276 63.212 280.572 64.884C280.22 65.676 279.472 65.896 278.328 65.544C276.876 65.06 276.106 64.4 276.018 63.564C275.886 61.892 276.37 59.648 277.47 56.832C278.79 53.62 279.516 51.332 279.648 49.968C279.692 49.572 279.406 49.132 278.79 48.648C278.174 48.164 277.866 47.79 277.866 47.526C277.866 47.306 277.954 47.086 278.13 46.866C278.35 46.602 278.812 46.404 279.516 46.272C280.264 46.096 280.682 45.854 280.77 45.546C281.562 43.346 282.816 39.254 284.532 33.27C285.984 28.078 287.282 24.096 288.426 21.324C288.69 20.708 289.24 20.4 290.076 20.4C290.692 20.4 291.242 20.598 291.726 20.994C292.958 22.05 293.75 23.634 294.102 25.746C294.366 27.55 294.608 29.354 294.828 31.158C297.028 41.542 299.316 50.1 301.692 56.832ZM292.056 44.226C291.924 42.598 291.638 40.772 291.198 38.748C290.758 36.988 290.34 35.228 289.944 33.468C288.624 37.12 287.48 40.772 286.512 44.424C287.216 44.292 289.064 44.226 292.056 44.226ZM307.268 18.75H307.73C309.226 19.058 309.974 19.476 309.974 20.004C309.622 27.308 309.446 32.94 309.446 36.9C309.446 37.912 309.776 39.958 310.436 43.038C310.568 43.038 311.646 43.126 313.67 43.302C313.89 43.302 315.1 43.06 317.3 42.576C317.696 28.804 318.202 21.918 318.818 21.918C319.522 20.642 320.336 20.004 321.26 20.004H321.524C322.404 20.004 322.976 20.312 323.24 20.928V24.162C321.744 39.562 320.996 51.354 320.996 59.538L320.27 60H319.016C317.564 60 316.838 58.768 316.838 56.304C317.322 53.004 317.564 50.386 317.564 48.45V47.724C317.564 47.592 317.322 47.35 316.838 46.998L309.248 48.186C306.564 47.086 305.002 42.928 304.562 35.712V32.742C304.782 23.59 305.354 19.014 306.278 19.014C306.586 18.838 306.916 18.75 307.268 18.75ZM336.598 20.4C337.258 20.708 337.698 21.236 337.918 21.984C336.51 31.312 335.806 39.76 335.806 47.328L336.334 47.592C342.626 33.512 346.938 25.768 349.27 24.36H350.59C351.47 24.844 351.91 25.372 351.91 25.944C351.206 32.324 350.854 38.836 350.854 45.48V56.304C350.854 58.592 350.062 59.736 348.478 59.736H346.894C346.63 59.736 346.366 59.472 346.102 58.944V37.824H345.838C339.502 51.024 335.806 58.064 334.75 58.944C334.09 59.472 333.474 59.736 332.902 59.736H331.582C331.142 59.736 330.878 59.384 330.79 58.68C331.23 33.512 332.374 20.928 334.222 20.928C335.366 20.576 336.158 20.4 336.598 20.4ZM379.524 23.106C379.436 27.022 378.798 33.226 377.61 41.718C376.51 49.77 375.96 55.952 375.96 60.264C375.96 61.628 376.004 62.926 376.092 64.158C376.092 64.466 375.96 64.752 375.696 65.016C375.432 65.324 375.124 65.478 374.772 65.478C373.54 65.478 372.726 65.368 372.33 65.148C370.658 64.18 369.822 62.354 369.822 59.67C369.822 59.142 369.844 58.328 369.888 57.228C369.976 56.084 370.02 55.248 370.02 54.72C370.02 53.84 370.13 52.498 370.35 50.694C370.57 48.89 370.68 47.504 370.68 46.536C370.064 46.58 369.206 46.492 368.106 46.272C367.05 46.052 366.28 45.942 365.796 45.942C365.224 45.942 364.674 46.03 364.146 46.206C363.09 49.682 362.474 54.808 362.298 61.584C360.802 62.2 359.35 62.134 357.942 61.386C356.93 60.858 356.424 59.802 356.424 58.218C356.424 57.866 356.446 57.404 356.49 56.832C356.578 56.216 356.622 55.842 356.622 55.71C356.754 53.334 357.26 48.626 358.14 41.586C358.888 35.69 359.24 31.004 359.196 27.528C359.196 27.044 359.526 26.736 360.186 26.604C360.89 26.472 361.286 26.34 361.374 26.208C361.638 26.516 362.276 26.78 363.288 27C364.124 27.176 364.63 27.572 364.806 28.188C365.158 29.288 365.334 30.52 365.334 31.884C365.334 32.852 365.18 34.392 364.872 36.504C364.608 38.572 364.476 40.156 364.476 41.256C365.004 41.652 365.664 41.894 366.456 41.982C366.984 42.07 367.732 42.092 368.7 42.048C369.976 41.96 370.746 41.916 371.01 41.916C372.11 37.296 373.078 31.312 373.914 23.964C374.09 22.424 374.64 21.654 375.564 21.654C377.896 21.434 379.216 21.918 379.524 23.106ZM407.524 56.832C407.788 57.536 407.92 58.152 407.92 58.68C407.92 59.56 407.546 60.33 406.798 60.99C406.05 61.65 405.544 61.958 405.28 61.914C403.124 61.518 401.76 59.78 401.188 56.7C400.572 53.356 399.846 50.562 399.01 48.318C397.514 48.45 396.018 48.582 394.522 48.714C392.806 48.934 391.464 49.462 390.496 50.298C390.012 51.662 389.374 54.082 388.582 57.558C387.834 60.77 387.108 63.212 386.404 64.884C386.052 65.676 385.304 65.896 384.16 65.544C382.708 65.06 381.938 64.4 381.85 63.564C381.718 61.892 382.202 59.648 383.302 56.832C384.622 53.62 385.348 51.332 385.48 49.968C385.524 49.572 385.238 49.132 384.622 48.648C384.006 48.164 383.698 47.79 383.698 47.526C383.698 47.306 383.786 47.086 383.962 46.866C384.182 46.602 384.644 46.404 385.348 46.272C386.096 46.096 386.514 45.854 386.602 45.546C387.394 43.346 388.648 39.254 390.364 33.27C391.816 28.078 393.114 24.096 394.258 21.324C394.522 20.708 395.072 20.4 395.908 20.4C396.524 20.4 397.074 20.598 397.558 20.994C398.79 22.05 399.582 23.634 399.934 25.746C400.198 27.55 400.44 29.354 400.66 31.158C402.86 41.542 405.148 50.1 407.524 56.832ZM397.888 44.226C397.756 42.598 397.47 40.772 397.03 38.748C396.59 36.988 396.172 35.228 395.776 33.468C394.456 37.12 393.312 40.772 392.344 44.424C393.048 44.292 394.896 44.226 397.888 44.226ZM420.69 21.126H421.548C423.88 21.126 425.398 24.91 426.102 32.478C427.598 39.034 429.49 46.118 431.778 53.73V54.918C431.778 55.182 431.118 55.842 429.798 56.898C427.158 56.898 425.266 52.74 424.122 44.424C423.242 41.916 422.384 38.22 421.548 33.336H420.954L413.298 59.736L412.77 60H411.912C410.196 59.604 409.338 59.142 409.338 58.614V57.162C409.338 56.414 410.856 51.112 413.892 41.256C417.192 29.024 419.458 22.314 420.69 21.126ZM458.798 45.744C456.202 51.596 452.528 55.072 447.776 56.172C447.204 56.304 446.632 56.37 446.06 56.37C443.552 56.37 441.022 55.006 438.47 52.278C436.754 50.43 435.896 48.032 435.896 45.084C435.896 41.828 436.864 38.33 438.8 34.59C439.636 33.006 440.648 31.642 441.836 30.498C443.2 29.134 444.498 28.452 445.73 28.452C446.434 28.452 447.094 28.716 447.71 29.244C448.326 29.772 449.976 30.476 452.66 31.356C454.772 32.06 456.268 33.248 457.148 34.92C458.688 37.868 459.458 40.398 459.458 42.51C459.458 43.698 459.238 44.776 458.798 45.744ZM453.518 41.652C453.21 38.44 452.352 36.526 450.944 35.91C450.724 35.822 450.526 35.778 450.35 35.778C449.822 35.778 449.162 36.218 448.37 37.098C447.49 38.11 446.808 38.704 446.324 38.88C446.016 39.012 445.576 38.88 445.004 38.484C444.432 38.088 444.058 37.89 443.882 37.89C443.75 37.89 443.64 37.934 443.552 38.022C442.012 39.342 441.242 41.388 441.242 44.16C441.242 46.052 441.682 47.658 442.562 48.978C443.794 50.782 444.828 51.684 445.664 51.684C447.6 51.684 449.47 50.474 451.274 48.054C452.99 45.766 453.738 43.632 453.518 41.652ZM479.772 20.202C479.772 21.39 478.98 22.138 477.396 22.446C475.328 22.842 474.052 23.304 473.568 23.832C468.64 29.024 466.176 35.734 466.176 43.962C466.176 47.834 466.792 51.486 468.024 54.918C469.036 57.734 469.762 59.582 470.202 60.462C471.302 62.618 472.644 64.158 474.228 65.082C474.888 65.39 475.548 65.676 476.208 65.94C476.912 66.336 477.264 66.886 477.264 67.59C477.264 68.294 477.022 68.932 476.538 69.504C476.098 70.076 475.614 70.296 475.086 70.164C474.514 70.076 473.634 69.79 472.446 69.306C470.334 68.074 468.046 65.456 465.582 61.452C464.966 60.44 464.328 59.406 463.668 58.35C463.052 57.25 462.59 56.216 462.282 55.248C462.062 54.544 461.688 51.706 461.16 46.734C460.984 45.194 460.896 43.698 460.896 42.246C460.896 34.458 463.162 27.836 467.694 22.38C470.334 19.212 473.084 17.628 475.944 17.628C477.176 17.628 478.298 18.002 479.31 18.75C479.618 18.97 479.772 19.454 479.772 20.202ZM487.15 19.608H487.876C489.02 19.916 489.68 20.07 489.856 20.07C489.856 21.434 489.944 22.754 490.12 24.03C489.592 30.674 489.328 34.832 489.328 36.504V37.23H489.856C492.716 37.23 495.246 38.946 497.446 42.378C497.754 42.906 497.908 43.39 497.908 43.83V45.282C497.908 51.662 494.982 55.996 489.13 58.284C487.722 59.428 486.666 60 485.962 60H485.17C484.29 60 483.652 59.582 483.256 58.746C483.476 46.69 483.718 40.662 483.982 40.662C483.718 40.662 483.388 40.332 482.992 39.672V38.682C484.312 37.758 484.972 35.47 484.972 31.818C485.456 28.034 485.698 24.536 485.698 21.324L485.434 20.334C486.05 19.85 486.622 19.608 487.15 19.608ZM488.866 40.662C488.866 41.894 488.624 45.326 488.14 50.958V51.42L488.404 53.862C491.66 52.234 493.288 49.88 493.288 46.8V44.094C493.288 42.158 492.056 41.014 489.592 40.662H488.866Z" fill="#11315F"/>
</svg>
