<svg width="765" height="106" viewBox="0 0 765 106" fill="none" xmlns="http://www.w3.org/2000/svg">
<path d="M-16 31.7534C-16 31.7534 39.2175 3 104.346 3C169.474 3 185.756 31.7534 248.053 31.7534C310.349 31.7534 335.834 3 393.884 3C451.933 3 469.631 31.7534 524.848 31.7534C580.065 31.7534 611.214 3 668.555 3C725.896 3 762 31.7534 762 31.7534" stroke="#61A8AE" stroke-width="5" strokeLinecap="round" strokeLinejoin="round"/>
<path d="M-16 60.5068C-16 60.5068 39.2175 31.7534 104.346 31.7534C169.474 31.7534 185.756 60.5068 248.053 60.5068C310.349 60.5068 335.834 31.7534 393.884 31.7534C451.933 31.7534 469.631 60.5068 524.848 60.5068C580.065 60.5068 611.214 31.7534 668.555 31.7534C725.896 31.7534 762 60.5068 762 60.5068" stroke="#61A8AE" stroke-width="5" strokeLinecap="round" strokeLinejoin="round"/>
<path d="M-16 89.2602C-16 89.2602 39.2175 60.5068 104.346 60.5068C169.474 60.5068 185.756 89.2602 248.053 89.2602C310.349 89.2602 335.834 60.5068 393.884 60.5068C451.933 60.5068 469.631 89.2602 524.848 89.2602C580.065 89.2602 611.214 60.5068 668.555 60.5068C725.896 60.5068 762 89.2602 762 89.2602" stroke="#61A8AE" stroke-width="5" strokeLinecap="round" strokeLinejoin="round"/>
<path d="M-16 45.5551C-16 45.5551 39.2175 16.8017 104.346 16.8017C169.474 16.8017 185.756 45.5551 248.053 45.5551C310.349 45.5551 335.834 16.8017 393.884 16.8017C451.933 16.8017 469.631 45.5551 524.848 45.5551C580.065 45.5551 611.214 16.8017 668.555 16.8017C725.896 16.8017 762 45.5551 762 45.5551" stroke="#61A8AE" stroke-width="5" strokeLinecap="round" strokeLinejoin="round"/>
<path d="M-16 74.3085C-16 74.3085 39.2175 45.555 104.346 45.555C169.474 45.555 185.756 74.3085 248.053 74.3085C310.349 74.3085 335.834 45.555 393.884 45.555C451.933 45.555 469.631 74.3085 524.848 74.3085C580.065 74.3085 611.214 45.555 668.555 45.555C725.896 45.555 762 74.3085 762 74.3085" stroke="#61A8AE" stroke-width="5" strokeLinecap="round" strokeLinejoin="round"/>
<path d="M-16 103.062C-16 103.062 39.2175 74.3085 104.346 74.3085C169.474 74.3085 185.756 103.062 248.053 103.062C310.349 103.062 335.834 74.3085 393.884 74.3085C451.933 74.3085 469.631 103.062 524.848 103.062C580.065 103.062 611.214 74.3085 668.555 74.3085C725.896 74.3085 762 103.062 762 103.062" stroke="#61A8AE" stroke-width="5" strokeLinecap="round" strokeLinejoin="round"/>
</svg>
