<svg width="306" height="57" viewBox="0 0 306 57" fill="none" xmlns="http://www.w3.org/2000/svg">
<path d="M-30 17.2299C-30 17.2299 -6.24138 2 21.7816 2C49.8046 2 56.8103 17.2299 83.6149 17.2299C110.42 17.2299 121.385 2 146.362 2C171.339 2 178.954 17.2299 202.713 17.2299C226.471 17.2299 239.874 2 264.546 2C289.218 2 304.753 17.2299 304.753 17.2299" stroke="#61A8AE" stroke-width="2.39109" stroke-linecap="round" stroke-linejoin="round"/>
<path d="M-30 32.4596C-30 32.4596 -6.24138 17.2297 21.7816 17.2297C49.8046 17.2297 56.8103 32.4596 83.6149 32.4596C110.42 32.4596 121.385 17.2297 146.362 17.2297C171.339 17.2297 178.954 32.4596 202.713 32.4596C226.471 32.4596 239.874 17.2297 264.546 17.2297C289.218 17.2297 304.753 32.4596 304.753 32.4596" stroke="#61A8AE" stroke-width="2.39109" stroke-linecap="round" stroke-linejoin="round"/>
<path d="M-30 47.6894C-30 47.6894 -6.24138 32.4595 21.7816 32.4595C49.8046 32.4595 56.8103 47.6894 83.6149 47.6894C110.42 47.6894 121.385 32.4595 146.362 32.4595C171.339 32.4595 178.954 47.6894 202.713 47.6894C226.471 47.6894 239.874 32.4595 264.546 32.4595C289.218 32.4595 304.753 47.6894 304.753 47.6894" stroke="#61A8AE" stroke-width="2.39109" stroke-linecap="round" stroke-linejoin="round"/>
<path d="M-30 24.5402C-30 24.5402 -6.24138 9.3103 21.7816 9.3103C49.8046 9.3103 56.8103 24.5402 83.6149 24.5402C110.42 24.5402 121.385 9.3103 146.362 9.3103C171.339 9.3103 178.954 24.5402 202.713 24.5402C226.471 24.5402 239.874 9.3103 264.546 9.3103C289.218 9.3103 304.753 24.5402 304.753 24.5402" stroke="#61A8AE" stroke-width="2.39109" stroke-linecap="round" stroke-linejoin="round"/>
<path d="M-30 39.7699C-30 39.7699 -6.24138 24.54 21.7816 24.54C49.8046 24.54 56.8103 39.7699 83.6149 39.7699C110.42 39.7699 121.385 24.54 146.362 24.54C171.339 24.54 178.954 39.7699 202.713 39.7699C226.471 39.7699 239.874 24.54 264.546 24.54C289.218 24.54 304.753 39.7699 304.753 39.7699" stroke="#61A8AE" stroke-width="2.39109" stroke-linecap="round" stroke-linejoin="round"/>
<path d="M-30 54.9999C-30 54.9999 -6.24138 39.77 21.7816 39.77C49.8046 39.77 56.8103 54.9999 83.6149 54.9999C110.42 54.9999 121.385 39.77 146.362 39.77C171.339 39.77 178.954 54.9999 202.713 54.9999C226.471 54.9999 239.874 39.77 264.546 39.77C289.218 39.77 304.753 54.9999 304.753 54.9999" stroke="#61A8AE" stroke-width="2.39109" stroke-linecap="round" stroke-linejoin="round"/>
</svg>
