<svg width="762" height="55" viewBox="0 0 762 55" fill="none" xmlns="http://www.w3.org/2000/svg">
<path d="M23.42 7.106C23.332 11.022 22.694 17.226 21.506 25.718C20.406 33.77 19.856 39.952 19.856 44.264C19.856 45.628 19.9 46.926 19.988 48.158C19.988 48.466 19.856 48.752 19.592 49.016C19.328 49.324 19.02 49.478 18.668 49.478C17.436 49.478 16.622 49.368 16.226 49.148C14.554 48.18 13.718 46.354 13.718 43.67C13.718 43.142 13.74 42.328 13.784 41.228C13.872 40.084 13.916 39.248 13.916 38.72C13.916 37.84 14.026 36.498 14.246 34.694C14.466 32.89 14.576 31.504 14.576 30.536C13.96 30.58 13.102 30.492 12.002 30.272C10.946 30.052 10.176 29.942 9.692 29.942C9.12 29.942 8.57 30.03 8.042 30.206C6.986 33.682 6.37 38.808 6.194 45.584C4.698 46.2 3.246 46.134 1.838 45.386C0.826 44.858 0.32 43.802 0.32 42.218C0.32 41.866 0.342 41.404 0.386 40.832C0.474 40.216 0.518 39.842 0.518 39.71C0.65 37.334 1.156 32.626 2.036 25.586C2.784 19.69 3.136 15.004 3.092 11.528C3.092 11.044 3.422 10.736 4.082 10.604C4.786 10.472 5.182 10.34 5.27 10.208C5.534 10.516 6.172 10.78 7.184 11C8.02 11.176 8.526 11.572 8.702 12.188C9.054 13.288 9.23 14.52 9.23 15.884C9.23 16.852 9.076 18.392 8.768 20.504C8.504 22.572 8.372 24.156 8.372 25.256C8.9 25.652 9.56 25.894 10.352 25.982C10.88 26.07 11.628 26.092 12.596 26.048C13.872 25.96 14.642 25.916 14.906 25.916C16.006 21.296 16.974 15.312 17.81 7.964C17.986 6.424 18.536 5.654 19.46 5.654C21.792 5.434 23.112 5.918 23.42 7.106ZM51.4205 40.832C51.6845 41.536 51.8165 42.152 51.8165 42.68C51.8165 43.56 51.4425 44.33 50.6945 44.99C49.9465 45.65 49.4405 45.958 49.1765 45.914C47.0205 45.518 45.6565 43.78 45.0845 40.7C44.4685 37.356 43.7425 34.562 42.9065 32.318C41.4105 32.45 39.9145 32.582 38.4185 32.714C36.7025 32.934 35.3605 33.462 34.3925 34.298C33.9085 35.662 33.2705 38.082 32.4785 41.558C31.7305 44.77 31.0045 47.212 30.3005 48.884C29.9485 49.676 29.2005 49.896 28.0565 49.544C26.6045 49.06 25.8345 48.4 25.7465 47.564C25.6145 45.892 26.0985 43.648 27.1985 40.832C28.5185 37.62 29.2445 35.332 29.3765 33.968C29.4205 33.572 29.1345 33.132 28.5185 32.648C27.9025 32.164 27.5945 31.79 27.5945 31.526C27.5945 31.306 27.6825 31.086 27.8585 30.866C28.0785 30.602 28.5405 30.404 29.2445 30.272C29.9925 30.096 30.4105 29.854 30.4985 29.546C31.2905 27.346 32.5445 23.254 34.2605 17.27C35.7125 12.078 37.0105 8.096 38.1545 5.324C38.4185 4.708 38.9685 4.4 39.8045 4.4C40.4205 4.4 40.9705 4.598 41.4545 4.994C42.6865 6.05 43.4785 7.634 43.8305 9.746C44.0945 11.55 44.3365 13.354 44.5565 15.158C46.7565 25.542 49.0445 34.1 51.4205 40.832ZM41.7845 28.226C41.6525 26.598 41.3665 24.772 40.9265 22.748C40.4865 20.988 40.0685 19.228 39.6725 17.468C38.3525 21.12 37.2085 24.772 36.2405 28.424C36.9445 28.292 38.7925 28.226 41.7845 28.226ZM56.9965 7.832C58.7565 7.832 59.8125 8.976 60.1645 11.264V12.056C59.9885 14.74 59.0205 23.188 57.2605 37.4C57.8325 37.752 58.3605 37.928 58.8445 37.928H62.0125C62.6285 37.928 63.5085 32.208 64.6525 20.768C65.1805 20.064 65.5325 19.712 65.7085 19.712H67.5565C68.5245 19.712 69.2285 20.24 69.6685 21.296C68.4365 30.8 67.8205 36.608 67.8205 38.72L68.3485 38.984H69.6685C70.1965 38.984 71.1645 30.712 72.5725 14.168C73.1885 11.528 74.5085 10.208 76.5325 10.208H77.0605C77.9405 10.824 78.3805 11.352 78.3805 11.792C76.6205 27.94 75.3885 38.324 74.6845 42.944C73.9365 43.648 73.0565 44 72.0445 44H71.5165C69.8885 43.12 66.8965 42.416 62.5405 41.888C61.5725 41.888 60.1645 41.712 58.3165 41.36C57.2605 41.536 56.2925 41.888 55.4125 42.416C54.0485 42.416 52.9045 41.712 51.9805 40.304V39.512C51.9805 38.016 52.9485 27.984 54.8845 9.416C54.8845 8.36 55.5885 7.832 56.9965 7.832ZM86.3263 4.4C86.9863 4.708 87.4263 5.236 87.6463 5.984C86.2383 15.312 85.5343 23.76 85.5343 31.328L86.0623 31.592C92.3543 17.512 96.6663 9.768 98.9983 8.36H100.318C101.198 8.844 101.638 9.372 101.638 9.944C100.934 16.324 100.582 22.836 100.582 29.48V40.304C100.582 42.592 99.7903 43.736 98.2063 43.736H96.6223C96.3583 43.736 96.0943 43.472 95.8302 42.944V21.824H95.5663C89.2303 35.024 85.5343 42.064 84.4783 42.944C83.8183 43.472 83.2023 43.736 82.6303 43.736H81.3103C80.8703 43.736 80.6063 43.384 80.5183 42.68C80.9583 17.512 82.1023 4.928 83.9503 4.928C85.0943 4.576 85.8863 4.4 86.3263 4.4ZM145.62 29.744C143.024 35.596 139.35 39.072 134.598 40.172C134.026 40.304 133.454 40.37 132.882 40.37C130.374 40.37 127.844 39.006 125.292 36.278C123.576 34.43 122.718 32.032 122.718 29.084C122.718 25.828 123.686 22.33 125.622 18.59C126.458 17.006 127.47 15.642 128.658 14.498C130.022 13.134 131.32 12.452 132.552 12.452C133.256 12.452 133.916 12.716 134.532 13.244C135.148 13.772 136.798 14.476 139.482 15.356C141.594 16.06 143.09 17.248 143.97 18.92C145.51 21.868 146.28 24.398 146.28 26.51C146.28 27.698 146.06 28.776 145.62 29.744ZM140.34 25.652C140.032 22.44 139.174 20.526 137.766 19.91C137.546 19.822 137.348 19.778 137.172 19.778C136.644 19.778 135.984 20.218 135.192 21.098C134.312 22.11 133.63 22.704 133.146 22.88C132.838 23.012 132.398 22.88 131.826 22.484C131.254 22.088 130.88 21.89 130.704 21.89C130.572 21.89 130.462 21.934 130.374 22.022C128.834 23.342 128.064 25.388 128.064 28.16C128.064 30.052 128.504 31.658 129.384 32.978C130.616 34.782 131.65 35.684 132.486 35.684C134.422 35.684 136.292 34.474 138.096 32.054C139.812 29.766 140.56 27.632 140.34 25.652ZM181.774 2.882C181.378 4.466 180.63 5.39 179.53 5.654C176.67 6.358 171.698 7.282 164.614 8.426C163.734 19.382 163.294 28.512 163.294 35.816C163.294 38.588 163.338 41.316 163.426 44C163.47 44.836 163.426 45.474 163.294 45.914C163.074 46.618 162.634 46.948 161.974 46.904C160.698 46.86 159.642 46.31 158.806 45.254C157.97 44.242 157.508 43.098 157.42 41.822C157.332 40.194 157.288 38.478 157.288 36.674C157.288 33.77 157.486 29.172 157.882 22.88C158.278 16.852 158.454 12.254 158.41 9.086C157.222 8.998 155.572 9.108 153.46 9.416C151.04 9.768 149.368 9.944 148.444 9.944C146.288 9.944 144.528 9.372 143.164 8.228C142.636 7.084 142.372 6.49 142.372 6.446C142.372 6.138 142.526 5.808 142.834 5.456C144.242 4.972 147.124 4.532 151.48 4.136C155.308 3.74 158.168 3.036 160.06 2.024C161.6 2.508 163.36 2.75 165.34 2.75C167.32 2.75 169.212 2.508 171.016 2.024C171.544 1.98 172.886 1.672 175.042 1.1C176.626 0.703997 177.946 0.571998 179.002 0.703999C179.794 0.703999 180.124 1.034 179.992 1.694C181.18 1.694 181.774 2.09 181.774 2.882ZM185.694 5.126H186.552C188.884 5.126 190.402 8.91 191.106 16.478C192.602 23.034 194.494 30.118 196.782 37.73V38.918C196.782 39.182 196.122 39.842 194.802 40.898C192.162 40.898 190.27 36.74 189.126 28.424C188.246 25.916 187.388 22.22 186.552 17.336H185.958L178.302 43.736L177.774 44H176.916C175.2 43.604 174.342 43.142 174.342 42.614V41.162C174.342 40.414 175.86 35.112 178.896 25.256C182.196 13.024 184.462 6.314 185.694 5.126ZM207.434 4.4C208.094 4.708 208.534 5.236 208.754 5.984C207.346 15.312 206.642 23.76 206.642 31.328L207.17 31.592C213.462 17.512 217.774 9.768 220.106 8.36H221.426C222.306 8.844 222.746 9.372 222.746 9.944C222.042 16.324 221.69 22.836 221.69 29.48V40.304C221.69 42.592 220.898 43.736 219.314 43.736H217.73C217.466 43.736 217.202 43.472 216.938 42.944V21.824H216.674C210.338 35.024 206.642 42.064 205.586 42.944C204.926 43.472 204.31 43.736 203.738 43.736H202.418C201.978 43.736 201.714 43.384 201.626 42.68C202.066 17.512 203.21 4.928 205.058 4.928C206.202 4.576 206.994 4.4 207.434 4.4ZM230.955 2.75H231.417C232.913 3.058 233.661 3.476 233.661 4.004C233.309 11.308 233.133 16.94 233.133 20.9C233.133 21.912 233.463 23.958 234.123 27.038C234.255 27.038 235.333 27.126 237.357 27.302C237.577 27.302 238.787 27.06 240.987 26.576C241.383 12.804 241.889 5.918 242.505 5.918C243.209 4.642 244.023 4.004 244.947 4.004H245.211C246.091 4.004 246.663 4.312 246.927 4.928V8.162C245.431 23.562 244.683 35.354 244.683 43.538L243.957 44H242.703C241.251 44 240.525 42.768 240.525 40.304C241.009 37.004 241.251 34.386 241.251 32.45V31.724C241.251 31.592 241.009 31.35 240.525 30.998L232.935 32.186C230.251 31.086 228.689 26.928 228.249 19.712V16.742C228.469 7.59 229.041 3.014 229.965 3.014C230.273 2.838 230.603 2.75 230.955 2.75ZM260.285 4.4C260.945 4.708 261.385 5.236 261.605 5.984C260.197 15.312 259.493 23.76 259.493 31.328L260.021 31.592C266.313 17.512 270.625 9.768 272.957 8.36H274.277C275.157 8.844 275.597 9.372 275.597 9.944C274.893 16.324 274.541 22.836 274.541 29.48V40.304C274.541 42.592 273.749 43.736 272.165 43.736H270.581C270.317 43.736 270.053 43.472 269.789 42.944V21.824H269.525C263.189 35.024 259.493 42.064 258.437 42.944C257.777 43.472 257.161 43.736 256.589 43.736H255.269C254.829 43.736 254.565 43.384 254.477 42.68C254.917 17.512 256.061 4.928 257.909 4.928C259.053 4.576 259.845 4.4 260.285 4.4ZM313.903 2.882C313.507 4.466 312.759 5.39 311.659 5.654C308.799 6.358 303.827 7.282 296.743 8.426C295.863 19.382 295.423 28.512 295.423 35.816C295.423 38.588 295.467 41.316 295.555 44C295.599 44.836 295.555 45.474 295.423 45.914C295.203 46.618 294.763 46.948 294.103 46.904C292.827 46.86 291.771 46.31 290.935 45.254C290.099 44.242 289.637 43.098 289.549 41.822C289.461 40.194 289.417 38.478 289.417 36.674C289.417 33.77 289.615 29.172 290.011 22.88C290.407 16.852 290.583 12.254 290.539 9.086C289.351 8.998 287.701 9.108 285.589 9.416C283.169 9.768 281.497 9.944 280.573 9.944C278.417 9.944 276.657 9.372 275.293 8.228C274.765 7.084 274.501 6.49 274.501 6.446C274.501 6.138 274.655 5.808 274.963 5.456C276.371 4.972 279.253 4.532 283.609 4.136C287.437 3.74 290.297 3.036 292.189 2.024C293.729 2.508 295.489 2.75 297.469 2.75C299.449 2.75 301.341 2.508 303.145 2.024C303.673 1.98 305.015 1.672 307.171 1.1C308.755 0.703997 310.075 0.571998 311.131 0.703999C311.923 0.703999 312.253 1.034 312.121 1.694C313.309 1.694 313.903 2.09 313.903 2.882ZM325.941 3.278H326.601C328.933 3.278 330.297 4.29 330.693 6.314V7.37C330.605 7.678 325.501 9.482 315.381 12.782C315.161 13.618 315.051 16.104 315.051 20.24C315.447 20.46 315.909 20.57 316.437 20.57C321.189 20.13 323.785 19.91 324.225 19.91C326.469 20.218 327.591 21.23 327.591 22.946C327.591 24.53 323.763 25.542 316.107 25.982C314.259 25.982 313.335 28.93 313.335 34.826C313.335 37.334 315.161 38.588 318.813 38.588C318.813 38.808 319.605 38.918 321.189 38.918H325.215C326.051 38.214 326.843 37.862 327.591 37.862C328.955 38.346 329.637 39.6 329.637 41.624V42.284C329.637 42.592 329.065 43.164 327.921 44H322.839C315.755 44 311.245 42.746 309.309 40.238C308.165 38.918 307.593 37.114 307.593 34.826V26.378L306.207 24.662V23.606C307.791 22.506 308.583 20.812 308.583 18.524V15.158C306.339 14.542 305.217 13.86 305.217 13.112V12.122C305.217 9.086 312.125 6.138 325.941 3.278ZM344.249 5.126H345.107C347.439 5.126 348.957 8.91 349.661 16.478C351.157 23.034 353.049 30.118 355.337 37.73V38.918C355.337 39.182 354.677 39.842 353.357 40.898C350.717 40.898 348.825 36.74 347.681 28.424C346.801 25.916 345.943 22.22 345.107 17.336H344.513L336.857 43.736L336.329 44H335.471C333.755 43.604 332.897 43.142 332.897 42.614V41.162C332.897 40.414 334.415 35.112 337.451 25.256C340.751 13.024 343.017 6.314 344.249 5.126ZM368.298 3.608H369.024C370.168 3.916 370.828 4.07 371.004 4.07C371.004 5.434 371.092 6.754 371.268 8.03C370.74 14.674 370.476 18.832 370.476 20.504V21.23H371.004C373.864 21.23 376.394 22.946 378.594 26.378C378.902 26.906 379.056 27.39 379.056 27.83V29.282C379.056 35.662 376.13 39.996 370.278 42.284C368.87 43.428 367.814 44 367.11 44H366.318C365.438 44 364.8 43.582 364.404 42.746C364.624 30.69 364.866 24.662 365.13 24.662C364.866 24.662 364.536 24.332 364.14 23.672V22.682C365.46 21.758 366.12 19.47 366.12 15.818C366.604 12.034 366.846 8.536 366.846 5.324L366.582 4.334C367.198 3.85 367.77 3.608 368.298 3.608ZM370.014 24.662C370.014 25.894 369.772 29.326 369.288 34.958V35.42L369.552 37.862C372.808 36.234 374.436 33.88 374.436 30.8V28.094C374.436 26.158 373.204 25.014 370.74 24.662H370.014ZM408.914 7.106C408.826 11.022 408.188 17.226 407 25.718C405.9 33.77 405.35 39.952 405.35 44.264C405.35 45.628 405.394 46.926 405.482 48.158C405.482 48.466 405.35 48.752 405.086 49.016C404.822 49.324 404.514 49.478 404.162 49.478C402.93 49.478 402.116 49.368 401.72 49.148C400.048 48.18 399.212 46.354 399.212 43.67C399.212 43.142 399.234 42.328 399.278 41.228C399.366 40.084 399.41 39.248 399.41 38.72C399.41 37.84 399.52 36.498 399.74 34.694C399.96 32.89 400.07 31.504 400.07 30.536C399.454 30.58 398.596 30.492 397.496 30.272C396.44 30.052 395.67 29.942 395.186 29.942C394.614 29.942 394.064 30.03 393.536 30.206C392.48 33.682 391.864 38.808 391.688 45.584C390.192 46.2 388.74 46.134 387.332 45.386C386.32 44.858 385.814 43.802 385.814 42.218C385.814 41.866 385.836 41.404 385.88 40.832C385.968 40.216 386.012 39.842 386.012 39.71C386.144 37.334 386.65 32.626 387.53 25.586C388.278 19.69 388.63 15.004 388.586 11.528C388.586 11.044 388.916 10.736 389.576 10.604C390.28 10.472 390.676 10.34 390.764 10.208C391.028 10.516 391.666 10.78 392.678 11C393.514 11.176 394.02 11.572 394.196 12.188C394.548 13.288 394.724 14.52 394.724 15.884C394.724 16.852 394.57 18.392 394.262 20.504C393.998 22.572 393.866 24.156 393.866 25.256C394.394 25.652 395.054 25.894 395.846 25.982C396.374 26.07 397.122 26.092 398.09 26.048C399.366 25.96 400.136 25.916 400.4 25.916C401.5 21.296 402.468 15.312 403.304 7.964C403.48 6.424 404.03 5.654 404.954 5.654C407.286 5.434 408.606 5.918 408.914 7.106ZM414.607 5.258H415.993C417.269 5.258 417.907 5.962 417.907 7.37C418.039 8.514 418.105 9.152 418.105 9.284C417.621 15.576 417.379 19.8 417.379 21.956V22.154H417.907C420.635 22.154 423.055 23.804 425.167 27.104C425.475 27.632 425.629 28.094 425.629 28.49V29.678C425.629 35.706 423.209 39.688 418.369 41.624C416.257 43.208 414.849 44 414.145 44H413.419C412.583 44 411.967 43.604 411.571 42.812C411.747 31.24 411.967 25.454 412.231 25.454C412.011 25.454 411.703 25.146 411.307 24.53V23.606C412.539 22.682 413.155 20.482 413.155 17.006C413.639 13.266 413.881 9.834 413.881 6.71C413.749 6.402 413.683 6.16 413.683 5.984L414.607 5.258ZM432.427 5.258H432.889C434.781 5.258 435.727 5.808 435.727 6.908V10.472L433.615 42.35V42.812L432.427 43.736H431.503C429.919 43.736 429.127 42.108 429.127 38.852L431.701 7.634L431.503 5.984L432.427 5.258ZM416.917 25.454C416.785 29.062 416.565 32.12 416.257 34.628V35.816L416.455 38.126C419.579 36.674 421.141 34.254 421.141 30.866V28.754C421.141 26.95 419.975 25.85 417.643 25.454H416.917ZM458.456 3.278H459.116C461.448 3.278 462.812 4.29 463.208 6.314V7.37C463.12 7.678 458.016 9.482 447.896 12.782C447.676 13.618 447.566 16.104 447.566 20.24C447.962 20.46 448.424 20.57 448.952 20.57C453.704 20.13 456.3 19.91 456.74 19.91C458.984 20.218 460.106 21.23 460.106 22.946C460.106 24.53 456.278 25.542 448.622 25.982C446.774 25.982 445.85 28.93 445.85 34.826C445.85 37.334 447.676 38.588 451.328 38.588C451.328 38.808 452.12 38.918 453.704 38.918H457.73C458.566 38.214 459.358 37.862 460.106 37.862C461.47 38.346 462.152 39.6 462.152 41.624V42.284C462.152 42.592 461.58 43.164 460.436 44H455.354C448.27 44 443.76 42.746 441.824 40.238C440.68 38.918 440.108 37.114 440.108 34.826V26.378L438.722 24.662V23.606C440.306 22.506 441.098 20.812 441.098 18.524V15.158C438.854 14.542 437.732 13.86 437.732 13.112V12.122C437.732 9.086 444.64 6.138 458.456 3.278ZM504.946 29.744C502.35 35.596 498.676 39.072 493.924 40.172C493.352 40.304 492.78 40.37 492.208 40.37C489.7 40.37 487.17 39.006 484.618 36.278C482.902 34.43 482.044 32.032 482.044 29.084C482.044 25.828 483.012 22.33 484.948 18.59C485.784 17.006 486.796 15.642 487.984 14.498C489.348 13.134 490.646 12.452 491.878 12.452C492.582 12.452 493.242 12.716 493.858 13.244C494.474 13.772 496.124 14.476 498.808 15.356C500.92 16.06 502.416 17.248 503.296 18.92C504.836 21.868 505.606 24.398 505.606 26.51C505.606 27.698 505.386 28.776 504.946 29.744ZM499.666 25.652C499.358 22.44 498.5 20.526 497.092 19.91C496.872 19.822 496.674 19.778 496.498 19.778C495.97 19.778 495.31 20.218 494.518 21.098C493.638 22.11 492.956 22.704 492.472 22.88C492.164 23.012 491.724 22.88 491.152 22.484C490.58 22.088 490.206 21.89 490.03 21.89C489.898 21.89 489.788 21.934 489.7 22.022C488.16 23.342 487.39 25.388 487.39 28.16C487.39 30.052 487.83 31.658 488.71 32.978C489.942 34.782 490.976 35.684 491.812 35.684C493.748 35.684 495.618 34.474 497.422 32.054C499.138 29.766 499.886 27.632 499.666 25.652ZM525.92 4.202C525.92 5.39 525.128 6.138 523.544 6.446C521.476 6.842 520.2 7.304 519.716 7.832C514.788 13.024 512.324 19.734 512.324 27.962C512.324 31.834 512.94 35.486 514.172 38.918C515.184 41.734 515.91 43.582 516.35 44.462C517.45 46.618 518.792 48.158 520.376 49.082C521.036 49.39 521.696 49.676 522.356 49.94C523.06 50.336 523.412 50.886 523.412 51.59C523.412 52.294 523.17 52.932 522.686 53.504C522.246 54.076 521.762 54.296 521.234 54.164C520.662 54.076 519.782 53.79 518.594 53.306C516.482 52.074 514.194 49.456 511.73 45.452C511.114 44.44 510.476 43.406 509.816 42.35C509.2 41.25 508.738 40.216 508.43 39.248C508.21 38.544 507.836 35.706 507.308 30.734C507.132 29.194 507.044 27.698 507.044 26.246C507.044 18.458 509.31 11.836 513.842 6.38C516.482 3.212 519.232 1.628 522.092 1.628C523.324 1.628 524.446 2.002 525.458 2.75C525.766 2.97 525.92 3.454 525.92 4.202ZM547.356 29.744C544.76 35.596 541.086 39.072 536.334 40.172C535.762 40.304 535.19 40.37 534.618 40.37C532.11 40.37 529.58 39.006 527.028 36.278C525.312 34.43 524.454 32.032 524.454 29.084C524.454 25.828 525.422 22.33 527.358 18.59C528.194 17.006 529.206 15.642 530.394 14.498C531.758 13.134 533.056 12.452 534.288 12.452C534.992 12.452 535.652 12.716 536.268 13.244C536.884 13.772 538.534 14.476 541.218 15.356C543.33 16.06 544.826 17.248 545.706 18.92C547.246 21.868 548.016 24.398 548.016 26.51C548.016 27.698 547.796 28.776 547.356 29.744ZM542.076 25.652C541.768 22.44 540.91 20.526 539.502 19.91C539.282 19.822 539.084 19.778 538.908 19.778C538.38 19.778 537.72 20.218 536.928 21.098C536.048 22.11 535.366 22.704 534.882 22.88C534.574 23.012 534.134 22.88 533.562 22.484C532.99 22.088 532.616 21.89 532.44 21.89C532.308 21.89 532.198 21.934 532.11 22.022C530.57 23.342 529.8 25.388 529.8 28.16C529.8 30.052 530.24 31.658 531.12 32.978C532.352 34.782 533.386 35.684 534.222 35.684C536.158 35.684 538.028 34.474 539.832 32.054C541.548 29.766 542.296 27.632 542.076 25.652ZM554.734 2.288H555.526C561.95 2.288 567.142 4.752 571.102 9.68C571.454 10.384 571.63 11.352 571.63 12.584C571.63 13.508 571.278 14.124 570.574 14.432H569.518C567.23 14.432 566.086 12.848 566.086 9.68C565.47 9.152 563.974 8.272 561.598 7.04H560.542C560.718 11.484 560.806 14.74 560.806 16.808V19.448H561.334C564.502 19.448 567.23 21.296 569.518 24.992C569.87 25.564 570.046 26.092 570.046 26.576V27.896C570.046 34.672 567.318 39.16 561.862 41.36C559.442 43.12 557.858 44 557.11 44H556.318C555.35 44 554.646 43.56 554.206 42.68V42.152C554.206 35.464 554.382 29.04 554.734 22.88C554.382 22.88 554.03 22.352 553.678 21.296C554.734 20.108 555.262 19.228 555.262 18.656C555.438 16.984 555.526 15.136 555.526 13.112V6.776C554.426 6.776 553.37 6.072 552.358 4.664V4.4C552.358 2.992 553.15 2.288 554.734 2.288ZM560.014 23.144C560.014 23.496 560.102 23.672 560.278 23.672C559.75 27.72 559.486 31.856 559.486 36.08L559.75 37.4C563.27 35.684 565.03 32.956 565.03 29.216V26.84C565.03 24.86 563.622 23.54 560.806 22.88C560.454 23.056 560.19 23.144 560.014 23.144ZM595.548 3.278H596.208C598.54 3.278 599.904 4.29 600.3 6.314V7.37C600.212 7.678 595.108 9.482 584.988 12.782C584.768 13.618 584.658 16.104 584.658 20.24C585.054 20.46 585.516 20.57 586.044 20.57C590.796 20.13 593.392 19.91 593.832 19.91C596.076 20.218 597.198 21.23 597.198 22.946C597.198 24.53 593.37 25.542 585.714 25.982C583.866 25.982 582.942 28.93 582.942 34.826C582.942 37.334 584.768 38.588 588.42 38.588C588.42 38.808 589.212 38.918 590.796 38.918H594.822C595.658 38.214 596.45 37.862 597.198 37.862C598.562 38.346 599.244 39.6 599.244 41.624V42.284C599.244 42.592 598.672 43.164 597.528 44H592.446C585.362 44 580.852 42.746 578.916 40.238C577.772 38.918 577.2 37.114 577.2 34.826V26.378L575.814 24.662V23.606C577.398 22.506 578.19 20.812 578.19 18.524V15.158C575.946 14.542 574.824 13.86 574.824 13.112V12.122C574.824 9.086 581.732 6.138 595.548 3.278ZM625.67 7.106C625.582 11.022 624.944 17.226 623.756 25.718C622.656 33.77 622.106 39.952 622.106 44.264C622.106 45.628 622.15 46.926 622.238 48.158C622.238 48.466 622.106 48.752 621.842 49.016C621.578 49.324 621.27 49.478 620.918 49.478C619.686 49.478 618.872 49.368 618.476 49.148C616.804 48.18 615.968 46.354 615.968 43.67C615.968 43.142 615.99 42.328 616.034 41.228C616.122 40.084 616.166 39.248 616.166 38.72C616.166 37.84 616.276 36.498 616.496 34.694C616.716 32.89 616.826 31.504 616.826 30.536C616.21 30.58 615.352 30.492 614.252 30.272C613.196 30.052 612.426 29.942 611.942 29.942C611.37 29.942 610.82 30.03 610.292 30.206C609.236 33.682 608.62 38.808 608.444 45.584C606.948 46.2 605.496 46.134 604.088 45.386C603.076 44.858 602.57 43.802 602.57 42.218C602.57 41.866 602.592 41.404 602.636 40.832C602.724 40.216 602.768 39.842 602.768 39.71C602.9 37.334 603.406 32.626 604.286 25.586C605.034 19.69 605.386 15.004 605.342 11.528C605.342 11.044 605.672 10.736 606.332 10.604C607.036 10.472 607.432 10.34 607.52 10.208C607.784 10.516 608.422 10.78 609.434 11C610.27 11.176 610.776 11.572 610.952 12.188C611.304 13.288 611.48 14.52 611.48 15.884C611.48 16.852 611.326 18.392 611.018 20.504C610.754 22.572 610.622 24.156 610.622 25.256C611.15 25.652 611.81 25.894 612.602 25.982C613.13 26.07 613.878 26.092 614.846 26.048C616.122 25.96 616.892 25.916 617.156 25.916C618.256 21.296 619.224 15.312 620.06 7.964C620.236 6.424 620.786 5.654 621.71 5.654C624.042 5.434 625.362 5.918 625.67 7.106ZM652.483 7.106C652.395 11.022 651.757 17.226 650.569 25.718C649.469 33.77 648.919 39.952 648.919 44.264C648.919 45.628 648.963 46.926 649.051 48.158C649.051 48.466 648.919 48.752 648.655 49.016C648.391 49.324 648.083 49.478 647.731 49.478C646.499 49.478 645.685 49.368 645.289 49.148C643.617 48.18 642.781 46.354 642.781 43.67C642.781 43.142 642.803 42.328 642.847 41.228C642.935 40.084 642.979 39.248 642.979 38.72C642.979 37.84 643.089 36.498 643.309 34.694C643.529 32.89 643.639 31.504 643.639 30.536C643.023 30.58 642.165 30.492 641.065 30.272C640.009 30.052 639.239 29.942 638.755 29.942C638.183 29.942 637.633 30.03 637.105 30.206C636.049 33.682 635.433 38.808 635.257 45.584C633.761 46.2 632.309 46.134 630.901 45.386C629.889 44.858 629.383 43.802 629.383 42.218C629.383 41.866 629.405 41.404 629.449 40.832C629.537 40.216 629.581 39.842 629.581 39.71C629.713 37.334 630.219 32.626 631.099 25.586C631.847 19.69 632.199 15.004 632.155 11.528C632.155 11.044 632.485 10.736 633.145 10.604C633.849 10.472 634.245 10.34 634.333 10.208C634.597 10.516 635.235 10.78 636.247 11C637.083 11.176 637.589 11.572 637.764 12.188C638.117 13.288 638.293 14.52 638.293 15.884C638.293 16.852 638.139 18.392 637.831 20.504C637.567 22.572 637.435 24.156 637.435 25.256C637.963 25.652 638.623 25.894 639.415 25.982C639.943 26.07 640.691 26.092 641.659 26.048C642.935 25.96 643.705 25.916 643.969 25.916C645.069 21.296 646.037 15.312 646.873 7.964C647.049 6.424 647.599 5.654 648.523 5.654C650.855 5.434 652.175 5.918 652.483 7.106ZM679.163 29.744C676.567 35.596 672.893 39.072 668.141 40.172C667.569 40.304 666.997 40.37 666.425 40.37C663.917 40.37 661.387 39.006 658.835 36.278C657.119 34.43 656.261 32.032 656.261 29.084C656.261 25.828 657.229 22.33 659.165 18.59C660.001 17.006 661.013 15.642 662.201 14.498C663.565 13.134 664.863 12.452 666.095 12.452C666.799 12.452 667.459 12.716 668.075 13.244C668.691 13.772 670.341 14.476 673.025 15.356C675.137 16.06 676.633 17.248 677.513 18.92C679.053 21.868 679.823 24.398 679.823 26.51C679.823 27.698 679.603 28.776 679.163 29.744ZM673.883 25.652C673.575 22.44 672.717 20.526 671.309 19.91C671.089 19.822 670.891 19.778 670.715 19.778C670.187 19.778 669.527 20.218 668.735 21.098C667.855 22.11 667.173 22.704 666.689 22.88C666.381 23.012 665.941 22.88 665.369 22.484C664.797 22.088 664.423 21.89 664.247 21.89C664.115 21.89 664.005 21.934 663.917 22.022C662.377 23.342 661.607 25.388 661.607 28.16C661.607 30.052 662.047 31.658 662.927 32.978C664.159 34.782 665.193 35.684 666.029 35.684C667.965 35.684 669.835 34.474 671.639 32.054C673.355 29.766 674.103 27.632 673.883 25.652ZM700.137 4.202C700.137 5.39 699.345 6.138 697.761 6.446C695.693 6.842 694.417 7.304 693.933 7.832C689.005 13.024 686.541 19.734 686.541 27.962C686.541 31.834 687.157 35.486 688.389 38.918C689.401 41.734 690.127 43.582 690.567 44.462C691.667 46.618 693.009 48.158 694.593 49.082C695.253 49.39 695.913 49.676 696.573 49.94C697.277 50.336 697.629 50.886 697.629 51.59C697.629 52.294 697.387 52.932 696.903 53.504C696.463 54.076 695.979 54.296 695.451 54.164C694.879 54.076 693.999 53.79 692.811 53.306C690.699 52.074 688.411 49.456 685.947 45.452C685.331 44.44 684.693 43.406 684.033 42.35C683.417 41.25 682.955 40.216 682.647 39.248C682.427 38.544 682.053 35.706 681.525 30.734C681.349 29.194 681.261 27.698 681.261 26.246C681.261 18.458 683.527 11.836 688.059 6.38C690.699 3.212 693.449 1.628 696.309 1.628C697.541 1.628 698.663 2.002 699.675 2.75C699.983 2.97 700.137 3.454 700.137 4.202ZM732.397 2.882C732.001 4.466 731.253 5.39 730.153 5.654C727.293 6.358 722.321 7.282 715.237 8.426C714.357 19.382 713.917 28.512 713.917 35.816C713.917 38.588 713.961 41.316 714.049 44C714.093 44.836 714.049 45.474 713.917 45.914C713.697 46.618 713.257 46.948 712.597 46.904C711.321 46.86 710.265 46.31 709.429 45.254C708.593 44.242 708.131 43.098 708.043 41.822C707.955 40.194 707.911 38.478 707.911 36.674C707.911 33.77 708.109 29.172 708.505 22.88C708.901 16.852 709.077 12.254 709.033 9.086C707.845 8.998 706.195 9.108 704.083 9.416C701.663 9.768 699.991 9.944 699.067 9.944C696.911 9.944 695.151 9.372 693.787 8.228C693.259 7.084 692.995 6.49 692.995 6.446C692.995 6.138 693.149 5.808 693.457 5.456C694.865 4.972 697.747 4.532 702.103 4.136C705.931 3.74 708.791 3.036 710.683 2.024C712.223 2.508 713.983 2.75 715.963 2.75C717.943 2.75 719.835 2.508 721.639 2.024C722.167 1.98 723.509 1.672 725.665 1.1C727.249 0.703997 728.569 0.571998 729.625 0.703999C730.417 0.703999 730.747 1.034 730.615 1.694C731.803 1.694 732.397 2.09 732.397 2.882ZM731.631 4.4C732.291 4.708 732.731 5.236 732.951 5.984C731.543 15.312 730.839 23.76 730.839 31.328L731.367 31.592C737.659 17.512 741.971 9.768 744.303 8.36H745.623C746.503 8.844 746.943 9.372 746.943 9.944C746.239 16.324 745.887 22.836 745.887 29.48V40.304C745.887 42.592 745.095 43.736 743.511 43.736H741.927C741.663 43.736 741.399 43.472 741.135 42.944V21.824H740.871C734.535 35.024 730.839 42.064 729.783 42.944C729.123 43.472 728.507 43.736 727.935 43.736H726.615C726.175 43.736 725.911 43.384 725.823 42.68C726.263 17.512 727.407 4.928 729.255 4.928C730.399 4.576 731.191 4.4 731.631 4.4ZM760.499 21.032C760.895 22.572 760.807 23.628 760.235 24.2C759.663 24.772 758.893 25.014 757.925 24.926C757.045 24.882 756.209 24.486 755.417 23.738C754.625 22.99 754.229 22.198 754.229 21.362C754.229 20.834 754.449 20.328 754.889 19.844C755.329 19.36 755.791 19.14 756.275 19.184C757.815 19.316 758.651 19.382 758.783 19.382C759.707 19.646 760.279 20.196 760.499 21.032ZM759.707 37.862C760.103 39.402 760.015 40.458 759.443 41.03C758.871 41.602 758.101 41.844 757.133 41.756C756.253 41.712 755.417 41.316 754.625 40.568C753.833 39.82 753.437 39.028 753.437 38.192C753.437 37.664 753.657 37.18 754.097 36.74C754.537 36.256 754.999 36.036 755.483 36.08C757.155 36.212 757.991 36.278 757.991 36.278C758.915 36.498 759.487 37.026 759.707 37.862Z" fill="#11315F"/>
</svg>
