<svg width="473" height="55" viewBox="0 0 473 55" fill="none" xmlns="http://www.w3.org/2000/svg">
<path d="M23.288 29.744C20.692 35.596 17.018 39.072 12.266 40.172C11.694 40.304 11.122 40.37 10.55 40.37C8.042 40.37 5.512 39.006 2.96 36.278C1.244 34.43 0.386 32.032 0.386 29.084C0.386 25.828 1.354 22.33 3.29 18.59C4.126 17.006 5.138 15.642 6.326 14.498C7.69 13.134 8.988 12.452 10.22 12.452C10.924 12.452 11.584 12.716 12.2 13.244C12.816 13.772 14.466 14.476 17.15 15.356C19.262 16.06 20.758 17.248 21.638 18.92C23.178 21.868 23.948 24.398 23.948 26.51C23.948 27.698 23.728 28.776 23.288 29.744ZM18.008 25.652C17.7 22.44 16.842 20.526 15.434 19.91C15.214 19.822 15.016 19.778 14.84 19.778C14.312 19.778 13.652 20.218 12.86 21.098C11.98 22.11 11.298 22.704 10.814 22.88C10.506 23.012 10.066 22.88 9.494 22.484C8.922 22.088 8.548 21.89 8.372 21.89C8.24 21.89 8.13 21.934 8.042 22.022C6.502 23.342 5.732 25.388 5.732 28.16C5.732 30.052 6.172 31.658 7.052 32.978C8.284 34.782 9.318 35.684 10.154 35.684C12.09 35.684 13.96 34.474 15.764 32.054C17.48 29.766 18.228 27.632 18.008 25.652ZM44.2621 4.202C44.2621 5.39 43.4701 6.138 41.8861 6.446C39.8181 6.842 38.5421 7.304 38.0581 7.832C33.1301 13.024 30.6661 19.734 30.6661 27.962C30.6661 31.834 31.2821 35.486 32.5141 38.918C33.5261 41.734 34.2521 43.582 34.6921 44.462C35.7921 46.618 37.1341 48.158 38.7181 49.082C39.3781 49.39 40.0381 49.676 40.6981 49.94C41.4021 50.336 41.7541 50.886 41.7541 51.59C41.7541 52.294 41.5121 52.932 41.0281 53.504C40.5881 54.076 40.1041 54.296 39.5761 54.164C39.0041 54.076 38.1241 53.79 36.9361 53.306C34.8241 52.074 32.5361 49.456 30.0721 45.452C29.4561 44.44 28.8181 43.406 28.1581 42.35C27.5421 41.25 27.0801 40.216 26.7721 39.248C26.5521 38.544 26.1781 35.706 25.6501 30.734C25.4741 29.194 25.3861 27.698 25.3861 26.246C25.3861 18.458 27.6521 11.836 32.1841 6.38C34.8241 3.212 37.5741 1.628 40.4341 1.628C41.6661 1.628 42.7881 2.002 43.8001 2.75C44.1081 2.97 44.2621 3.454 44.2621 4.202ZM65.9622 11C64.3342 11.66 61.9362 12.43 58.7682 13.31C55.6002 14.19 53.2022 14.96 51.5742 15.62C51.1782 16.764 50.8922 19.316 50.7162 23.276C51.4202 23.54 52.2342 23.672 53.1582 23.672C53.8182 23.672 54.8522 23.562 56.2602 23.342C57.6682 23.122 58.7022 23.012 59.3622 23.012C60.5942 23.012 61.6502 23.276 62.5302 23.804C63.1462 24.684 63.4542 25.256 63.4542 25.52C63.4542 25.828 63.3002 26.07 62.9922 26.246C62.9042 26.29 62.5962 26.598 62.0682 27.17C61.7162 27.566 61.2762 27.742 60.7482 27.698C59.8242 27.918 58.1302 28.05 55.6662 28.094C53.5982 28.138 51.9482 28.402 50.7162 28.886C49.8802 32.142 49.4622 34.716 49.4622 36.608C49.4622 37.884 49.6382 38.896 49.9902 39.644C52.0582 41.096 55.6442 41.712 60.7482 41.492C61.1002 41.492 61.4742 41.338 61.8702 41.03C62.2662 40.678 62.5962 40.502 62.8602 40.502C64.0922 40.238 64.9062 41.162 65.3022 43.274C65.4342 43.978 65.3022 44.616 64.9062 45.188C64.5542 45.804 64.0262 46.134 63.3222 46.178C57.9982 46.354 53.3782 45.936 49.4622 44.924C48.2302 44.616 47.1082 43.934 46.0962 42.878C45.0842 41.822 44.5122 40.634 44.3802 39.314C43.9842 35.486 43.9842 32.054 44.3802 29.018C43.1482 28.182 42.5982 27.368 42.7302 26.576C42.7742 26.18 43.1042 25.828 43.7202 25.52C44.3802 25.168 44.7542 24.816 44.8422 24.464C44.9302 24.112 45.1062 22.022 45.3702 18.194C42.9062 17.71 41.6962 16.786 41.7402 15.422C41.7842 14.146 42.5542 13.134 44.0502 12.386C45.4582 11.814 46.8662 11.242 48.2742 10.67C49.9022 9.834 51.9482 9.086 54.4122 8.426C56.5682 7.854 58.7242 7.304 60.8802 6.776C61.1002 6.732 61.3642 6.71 61.6722 6.71C62.8602 6.71 64.2462 7.172 65.8302 8.096C65.8742 8.272 65.9842 8.602 66.1602 9.086C66.3362 9.57 66.4242 9.922 66.4242 10.142C66.4242 10.494 66.2702 10.78 65.9622 11ZM91.1881 40.832C91.4521 41.536 91.5841 42.152 91.5841 42.68C91.5841 43.56 91.2101 44.33 90.4621 44.99C89.7141 45.65 89.2081 45.958 88.9441 45.914C86.7881 45.518 85.4241 43.78 84.8521 40.7C84.2361 37.356 83.5101 34.562 82.6741 32.318C81.1781 32.45 79.6821 32.582 78.1861 32.714C76.4701 32.934 75.1281 33.462 74.1601 34.298C73.6761 35.662 73.0381 38.082 72.2461 41.558C71.4981 44.77 70.7721 47.212 70.0681 48.884C69.7161 49.676 68.9681 49.896 67.8241 49.544C66.3721 49.06 65.6021 48.4 65.5141 47.564C65.3821 45.892 65.8661 43.648 66.9661 40.832C68.2861 37.62 69.0121 35.332 69.1441 33.968C69.1881 33.572 68.9021 33.132 68.2861 32.648C67.6701 32.164 67.3621 31.79 67.3621 31.526C67.3621 31.306 67.4501 31.086 67.6261 30.866C67.8461 30.602 68.3081 30.404 69.0121 30.272C69.7601 30.096 70.1781 29.854 70.2661 29.546C71.0581 27.346 72.3121 23.254 74.0281 17.27C75.4801 12.078 76.7781 8.096 77.9221 5.324C78.1861 4.708 78.7361 4.4 79.5721 4.4C80.1881 4.4 80.7381 4.598 81.2221 4.994C82.4541 6.05 83.2461 7.634 83.5981 9.746C83.8621 11.55 84.1041 13.354 84.3241 15.158C86.5241 25.542 88.8121 34.1 91.1881 40.832ZM81.5521 28.226C81.4201 26.598 81.1341 24.772 80.6941 22.748C80.2541 20.988 79.8361 19.228 79.4401 17.468C78.1201 21.12 76.9761 24.772 76.0081 28.424C76.7121 28.292 78.5601 28.226 81.5521 28.226ZM121.58 4.004C120.964 9.9 120.37 15.818 119.798 21.758C119.05 28.798 118.676 34.672 118.676 39.38C118.676 40.92 118.72 42.438 118.808 43.934C118.852 44.638 118.588 45.254 118.016 45.782C117.488 46.31 116.872 46.574 116.168 46.574C114.804 46.574 113.66 45.65 112.736 43.802C109.92 38.302 106.422 29.678 102.242 17.93C102.154 17.666 102.044 17.534 101.912 17.534C101.604 17.534 101.406 17.842 101.318 18.458C100.57 24.75 100.196 31.372 100.196 38.324C100.196 41.668 100.284 45.078 100.46 48.554C100.504 49.83 100.13 50.71 99.338 51.194C99.03 51.502 98.7 51.656 98.348 51.656C98.04 51.656 97.644 51.524 97.16 51.26C96.5 50.952 96.082 50.754 95.906 50.666C95.334 50.49 94.982 49.962 94.85 49.082C94.806 48.378 94.762 47.652 94.718 46.904C94.586 44.44 94.52 41.866 94.52 39.182C94.52 34.518 94.784 28.688 95.312 21.692C96.148 11.044 96.61 5.148 96.698 4.004C96.742 3.036 97.556 2.552 99.14 2.552C99.888 2.464 100.988 3.014 102.44 4.202C103.848 6.886 105.586 11.242 107.654 17.27C109.634 23.034 111.438 27.412 113.066 30.404C113.726 24.552 114.76 15.708 116.168 3.872C116.3 2.992 116.938 2.552 118.082 2.552C118.478 2.552 118.94 2.618 119.468 2.75C120.172 2.926 120.59 3.036 120.722 3.08C121.162 3.256 121.448 3.564 121.58 4.004ZM164.058 15.29C163.486 17.666 162.034 19.822 159.702 21.758C157.458 23.342 155.214 24.904 152.97 26.444C153.102 27.104 153.542 27.61 154.29 27.962C155.082 28.27 155.83 28.578 156.534 28.886C160.186 31.262 162.012 34.078 162.012 37.334C162.012 39.842 161.154 42.152 159.438 44.264C158.118 45.892 156.16 47.498 153.564 49.082C151.452 50.314 149.34 51.546 147.228 52.778C146.7 53.086 146.128 53.24 145.512 53.24C144.06 53.24 143.048 52.646 142.476 51.458C142.564 47.762 142.652 44.088 142.74 40.436C142.828 36.036 143.07 32.406 143.466 29.546C142.542 28.93 142.08 28.226 142.08 27.434C142.08 27.038 142.234 26.686 142.542 26.378C142.894 26.026 143.356 25.652 143.928 25.256C144.456 18.568 144.566 12.408 144.258 6.776C142.19 6.38 140.826 5.456 140.166 4.004C140.122 3.828 140.188 3.564 140.364 3.212C140.584 2.86 140.694 2.574 140.694 2.354C141.706 1.606 142.828 1.232 144.06 1.232C144.94 1.232 146.964 1.518 150.132 2.09C151.76 2.354 153.454 2.948 155.214 3.872C159.966 6.336 162.76 8.734 163.596 11.066C164.168 12.738 164.322 14.146 164.058 15.29ZM157.854 11.99C157.634 10.362 156.314 9.108 153.894 8.228C153.542 8.096 152.992 7.81 152.244 7.37C151.716 7.018 151.276 6.842 150.924 6.842C150.748 6.842 150.55 6.886 150.33 6.974C150.286 7.722 150.264 8.514 150.264 9.35C150.264 10.494 150.352 12.43 150.528 15.158C150.66 17.666 150.704 19.624 150.66 21.032C150.968 21.032 151.43 20.812 152.046 20.372C152.662 19.888 153.014 19.624 153.102 19.58C154.422 18.964 155.588 17.93 156.6 16.478C157.612 15.026 158.03 13.53 157.854 11.99ZM155.874 37.862C155.962 37.378 156.006 36.916 156.006 36.476C156.006 35.156 155.588 33.99 154.752 32.978C152.508 31.878 151.078 31.328 150.462 31.328C150.11 31.328 149.78 31.394 149.472 31.526C149.516 31.966 149.538 32.45 149.538 32.978C149.538 33.902 149.406 35.332 149.142 37.268C148.922 39.16 148.812 40.59 148.812 41.558C148.812 42.966 148.988 44.242 149.34 45.386C149.868 44.77 150.682 44.132 151.782 43.472C152.926 42.768 153.718 42.152 154.158 41.624C154.95 40.7 155.522 39.446 155.874 37.862ZM190.51 40.832C190.774 41.536 190.906 42.152 190.906 42.68C190.906 43.56 190.532 44.33 189.784 44.99C189.036 45.65 188.53 45.958 188.266 45.914C186.11 45.518 184.746 43.78 184.174 40.7C183.558 37.356 182.832 34.562 181.996 32.318C180.5 32.45 179.004 32.582 177.508 32.714C175.792 32.934 174.45 33.462 173.482 34.298C172.998 35.662 172.36 38.082 171.568 41.558C170.82 44.77 170.094 47.212 169.39 48.884C169.038 49.676 168.29 49.896 167.146 49.544C165.694 49.06 164.924 48.4 164.836 47.564C164.704 45.892 165.188 43.648 166.288 40.832C167.608 37.62 168.334 35.332 168.466 33.968C168.51 33.572 168.224 33.132 167.608 32.648C166.992 32.164 166.684 31.79 166.684 31.526C166.684 31.306 166.772 31.086 166.948 30.866C167.168 30.602 167.63 30.404 168.334 30.272C169.082 30.096 169.5 29.854 169.588 29.546C170.38 27.346 171.634 23.254 173.35 17.27C174.802 12.078 176.1 8.096 177.244 5.324C177.508 4.708 178.058 4.4 178.894 4.4C179.51 4.4 180.06 4.598 180.544 4.994C181.776 6.05 182.568 7.634 182.92 9.746C183.184 11.55 183.426 13.354 183.646 15.158C185.846 25.542 188.134 34.1 190.51 40.832ZM180.874 28.226C180.742 26.598 180.456 24.772 180.016 22.748C179.576 20.988 179.158 19.228 178.762 17.468C177.442 21.12 176.298 24.772 175.33 28.424C176.034 28.292 177.882 28.226 180.874 28.226ZM206.976 4.07C206.976 4.95 206.338 5.72 205.062 6.38C204.71 6.556 204.336 6.578 203.94 6.446C203.324 6.27 202.994 6.182 202.95 6.182C202.686 6.182 202.422 6.314 202.158 6.578C199.782 8.954 198.594 11.858 198.594 15.29C198.594 16.566 198.792 17.754 199.188 18.854C199.364 19.338 201.036 22.748 204.204 29.084C206.316 33.308 207.372 36.894 207.372 39.842C207.372 42.262 206.778 44.594 205.59 46.838C205.194 47.586 204.204 48.554 202.62 49.742C201.344 50.666 200.2 51.128 199.188 51.128C198.792 51.128 198.418 51.062 198.066 50.93C196.746 50.358 196.086 49.632 196.086 48.752C196.086 48.224 196.416 47.586 197.076 46.838C197.252 46.618 197.67 46.486 198.33 46.442C198.99 46.398 199.43 46.134 199.65 45.65C200.574 43.714 201.036 41.734 201.036 39.71C201.036 36.85 199.606 32.714 196.746 27.302C193.93 21.846 192.522 17.49 192.522 14.234C192.522 11.55 193.05 9.152 194.106 7.04C195.294 4.62 196.988 2.882 199.188 1.826C200.2 1.342 201.19 1.1 202.158 1.1C204.006 1.1 205.392 1.606 206.316 2.618C206.756 3.102 206.976 3.586 206.976 4.07ZM233.927 40.37C234.191 40.59 234.323 40.898 234.323 41.294C234.323 41.558 234.147 42.218 233.795 43.274C233.619 43.23 233.465 43.208 233.333 43.208C233.069 43.208 232.717 43.318 232.277 43.538C231.881 43.758 231.573 43.868 231.353 43.868C231.133 43.868 230.891 43.78 230.627 43.604C227.679 41.756 223.103 38.984 216.899 35.288C217.031 36.916 217.141 39.248 217.229 42.284C217.229 42.636 217.273 43.164 217.361 43.868C217.449 44.572 217.493 45.078 217.493 45.386C217.493 46.442 217.031 47.168 216.107 47.564C215.843 47.74 215.469 47.828 214.985 47.828C214.457 47.828 214.127 47.674 213.995 47.366C212.851 46.97 212.191 46.2 212.015 45.056C211.487 41.888 211.223 38.17 211.223 33.902C211.223 32.362 211.267 30.074 211.355 27.038C211.443 23.958 211.487 21.648 211.487 20.108C211.487 15.444 211.179 11.396 210.563 7.964C210.475 7.436 210.783 7.084 211.487 6.908C212.015 6.82 212.565 6.732 213.137 6.644C213.709 6.82 214.303 7.04 214.919 7.304C215.535 7.524 215.865 7.898 215.909 8.426C216.569 14.41 216.855 19.162 216.767 22.682C218.571 21.054 220.639 18.898 222.971 16.214C224.951 13.97 226.909 11.704 228.845 9.416C229.373 9.196 229.945 9.086 230.561 9.086C232.277 9.086 233.179 9.68 233.267 10.868C232.035 13.596 229.615 16.83 226.007 20.57C221.783 24.926 219.077 28.028 217.889 29.876C220.617 31.504 223.367 33.132 226.139 34.76C229.219 36.696 231.815 38.566 233.927 40.37ZM258.677 11C257.049 11.66 254.651 12.43 251.483 13.31C248.315 14.19 245.917 14.96 244.289 15.62C243.893 16.764 243.607 19.316 243.431 23.276C244.135 23.54 244.949 23.672 245.873 23.672C246.533 23.672 247.567 23.562 248.975 23.342C250.383 23.122 251.417 23.012 252.077 23.012C253.309 23.012 254.365 23.276 255.245 23.804C255.861 24.684 256.169 25.256 256.169 25.52C256.169 25.828 256.015 26.07 255.707 26.246C255.619 26.29 255.311 26.598 254.783 27.17C254.431 27.566 253.991 27.742 253.463 27.698C252.539 27.918 250.845 28.05 248.381 28.094C246.313 28.138 244.663 28.402 243.431 28.886C242.595 32.142 242.177 34.716 242.177 36.608C242.177 37.884 242.353 38.896 242.705 39.644C244.773 41.096 248.359 41.712 253.463 41.492C253.815 41.492 254.189 41.338 254.585 41.03C254.981 40.678 255.311 40.502 255.575 40.502C256.807 40.238 257.621 41.162 258.017 43.274C258.149 43.978 258.017 44.616 257.621 45.188C257.269 45.804 256.741 46.134 256.037 46.178C250.713 46.354 246.093 45.936 242.177 44.924C240.945 44.616 239.823 43.934 238.811 42.878C237.799 41.822 237.227 40.634 237.095 39.314C236.699 35.486 236.699 32.054 237.095 29.018C235.863 28.182 235.313 27.368 235.445 26.576C235.489 26.18 235.819 25.828 236.435 25.52C237.095 25.168 237.469 24.816 237.557 24.464C237.645 24.112 237.821 22.022 238.085 18.194C235.621 17.71 234.411 16.786 234.455 15.422C234.499 14.146 235.269 13.134 236.765 12.386C238.173 11.814 239.581 11.242 240.989 10.67C242.617 9.834 244.663 9.086 247.127 8.426C249.283 7.854 251.439 7.304 253.595 6.776C253.815 6.732 254.079 6.71 254.387 6.71C255.575 6.71 256.961 7.172 258.545 8.096C258.589 8.272 258.699 8.602 258.875 9.086C259.051 9.57 259.139 9.922 259.139 10.142C259.139 10.494 258.985 10.78 258.677 11ZM293.407 2.882C293.011 4.466 292.263 5.39 291.163 5.654C288.303 6.358 283.331 7.282 276.247 8.426C275.367 19.382 274.927 28.512 274.927 35.816C274.927 38.588 274.971 41.316 275.059 44C275.103 44.836 275.059 45.474 274.927 45.914C274.707 46.618 274.267 46.948 273.607 46.904C272.331 46.86 271.275 46.31 270.439 45.254C269.603 44.242 269.141 43.098 269.053 41.822C268.965 40.194 268.921 38.478 268.921 36.674C268.921 33.77 269.119 29.172 269.515 22.88C269.911 16.852 270.087 12.254 270.043 9.086C268.855 8.998 267.205 9.108 265.093 9.416C262.673 9.768 261.001 9.944 260.077 9.944C257.921 9.944 256.161 9.372 254.797 8.228C254.269 7.084 254.005 6.49 254.005 6.446C254.005 6.138 254.159 5.808 254.467 5.456C255.875 4.972 258.757 4.532 263.113 4.136C266.941 3.74 269.801 3.036 271.693 2.024C273.233 2.508 274.993 2.75 276.973 2.75C278.953 2.75 280.845 2.508 282.649 2.024C283.177 1.98 284.519 1.672 286.675 1.1C288.259 0.703997 289.579 0.571998 290.635 0.703999C291.427 0.703999 291.757 1.034 291.625 1.694C292.813 1.694 293.407 2.09 293.407 2.882ZM319.155 4.202C319.155 5.39 318.363 6.138 316.779 6.446C314.711 6.842 313.435 7.304 312.951 7.832C308.023 13.024 305.559 19.734 305.559 27.962C305.559 31.834 306.175 35.486 307.407 38.918C308.419 41.734 309.145 43.582 309.585 44.462C310.685 46.618 312.027 48.158 313.611 49.082C314.271 49.39 314.931 49.676 315.591 49.94C316.295 50.336 316.647 50.886 316.647 51.59C316.647 52.294 316.405 52.932 315.921 53.504C315.481 54.076 314.997 54.296 314.469 54.164C313.897 54.076 313.017 53.79 311.829 53.306C309.717 52.074 307.429 49.456 304.965 45.452C304.349 44.44 303.711 43.406 303.051 42.35C302.435 41.25 301.973 40.216 301.665 39.248C301.445 38.544 301.071 35.706 300.543 30.734C300.367 29.194 300.279 27.698 300.279 26.246C300.279 18.458 302.545 11.836 307.077 6.38C309.717 3.212 312.467 1.628 315.327 1.628C316.559 1.628 317.681 2.002 318.693 2.75C319.001 2.97 319.155 3.454 319.155 4.202ZM337.027 3.278H337.687C340.019 3.278 341.383 4.29 341.779 6.314V7.37C341.691 7.678 336.587 9.482 326.467 12.782C326.247 13.618 326.137 16.104 326.137 20.24C326.533 20.46 326.995 20.57 327.523 20.57C332.275 20.13 334.871 19.91 335.311 19.91C337.555 20.218 338.677 21.23 338.677 22.946C338.677 24.53 334.849 25.542 327.193 25.982C325.345 25.982 324.421 28.93 324.421 34.826C324.421 37.334 326.247 38.588 329.899 38.588C329.899 38.808 330.691 38.918 332.275 38.918H336.301C337.137 38.214 337.929 37.862 338.677 37.862C340.041 38.346 340.723 39.6 340.723 41.624V42.284C340.723 42.592 340.151 43.164 339.007 44H333.925C326.841 44 322.331 42.746 320.395 40.238C319.251 38.918 318.679 37.114 318.679 34.826V26.378L317.293 24.662V23.606C318.877 22.506 319.669 20.812 319.669 18.524V15.158C317.425 14.542 316.303 13.86 316.303 13.112V12.122C316.303 9.086 323.211 6.138 337.027 3.278ZM363.915 3.344H364.443C365.323 3.344 365.961 3.74 366.357 4.532V5.984C365.741 7.304 364.861 7.964 363.717 7.964C363.057 7.612 362.485 7.436 362.001 7.436C355.049 9.24 351.573 10.692 351.573 11.792V16.412C351.573 19.844 351.507 22.99 351.375 25.85C351.683 29.678 351.837 33.88 351.837 38.456C351.353 42.152 350.715 44 349.923 44H349.659C347.899 44 347.019 42.46 347.019 39.38C347.327 33.66 347.481 29.964 347.481 28.292V19.778C347.481 18.106 347.393 15.532 347.217 12.056C346.601 12.056 345.721 11.33 344.577 9.878V8.69C344.577 8.03 347.239 7.128 352.563 5.984C357.403 4.224 361.187 3.344 363.915 3.344ZM393.442 29.744C390.846 35.596 387.172 39.072 382.42 40.172C381.848 40.304 381.276 40.37 380.704 40.37C378.196 40.37 375.666 39.006 373.114 36.278C371.398 34.43 370.54 32.032 370.54 29.084C370.54 25.828 371.508 22.33 373.444 18.59C374.28 17.006 375.292 15.642 376.48 14.498C377.844 13.134 379.142 12.452 380.374 12.452C381.078 12.452 381.738 12.716 382.354 13.244C382.97 13.772 384.62 14.476 387.304 15.356C389.416 16.06 390.912 17.248 391.792 18.92C393.332 21.868 394.102 24.398 394.102 26.51C394.102 27.698 393.882 28.776 393.442 29.744ZM388.162 25.652C387.854 22.44 386.996 20.526 385.588 19.91C385.368 19.822 385.17 19.778 384.994 19.778C384.466 19.778 383.806 20.218 383.014 21.098C382.134 22.11 381.452 22.704 380.968 22.88C380.66 23.012 380.22 22.88 379.648 22.484C379.076 22.088 378.702 21.89 378.526 21.89C378.394 21.89 378.284 21.934 378.196 22.022C376.656 23.342 375.886 25.388 375.886 28.16C375.886 30.052 376.326 31.658 377.206 32.978C378.438 34.782 379.472 35.684 380.308 35.684C382.244 35.684 384.114 34.474 385.918 32.054C387.634 29.766 388.382 27.632 388.162 25.652ZM416.66 4.664H416.924C417.892 4.664 418.596 5.104 419.036 5.984V6.248C419.036 9.944 418.332 17.512 416.924 28.952L418.244 28.688C419.3 28.688 420.004 29.216 420.356 30.272C420.18 34.144 420.092 37.048 420.092 38.984H419.828L420.092 39.512V42.416C420.092 42.68 419.74 43.032 419.036 43.472H418.508C416.308 43.472 415.076 42.064 414.812 39.248V35.288H414.548C413.228 35.288 408.3 36.52 399.764 38.984V43.208C399.764 43.472 399.5 43.736 398.972 44H397.652C395.716 44 394.748 43.208 394.748 41.624V39.776L394.484 37.136H394.748L394.484 36.608C394.528 36.3 396.464 35.332 400.292 33.704C401.348 27.104 402.14 18.92 402.668 9.152C411.116 6.16 415.78 4.664 416.66 4.664ZM407.684 13.376C406.98 23.408 406.364 29.656 405.836 32.12H406.1C409.004 31.24 410.764 30.8 411.38 30.8C411.38 30.36 412.172 23.76 413.756 11H413.492C409.664 12.144 407.728 12.848 407.684 13.112V13.376ZM445.33 7.106C445.242 11.022 444.604 17.226 443.416 25.718C442.316 33.77 441.766 39.952 441.766 44.264C441.766 45.628 441.81 46.926 441.898 48.158C441.898 48.466 441.766 48.752 441.502 49.016C441.238 49.324 440.93 49.478 440.578 49.478C439.346 49.478 438.532 49.368 438.136 49.148C436.464 48.18 435.628 46.354 435.628 43.67C435.628 43.142 435.65 42.328 435.694 41.228C435.782 40.084 435.826 39.248 435.826 38.72C435.826 37.84 435.936 36.498 436.156 34.694C436.376 32.89 436.486 31.504 436.486 30.536C435.87 30.58 435.012 30.492 433.912 30.272C432.856 30.052 432.086 29.942 431.602 29.942C431.03 29.942 430.48 30.03 429.952 30.206C428.896 33.682 428.28 38.808 428.104 45.584C426.608 46.2 425.156 46.134 423.748 45.386C422.736 44.858 422.23 43.802 422.23 42.218C422.23 41.866 422.252 41.404 422.296 40.832C422.384 40.216 422.428 39.842 422.428 39.71C422.56 37.334 423.066 32.626 423.946 25.586C424.694 19.69 425.046 15.004 425.002 11.528C425.002 11.044 425.332 10.736 425.992 10.604C426.696 10.472 427.092 10.34 427.18 10.208C427.444 10.516 428.082 10.78 429.094 11C429.93 11.176 430.436 11.572 430.612 12.188C430.964 13.288 431.14 14.52 431.14 15.884C431.14 16.852 430.986 18.392 430.678 20.504C430.414 22.572 430.282 24.156 430.282 25.256C430.81 25.652 431.47 25.894 432.262 25.982C432.79 26.07 433.538 26.092 434.506 26.048C435.782 25.96 436.552 25.916 436.816 25.916C437.916 21.296 438.884 15.312 439.72 7.964C439.896 6.424 440.446 5.654 441.37 5.654C443.702 5.434 445.022 5.918 445.33 7.106ZM465.675 3.278C469.723 3.278 471.747 5.5 471.747 9.944C472.143 13.684 472.341 18.458 472.341 24.266V30.602C472.341 30.954 472.539 34.606 472.935 41.558C472.935 42.966 471.835 43.78 469.635 44H469.305C468.029 44 467.105 38.522 466.533 27.566C456.369 37.686 451.111 42.768 450.759 42.812H450.429C448.625 42.372 447.723 41.866 447.723 41.294V40.964C447.723 39.16 452.981 33.682 463.497 24.53V23.606C458.437 19.954 455.907 16.522 455.907 13.31V12.98C455.907 8.404 458.239 5.17 462.903 3.278H465.675ZM460.791 11.792C460.791 14.476 462.617 17.116 466.269 19.712V19.052C466.269 17.644 466.357 14.916 466.533 10.868C466.357 8.844 465.961 7.832 465.345 7.832H464.421C462.001 7.832 460.791 9.152 460.791 11.792Z" fill="#11315F"/>
</svg>
