<svg width="476" height="189" viewBox="0 0 476 189" fill="none" xmlns="http://www.w3.org/2000/svg">
<path d="M35.32 43.122C35.496 44.002 34.858 44.486 33.406 44.574C32.438 44.618 31.448 44.2 30.436 43.32C29.6 42.572 28.94 41.362 28.456 39.69C28.016 38.15 27.752 35.972 27.664 33.156C27.576 29.988 27.422 27.81 27.202 26.622C26.63 28.602 25.684 31.55 24.364 35.466C23.572 37.622 23.088 38.854 22.912 39.162C22.208 40.526 21.328 41.142 20.272 41.01C18.16 40.526 16.532 39.338 15.388 37.446C14.64 36.214 13.936 34.256 13.276 31.572C12.572 28.624 11.978 26.644 11.494 25.632C9.602 34.828 7.578 41.692 5.422 46.224C5.114 46.884 4.19 46.84 2.65 46.092C1.374 45.476 0.736 44.596 0.736 43.452C0.736 43.056 1.198 41.648 2.122 39.228C2.518 38.172 4.058 33.09 6.742 23.982C7.666 20.814 8.634 15.248 9.646 7.284C9.734 7.196 9.954 6.734 10.306 5.898C10.526 5.282 10.922 4.974 11.494 4.974C12.99 4.974 14.024 5.26 14.596 5.832C14.596 7.108 14.794 9.176 15.19 12.036C15.63 14.852 15.85 16.986 15.85 18.438C16.246 20.902 16.62 23.388 16.972 25.896C17.456 28.712 18.336 31.022 19.612 32.826C23.836 21.078 26.52 11.794 27.664 4.974C27.84 4.27 28.5 3.918 29.644 3.918C31.272 3.918 32.196 4.446 32.416 5.502C32.724 7.086 32.878 8.912 32.878 10.98C32.878 11.64 32.834 13.07 32.746 15.27C32.702 17.118 32.702 18.614 32.746 19.758C33.142 29.042 34 36.83 35.32 43.122ZM40.2648 3.258H41.6508C42.9268 3.258 43.5648 3.962 43.5648 5.37C43.6968 6.514 43.7628 7.152 43.7628 7.284C43.2788 13.576 43.0368 17.8 43.0368 19.956V20.154H43.5648C46.2928 20.154 48.7128 21.804 50.8248 25.104C51.1328 25.632 51.2868 26.094 51.2868 26.49V27.678C51.2868 33.706 48.8668 37.688 44.0268 39.624C41.9148 41.208 40.5068 42 39.8028 42H39.0768C38.2408 42 37.6248 41.604 37.2288 40.812C37.4048 29.24 37.6248 23.454 37.8888 23.454C37.6688 23.454 37.3608 23.146 36.9648 22.53V21.606C38.1968 20.682 38.8128 18.482 38.8128 15.006C39.2968 11.266 39.5388 7.834 39.5388 4.71C39.4068 4.402 39.3408 4.16 39.3408 3.984L40.2648 3.258ZM58.0848 3.258H58.5468C60.4388 3.258 61.3848 3.808 61.3848 4.908V8.472L59.2728 40.35V40.812L58.0848 41.736H57.1608C55.5768 41.736 54.7848 40.108 54.7848 36.852L57.3588 5.634L57.1608 3.984L58.0848 3.258ZM42.5748 23.454C42.4428 27.062 42.2228 30.12 41.9148 32.628V33.816L42.1128 36.126C45.2368 34.674 46.7988 32.254 46.7988 28.866V26.754C46.7988 24.95 45.6328 23.85 43.3008 23.454H42.5748ZM104.311 5.106C104.223 9.022 103.585 15.226 102.397 23.718C101.297 31.77 100.747 37.952 100.747 42.264C100.747 43.628 100.791 44.926 100.879 46.158C100.879 46.466 100.747 46.752 100.483 47.016C100.219 47.324 99.9106 47.478 99.5586 47.478C98.3266 47.478 97.5126 47.368 97.1166 47.148C95.4446 46.18 94.6086 44.354 94.6086 41.67C94.6086 41.142 94.6306 40.328 94.6746 39.228C94.7626 38.084 94.8066 37.248 94.8066 36.72C94.8066 35.84 94.9166 34.498 95.1366 32.694C95.3566 30.89 95.4666 29.504 95.4666 28.536C94.8506 28.58 93.9926 28.492 92.8926 28.272C91.8366 28.052 91.0666 27.942 90.5826 27.942C90.0106 27.942 89.4606 28.03 88.9326 28.206C87.8766 31.682 87.2606 36.808 87.0846 43.584C85.5886 44.2 84.1366 44.134 82.7286 43.386C81.7166 42.858 81.2106 41.802 81.2106 40.218C81.2106 39.866 81.2326 39.404 81.2766 38.832C81.3646 38.216 81.4086 37.842 81.4086 37.71C81.5406 35.334 82.0466 30.626 82.9266 23.586C83.6746 17.69 84.0266 13.004 83.9826 9.528C83.9826 9.044 84.3126 8.736 84.9726 8.604C85.6766 8.472 86.0726 8.34 86.1606 8.208C86.4246 8.516 87.0626 8.78 88.0746 9C88.9106 9.176 89.4166 9.572 89.5926 10.188C89.9446 11.288 90.1206 12.52 90.1206 13.884C90.1206 14.852 89.9666 16.392 89.6586 18.504C89.3946 20.572 89.2626 22.156 89.2626 23.256C89.7906 23.652 90.4506 23.894 91.2426 23.982C91.7706 24.07 92.5186 24.092 93.4866 24.048C94.7626 23.96 95.5326 23.916 95.7966 23.916C96.8966 19.296 97.8646 13.312 98.7006 5.964C98.8766 4.424 99.4266 3.654 100.351 3.654C102.683 3.434 104.003 3.918 104.311 5.106ZM127.427 1.278H128.087C130.419 1.278 131.783 2.29 132.179 4.314V5.37C132.091 5.678 126.987 7.482 116.867 10.782C116.647 11.618 116.537 14.104 116.537 18.24C116.933 18.46 117.395 18.57 117.923 18.57C122.675 18.13 125.271 17.91 125.711 17.91C127.955 18.218 129.077 19.23 129.077 20.946C129.077 22.53 125.249 23.542 117.593 23.982C115.745 23.982 114.821 26.93 114.821 32.826C114.821 35.334 116.647 36.588 120.299 36.588C120.299 36.808 121.091 36.918 122.675 36.918H126.701C127.537 36.214 128.329 35.862 129.077 35.862C130.441 36.346 131.123 37.6 131.123 39.624V40.284C131.123 40.592 130.551 41.164 129.407 42H124.325C117.241 42 112.731 40.746 110.795 38.238C109.651 36.918 109.079 35.114 109.079 32.826V24.378L107.693 22.662V21.606C109.277 20.506 110.069 18.812 110.069 16.524V13.158C107.825 12.542 106.703 11.86 106.703 11.112V10.122C106.703 7.086 113.611 4.138 127.427 1.278ZM155.965 0.287998H156.757C163.181 0.287998 168.373 2.752 172.333 7.68C172.685 8.384 172.861 9.352 172.861 10.584C172.861 11.508 172.509 12.124 171.805 12.432H170.749C168.461 12.432 167.317 10.848 167.317 7.68C166.701 7.152 165.205 6.272 162.829 5.04H161.773C161.949 9.484 162.037 12.74 162.037 14.808V17.448H162.565C165.733 17.448 168.461 19.296 170.749 22.992C171.101 23.564 171.277 24.092 171.277 24.576V25.896C171.277 32.672 168.549 37.16 163.093 39.36C160.673 41.12 159.089 42 158.341 42H157.549C156.581 42 155.877 41.56 155.437 40.68V40.152C155.437 33.464 155.613 27.04 155.965 20.88C155.613 20.88 155.261 20.352 154.909 19.296C155.965 18.108 156.493 17.228 156.493 16.656C156.669 14.984 156.757 13.136 156.757 11.112V4.776C155.657 4.776 154.601 4.072 153.589 2.664V2.4C153.589 0.991998 154.381 0.287998 155.965 0.287998ZM161.245 21.144C161.245 21.496 161.333 21.672 161.509 21.672C160.981 25.72 160.717 29.856 160.717 34.08L160.981 35.4C164.501 33.684 166.261 30.956 166.261 27.216V24.84C166.261 22.86 164.853 21.54 162.037 20.88C161.685 21.056 161.421 21.144 161.245 21.144ZM196.779 1.278H197.439C199.771 1.278 201.135 2.29 201.531 4.314V5.37C201.443 5.678 196.339 7.482 186.219 10.782C185.999 11.618 185.889 14.104 185.889 18.24C186.285 18.46 186.747 18.57 187.275 18.57C192.027 18.13 194.623 17.91 195.063 17.91C197.307 18.218 198.429 19.23 198.429 20.946C198.429 22.53 194.601 23.542 186.945 23.982C185.097 23.982 184.173 26.93 184.173 32.826C184.173 35.334 185.999 36.588 189.651 36.588C189.651 36.808 190.443 36.918 192.027 36.918H196.053C196.889 36.214 197.681 35.862 198.429 35.862C199.793 36.346 200.475 37.6 200.475 39.624V40.284C200.475 40.592 199.903 41.164 198.759 42H193.677C186.593 42 182.083 40.746 180.147 38.238C179.003 36.918 178.431 35.114 178.431 32.826V24.378L177.045 22.662V21.606C178.629 20.506 179.421 18.812 179.421 16.524V13.158C177.177 12.542 176.055 11.86 176.055 11.112V10.122C176.055 7.086 182.963 4.138 196.779 1.278ZM214.756 3.456H215.548C221.004 3.852 223.732 5.172 223.732 7.416V8.472C223.732 10.276 221.444 13.708 216.868 18.768C220.916 18.768 223.556 20.704 224.788 24.576C224.964 25.544 225.052 26.336 225.052 26.952V28.008C225.052 29.856 222.852 35.4 218.452 44.64C216.956 46.048 215.548 46.752 214.228 46.752H212.38C209.696 46.752 207.76 45.08 206.572 41.736V40.944C206.572 40.416 207.628 39.888 209.74 39.36C210.928 40.768 212.16 41.736 213.436 42.264C214.888 42.132 217.088 38.348 220.036 30.912C220.212 29.152 220.3 27.832 220.3 26.952V25.632C220.3 23.872 219.684 22.992 218.452 22.992C217.748 22.992 215.724 23.344 212.38 24.048L209.74 21.408C209.74 20.66 212.38 16.964 217.66 10.32C218.012 9.748 218.188 9.22 218.188 8.736C218.188 8.032 217.22 7.592 215.284 7.416C214.052 7.416 211.94 8.032 208.948 9.264C208.42 8.604 208.156 7.988 208.156 7.416V7.152C209.608 4.688 211.808 3.456 214.756 3.456ZM249.564 19.164C247.892 22.772 246.462 25.17 245.274 26.358C243.426 28.206 242.414 29.218 242.238 29.394C240.962 30.406 239.686 31.022 238.41 31.242C238.234 32.122 238.146 33.156 238.146 34.344C238.146 35.18 238.212 36.456 238.344 38.172C238.476 39.844 238.542 41.076 238.542 41.868C238.542 44.86 237.838 47.104 236.43 48.6C236.43 48.6 235.814 48.27 234.582 47.61C233.834 47.214 233.416 46.73 233.328 46.158C232.888 43.298 232.668 40.108 232.668 36.588C232.668 34.256 232.8 30.78 233.064 26.16C233.328 21.54 233.46 18.042 233.46 15.666C233.46 12.234 233.262 9.088 232.866 6.228C232.514 6.36 232.184 6.14 231.876 5.568C231.568 4.996 231.304 4.666 231.084 4.578C231.304 3.17 231.678 2.466 232.206 2.466C232.866 2.246 234.23 2.29 236.298 2.598C242.018 3.522 246.33 6.03 249.234 10.122C250.158 11.442 250.62 12.938 250.62 14.61C250.62 16.062 250.268 17.58 249.564 19.164ZM245.274 14.082C245.494 12.322 244.746 10.936 243.03 9.924C242.942 9.924 241.358 9.286 238.278 8.01C238.762 16.106 238.916 21.782 238.74 25.038C242.656 21.342 244.834 17.69 245.274 14.082ZM280.94 38.832C281.204 39.536 281.336 40.152 281.336 40.68C281.336 41.56 280.962 42.33 280.214 42.99C279.466 43.65 278.96 43.958 278.696 43.914C276.54 43.518 275.176 41.78 274.604 38.7C273.988 35.356 273.262 32.562 272.426 30.318C270.93 30.45 269.434 30.582 267.938 30.714C266.222 30.934 264.88 31.462 263.912 32.298C263.428 33.662 262.79 36.082 261.998 39.558C261.25 42.77 260.524 45.212 259.82 46.884C259.468 47.676 258.72 47.896 257.576 47.544C256.124 47.06 255.354 46.4 255.266 45.564C255.134 43.892 255.618 41.648 256.718 38.832C258.038 35.62 258.764 33.332 258.896 31.968C258.94 31.572 258.654 31.132 258.038 30.648C257.422 30.164 257.114 29.79 257.114 29.526C257.114 29.306 257.202 29.086 257.378 28.866C257.598 28.602 258.06 28.404 258.764 28.272C259.512 28.096 259.93 27.854 260.018 27.546C260.81 25.346 262.064 21.254 263.78 15.27C265.232 10.078 266.53 6.096 267.674 3.324C267.938 2.708 268.488 2.4 269.324 2.4C269.94 2.4 270.49 2.598 270.974 2.994C272.206 4.05 272.998 5.634 273.35 7.746C273.614 9.55 273.856 11.354 274.076 13.158C276.276 23.542 278.564 32.1 280.94 38.832ZM271.304 26.226C271.172 24.598 270.886 22.772 270.446 20.748C270.006 18.988 269.588 17.228 269.192 15.468C267.872 19.12 266.728 22.772 265.76 26.424C266.464 26.292 268.312 26.226 271.304 26.226ZM293.776 3.456H294.568C300.024 3.852 302.752 5.172 302.752 7.416V8.472C302.752 10.276 300.464 13.708 295.888 18.768C299.936 18.768 302.576 20.704 303.808 24.576C303.984 25.544 304.072 26.336 304.072 26.952V28.008C304.072 29.856 301.872 35.4 297.472 44.64C295.976 46.048 294.568 46.752 293.248 46.752H291.4C288.716 46.752 286.78 45.08 285.592 41.736V40.944C285.592 40.416 286.648 39.888 288.76 39.36C289.948 40.768 291.18 41.736 292.456 42.264C293.908 42.132 296.108 38.348 299.056 30.912C299.232 29.152 299.32 27.832 299.32 26.952V25.632C299.32 23.872 298.704 22.992 297.472 22.992C296.768 22.992 294.744 23.344 291.4 24.048L288.76 21.408C288.76 20.66 291.4 16.964 296.68 10.32C297.032 9.748 297.208 9.22 297.208 8.736C297.208 8.032 296.24 7.592 294.304 7.416C293.072 7.416 290.96 8.032 287.968 9.264C287.44 8.604 287.176 7.988 287.176 7.416V7.152C288.628 4.688 290.828 3.456 293.776 3.456ZM320.532 3.126H321.39C323.722 3.126 325.24 6.91 325.944 14.478C327.44 21.034 329.332 28.118 331.62 35.73V36.918C331.62 37.182 330.96 37.842 329.64 38.898C327 38.898 325.108 34.74 323.964 26.424C323.084 23.916 322.226 20.22 321.39 15.336H320.796L313.14 41.736L312.612 42H311.754C310.038 41.604 309.18 41.142 309.18 40.614V39.162C309.18 38.414 310.698 33.112 313.734 23.256C317.034 11.024 319.3 4.314 320.532 3.126ZM342.272 2.4C342.932 2.708 343.372 3.236 343.592 3.984C342.184 13.312 341.48 21.76 341.48 29.328L342.008 29.592C348.3 15.512 352.612 7.768 354.944 6.36H356.264C357.144 6.844 357.584 7.372 357.584 7.944C356.88 14.324 356.528 20.836 356.528 27.48V38.304C356.528 40.592 355.736 41.736 354.152 41.736H352.568C352.304 41.736 352.04 41.472 351.776 40.944V19.824H351.512C345.176 33.024 341.48 40.064 340.424 40.944C339.764 41.472 339.148 41.736 338.576 41.736H337.256C336.816 41.736 336.552 41.384 336.464 40.68C336.904 15.512 338.048 2.928 339.896 2.928C341.04 2.576 341.832 2.4 342.272 2.4ZM365.793 0.75H366.255C367.751 1.058 368.499 1.476 368.499 2.004C368.147 9.308 367.971 14.94 367.971 18.9C367.971 19.912 368.301 21.958 368.961 25.038C369.093 25.038 370.171 25.126 372.195 25.302C372.415 25.302 373.625 25.06 375.825 24.576C376.221 10.804 376.727 3.918 377.343 3.918C378.047 2.642 378.861 2.004 379.785 2.004H380.049C380.929 2.004 381.501 2.312 381.765 2.928V6.162C380.269 21.562 379.521 33.354 379.521 41.538L378.795 42H377.541C376.089 42 375.363 40.768 375.363 38.304C375.847 35.004 376.089 32.386 376.089 30.45V29.724C376.089 29.592 375.847 29.35 375.363 28.998L367.773 30.186C365.089 29.086 363.527 24.928 363.087 17.712V14.742C363.307 5.59 363.879 1.014 364.803 1.014C365.111 0.837999 365.441 0.75 365.793 0.75ZM411.623 5.106C411.535 9.022 410.897 15.226 409.709 23.718C408.609 31.77 408.059 37.952 408.059 42.264C408.059 43.628 408.103 44.926 408.191 46.158C408.191 46.466 408.059 46.752 407.795 47.016C407.531 47.324 407.223 47.478 406.871 47.478C405.639 47.478 404.825 47.368 404.429 47.148C402.757 46.18 401.921 44.354 401.921 41.67C401.921 41.142 401.943 40.328 401.987 39.228C402.075 38.084 402.119 37.248 402.119 36.72C402.119 35.84 402.229 34.498 402.449 32.694C402.669 30.89 402.779 29.504 402.779 28.536C402.163 28.58 401.305 28.492 400.205 28.272C399.149 28.052 398.379 27.942 397.895 27.942C397.323 27.942 396.773 28.03 396.245 28.206C395.189 31.682 394.573 36.808 394.397 43.584C392.901 44.2 391.449 44.134 390.041 43.386C389.029 42.858 388.523 41.802 388.523 40.218C388.523 39.866 388.545 39.404 388.589 38.832C388.677 38.216 388.721 37.842 388.721 37.71C388.853 35.334 389.359 30.626 390.239 23.586C390.987 17.69 391.339 13.004 391.295 9.528C391.295 9.044 391.625 8.736 392.285 8.604C392.989 8.472 393.385 8.34 393.473 8.208C393.737 8.516 394.375 8.78 395.387 9C396.223 9.176 396.729 9.572 396.905 10.188C397.257 11.288 397.433 12.52 397.433 13.884C397.433 14.852 397.279 16.392 396.971 18.504C396.707 20.572 396.575 22.156 396.575 23.256C397.103 23.652 397.763 23.894 398.555 23.982C399.083 24.07 399.831 24.092 400.799 24.048C402.075 23.96 402.845 23.916 403.109 23.916C404.209 19.296 405.177 13.312 406.013 5.964C406.189 4.424 406.739 3.654 407.663 3.654C409.995 3.434 411.315 3.918 411.623 5.106ZM417.316 3.258H418.702C419.978 3.258 420.616 3.962 420.616 5.37C420.748 6.514 420.814 7.152 420.814 7.284C420.33 13.576 420.088 17.8 420.088 19.956V20.154H420.616C423.344 20.154 425.764 21.804 427.876 25.104C428.184 25.632 428.338 26.094 428.338 26.49V27.678C428.338 33.706 425.918 37.688 421.078 39.624C418.966 41.208 417.558 42 416.854 42H416.128C415.292 42 414.676 41.604 414.28 40.812C414.456 29.24 414.676 23.454 414.94 23.454C414.72 23.454 414.412 23.146 414.016 22.53V21.606C415.248 20.682 415.864 18.482 415.864 15.006C416.348 11.266 416.59 7.834 416.59 4.71C416.458 4.402 416.392 4.16 416.392 3.984L417.316 3.258ZM435.136 3.258H435.598C437.49 3.258 438.436 3.808 438.436 4.908V8.472L436.324 40.35V40.812L435.136 41.736H434.212C432.628 41.736 431.836 40.108 431.836 36.852L434.41 5.634L434.212 3.984L435.136 3.258ZM419.626 23.454C419.494 27.062 419.274 30.12 418.966 32.628V33.816L419.164 36.126C422.288 34.674 423.85 32.254 423.85 28.866V26.754C423.85 24.95 422.684 23.85 420.352 23.454H419.626ZM3.31 70.948H4.96C7.16 70.948 8.26 72.928 8.26 76.888C8.48 79.044 8.59 81.772 8.59 85.072V86.722C8.854 86.722 13.012 82.234 21.064 73.258H22.714C23.858 73.258 24.606 73.698 24.958 74.578C24.958 76.646 20.14 82.762 10.504 92.926L9.844 94.246C16.84 97.81 22.208 101.44 25.948 105.136V105.73C25.948 107.27 24.65 108.04 22.054 108.04C21.218 107.16 16.84 104.432 8.92 99.856V100.186C9.096 104.982 9.184 108.59 9.184 111.01C8.392 111.67 7.644 112 6.94 112C4.3 112 2.98 109.052 2.98 103.156V82.432C2.98 80.144 2.76 76.536 2.32 71.608L3.31 70.948ZM64.4518 70.948H67.0918C68.3238 70.948 69.1158 71.388 69.4678 72.268V73.654L66.1018 105.862C66.1018 106.434 65.9918 108.128 65.7718 110.944C65.9918 112.132 66.1018 113.364 66.1018 114.64L64.7818 115.63H62.0758C59.8318 114.354 58.7098 112.44 58.7098 109.888C58.7098 107.38 59.3918 97.986 60.7558 81.706H60.3598C57.2358 81.706 55.6738 81.486 55.6738 81.046C53.8698 81.046 52.9678 82.388 52.9678 85.072L50.3278 111.604L48.6118 111.934H48.2818C45.3778 111.67 43.9258 110.548 43.9258 108.568V108.238C43.9258 106.522 44.9378 95.324 46.9618 74.644V72.994L49.2718 71.938C50.9438 71.938 52.7478 73.28 54.6838 75.964C55.0798 76.184 56.0918 76.426 57.7198 76.69C61.0638 76.69 62.7358 76.228 62.7358 75.304C63.0438 72.4 63.6158 70.948 64.4518 70.948ZM94.6396 97.744C92.0436 103.596 88.3696 107.072 83.6176 108.172C83.0456 108.304 82.4736 108.37 81.9016 108.37C79.3936 108.37 76.8636 107.006 74.3116 104.278C72.5956 102.43 71.7376 100.032 71.7376 97.084C71.7376 93.828 72.7056 90.33 74.6416 86.59C75.4776 85.006 76.4896 83.642 77.6776 82.498C79.0416 81.134 80.3396 80.452 81.5716 80.452C82.2756 80.452 82.9356 80.716 83.5516 81.244C84.1676 81.772 85.8176 82.476 88.5016 83.356C90.6136 84.06 92.1096 85.248 92.9896 86.92C94.5296 89.868 95.2996 92.398 95.2996 94.51C95.2996 95.698 95.0796 96.776 94.6396 97.744ZM89.3596 93.652C89.0516 90.44 88.1936 88.526 86.7856 87.91C86.5656 87.822 86.3676 87.778 86.1916 87.778C85.6636 87.778 85.0036 88.218 84.2116 89.098C83.3316 90.11 82.6496 90.704 82.1656 90.88C81.8576 91.012 81.4176 90.88 80.8456 90.484C80.2736 90.088 79.8996 89.89 79.7236 89.89C79.5916 89.89 79.4816 89.934 79.3936 90.022C77.8536 91.342 77.0836 93.388 77.0836 96.16C77.0836 98.052 77.5236 99.658 78.4036 100.978C79.6356 102.782 80.6696 103.684 81.5056 103.684C83.4416 103.684 85.3116 102.474 87.1156 100.054C88.8316 97.766 89.5796 95.632 89.3596 93.652ZM116.208 70.948H118.848C120.08 70.948 120.872 71.388 121.224 72.268V73.654L117.858 105.862C117.858 106.434 117.748 108.128 117.528 110.944C117.748 112.132 117.858 113.364 117.858 114.64L116.538 115.63H113.832C111.588 114.354 110.466 112.44 110.466 109.888C110.466 107.38 111.148 97.986 112.512 81.706H112.116C108.992 81.706 107.43 81.486 107.43 81.046C105.626 81.046 104.724 82.388 104.724 85.072L102.084 111.604L100.368 111.934H100.038C97.1336 111.67 95.6816 110.548 95.6816 108.568V108.238C95.6816 106.522 96.6936 95.324 98.7176 74.644V72.994L101.028 71.938C102.7 71.938 104.504 73.28 106.44 75.964C106.836 76.184 107.848 76.426 109.476 76.69C112.82 76.69 114.492 76.228 114.492 75.304C114.8 72.4 115.372 70.948 116.208 70.948ZM141.709 71.146C142.853 71.146 143.601 71.564 143.953 72.4C141.709 80.408 137.331 92.156 130.819 107.644C130.423 109.096 130.225 110.35 130.225 111.406V113.584C130.225 114.728 129.697 115.564 128.641 116.092H127.057C125.913 116.092 124.989 115.476 124.285 114.244V113.584C124.285 109.8 126.265 102.936 130.225 92.992V92.662L122.701 75.172V74.908C123.317 73.852 123.933 73.324 124.549 73.324C127.145 73.324 129.037 75.304 130.225 79.264C131.193 80.672 132.227 82.96 133.327 86.128H133.657C135.857 78.208 137.925 73.214 139.861 71.146H141.709ZM156.95 73.126H157.808C160.14 73.126 161.658 76.91 162.362 84.478C163.858 91.034 165.75 98.118 168.038 105.73V106.918C168.038 107.182 167.378 107.842 166.058 108.898C163.418 108.898 161.526 104.74 160.382 96.424C159.502 93.916 158.644 90.22 157.808 85.336H157.214L149.558 111.736L149.03 112H148.172C146.456 111.604 145.598 111.142 145.598 110.614V109.162C145.598 108.414 147.116 103.112 150.152 93.256C153.452 81.024 155.718 74.314 156.95 73.126ZM188.722 71.278C192.77 71.278 194.794 73.5 194.794 77.944C195.19 81.684 195.388 86.458 195.388 92.266V98.602C195.388 98.954 195.586 102.606 195.982 109.558C195.982 110.966 194.882 111.78 192.682 112H192.352C191.076 112 190.152 106.522 189.58 95.566C179.416 105.686 174.158 110.768 173.806 110.812H173.476C171.672 110.372 170.77 109.866 170.77 109.294V108.964C170.77 107.16 176.028 101.682 186.544 92.53V91.606C181.484 87.954 178.954 84.522 178.954 81.31V80.98C178.954 76.404 181.286 73.17 185.95 71.278H188.722ZM183.838 79.792C183.838 82.476 185.664 85.116 189.316 87.712V87.052C189.316 85.644 189.404 82.916 189.58 78.868C189.404 76.844 189.008 75.832 188.392 75.832H187.468C185.048 75.832 183.838 77.152 183.838 79.792ZM217.259 73.39H219.701C220.669 73.918 221.175 74.314 221.219 74.578V74.908C221.219 77.328 218.997 86.414 214.553 102.166C216.357 108.282 217.259 111.714 217.259 112.462C216.907 113.386 216.203 114.2 215.147 114.904H214.817C212.793 114.904 211.385 112.99 210.593 109.162C208.657 110.966 207.139 111.868 206.039 111.868H203.927C200.495 109.58 198.779 104.432 198.779 96.424V93.388C199.087 81.86 199.791 76.096 200.891 76.096H202.739C204.235 76.36 205.027 76.778 205.115 77.35C205.115 79.946 205.027 87.316 204.851 99.46C204.851 100.032 205.159 101.946 205.775 105.202H206.039C207.755 105.202 209.889 98.932 212.441 86.392C213.981 82.124 215.191 78.098 216.071 74.314L217.259 73.39ZM231.541 72.4C232.201 72.708 232.641 73.236 232.861 73.984C231.453 83.312 230.749 91.76 230.749 99.328L231.277 99.592C237.569 85.512 241.881 77.768 244.213 76.36H245.533C246.413 76.844 246.853 77.372 246.853 77.944C246.149 84.324 245.797 90.836 245.797 97.48V108.304C245.797 110.592 245.005 111.736 243.421 111.736H241.837C241.573 111.736 241.309 111.472 241.045 110.944V89.824H240.781C234.445 103.024 230.749 110.064 229.693 110.944C229.033 111.472 228.417 111.736 227.845 111.736H226.525C226.085 111.736 225.821 111.384 225.733 110.68C226.173 85.512 227.317 72.928 229.165 72.928C230.309 72.576 231.101 72.4 231.541 72.4ZM257.967 72.4C258.627 72.708 259.067 73.236 259.287 73.984C257.879 83.312 257.175 91.76 257.175 99.328L257.703 99.592C263.995 85.512 268.307 77.768 270.639 76.36H271.959C272.839 76.844 273.279 77.372 273.279 77.944C272.575 84.324 272.223 90.836 272.223 97.48V108.304C272.223 110.592 271.431 111.736 269.847 111.736H268.263C267.999 111.736 267.735 111.472 267.471 110.944V89.824H267.207C260.871 103.024 257.175 110.064 256.119 110.944C255.459 111.472 254.843 111.736 254.271 111.736H252.951C252.511 111.736 252.247 111.384 252.159 110.68C252.599 85.512 253.743 72.928 255.591 72.928C256.735 72.576 257.527 72.4 257.967 72.4ZM327.293 113.122C327.469 114.002 326.831 114.486 325.379 114.574C324.411 114.618 323.421 114.2 322.409 113.32C321.573 112.572 320.913 111.362 320.429 109.69C319.989 108.15 319.725 105.972 319.637 103.156C319.549 99.988 319.395 97.81 319.175 96.622C318.603 98.602 317.657 101.55 316.337 105.466C315.545 107.622 315.061 108.854 314.885 109.162C314.181 110.526 313.301 111.142 312.245 111.01C310.133 110.526 308.505 109.338 307.361 107.446C306.613 106.214 305.909 104.256 305.249 101.572C304.545 98.624 303.951 96.644 303.467 95.632C301.575 104.828 299.551 111.692 297.395 116.224C297.087 116.884 296.163 116.84 294.623 116.092C293.347 115.476 292.709 114.596 292.709 113.452C292.709 113.056 293.171 111.648 294.095 109.228C294.491 108.172 296.031 103.09 298.715 93.982C299.639 90.814 300.607 85.248 301.619 77.284C301.707 77.196 301.927 76.734 302.279 75.898C302.499 75.282 302.895 74.974 303.467 74.974C304.963 74.974 305.997 75.26 306.569 75.832C306.569 77.108 306.767 79.176 307.163 82.036C307.603 84.852 307.823 86.986 307.823 88.438C308.219 90.902 308.593 93.388 308.945 95.896C309.429 98.712 310.309 101.022 311.585 102.826C315.809 91.078 318.493 81.794 319.637 74.974C319.813 74.27 320.473 73.918 321.617 73.918C323.245 73.918 324.169 74.446 324.389 75.502C324.697 77.086 324.851 78.912 324.851 80.98C324.851 81.64 324.807 83.07 324.719 85.27C324.675 87.118 324.675 88.614 324.719 89.758C325.115 99.042 325.973 106.83 327.293 113.122ZM353.226 97.744C350.63 103.596 346.956 107.072 342.204 108.172C341.632 108.304 341.06 108.37 340.488 108.37C337.98 108.37 335.45 107.006 332.898 104.278C331.182 102.43 330.324 100.032 330.324 97.084C330.324 93.828 331.292 90.33 333.228 86.59C334.064 85.006 335.076 83.642 336.264 82.498C337.628 81.134 338.926 80.452 340.158 80.452C340.862 80.452 341.522 80.716 342.138 81.244C342.754 81.772 344.404 82.476 347.088 83.356C349.2 84.06 350.696 85.248 351.576 86.92C353.116 89.868 353.886 92.398 353.886 94.51C353.886 95.698 353.666 96.776 353.226 97.744ZM347.946 93.652C347.638 90.44 346.78 88.526 345.372 87.91C345.152 87.822 344.954 87.778 344.778 87.778C344.25 87.778 343.59 88.218 342.798 89.098C341.918 90.11 341.236 90.704 340.752 90.88C340.444 91.012 340.004 90.88 339.432 90.484C338.86 90.088 338.486 89.89 338.31 89.89C338.178 89.89 338.068 89.934 337.98 90.022C336.44 91.342 335.67 93.388 335.67 96.16C335.67 98.052 336.11 99.658 336.99 100.978C338.222 102.782 339.256 103.684 340.092 103.684C342.028 103.684 343.898 102.474 345.702 100.054C347.418 97.766 348.166 95.632 347.946 93.652ZM374.926 89.164C373.254 92.772 371.824 95.17 370.636 96.358C368.788 98.206 367.776 99.218 367.6 99.394C366.324 100.406 365.048 101.022 363.772 101.242C363.596 102.122 363.508 103.156 363.508 104.344C363.508 105.18 363.574 106.456 363.706 108.172C363.838 109.844 363.904 111.076 363.904 111.868C363.904 114.86 363.2 117.104 361.792 118.6C361.792 118.6 361.176 118.27 359.944 117.61C359.196 117.214 358.778 116.73 358.69 116.158C358.25 113.298 358.03 110.108 358.03 106.588C358.03 104.256 358.162 100.78 358.426 96.16C358.69 91.54 358.822 88.042 358.822 85.666C358.822 82.234 358.624 79.088 358.228 76.228C357.876 76.36 357.546 76.14 357.238 75.568C356.93 74.996 356.666 74.666 356.446 74.578C356.666 73.17 357.04 72.466 357.568 72.466C358.228 72.246 359.592 72.29 361.66 72.598C367.38 73.522 371.692 76.03 374.596 80.122C375.52 81.442 375.982 82.938 375.982 84.61C375.982 86.062 375.63 87.58 374.926 89.164ZM370.636 84.082C370.856 82.322 370.108 80.936 368.392 79.924C368.304 79.924 366.72 79.286 363.64 78.01C364.124 86.106 364.278 91.782 364.102 95.038C368.018 91.342 370.196 87.69 370.636 84.082ZM400.625 72.202C400.625 73.39 399.833 74.138 398.249 74.446C396.181 74.842 394.905 75.304 394.421 75.832C389.493 81.024 387.029 87.734 387.029 95.962C387.029 99.834 387.645 103.486 388.877 106.918C389.889 109.734 390.615 111.582 391.055 112.462C392.155 114.618 393.497 116.158 395.081 117.082C395.741 117.39 396.401 117.676 397.061 117.94C397.765 118.336 398.117 118.886 398.117 119.59C398.117 120.294 397.875 120.932 397.391 121.504C396.951 122.076 396.467 122.296 395.939 122.164C395.367 122.076 394.487 121.79 393.299 121.306C391.187 120.074 388.899 117.456 386.435 113.452C385.819 112.44 385.181 111.406 384.521 110.35C383.905 109.25 383.443 108.216 383.135 107.248C382.915 106.544 382.541 103.706 382.013 98.734C381.837 97.194 381.749 95.698 381.749 94.246C381.749 86.458 384.015 79.836 388.547 74.38C391.187 71.212 393.937 69.628 396.797 69.628C398.029 69.628 399.151 70.002 400.163 70.75C400.471 70.97 400.625 71.454 400.625 72.202ZM400.083 70.948H401.733C403.933 70.948 405.033 72.928 405.033 76.888C405.253 79.044 405.363 81.772 405.363 85.072V86.722C405.627 86.722 409.785 82.234 417.837 73.258H419.487C420.631 73.258 421.379 73.698 421.731 74.578C421.731 76.646 416.913 82.762 407.277 92.926L406.617 94.246C413.613 97.81 418.981 101.44 422.721 105.136V105.73C422.721 107.27 421.423 108.04 418.827 108.04C417.991 107.16 413.613 104.432 405.693 99.856V100.186C405.869 104.982 405.957 108.59 405.957 111.01C405.165 111.67 404.417 112 403.713 112C401.073 112 399.753 109.052 399.753 103.156V82.432C399.753 80.144 399.533 76.536 399.093 71.608L400.083 70.948ZM432.119 72.4C432.779 72.708 433.219 73.236 433.439 73.984C432.031 83.312 431.327 91.76 431.327 99.328L431.855 99.592C438.147 85.512 442.459 77.768 444.791 76.36H446.111C446.991 76.844 447.431 77.372 447.431 77.944C446.727 84.324 446.375 90.836 446.375 97.48V108.304C446.375 110.592 445.583 111.736 443.999 111.736H442.415C442.151 111.736 441.887 111.472 441.623 110.944V89.824H441.359C435.023 103.024 431.327 110.064 430.271 110.944C429.611 111.472 428.995 111.736 428.423 111.736H427.103C426.663 111.736 426.399 111.384 426.311 110.68C426.751 85.512 427.895 72.928 429.743 72.928C430.887 72.576 431.679 72.4 432.119 72.4ZM474.913 74.116C471.525 79.264 468.687 84.236 466.399 89.032C466.927 90.308 468.335 92.882 470.623 96.754C472.515 99.922 473.725 102.584 474.253 104.74C473.901 104.784 473.527 105.092 473.131 105.664C472.735 106.192 472.339 106.434 471.943 106.39C470.315 106.258 468.995 105.51 467.983 104.146C467.455 103.442 466.729 101.968 465.805 99.724C464.925 97.744 464.089 96.358 463.297 95.566C461.757 97.81 460.107 101.374 458.347 106.258C456.631 111.142 455.047 114.662 453.595 116.818C451.219 117.038 449.855 116.664 449.503 115.696C449.371 115.3 449.305 114.904 449.305 114.508C449.305 113.804 449.569 112.88 450.097 111.736C450.845 110.108 451.263 109.184 451.351 108.964C453.815 101.748 456.873 94.994 460.525 88.702C459.205 85.754 456.895 82.586 453.595 79.198C453.375 78.978 453.265 78.758 453.265 78.538C453.265 77.702 453.925 77.042 455.245 76.558C455.729 76.382 456.213 76.294 456.697 76.294C457.973 76.294 459.227 77.13 460.459 78.802C462.219 81.222 463.165 82.498 463.297 82.63C463.517 82.322 464.595 80.408 466.531 76.888C467.851 74.512 469.105 72.664 470.293 71.344C471.173 71.08 472.273 71.036 473.593 71.212C474.605 71.652 475.111 72.356 475.111 73.324C475.111 73.632 475.045 73.896 474.913 74.116ZM25.288 167.744C22.692 173.596 19.018 177.072 14.266 178.172C13.694 178.304 13.122 178.37 12.55 178.37C10.042 178.37 7.512 177.006 4.96 174.278C3.244 172.43 2.386 170.032 2.386 167.084C2.386 163.828 3.354 160.33 5.29 156.59C6.126 155.006 7.138 153.642 8.326 152.498C9.69 151.134 10.988 150.452 12.22 150.452C12.924 150.452 13.584 150.716 14.2 151.244C14.816 151.772 16.466 152.476 19.15 153.356C21.262 154.06 22.758 155.248 23.638 156.92C25.178 159.868 25.948 162.398 25.948 164.51C25.948 165.698 25.728 166.776 25.288 167.744ZM20.008 163.652C19.7 160.44 18.842 158.526 17.434 157.91C17.214 157.822 17.016 157.778 16.84 157.778C16.312 157.778 15.652 158.218 14.86 159.098C13.98 160.11 13.298 160.704 12.814 160.88C12.506 161.012 12.066 160.88 11.494 160.484C10.922 160.088 10.548 159.89 10.372 159.89C10.24 159.89 10.13 159.934 10.042 160.022C8.502 161.342 7.732 163.388 7.732 166.16C7.732 168.052 8.172 169.658 9.052 170.978C10.284 172.782 11.318 173.684 12.154 173.684C14.09 173.684 15.96 172.474 17.764 170.054C19.48 167.766 20.228 165.632 20.008 163.652ZM32.6661 140.288H33.4581C39.8821 140.288 45.0741 142.752 49.0341 147.68C49.3861 148.384 49.5621 149.352 49.5621 150.584C49.5621 151.508 49.2101 152.124 48.5061 152.432H47.4501C45.1621 152.432 44.0181 150.848 44.0181 147.68C43.4021 147.152 41.9061 146.272 39.5301 145.04H38.4741C38.6501 149.484 38.7381 152.74 38.7381 154.808V157.448H39.2661C42.4341 157.448 45.1621 159.296 47.4501 162.992C47.8021 163.564 47.9781 164.092 47.9781 164.576V165.896C47.9781 172.672 45.2501 177.16 39.7941 179.36C37.3741 181.12 35.7901 182 35.0421 182H34.2501C33.2821 182 32.5781 181.56 32.1381 180.68V180.152C32.1381 173.464 32.3141 167.04 32.6661 160.88C32.3141 160.88 31.9621 160.352 31.6101 159.296C32.6661 158.108 33.1941 157.228 33.1941 156.656C33.3701 154.984 33.4581 153.136 33.4581 151.112V144.776C32.3581 144.776 31.3021 144.072 30.2901 142.664V142.4C30.2901 140.992 31.0821 140.288 32.6661 140.288ZM37.9461 161.144C37.9461 161.496 38.0341 161.672 38.2101 161.672C37.6821 165.72 37.4181 169.856 37.4181 174.08L37.6821 175.4C41.2021 173.684 42.9621 170.956 42.9621 167.216V164.84C42.9621 162.86 41.5541 161.54 38.7381 160.88C38.3861 161.056 38.1221 161.144 37.9461 161.144ZM60.6759 142.4C61.3359 142.708 61.7759 143.236 61.9959 143.984C60.5879 153.312 59.8839 161.76 59.8839 169.328L60.4119 169.592C66.7039 155.512 71.0159 147.768 73.3479 146.36H74.6679C75.5479 146.844 75.9879 147.372 75.9879 147.944C75.2839 154.324 74.9319 160.836 74.9319 167.48V178.304C74.9319 180.592 74.1399 181.736 72.5559 181.736H70.9719C70.7079 181.736 70.4439 181.472 70.1799 180.944V159.824H69.9159C63.5799 173.024 59.8839 180.064 58.8279 180.944C58.1679 181.472 57.5519 181.736 56.9799 181.736H55.6599C55.2199 181.736 54.9559 181.384 54.8679 180.68C55.3079 155.512 56.4519 142.928 58.2999 142.928C59.4439 142.576 60.2359 142.4 60.6759 142.4ZM114.294 140.882C113.898 142.466 113.15 143.39 112.05 143.654C109.19 144.358 104.218 145.282 97.1336 146.426C96.2536 157.382 95.8136 166.512 95.8136 173.816C95.8136 176.588 95.8576 179.316 95.9456 182C95.9896 182.836 95.9456 183.474 95.8136 183.914C95.5936 184.618 95.1536 184.948 94.4936 184.904C93.2176 184.86 92.1616 184.31 91.3256 183.254C90.4896 182.242 90.0276 181.098 89.9396 179.822C89.8516 178.194 89.8076 176.478 89.8076 174.674C89.8076 171.77 90.0056 167.172 90.4016 160.88C90.7976 154.852 90.9736 150.254 90.9296 147.086C89.7416 146.998 88.0916 147.108 85.9796 147.416C83.5596 147.768 81.8876 147.944 80.9636 147.944C78.8076 147.944 77.0476 147.372 75.6836 146.228C75.1556 145.084 74.8916 144.49 74.8916 144.446C74.8916 144.138 75.0456 143.808 75.3536 143.456C76.7616 142.972 79.6436 142.532 83.9996 142.136C87.8276 141.74 90.6876 141.036 92.5796 140.024C94.1196 140.508 95.8796 140.75 97.8596 140.75C99.8396 140.75 101.732 140.508 103.536 140.024C104.064 139.98 105.406 139.672 107.562 139.1C109.146 138.704 110.466 138.572 111.522 138.704C112.314 138.704 112.644 139.034 112.512 139.694C113.7 139.694 114.294 140.09 114.294 140.882ZM131.215 178.832C131.479 179.536 131.611 180.152 131.611 180.68C131.611 181.56 131.237 182.33 130.489 182.99C129.741 183.65 129.235 183.958 128.971 183.914C126.815 183.518 125.451 181.78 124.879 178.7C124.263 175.356 123.537 172.562 122.701 170.318C121.205 170.45 119.709 170.582 118.213 170.714C116.497 170.934 115.155 171.462 114.187 172.298C113.703 173.662 113.065 176.082 112.273 179.558C111.525 182.77 110.799 185.212 110.095 186.884C109.743 187.676 108.995 187.896 107.851 187.544C106.399 187.06 105.629 186.4 105.541 185.564C105.409 183.892 105.893 181.648 106.993 178.832C108.313 175.62 109.039 173.332 109.171 171.968C109.215 171.572 108.929 171.132 108.313 170.648C107.697 170.164 107.389 169.79 107.389 169.526C107.389 169.306 107.477 169.086 107.653 168.866C107.873 168.602 108.335 168.404 109.039 168.272C109.787 168.096 110.205 167.854 110.293 167.546C111.085 165.346 112.339 161.254 114.055 155.27C115.507 150.078 116.805 146.096 117.949 143.324C118.213 142.708 118.763 142.4 119.599 142.4C120.215 142.4 120.765 142.598 121.249 142.994C122.481 144.05 123.273 145.634 123.625 147.746C123.889 149.55 124.131 151.354 124.351 153.158C126.551 163.542 128.839 172.1 131.215 178.832ZM121.579 166.226C121.447 164.598 121.161 162.772 120.721 160.748C120.281 158.988 119.863 157.228 119.467 155.468C118.147 159.12 117.003 162.772 116.035 166.424C116.739 166.292 118.587 166.226 121.579 166.226ZM166.887 140.882C166.491 142.466 165.743 143.39 164.643 143.654C161.783 144.358 156.811 145.282 149.727 146.426C148.847 157.382 148.407 166.512 148.407 173.816C148.407 176.588 148.451 179.316 148.539 182C148.583 182.836 148.539 183.474 148.407 183.914C148.187 184.618 147.747 184.948 147.087 184.904C145.811 184.86 144.755 184.31 143.919 183.254C143.083 182.242 142.621 181.098 142.533 179.822C142.445 178.194 142.401 176.478 142.401 174.674C142.401 171.77 142.599 167.172 142.995 160.88C143.391 154.852 143.567 150.254 143.523 147.086C142.335 146.998 140.685 147.108 138.573 147.416C136.153 147.768 134.481 147.944 133.557 147.944C131.401 147.944 129.641 147.372 128.277 146.228C127.749 145.084 127.485 144.49 127.485 144.446C127.485 144.138 127.639 143.808 127.947 143.456C129.355 142.972 132.237 142.532 136.593 142.136C140.421 141.74 143.281 141.036 145.173 140.024C146.713 140.508 148.473 140.75 150.453 140.75C152.433 140.75 154.325 140.508 156.129 140.024C156.657 139.98 157.999 139.672 160.155 139.1C161.739 138.704 163.059 138.572 164.115 138.704C164.907 138.704 165.237 139.034 165.105 139.694C166.293 139.694 166.887 140.09 166.887 140.882ZM178.925 141.278H179.585C181.917 141.278 183.281 142.29 183.677 144.314V145.37C183.589 145.678 178.485 147.482 168.365 150.782C168.145 151.618 168.035 154.104 168.035 158.24C168.431 158.46 168.893 158.57 169.421 158.57C174.173 158.13 176.769 157.91 177.209 157.91C179.453 158.218 180.575 159.23 180.575 160.946C180.575 162.53 176.747 163.542 169.091 163.982C167.243 163.982 166.319 166.93 166.319 172.826C166.319 175.334 168.145 176.588 171.797 176.588C171.797 176.808 172.589 176.918 174.173 176.918H178.199C179.035 176.214 179.827 175.862 180.575 175.862C181.939 176.346 182.621 177.6 182.621 179.624V180.284C182.621 180.592 182.049 181.164 180.905 182H175.823C168.739 182 164.229 180.746 162.293 178.238C161.149 176.918 160.577 175.114 160.577 172.826V164.378L159.191 162.662V161.606C160.775 160.506 161.567 158.812 161.567 156.524V153.158C159.323 152.542 158.201 151.86 158.201 151.112V150.122C158.201 147.086 165.109 144.138 178.925 141.278ZM197.233 143.126H198.091C200.423 143.126 201.941 146.91 202.645 154.478C204.141 161.034 206.033 168.118 208.321 175.73V176.918C208.321 177.182 207.661 177.842 206.341 178.898C203.701 178.898 201.809 174.74 200.665 166.424C199.785 163.916 198.927 160.22 198.091 155.336H197.497L189.841 181.736L189.313 182H188.455C186.739 181.604 185.881 181.142 185.881 180.614V179.162C185.881 178.414 187.399 173.112 190.435 163.256C193.735 151.024 196.001 144.314 197.233 143.126ZM231.777 141.278H232.437C234.769 141.278 236.133 142.29 236.529 144.314V145.37C236.441 145.678 231.337 147.482 221.217 150.782C220.997 151.618 220.887 154.104 220.887 158.24C221.283 158.46 221.745 158.57 222.273 158.57C227.025 158.13 229.621 157.91 230.061 157.91C232.305 158.218 233.427 159.23 233.427 160.946C233.427 162.53 229.599 163.542 221.943 163.982C220.095 163.982 219.171 166.93 219.171 172.826C219.171 175.334 220.997 176.588 224.649 176.588C224.649 176.808 225.441 176.918 227.025 176.918H231.051C231.887 176.214 232.679 175.862 233.427 175.862C234.791 176.346 235.473 177.6 235.473 179.624V180.284C235.473 180.592 234.901 181.164 233.757 182H228.675C221.591 182 217.081 180.746 215.145 178.238C214.001 176.918 213.429 175.114 213.429 172.826V164.378L212.043 162.662V161.606C213.627 160.506 214.419 158.812 214.419 156.524V153.158C212.175 152.542 211.053 151.86 211.053 151.112V150.122C211.053 147.086 217.961 144.138 231.777 141.278ZM253.583 138.044C254.067 138.616 254.419 139.32 254.639 140.156C254.639 141.256 253.759 141.872 251.999 142.004H251.207C250.943 142.004 250.503 141.476 249.887 140.42V140.156C249.887 138.748 251.119 138.044 253.583 138.044ZM245.927 142.796H246.191C246.851 143.104 247.291 143.632 247.511 144.38C246.103 153.708 245.399 162.156 245.399 169.724L245.927 169.988C250.547 159.648 254.507 152.08 257.807 147.284L259.655 146.756C260.887 147.064 261.503 147.592 261.503 148.34C260.799 154.72 260.447 161.232 260.447 167.876V178.7C260.447 180.988 259.655 182.132 258.071 182.132H256.487C256.223 182.132 255.959 181.868 255.695 181.34V160.22H255.431C248.875 173.86 245.179 180.9 244.343 181.34C243.683 181.868 243.067 182.132 242.495 182.132H241.175C240.735 182.132 240.471 181.78 240.383 181.076C240.779 155.908 242.011 143.324 244.079 143.324L245.927 142.796Z" fill="#11315F"/>
</svg>
