<svg width="26" height="30" viewBox="0 0 26 30" fill="none" xmlns="http://www.w3.org/2000/svg">
<path fill-rule="evenodd" clip-rule="evenodd" d="M25.3363 7.17288C24.8202 6.48444 24.0701 6.08848 23.281 6.08848H9.3129C8.77471 6.08848 8.33792 6.59243 8.33792 7.21338C8.33792 7.83432 8.77471 8.33828 9.3129 8.33828H23.281C23.5865 8.33828 23.7763 8.53026 23.8621 8.64425C23.9479 8.75974 24.0857 9.00422 24.0415 9.35219L22.8079 19.1898C22.7104 19.9607 22.128 20.5427 21.452 20.5427H7.26805C6.54917 20.5427 5.96288 19.9202 5.90308 19.0953L4.65121 1.88886C4.61481 1.3789 4.28332 0.960441 3.84653 0.873448L1.1413 0.331997C0.604415 0.233006 0.105227 0.63647 0.0142297 1.24991C-0.076768 1.86186 0.278123 2.44381 0.80851 2.5503L2.77146 2.94176L3.95963 19.2828C4.10523 21.2836 5.52739 22.7925 7.26805 22.7925H21.452C23.0912 22.7925 24.503 21.3826 24.737 19.5123L25.972 9.67466C26.0851 8.77174 25.8524 7.86132 25.3363 7.17288ZM5.08002 27.4421C5.08002 26.1897 5.964 25.1698 7.04948 25.1698C8.13496 25.1698 9.01764 26.1897 9.01764 27.4421C9.01764 28.6944 8.13496 29.7128 7.04948 29.7128C5.964 29.7128 5.08002 28.6944 5.08002 27.4421ZM19.7089 27.4421C19.7089 26.1897 20.5915 25.1698 21.677 25.1698C22.7625 25.1698 23.6464 26.1897 23.6464 27.4421C23.6464 28.6944 22.7625 29.7128 21.677 29.7128C20.5915 29.7128 19.7089 28.6944 19.7089 27.4421ZM20.3435 12.7578C20.3435 13.3787 19.9067 13.8826 19.3685 13.8826H15.7637C15.2242 13.8826 14.7888 13.3787 14.7888 12.7578C14.7888 12.1368 15.2242 11.6329 15.7637 11.6329H19.3685C19.9067 11.6329 20.3435 12.1368 20.3435 12.7578Z" fill="#11315F"/>
</svg>
