<svg width="300" height="50" viewBox="0 0 300 50" fill="none" xmlns="http://www.w3.org/2000/svg">
<path d="M21.6727 6.46C21.5927 10.02 21.0127 15.66 19.9327 23.38C18.9327 30.7 18.4327 36.32 18.4327 40.24C18.4327 41.48 18.4727 42.66 18.5527 43.78C18.5527 44.06 18.4327 44.32 18.1927 44.56C17.9527 44.84 17.6727 44.98 17.3527 44.98C16.2327 44.98 15.4927 44.88 15.1327 44.68C13.6127 43.8 12.8527 42.14 12.8527 39.7C12.8527 39.22 12.8727 38.48 12.9127 37.48C12.9927 36.44 13.0327 35.68 13.0327 35.2C13.0327 34.4 13.1327 33.18 13.3327 31.54C13.5327 29.9 13.6327 28.64 13.6327 27.76C13.0727 27.8 12.2927 27.72 11.2927 27.52C10.3327 27.32 9.63266 27.22 9.19266 27.22C8.67266 27.22 8.17266 27.3 7.69266 27.46C6.73266 30.62 6.17266 35.28 6.01266 41.44C4.65266 42 3.33266 41.94 2.05266 41.26C1.13266 40.78 0.672656 39.82 0.672656 38.38C0.672656 38.06 0.692656 37.64 0.732656 37.12C0.812656 36.56 0.852656 36.22 0.852656 36.1C0.972656 33.94 1.43266 29.66 2.23266 23.26C2.91266 17.9 3.23266 13.64 3.19266 10.48C3.19266 10.04 3.49266 9.76 4.09266 9.64C4.73266 9.52 5.09266 9.4 5.17266 9.28C5.41266 9.56 5.99266 9.8 6.91266 10C7.67266 10.16 8.13266 10.52 8.29266 11.08C8.61266 12.08 8.77266 13.2 8.77266 14.44C8.77266 15.32 8.63266 16.72 8.35266 18.64C8.11266 20.52 7.99266 21.96 7.99266 22.96C8.47266 23.32 9.07266 23.54 9.79266 23.62C10.2727 23.7 10.9527 23.72 11.8327 23.68C12.9927 23.6 13.6927 23.56 13.9327 23.56C14.9327 19.36 15.8127 13.92 16.5727 7.24C16.7327 5.84 17.2327 5.14 18.0727 5.14C20.1927 4.94 21.3927 5.38 21.6727 6.46ZM47.1277 37.12C47.3677 37.76 47.4877 38.32 47.4877 38.8C47.4877 39.6 47.1477 40.3 46.4677 40.9C45.7877 41.5 45.3277 41.78 45.0877 41.74C43.1277 41.38 41.8877 39.8 41.3677 37C40.8077 33.96 40.1477 31.42 39.3877 29.38C38.0277 29.5 36.6677 29.62 35.3077 29.74C33.7477 29.94 32.5277 30.42 31.6477 31.18C31.2077 32.42 30.6277 34.62 29.9077 37.78C29.2277 40.7 28.5677 42.92 27.9277 44.44C27.6077 45.16 26.9277 45.36 25.8877 45.04C24.5677 44.6 23.8677 44 23.7877 43.24C23.6677 41.72 24.1077 39.68 25.1077 37.12C26.3077 34.2 26.9677 32.12 27.0877 30.88C27.1277 30.52 26.8677 30.12 26.3077 29.68C25.7477 29.24 25.4677 28.9 25.4677 28.66C25.4677 28.46 25.5477 28.26 25.7077 28.06C25.9077 27.82 26.3277 27.64 26.9677 27.52C27.6477 27.36 28.0277 27.14 28.1077 26.86C28.8277 24.86 29.9677 21.14 31.5277 15.7C32.8477 10.98 34.0277 7.36 35.0677 4.84C35.3077 4.28 35.8077 4 36.5677 4C37.1277 4 37.6277 4.18 38.0677 4.54C39.1877 5.5 39.9077 6.94 40.2277 8.86C40.4677 10.5 40.6877 12.14 40.8877 13.78C42.8877 23.22 44.9677 31 47.1277 37.12ZM38.3677 25.66C38.2477 24.18 37.9877 22.52 37.5877 20.68C37.1877 19.08 36.8077 17.48 36.4477 15.88C35.2477 19.2 34.2077 22.52 33.3277 25.84C33.9677 25.72 35.6477 25.66 38.3677 25.66ZM52.1967 7.12C53.7967 7.12 54.7567 8.16 55.0767 10.24V10.96C54.9167 13.4 54.0367 21.08 52.4367 34C52.9567 34.32 53.4367 34.48 53.8767 34.48H56.7567C57.3167 34.48 58.1167 29.28 59.1567 18.88C59.6367 18.24 59.9567 17.92 60.1167 17.92H61.7967C62.6767 17.92 63.3167 18.4 63.7167 19.36C62.5967 28 62.0367 33.28 62.0367 35.2L62.5167 35.44H63.7167C64.1967 35.44 65.0767 27.92 66.3567 12.88C66.9167 10.48 68.1167 9.28 69.9567 9.28H70.4367C71.2367 9.84 71.6367 10.32 71.6367 10.72C70.0367 25.4 68.9167 34.84 68.2767 39.04C67.5967 39.68 66.7967 40 65.8767 40H65.3967C63.9167 39.2 61.1967 38.56 57.2367 38.08C56.3567 38.08 55.0767 37.92 53.3967 37.6C52.4367 37.76 51.5567 38.08 50.7567 38.56C49.5167 38.56 48.4767 37.92 47.6367 36.64V35.92C47.6367 34.56 48.5167 25.44 50.2767 8.56C50.2767 7.6 50.9167 7.12 52.1967 7.12ZM92.7202 3.88C93.3202 4.16 93.7202 4.64 93.9202 5.32C92.6402 13.8 92.0002 21.48 92.0002 28.36L92.4802 28.6C98.2002 15.8 102.12 8.76 104.24 7.48H105.44C106.24 7.92 106.64 8.4 106.64 8.92C106 14.72 105.68 20.64 105.68 26.68V36.52C105.68 38.6 104.96 39.64 103.52 39.64H102.08C101.84 39.64 101.6 39.4 101.36 38.92V19.72H101.12C95.3602 31.72 92.0002 38.12 91.0402 38.92C90.4402 39.4 89.8802 39.64 89.3602 39.64H88.1602C87.7602 39.64 87.5202 39.32 87.4402 38.68C87.8402 15.8 88.8802 4.36 90.5602 4.36C91.6002 4.04 92.3202 3.88 92.7202 3.88ZM130.481 6.46C130.401 10.02 129.821 15.66 128.741 23.38C127.741 30.7 127.241 36.32 127.241 40.24C127.241 41.48 127.281 42.66 127.361 43.78C127.361 44.06 127.241 44.32 127.001 44.56C126.761 44.84 126.481 44.98 126.161 44.98C125.041 44.98 124.301 44.88 123.941 44.68C122.421 43.8 121.661 42.14 121.661 39.7C121.661 39.22 121.681 38.48 121.721 37.48C121.801 36.44 121.841 35.68 121.841 35.2C121.841 34.4 121.941 33.18 122.141 31.54C122.341 29.9 122.441 28.64 122.441 27.76C121.881 27.8 121.101 27.72 120.101 27.52C119.141 27.32 118.441 27.22 118.001 27.22C117.481 27.22 116.981 27.3 116.501 27.46C115.541 30.62 114.981 35.28 114.821 41.44C113.461 42 112.141 41.94 110.861 41.26C109.941 40.78 109.481 39.82 109.481 38.38C109.481 38.06 109.501 37.64 109.541 37.12C109.621 36.56 109.661 36.22 109.661 36.1C109.781 33.94 110.241 29.66 111.041 23.26C111.721 17.9 112.041 13.64 112.001 10.48C112.001 10.04 112.301 9.76 112.901 9.64C113.541 9.52 113.901 9.4 113.981 9.28C114.221 9.56 114.801 9.8 115.721 10C116.481 10.16 116.941 10.52 117.101 11.08C117.421 12.08 117.581 13.2 117.581 14.44C117.581 15.32 117.441 16.72 117.161 18.64C116.921 20.52 116.801 21.96 116.801 22.96C117.281 23.32 117.881 23.54 118.601 23.62C119.081 23.7 119.761 23.72 120.641 23.68C121.801 23.6 122.501 23.56 122.741 23.56C123.741 19.36 124.621 13.92 125.381 7.24C125.541 5.84 126.041 5.14 126.881 5.14C129.001 4.94 130.201 5.38 130.481 6.46ZM150.776 3.82C150.776 4.9 150.056 5.58 148.616 5.86C146.736 6.22 145.576 6.64 145.136 7.12C140.656 11.84 138.416 17.94 138.416 25.42C138.416 28.94 138.976 32.26 140.096 35.38C141.016 37.94 141.676 39.62 142.076 40.42C143.076 42.38 144.296 43.78 145.736 44.62C146.336 44.9 146.936 45.16 147.536 45.4C148.176 45.76 148.496 46.26 148.496 46.9C148.496 47.54 148.276 48.12 147.836 48.64C147.436 49.16 146.996 49.36 146.516 49.24C145.996 49.16 145.196 48.9 144.116 48.46C142.196 47.34 140.116 44.96 137.876 41.32C137.316 40.4 136.736 39.46 136.136 38.5C135.576 37.5 135.156 36.56 134.876 35.68C134.676 35.04 134.336 32.46 133.856 27.94C133.696 26.54 133.616 25.18 133.616 23.86C133.616 16.78 135.676 10.76 139.796 5.8C142.196 2.92 144.696 1.48 147.296 1.48C148.416 1.48 149.436 1.82 150.356 2.5C150.636 2.7 150.776 3.14 150.776 3.82ZM180.104 2.62C179.744 4.06 179.064 4.9 178.064 5.14C175.464 5.78 170.944 6.62 164.504 7.66C163.704 17.62 163.304 25.92 163.304 32.56C163.304 35.08 163.344 37.56 163.424 40C163.464 40.76 163.424 41.34 163.304 41.74C163.104 42.38 162.704 42.68 162.104 42.64C160.944 42.6 159.984 42.1 159.224 41.14C158.464 40.22 158.044 39.18 157.964 38.02C157.884 36.54 157.844 34.98 157.844 33.34C157.844 30.7 158.024 26.52 158.384 20.8C158.744 15.32 158.904 11.14 158.864 8.26C157.784 8.18 156.284 8.28 154.364 8.56C152.164 8.88 150.644 9.04 149.804 9.04C147.844 9.04 146.244 8.52 145.004 7.48C144.524 6.44 144.284 5.9 144.284 5.86C144.284 5.58 144.424 5.28 144.704 4.96C145.984 4.52 148.604 4.12 152.564 3.76C156.044 3.4 158.644 2.76 160.364 1.84C161.764 2.28 163.364 2.5 165.164 2.5C166.964 2.5 168.684 2.28 170.324 1.84C170.804 1.8 172.024 1.52 173.984 0.999998C175.424 0.639998 176.624 0.519998 177.584 0.639999C178.304 0.639999 178.604 0.939999 178.484 1.54C179.564 1.54 180.104 1.9 180.104 2.62ZM195.487 37.12C195.727 37.76 195.847 38.32 195.847 38.8C195.847 39.6 195.507 40.3 194.827 40.9C194.147 41.5 193.687 41.78 193.447 41.74C191.487 41.38 190.247 39.8 189.727 37C189.167 33.96 188.507 31.42 187.747 29.38C186.387 29.5 185.027 29.62 183.667 29.74C182.107 29.94 180.887 30.42 180.007 31.18C179.567 32.42 178.987 34.62 178.267 37.78C177.587 40.7 176.927 42.92 176.287 44.44C175.967 45.16 175.287 45.36 174.247 45.04C172.927 44.6 172.227 44 172.147 43.24C172.027 41.72 172.467 39.68 173.467 37.12C174.667 34.2 175.327 32.12 175.447 30.88C175.487 30.52 175.227 30.12 174.667 29.68C174.107 29.24 173.827 28.9 173.827 28.66C173.827 28.46 173.907 28.26 174.067 28.06C174.267 27.82 174.687 27.64 175.327 27.52C176.007 27.36 176.387 27.14 176.467 26.86C177.187 24.86 178.327 21.14 179.887 15.7C181.207 10.98 182.387 7.36 183.427 4.84C183.667 4.28 184.167 4 184.927 4C185.487 4 185.987 4.18 186.427 4.54C187.547 5.5 188.267 6.94 188.587 8.86C188.827 10.5 189.047 12.14 189.247 13.78C191.247 23.22 193.327 31 195.487 37.12ZM186.727 25.66C186.607 24.18 186.347 22.52 185.947 20.68C185.547 19.08 185.167 17.48 184.807 15.88C183.607 19.2 182.567 22.52 181.687 25.84C182.327 25.72 184.007 25.66 186.727 25.66ZM215.256 3.04H215.736C216.536 3.04 217.116 3.4 217.476 4.12V5.44C216.916 6.64 216.116 7.24 215.076 7.24C214.476 6.92 213.956 6.76 213.516 6.76C207.196 8.4 204.036 9.72 204.036 10.72V14.92C204.036 18.04 203.976 20.9 203.856 23.5C204.136 26.98 204.276 30.8 204.276 34.96C203.836 38.32 203.256 40 202.536 40H202.296C200.696 40 199.896 38.6 199.896 35.8C200.176 30.6 200.316 27.24 200.316 25.72V17.98C200.316 16.46 200.236 14.12 200.076 10.96C199.516 10.96 198.716 10.3 197.676 8.98V7.9C197.676 7.3 200.096 6.48 204.936 5.44C209.336 3.84 212.776 3.04 215.256 3.04ZM238.8 19.24C237.28 22.52 235.98 24.7 234.9 25.78C233.22 27.46 232.3 28.38 232.14 28.54C230.98 29.46 229.82 30.02 228.66 30.22C228.5 31.02 228.42 31.96 228.42 33.04C228.42 33.8 228.48 34.96 228.6 36.52C228.72 38.04 228.78 39.16 228.78 39.88C228.78 42.6 228.14 44.64 226.86 46C226.86 46 226.3 45.7 225.18 45.1C224.5 44.74 224.12 44.3 224.04 43.78C223.64 41.18 223.44 38.28 223.44 35.08C223.44 32.96 223.56 29.8 223.8 25.6C224.04 21.4 224.16 18.22 224.16 16.06C224.16 12.94 223.98 10.08 223.62 7.48C223.3 7.6 223 7.4 222.72 6.88C222.44 6.36 222.2 6.06 222 5.98C222.2 4.7 222.54 4.06 223.02 4.06C223.62 3.86 224.86 3.9 226.74 4.18C231.94 5.02 235.86 7.3 238.5 11.02C239.34 12.22 239.76 13.58 239.76 15.1C239.76 16.42 239.44 17.8 238.8 19.24ZM234.9 14.62C235.1 13.02 234.42 11.76 232.86 10.84C232.78 10.84 231.34 10.26 228.54 9.1C228.98 16.46 229.12 21.62 228.96 24.58C232.52 21.22 234.5 17.9 234.9 14.62ZM267.323 37.12C267.563 37.76 267.683 38.32 267.683 38.8C267.683 39.6 267.343 40.3 266.663 40.9C265.983 41.5 265.523 41.78 265.283 41.74C263.323 41.38 262.083 39.8 261.563 37C261.003 33.96 260.343 31.42 259.583 29.38C258.223 29.5 256.863 29.62 255.503 29.74C253.943 29.94 252.723 30.42 251.843 31.18C251.403 32.42 250.823 34.62 250.103 37.78C249.423 40.7 248.763 42.92 248.123 44.44C247.803 45.16 247.123 45.36 246.083 45.04C244.763 44.6 244.063 44 243.983 43.24C243.863 41.72 244.303 39.68 245.303 37.12C246.503 34.2 247.163 32.12 247.283 30.88C247.323 30.52 247.063 30.12 246.503 29.68C245.943 29.24 245.663 28.9 245.663 28.66C245.663 28.46 245.743 28.26 245.903 28.06C246.103 27.82 246.523 27.64 247.163 27.52C247.843 27.36 248.223 27.14 248.303 26.86C249.023 24.86 250.163 21.14 251.723 15.7C253.043 10.98 254.223 7.36 255.263 4.84C255.503 4.28 256.003 4 256.763 4C257.323 4 257.823 4.18 258.263 4.54C259.383 5.5 260.103 6.94 260.423 8.86C260.663 10.5 260.883 12.14 261.083 13.78C263.083 23.22 265.163 31 267.323 37.12ZM258.563 25.66C258.443 24.18 258.183 22.52 257.783 20.68C257.383 19.08 257.003 17.48 256.643 15.88C255.443 19.2 254.403 22.52 253.523 25.84C254.163 25.72 255.843 25.66 258.563 25.66ZM299.032 41.02C299.192 41.82 298.612 42.26 297.292 42.34C296.412 42.38 295.512 42 294.592 41.2C293.832 40.52 293.232 39.42 292.792 37.9C292.392 36.5 292.152 34.52 292.072 31.96C291.992 29.08 291.852 27.1 291.652 26.02C291.132 27.82 290.272 30.5 289.072 34.06C288.352 36.02 287.912 37.14 287.752 37.42C287.112 38.66 286.312 39.22 285.352 39.1C283.432 38.66 281.952 37.58 280.912 35.86C280.232 34.74 279.592 32.96 278.992 30.52C278.352 27.84 277.812 26.04 277.372 25.12C275.652 33.48 273.812 39.72 271.852 43.84C271.572 44.44 270.732 44.4 269.332 43.72C268.172 43.16 267.592 42.36 267.592 41.32C267.592 40.96 268.012 39.68 268.852 37.48C269.212 36.52 270.612 31.9 273.052 23.62C273.892 20.74 274.772 15.68 275.692 8.44C275.772 8.36 275.972 7.94 276.292 7.18C276.492 6.62 276.852 6.34 277.372 6.34C278.732 6.34 279.672 6.6 280.192 7.12C280.192 8.28 280.372 10.16 280.732 12.76C281.132 15.32 281.332 17.26 281.332 18.58C281.692 20.82 282.032 23.08 282.352 25.36C282.792 27.92 283.592 30.02 284.752 31.66C288.592 20.98 291.032 12.54 292.072 6.34C292.232 5.7 292.832 5.38 293.872 5.38C295.352 5.38 296.192 5.86 296.392 6.82C296.672 8.26 296.812 9.92 296.812 11.8C296.812 12.4 296.772 13.7 296.692 15.7C296.652 17.38 296.652 18.74 296.692 19.78C297.052 28.22 297.832 35.3 299.032 41.02Z" fill="#11315F"/>
</svg>
