<svg width="604" height="39" viewBox="0 0 604 39" fill="none" xmlns="http://www.w3.org/2000/svg">
<path d="M14.306 2.388H16.146C17.0047 2.388 17.5567 2.69466 17.802 3.308V4.274L15.456 26.722C15.456 27.1207 15.3793 28.3013 15.226 30.264C15.3793 31.092 15.456 31.9507 15.456 32.84L14.536 33.53H12.65C11.086 32.6407 10.304 31.3067 10.304 29.528C10.304 27.78 10.7793 21.2327 11.73 9.886H11.454C9.27667 9.886 8.188 9.73267 8.188 9.426C6.93067 9.426 6.302 10.3613 6.302 12.232L4.462 30.724L3.266 30.954H3.036C1.012 30.77 0 29.988 0 28.608V28.378C0 27.182 0.705333 19.3773 2.116 4.964V3.814L3.726 3.078C4.89133 3.078 6.14867 4.01333 7.498 5.884C7.774 6.03733 8.47933 6.206 9.614 6.39C11.9447 6.39 13.11 6.068 13.11 5.424C13.3247 3.4 13.7233 2.388 14.306 2.388ZM35.346 21.064C33.5366 25.1427 30.976 27.5653 27.664 28.332C27.2653 28.424 26.8666 28.47 26.468 28.47C24.72 28.47 22.9566 27.5193 21.178 25.618C19.982 24.33 19.384 22.6587 19.384 20.604C19.384 18.3347 20.0586 15.8967 21.408 13.29C21.9906 12.186 22.696 11.2353 23.524 10.438C24.4746 9.48733 25.3793 9.012 26.238 9.012C26.7286 9.012 27.1886 9.196 27.618 9.564C28.0473 9.932 29.1973 10.4227 31.068 11.036C32.54 11.5267 33.5826 12.3547 34.196 13.52C35.2693 15.5747 35.806 17.338 35.806 18.81C35.806 19.638 35.6526 20.3893 35.346 21.064ZM31.666 18.212C31.4513 15.9733 30.8533 14.6393 29.872 14.21C29.7186 14.1487 29.5806 14.118 29.458 14.118C29.09 14.118 28.63 14.4247 28.078 15.038C27.4646 15.7433 26.9893 16.1573 26.652 16.28C26.4373 16.372 26.1306 16.28 25.732 16.004C25.3333 15.728 25.0726 15.59 24.95 15.59C24.858 15.59 24.7813 15.6207 24.72 15.682C23.6466 16.602 23.11 18.028 23.11 19.96C23.11 21.2787 23.4166 22.398 24.03 23.318C24.8886 24.5753 25.6093 25.204 26.192 25.204C27.5413 25.204 28.8446 24.3607 30.102 22.674C31.298 21.0793 31.8193 19.592 31.666 18.212ZM51.5283 3.584H51.7123C52.3869 3.584 52.8776 3.89067 53.1843 4.504V4.688C53.1843 7.264 52.6936 12.5387 51.7123 20.512L52.6323 20.328C53.3683 20.328 53.8589 20.696 54.1043 21.432C53.9816 24.1307 53.9203 26.1547 53.9203 27.504H53.7363L53.9203 27.872V29.896C53.9203 30.08 53.6749 30.3253 53.1843 30.632H52.8163C51.2829 30.632 50.4243 29.6507 50.2403 27.688V24.928H50.0563C49.1363 24.928 45.7016 25.7867 39.7523 27.504V30.448C39.7523 30.632 39.5683 30.816 39.2003 31H38.2803C36.9309 31 36.2563 30.448 36.2563 29.344V28.056L36.0723 26.216H36.2563L36.0723 25.848C36.1029 25.6333 37.4523 24.9587 40.1203 23.824C40.8563 19.224 41.4083 13.52 41.7763 6.712C47.6643 4.62667 50.9149 3.584 51.5283 3.584ZM45.2723 9.656C44.7816 16.648 44.3523 21.0027 43.9843 22.72H44.1683C46.1923 22.1067 47.4189 21.8 47.8483 21.8C47.8483 21.4933 48.4003 16.8933 49.5043 8H49.3203C46.6523 8.79733 45.3029 9.288 45.2723 9.472V9.656ZM72.3382 28.792C72.5222 29.2827 72.6142 29.712 72.6142 30.08C72.6142 30.6933 72.3536 31.23 71.8322 31.69C71.3109 32.15 70.9582 32.3647 70.7742 32.334C69.2716 32.058 68.3209 30.8467 67.9222 28.7C67.4929 26.3693 66.9869 24.422 66.4042 22.858C65.3616 22.95 64.3189 23.042 63.2762 23.134C62.0802 23.2873 61.1449 23.6553 60.4702 24.238C60.1329 25.1887 59.6882 26.8753 59.1362 29.298C58.6149 31.5367 58.1089 33.2387 57.6182 34.404C57.3729 34.956 56.8516 35.1093 56.0542 34.864C55.0422 34.5267 54.5056 34.0667 54.4442 33.484C54.3522 32.3187 54.6896 30.7547 55.4562 28.792C56.3762 26.5533 56.8822 24.9587 56.9742 24.008C57.0049 23.732 56.8056 23.4253 56.3762 23.088C55.9469 22.7507 55.7322 22.49 55.7322 22.306C55.7322 22.1527 55.7936 21.9993 55.9162 21.846C56.0696 21.662 56.3916 21.524 56.8822 21.432C57.4036 21.3093 57.6949 21.1407 57.7562 20.926C58.3082 19.3927 59.1822 16.5407 60.3782 12.37C61.3902 8.75133 62.2949 5.976 63.0922 4.044C63.2762 3.61467 63.6596 3.4 64.2422 3.4C64.6716 3.4 65.0549 3.538 65.3922 3.814C66.2509 4.55 66.8029 5.654 67.0482 7.126C67.2322 8.38333 67.4009 9.64067 67.5542 10.898C69.0876 18.1353 70.6822 24.1 72.3382 28.792ZM65.6222 20.006C65.5302 18.8713 65.3309 17.5987 65.0242 16.188C64.7176 14.9613 64.4262 13.7347 64.1502 12.508C63.2302 15.0533 62.4329 17.5987 61.7582 20.144C62.2489 20.052 63.5369 20.006 65.6222 20.006ZM87.1265 15.084C85.9612 17.5987 84.9645 19.27 84.1365 20.098C82.8485 21.386 82.1432 22.0913 82.0205 22.214C81.1312 22.9193 80.2418 23.3487 79.3525 23.502C79.2298 24.1153 79.1685 24.836 79.1685 25.664C79.1685 26.2467 79.2145 27.136 79.3065 28.332C79.3985 29.4973 79.4445 30.356 79.4445 30.908C79.4445 32.9933 78.9538 34.5573 77.9725 35.6C77.9725 35.6 77.5432 35.37 76.6845 34.91C76.1632 34.634 75.8718 34.2967 75.8105 33.898C75.5038 31.9047 75.3505 29.6813 75.3505 27.228C75.3505 25.6027 75.4425 23.18 75.6265 19.96C75.8105 16.74 75.9025 14.302 75.9025 12.646C75.9025 10.254 75.7645 8.06133 75.4885 6.068C75.2432 6.16 75.0132 6.00666 74.7985 5.608C74.5838 5.20933 74.3998 4.97933 74.2465 4.918C74.3998 3.93667 74.6605 3.446 75.0285 3.446C75.4885 3.29267 76.4392 3.32333 77.8805 3.538C81.8672 4.182 84.8725 5.93 86.8965 8.782C87.5405 9.702 87.8625 10.7447 87.8625 11.91C87.8625 12.922 87.6172 13.98 87.1265 15.084ZM84.1365 11.542C84.2898 10.3153 83.7685 9.34933 82.5725 8.644C82.5112 8.644 81.4072 8.19933 79.2605 7.31C79.5978 12.9527 79.7052 16.9087 79.5825 19.178C82.3118 16.602 83.8298 14.0567 84.1365 11.542ZM108.074 21.064C106.265 25.1427 103.704 27.5653 100.392 28.332C99.9938 28.424 99.5952 28.47 99.1965 28.47C97.4485 28.47 95.6852 27.5193 93.9065 25.618C92.7105 24.33 92.1125 22.6587 92.1125 20.604C92.1125 18.3347 92.7872 15.8967 94.1365 13.29C94.7192 12.186 95.4245 11.2353 96.2525 10.438C97.2032 9.48733 98.1078 9.012 98.9665 9.012C99.4572 9.012 99.9172 9.196 100.346 9.564C100.776 9.932 101.926 10.4227 103.796 11.036C105.268 11.5267 106.311 12.3547 106.924 13.52C107.998 15.5747 108.534 17.338 108.534 18.81C108.534 19.638 108.381 20.3893 108.074 21.064ZM104.394 18.212C104.18 15.9733 103.582 14.6393 102.6 14.21C102.447 14.1487 102.309 14.118 102.186 14.118C101.818 14.118 101.358 14.4247 100.806 15.038C100.193 15.7433 99.7178 16.1573 99.3805 16.28C99.1658 16.372 98.8592 16.28 98.4605 16.004C98.0618 15.728 97.8012 15.59 97.6785 15.59C97.5865 15.59 97.5098 15.6207 97.4485 15.682C96.3752 16.602 95.8385 18.028 95.8385 19.96C95.8385 21.2787 96.1452 22.398 96.7585 23.318C97.6172 24.5753 98.3378 25.204 98.9205 25.204C100.27 25.204 101.573 24.3607 102.83 22.674C104.026 21.0793 104.548 19.592 104.394 18.212ZM112.297 2.25H112.619C113.661 2.46467 114.183 2.756 114.183 3.124C113.937 8.21467 113.815 12.14 113.815 14.9C113.815 15.6053 114.045 17.0313 114.505 19.178C114.597 19.178 115.348 19.2393 116.759 19.362C116.912 19.362 117.755 19.1933 119.289 18.856C119.565 9.25733 119.917 4.458 120.347 4.458C120.837 3.56867 121.405 3.124 122.049 3.124H122.233C122.846 3.124 123.245 3.33867 123.429 3.768V6.022C122.386 16.7553 121.865 24.974 121.865 30.678L121.359 31H120.485C119.473 31 118.967 30.1413 118.967 28.424C119.304 26.124 119.473 24.2993 119.473 22.95V22.444C119.473 22.352 119.304 22.1833 118.967 21.938L113.677 22.766C111.806 21.9993 110.717 19.1013 110.411 14.072V12.002C110.564 5.62333 110.963 2.434 111.607 2.434C111.821 2.31133 112.051 2.25 112.297 2.25ZM144.239 5.286C144.177 8.01533 143.733 12.3393 142.905 18.258C142.138 23.87 141.755 28.1787 141.755 31.184C141.755 32.1347 141.785 33.0393 141.847 33.898C141.847 34.1127 141.755 34.312 141.571 34.496C141.387 34.7107 141.172 34.818 140.927 34.818C140.068 34.818 139.501 34.7413 139.225 34.588C138.059 33.9133 137.477 32.6407 137.477 30.77C137.477 30.402 137.492 29.8347 137.523 29.068C137.584 28.2707 137.615 27.688 137.615 27.32C137.615 26.7067 137.691 25.7713 137.845 24.514C137.998 23.2567 138.075 22.2907 138.075 21.616C137.645 21.6467 137.047 21.5853 136.281 21.432C135.545 21.2787 135.008 21.202 134.671 21.202C134.272 21.202 133.889 21.2633 133.521 21.386C132.785 23.8087 132.355 27.3813 132.233 32.104C131.19 32.5333 130.178 32.4873 129.197 31.966C128.491 31.598 128.139 30.862 128.139 29.758C128.139 29.5127 128.154 29.1907 128.185 28.792C128.246 28.3627 128.277 28.102 128.277 28.01C128.369 26.354 128.721 23.0727 129.335 18.166C129.856 14.0567 130.101 10.7907 130.071 8.368C130.071 8.03067 130.301 7.816 130.761 7.724C131.251 7.632 131.527 7.54 131.589 7.448C131.773 7.66267 132.217 7.84667 132.923 8C133.505 8.12267 133.858 8.39867 133.981 8.828C134.226 9.59467 134.349 10.4533 134.349 11.404C134.349 12.0787 134.241 13.152 134.027 14.624C133.843 16.0653 133.751 17.1693 133.751 17.936C134.119 18.212 134.579 18.3807 135.131 18.442C135.499 18.5033 136.02 18.5187 136.695 18.488C137.584 18.4267 138.121 18.396 138.305 18.396C139.071 15.176 139.746 11.0053 140.329 5.884C140.451 4.81067 140.835 4.274 141.479 4.274C143.104 4.12067 144.024 4.458 144.239 5.286ZM148.206 3.998H149.172C150.062 3.998 150.506 4.48867 150.506 5.47C150.598 6.26733 150.644 6.712 150.644 6.804C150.307 11.1893 150.138 14.1333 150.138 15.636V15.774H150.506C152.408 15.774 154.094 16.924 155.566 19.224C155.781 19.592 155.888 19.914 155.888 20.19V21.018C155.888 25.2193 154.202 27.9947 150.828 29.344C149.356 30.448 148.375 31 147.884 31H147.378C146.796 31 146.366 30.724 146.09 30.172C146.213 22.1067 146.366 18.074 146.55 18.074C146.397 18.074 146.182 17.8593 145.906 17.43V16.786C146.765 16.142 147.194 14.6087 147.194 12.186C147.532 9.57933 147.7 7.18733 147.7 5.01C147.608 4.79533 147.562 4.62667 147.562 4.504L148.206 3.998ZM160.626 3.998H160.948C162.267 3.998 162.926 4.38133 162.926 5.148V7.632L161.454 29.85V30.172L160.626 30.816H159.982C158.878 30.816 158.326 29.6813 158.326 27.412L160.12 5.654L159.982 4.504L160.626 3.998ZM149.816 18.074C149.724 20.5887 149.571 22.72 149.356 24.468V25.296L149.494 26.906C151.672 25.894 152.76 24.2073 152.76 21.846V20.374C152.76 19.1167 151.948 18.35 150.322 18.074H149.816ZM178.768 2.618H179.228C180.854 2.618 181.804 3.32333 182.08 4.734V5.47C182.019 5.68467 178.462 6.942 171.408 9.242C171.255 9.82467 171.178 11.5573 171.178 14.44C171.454 14.5933 171.776 14.67 172.144 14.67C175.456 14.3633 177.266 14.21 177.572 14.21C179.136 14.4247 179.918 15.13 179.918 16.326C179.918 17.43 177.25 18.1353 171.914 18.442C170.626 18.442 169.982 20.4967 169.982 24.606C169.982 26.354 171.255 27.228 173.8 27.228C173.8 27.3813 174.352 27.458 175.456 27.458H178.262C178.845 26.9673 179.397 26.722 179.918 26.722C180.869 27.0593 181.344 27.9333 181.344 29.344V29.804C181.344 30.0187 180.946 30.4173 180.148 31H176.606C171.669 31 168.526 30.126 167.176 28.378C166.379 27.458 165.98 26.2007 165.98 24.606V18.718L165.014 17.522V16.786C166.118 16.0193 166.67 14.8387 166.67 13.244V10.898C165.106 10.4687 164.324 9.99333 164.324 9.472V8.782C164.324 6.666 169.139 4.61133 178.768 2.618ZM208.134 3.262C208.134 4.09 207.582 4.61133 206.478 4.826C205.037 5.102 204.148 5.424 203.81 5.792C200.376 9.41067 198.658 14.0873 198.658 19.822C198.658 22.5207 199.088 25.066 199.946 27.458C200.652 29.4207 201.158 30.7087 201.464 31.322C202.231 32.8247 203.166 33.898 204.27 34.542C204.73 34.7567 205.19 34.956 205.65 35.14C206.141 35.416 206.386 35.7993 206.386 36.29C206.386 36.7807 206.218 37.2253 205.88 37.624C205.574 38.0227 205.236 38.176 204.868 38.084C204.47 38.0227 203.856 37.8233 203.028 37.486C201.556 36.6273 199.962 34.8027 198.244 32.012C197.815 31.3067 197.37 30.586 196.91 29.85C196.481 29.0833 196.159 28.3627 195.944 27.688C195.791 27.1973 195.53 25.2193 195.162 21.754C195.04 20.6807 194.978 19.638 194.978 18.626C194.978 13.198 196.558 8.58267 199.716 4.78C201.556 2.572 203.473 1.468 205.466 1.468C206.325 1.468 207.107 1.72867 207.812 2.25C208.027 2.40333 208.134 2.74067 208.134 3.262ZM220.59 2.618H221.05C222.676 2.618 223.626 3.32333 223.902 4.734V5.47C223.841 5.68467 220.284 6.942 213.23 9.242C213.077 9.82467 213 11.5573 213 14.44C213.276 14.5933 213.598 14.67 213.966 14.67C217.278 14.3633 219.088 14.21 219.394 14.21C220.958 14.4247 221.74 15.13 221.74 16.326C221.74 17.43 219.072 18.1353 213.736 18.442C212.448 18.442 211.804 20.4967 211.804 24.606C211.804 26.354 213.077 27.228 215.622 27.228C215.622 27.3813 216.174 27.458 217.278 27.458H220.084C220.667 26.9673 221.219 26.722 221.74 26.722C222.691 27.0593 223.166 27.9333 223.166 29.344V29.804C223.166 30.0187 222.768 30.4173 221.97 31H218.428C213.491 31 210.348 30.126 208.998 28.378C208.201 27.458 207.802 26.2007 207.802 24.606V18.718L206.836 17.522V16.786C207.94 16.0193 208.492 14.8387 208.492 13.244V10.898C206.928 10.4687 206.146 9.99333 206.146 9.472V8.782C206.146 6.666 210.961 4.61133 220.59 2.618ZM238.962 15.084C237.797 17.5987 236.8 19.27 235.972 20.098C234.684 21.386 233.979 22.0913 233.856 22.214C232.967 22.9193 232.078 23.3487 231.188 23.502C231.066 24.1153 231.004 24.836 231.004 25.664C231.004 26.2467 231.05 27.136 231.142 28.332C231.234 29.4973 231.28 30.356 231.28 30.908C231.28 32.9933 230.79 34.5573 229.808 35.6C229.808 35.6 229.379 35.37 228.52 34.91C227.999 34.634 227.708 34.2967 227.646 33.898C227.34 31.9047 227.186 29.6813 227.186 27.228C227.186 25.6027 227.278 23.18 227.462 19.96C227.646 16.74 227.738 14.302 227.738 12.646C227.738 10.254 227.6 8.06133 227.324 6.068C227.079 6.16 226.849 6.00666 226.634 5.608C226.42 5.20933 226.236 4.97933 226.082 4.918C226.236 3.93667 226.496 3.446 226.864 3.446C227.324 3.29267 228.275 3.32333 229.716 3.538C233.703 4.182 236.708 5.93 238.732 8.782C239.376 9.702 239.698 10.7447 239.698 11.91C239.698 12.922 239.453 13.98 238.962 15.084ZM235.972 11.542C236.126 10.3153 235.604 9.34933 234.408 8.644C234.347 8.644 233.243 8.19933 231.096 7.31C231.434 12.9527 231.541 16.9087 231.418 19.178C234.148 16.602 235.666 14.0567 235.972 11.542ZM267.454 2.342C267.178 3.446 266.657 4.09 265.89 4.274C263.897 4.76467 260.432 5.40867 255.494 6.206C254.881 13.842 254.574 20.2053 254.574 25.296C254.574 27.228 254.605 29.1293 254.666 31C254.697 31.5827 254.666 32.0273 254.574 32.334C254.421 32.8247 254.114 33.0547 253.654 33.024C252.765 32.9933 252.029 32.61 251.446 31.874C250.864 31.1687 250.542 30.3713 250.48 29.482C250.419 28.3473 250.388 27.1513 250.388 25.894C250.388 23.87 250.526 20.6653 250.802 16.28C251.078 12.0787 251.201 8.874 251.17 6.666C250.342 6.60467 249.192 6.68133 247.72 6.896C246.034 7.14133 244.868 7.264 244.224 7.264C242.722 7.264 241.495 6.86533 240.544 6.068C240.176 5.27067 239.992 4.85667 239.992 4.826C239.992 4.61133 240.1 4.38133 240.314 4.136C241.296 3.79867 243.304 3.492 246.34 3.216C249.008 2.94 251.002 2.44933 252.32 1.744C253.394 2.08133 254.62 2.25 256 2.25C257.38 2.25 258.699 2.08133 259.956 1.744C260.324 1.71333 261.26 1.49867 262.762 1.1C263.866 0.823998 264.786 0.731999 265.522 0.823999C266.074 0.823999 266.304 1.054 266.212 1.514C267.04 1.514 267.454 1.79 267.454 2.342ZM266.046 3.308C266.506 3.52266 266.813 3.89067 266.966 4.412C265.985 10.9133 265.494 16.8013 265.494 22.076L265.862 22.26C270.248 12.4467 273.253 7.04933 274.878 6.068H275.798C276.412 6.40533 276.718 6.77333 276.718 7.172C276.228 11.6187 275.982 16.1573 275.982 20.788V28.332C275.982 29.9267 275.43 30.724 274.326 30.724H273.222C273.038 30.724 272.854 30.54 272.67 30.172V15.452H272.486C268.07 24.652 265.494 29.5587 264.758 30.172C264.298 30.54 263.869 30.724 263.47 30.724H262.55C262.244 30.724 262.06 30.4787 261.998 29.988C262.305 12.4467 263.102 3.676 264.39 3.676C265.188 3.43066 265.74 3.308 266.046 3.308ZM285.291 3.998H285.475C290.473 3.998 294.031 5.976 296.147 9.932L296.377 11.128V11.91C296.377 14.21 294.598 17.108 291.041 20.604C289.722 21.156 289.063 21.5547 289.063 21.8L288.833 22.582C288.986 24.5753 289.063 26.4153 289.063 28.102V28.884C289.063 30.2027 288.526 31.2607 287.453 32.058H286.855C285.812 31.322 285.291 30.0647 285.291 28.286V28.102C285.291 26.4153 285.352 24.5753 285.475 22.582C285.475 21.6927 284.953 21.156 283.911 20.972C281.181 19.1627 279.203 16.2647 277.977 12.278V11.128C277.977 8.644 280.353 6.32867 285.107 4.182C285.107 4.05933 285.168 3.998 285.291 3.998ZM281.335 10.714C281.335 12.6767 282.592 14.9153 285.107 17.43V15.084C285.107 13.5507 285.168 11.1127 285.291 7.77C282.653 8.35267 281.335 9.334 281.335 10.714ZM289.063 7.77C289.185 11.1127 289.247 13.5507 289.247 15.084V17.43C291.731 14.9767 292.973 12.6767 292.973 10.53C292.973 9.334 291.669 8.414 289.063 7.77ZM301.041 3.308C301.501 3.52266 301.807 3.89067 301.961 4.412C300.979 10.9133 300.489 16.8013 300.489 22.076L300.857 22.26C305.242 12.4467 308.247 7.04933 309.873 6.068H310.793C311.406 6.40533 311.713 6.77333 311.713 7.172C311.222 11.6187 310.977 16.1573 310.977 20.788V28.332C310.977 29.9267 310.425 30.724 309.321 30.724H308.217C308.033 30.724 307.849 30.54 307.665 30.172V15.452H307.481C303.065 24.652 300.489 29.5587 299.753 30.172C299.293 30.54 298.863 30.724 298.465 30.724H297.545C297.238 30.724 297.054 30.4787 296.993 29.988C297.299 12.4467 298.097 3.676 299.385 3.676C300.182 3.43066 300.734 3.308 301.041 3.308ZM314.581 2.388H315.731C317.264 2.388 318.031 3.768 318.031 6.528C318.184 8.03067 318.261 9.932 318.261 12.232V13.382C318.445 13.382 321.343 10.254 326.955 3.998H328.105C328.902 3.998 329.423 4.30467 329.669 4.918C329.669 6.35933 326.311 10.622 319.595 17.706L319.135 18.626C324.011 21.11 327.752 23.64 330.359 26.216V26.63C330.359 27.7033 329.454 28.24 327.645 28.24C327.062 27.6267 324.011 25.7253 318.491 22.536V22.766C318.613 26.1087 318.675 28.6233 318.675 30.31C318.123 30.77 317.601 31 317.111 31C315.271 31 314.351 28.9453 314.351 24.836V10.392C314.351 8.79733 314.197 6.28267 313.891 2.848L314.581 2.388ZM349.237 28.792C349.421 29.2827 349.513 29.712 349.513 30.08C349.513 30.6933 349.252 31.23 348.731 31.69C348.209 32.15 347.857 32.3647 347.673 32.334C346.17 32.058 345.219 30.8467 344.821 28.7C344.391 26.3693 343.885 24.422 343.303 22.858C342.26 22.95 341.217 23.042 340.175 23.134C338.979 23.2873 338.043 23.6553 337.369 24.238C337.031 25.1887 336.587 26.8753 336.035 29.298C335.513 31.5367 335.007 33.2387 334.517 34.404C334.271 34.956 333.75 35.1093 332.953 34.864C331.941 34.5267 331.404 34.0667 331.343 33.484C331.251 32.3187 331.588 30.7547 332.355 28.792C333.275 26.5533 333.781 24.9587 333.873 24.008C333.903 23.732 333.704 23.4253 333.275 23.088C332.845 22.7507 332.631 22.49 332.631 22.306C332.631 22.1527 332.692 21.9993 332.815 21.846C332.968 21.662 333.29 21.524 333.781 21.432C334.302 21.3093 334.593 21.1407 334.655 20.926C335.207 19.3927 336.081 16.5407 337.277 12.37C338.289 8.75133 339.193 5.976 339.991 4.044C340.175 3.61467 340.558 3.4 341.141 3.4C341.57 3.4 341.953 3.538 342.291 3.814C343.149 4.55 343.701 5.654 343.947 7.126C344.131 8.38333 344.299 9.64067 344.453 10.898C345.986 18.1353 347.581 24.1 349.237 28.792ZM342.521 20.006C342.429 18.8713 342.229 17.5987 341.923 16.188C341.616 14.9613 341.325 13.7347 341.049 12.508C340.129 15.0533 339.331 17.5987 338.657 20.144C339.147 20.052 340.435 20.006 342.521 20.006ZM374.099 2.342C373.823 3.446 373.302 4.09 372.535 4.274C370.542 4.76467 367.076 5.40867 362.139 6.206C361.526 13.842 361.219 20.2053 361.219 25.296C361.219 27.228 361.25 29.1293 361.311 31C361.342 31.5827 361.311 32.0273 361.219 32.334C361.066 32.8247 360.759 33.0547 360.299 33.024C359.41 32.9933 358.674 32.61 358.091 31.874C357.508 31.1687 357.186 30.3713 357.125 29.482C357.064 28.3473 357.033 27.1513 357.033 25.894C357.033 23.87 357.171 20.6653 357.447 16.28C357.723 12.0787 357.846 8.874 357.815 6.666C356.987 6.60467 355.837 6.68133 354.365 6.896C352.678 7.14133 351.513 7.264 350.869 7.264C349.366 7.264 348.14 6.86533 347.189 6.068C346.821 5.27067 346.637 4.85667 346.637 4.826C346.637 4.61133 346.744 4.38133 346.959 4.136C347.94 3.79867 349.949 3.492 352.985 3.216C355.653 2.94 357.646 2.44933 358.965 1.744C360.038 2.08133 361.265 2.25 362.645 2.25C364.025 2.25 365.344 2.08133 366.601 1.744C366.969 1.71333 367.904 1.49867 369.407 1.1C370.511 0.823998 371.431 0.731999 372.167 0.823999C372.719 0.823999 372.949 1.054 372.857 1.514C373.685 1.514 374.099 1.79 374.099 2.342ZM370.345 3.998H371.311C372.2 3.998 372.645 4.48867 372.645 5.47C372.737 6.26733 372.783 6.712 372.783 6.804C372.446 11.1893 372.277 14.1333 372.277 15.636V15.774H372.645C374.546 15.774 376.233 16.924 377.705 19.224C377.92 19.592 378.027 19.914 378.027 20.19V21.018C378.027 25.2193 376.34 27.9947 372.967 29.344C371.495 30.448 370.514 31 370.023 31H369.517C368.934 31 368.505 30.724 368.229 30.172C368.352 22.1067 368.505 18.074 368.689 18.074C368.536 18.074 368.321 17.8593 368.045 17.43V16.786C368.904 16.142 369.333 14.6087 369.333 12.186C369.67 9.57933 369.839 7.18733 369.839 5.01C369.747 4.79533 369.701 4.62667 369.701 4.504L370.345 3.998ZM382.765 3.998H383.087C384.406 3.998 385.065 4.38133 385.065 5.148V7.632L383.593 29.85V30.172L382.765 30.816H382.121C381.017 30.816 380.465 29.6813 380.465 27.412L382.259 5.654L382.121 4.504L382.765 3.998ZM371.955 18.074C371.863 20.5887 371.71 22.72 371.495 24.468V25.296L371.633 26.906C373.81 25.894 374.899 24.2073 374.899 21.846V20.374C374.899 19.1167 374.086 18.35 372.461 18.074H371.955ZM414.891 21.064C413.082 25.1427 410.521 27.5653 407.209 28.332C406.81 28.424 406.412 28.47 406.013 28.47C404.265 28.47 402.502 27.5193 400.723 25.618C399.527 24.33 398.929 22.6587 398.929 20.604C398.929 18.3347 399.604 15.8967 400.953 13.29C401.536 12.186 402.241 11.2353 403.069 10.438C404.02 9.48733 404.924 9.012 405.783 9.012C406.274 9.012 406.734 9.196 407.163 9.564C407.592 9.932 408.742 10.4227 410.613 11.036C412.085 11.5267 413.128 12.3547 413.741 13.52C414.814 15.5747 415.351 17.338 415.351 18.81C415.351 19.638 415.198 20.3893 414.891 21.064ZM411.211 18.212C410.996 15.9733 410.398 14.6393 409.417 14.21C409.264 14.1487 409.126 14.118 409.003 14.118C408.635 14.118 408.175 14.4247 407.623 15.038C407.01 15.7433 406.534 16.1573 406.197 16.28C405.982 16.372 405.676 16.28 405.277 16.004C404.878 15.728 404.618 15.59 404.495 15.59C404.403 15.59 404.326 15.6207 404.265 15.682C403.192 16.602 402.655 18.028 402.655 19.96C402.655 21.2787 402.962 22.398 403.575 23.318C404.434 24.5753 405.154 25.204 405.737 25.204C407.086 25.204 408.39 24.3607 409.647 22.674C410.843 21.0793 411.364 19.592 411.211 18.212ZM429.509 3.262C429.509 4.09 428.957 4.61133 427.853 4.826C426.412 5.102 425.523 5.424 425.185 5.792C421.751 9.41067 420.033 14.0873 420.033 19.822C420.033 22.5207 420.463 25.066 421.321 27.458C422.027 29.4207 422.533 30.7087 422.839 31.322C423.606 32.8247 424.541 33.898 425.645 34.542C426.105 34.7567 426.565 34.956 427.025 35.14C427.516 35.416 427.761 35.7993 427.761 36.29C427.761 36.7807 427.593 37.2253 427.255 37.624C426.949 38.0227 426.611 38.176 426.243 38.084C425.845 38.0227 425.231 37.8233 424.403 37.486C422.931 36.6273 421.337 34.8027 419.619 32.012C419.19 31.3067 418.745 30.586 418.285 29.85C417.856 29.0833 417.534 28.3627 417.319 27.688C417.166 27.1973 416.905 25.2193 416.537 21.754C416.415 20.6807 416.353 19.638 416.353 18.626C416.353 13.198 417.933 8.58267 421.091 4.78C422.931 2.572 424.848 1.468 426.841 1.468C427.7 1.468 428.482 1.72867 429.187 2.25C429.402 2.40333 429.509 2.74067 429.509 3.262ZM444.633 8C443.499 8.46 441.827 8.99667 439.619 9.61C437.411 10.2233 435.74 10.76 434.605 11.22C434.329 12.0173 434.13 13.796 434.007 16.556C434.498 16.74 435.065 16.832 435.709 16.832C436.169 16.832 436.89 16.7553 437.871 16.602C438.853 16.4487 439.573 16.372 440.033 16.372C440.892 16.372 441.628 16.556 442.241 16.924C442.671 17.5373 442.885 17.936 442.885 18.12C442.885 18.3347 442.778 18.5033 442.563 18.626C442.502 18.6567 442.287 18.8713 441.919 19.27C441.674 19.546 441.367 19.6687 440.999 19.638C440.355 19.7913 439.175 19.8833 437.457 19.914C436.016 19.9447 434.866 20.1287 434.007 20.466C433.425 22.7353 433.133 24.5293 433.133 25.848C433.133 26.7373 433.256 27.4427 433.501 27.964C434.943 28.976 437.442 29.4053 440.999 29.252C441.245 29.252 441.505 29.1447 441.781 28.93C442.057 28.6847 442.287 28.562 442.471 28.562C443.33 28.378 443.897 29.022 444.173 30.494C444.265 30.9847 444.173 31.4293 443.897 31.828C443.652 32.2573 443.284 32.4873 442.793 32.518C439.083 32.6407 435.863 32.3493 433.133 31.644C432.275 31.4293 431.493 30.954 430.787 30.218C430.082 29.482 429.683 28.654 429.591 27.734C429.315 25.066 429.315 22.674 429.591 20.558C428.733 19.9753 428.349 19.408 428.441 18.856C428.472 18.58 428.702 18.3347 429.131 18.12C429.591 17.8747 429.852 17.6293 429.913 17.384C429.975 17.1387 430.097 15.682 430.281 13.014C428.564 12.6767 427.721 12.0327 427.751 11.082C427.782 10.1927 428.319 9.48733 429.361 8.966C430.343 8.56733 431.324 8.16867 432.305 7.77C433.471 7.18733 434.912 6.666 436.629 6.206C438.101 5.80733 439.589 5.424 441.091 5.056C441.245 5.02533 441.429 5.01 441.643 5.01C442.471 5.01 443.437 5.332 444.541 5.976C444.572 6.09867 444.649 6.32867 444.771 6.666C444.894 7.00333 444.955 7.24867 444.955 7.402C444.955 7.64733 444.848 7.84667 444.633 8ZM462.215 28.792C462.399 29.2827 462.491 29.712 462.491 30.08C462.491 30.6933 462.231 31.23 461.709 31.69C461.188 32.15 460.835 32.3647 460.651 32.334C459.149 32.058 458.198 30.8467 457.799 28.7C457.37 26.3693 456.864 24.422 456.281 22.858C455.239 22.95 454.196 23.042 453.153 23.134C451.957 23.2873 451.022 23.6553 450.347 24.238C450.01 25.1887 449.565 26.8753 449.013 29.298C448.492 31.5367 447.986 33.2387 447.495 34.404C447.25 34.956 446.729 35.1093 445.931 34.864C444.919 34.5267 444.383 34.0667 444.321 33.484C444.229 32.3187 444.567 30.7547 445.333 28.792C446.253 26.5533 446.759 24.9587 446.851 24.008C446.882 23.732 446.683 23.4253 446.253 23.088C445.824 22.7507 445.609 22.49 445.609 22.306C445.609 22.1527 445.671 21.9993 445.793 21.846C445.947 21.662 446.269 21.524 446.759 21.432C447.281 21.3093 447.572 21.1407 447.633 20.926C448.185 19.3927 449.059 16.5407 450.255 12.37C451.267 8.75133 452.172 5.976 452.969 4.044C453.153 3.61467 453.537 3.4 454.119 3.4C454.549 3.4 454.932 3.538 455.269 3.814C456.128 4.55 456.68 5.654 456.925 7.126C457.109 8.38333 457.278 9.64067 457.431 10.898C458.965 18.1353 460.559 24.1 462.215 28.792ZM455.499 20.006C455.407 18.8713 455.208 17.5987 454.901 16.188C454.595 14.9613 454.303 13.7347 454.027 12.508C453.107 15.0533 452.31 17.5987 451.635 20.144C452.126 20.052 453.414 20.006 455.499 20.006ZM483.397 3.124C482.968 7.23333 482.554 11.358 482.155 15.498C481.634 20.4047 481.373 24.4987 481.373 27.78C481.373 28.8533 481.404 29.9113 481.465 30.954C481.496 31.4447 481.312 31.874 480.913 32.242C480.545 32.61 480.116 32.794 479.625 32.794C478.675 32.794 477.877 32.15 477.233 30.862C475.271 27.0287 472.833 21.018 469.919 12.83C469.858 12.646 469.781 12.554 469.689 12.554C469.475 12.554 469.337 12.7687 469.275 13.198C468.754 17.5833 468.493 22.1987 468.493 27.044C468.493 29.3747 468.555 31.7513 468.677 34.174C468.708 35.0633 468.447 35.6767 467.895 36.014C467.681 36.2287 467.451 36.336 467.205 36.336C466.991 36.336 466.715 36.244 466.377 36.06C465.917 35.8453 465.626 35.7073 465.503 35.646C465.105 35.5233 464.859 35.1553 464.767 34.542C464.737 34.0513 464.706 33.5453 464.675 33.024C464.583 31.3067 464.537 29.5127 464.537 27.642C464.537 24.3913 464.721 20.328 465.089 15.452C465.672 8.03066 465.994 3.92133 466.055 3.124C466.086 2.44933 466.653 2.112 467.757 2.112C468.279 2.05066 469.045 2.434 470.057 3.262C471.039 5.13266 472.25 8.16866 473.691 12.37C475.071 16.3873 476.329 19.4387 477.463 21.524C477.923 17.4453 478.644 11.2813 479.625 3.032C479.717 2.41867 480.162 2.112 480.959 2.112C481.235 2.112 481.557 2.158 481.925 2.25C482.416 2.37267 482.707 2.44933 482.799 2.48C483.106 2.60266 483.305 2.81733 483.397 3.124ZM513.004 10.99C512.605 12.646 511.593 14.1487 509.968 15.498C508.404 16.602 506.84 17.6907 505.276 18.764C505.368 19.224 505.674 19.5767 506.196 19.822C506.748 20.0367 507.269 20.2513 507.759 20.466C510.305 22.122 511.578 24.0847 511.578 26.354C511.578 28.102 510.98 29.712 509.784 31.184C508.864 32.3187 507.499 33.438 505.69 34.542C504.218 35.4007 502.746 36.2593 501.274 37.118C500.906 37.3327 500.507 37.44 500.078 37.44C499.066 37.44 498.36 37.026 497.962 36.198C498.023 33.622 498.084 31.0613 498.146 28.516C498.207 25.4493 498.376 22.9193 498.652 20.926C498.008 20.4967 497.686 20.006 497.686 19.454C497.686 19.178 497.793 18.9327 498.008 18.718C498.253 18.4727 498.575 18.212 498.973 17.936C499.342 13.2747 499.418 8.98133 499.204 5.056C497.762 4.78 496.812 4.136 496.352 3.124C496.321 3.00133 496.367 2.81733 496.49 2.572C496.643 2.32666 496.72 2.12733 496.72 1.974C497.425 1.45267 498.207 1.192 499.066 1.192C499.679 1.192 501.09 1.39133 503.298 1.79C504.432 1.974 505.613 2.388 506.84 3.032C510.152 4.74933 512.099 6.42067 512.682 8.046C513.08 9.21133 513.188 10.1927 513.004 10.99ZM508.68 8.69C508.526 7.55533 507.606 6.68133 505.92 6.068C505.674 5.976 505.291 5.77667 504.77 5.47C504.402 5.22467 504.095 5.102 503.85 5.102C503.727 5.102 503.589 5.13267 503.436 5.194C503.405 5.71533 503.39 6.26733 503.39 6.85C503.39 7.64733 503.451 8.99667 503.574 10.898C503.666 12.646 503.696 14.0107 503.666 14.992C503.88 14.992 504.202 14.8387 504.632 14.532C505.061 14.1947 505.306 14.0107 505.368 13.98C506.288 13.5507 507.1 12.83 507.806 11.818C508.511 10.806 508.802 9.76333 508.68 8.69ZM507.3 26.722C507.361 26.3847 507.392 26.0627 507.392 25.756C507.392 24.836 507.1 24.0233 506.518 23.318C504.954 22.5513 503.957 22.168 503.528 22.168C503.282 22.168 503.052 22.214 502.838 22.306C502.868 22.6127 502.884 22.95 502.884 23.318C502.884 23.962 502.792 24.9587 502.608 26.308C502.454 27.6267 502.378 28.6233 502.378 29.298C502.378 30.2793 502.5 31.1687 502.746 31.966C503.114 31.5367 503.681 31.092 504.448 30.632C505.245 30.1413 505.797 29.712 506.104 29.344C506.656 28.7 507.054 27.826 507.3 26.722ZM531.44 28.792C531.624 29.2827 531.716 29.712 531.716 30.08C531.716 30.6933 531.455 31.23 530.934 31.69C530.412 32.15 530.06 32.3647 529.876 32.334C528.373 32.058 527.422 30.8467 527.024 28.7C526.594 26.3693 526.088 24.422 525.506 22.858C524.463 22.95 523.42 23.042 522.378 23.134C521.182 23.2873 520.246 23.6553 519.572 24.238C519.234 25.1887 518.79 26.8753 518.238 29.298C517.716 31.5367 517.21 33.2387 516.72 34.404C516.474 34.956 515.953 35.1093 515.156 34.864C514.144 34.5267 513.607 34.0667 513.546 33.484C513.454 32.3187 513.791 30.7547 514.558 28.792C515.478 26.5533 515.984 24.9587 516.076 24.008C516.106 23.732 515.907 23.4253 515.478 23.088C515.048 22.7507 514.834 22.49 514.834 22.306C514.834 22.1527 514.895 21.9993 515.018 21.846C515.171 21.662 515.493 21.524 515.984 21.432C516.505 21.3093 516.796 21.1407 516.858 20.926C517.41 19.3927 518.284 16.5407 519.48 12.37C520.492 8.75133 521.396 5.976 522.194 4.044C522.378 3.61467 522.761 3.4 523.344 3.4C523.773 3.4 524.156 3.538 524.494 3.814C525.352 4.55 525.904 5.654 526.15 7.126C526.334 8.38333 526.502 9.64067 526.656 10.898C528.189 18.1353 529.784 24.1 531.44 28.792ZM524.724 20.006C524.632 18.8713 524.432 17.5987 524.126 16.188C523.819 14.9613 523.528 13.7347 523.252 12.508C522.332 15.0533 521.534 17.5987 520.86 20.144C521.35 20.052 522.638 20.006 524.724 20.006ZM542.916 3.17C542.916 3.78333 542.471 4.32 541.582 4.78C541.337 4.90266 541.076 4.918 540.8 4.826C540.371 4.70333 540.141 4.642 540.11 4.642C539.926 4.642 539.742 4.734 539.558 4.918C537.902 6.574 537.074 8.598 537.074 10.99C537.074 11.8793 537.212 12.7073 537.488 13.474C537.611 13.8113 538.776 16.188 540.984 20.604C542.456 23.548 543.192 26.0473 543.192 28.102C543.192 29.7887 542.778 31.414 541.95 32.978C541.674 33.4993 540.984 34.174 539.88 35.002C538.991 35.646 538.193 35.968 537.488 35.968C537.212 35.968 536.951 35.922 536.706 35.83C535.786 35.4313 535.326 34.9253 535.326 34.312C535.326 33.944 535.556 33.4993 536.016 32.978C536.139 32.8247 536.43 32.7327 536.89 32.702C537.35 32.6713 537.657 32.4873 537.81 32.15C538.454 30.8007 538.776 29.4207 538.776 28.01C538.776 26.0167 537.779 23.134 535.786 19.362C533.823 15.5593 532.842 12.5233 532.842 10.254C532.842 8.38333 533.21 6.712 533.946 5.24C534.774 3.55333 535.955 2.342 537.488 1.606C538.193 1.26866 538.883 1.1 539.558 1.1C540.846 1.1 541.812 1.45267 542.456 2.158C542.763 2.49533 542.916 2.83266 542.916 3.17ZM561.7 28.47C561.884 28.6233 561.976 28.838 561.976 29.114C561.976 29.298 561.853 29.758 561.608 30.494C561.485 30.4633 561.378 30.448 561.286 30.448C561.102 30.448 560.857 30.5247 560.55 30.678C560.274 30.8313 560.059 30.908 559.906 30.908C559.753 30.908 559.584 30.8467 559.4 30.724C557.345 29.436 554.156 27.504 549.832 24.928C549.924 26.0627 550.001 27.688 550.062 29.804C550.062 30.0493 550.093 30.4173 550.154 30.908C550.215 31.3987 550.246 31.7513 550.246 31.966C550.246 32.702 549.924 33.208 549.28 33.484C549.096 33.6067 548.835 33.668 548.498 33.668C548.13 33.668 547.9 33.5607 547.808 33.346C547.011 33.07 546.551 32.5333 546.428 31.736C546.06 29.528 545.876 26.9367 545.876 23.962C545.876 22.8887 545.907 21.294 545.968 19.178C546.029 17.0313 546.06 15.4213 546.06 14.348C546.06 11.0973 545.845 8.276 545.416 5.884C545.355 5.516 545.569 5.27067 546.06 5.148C546.428 5.08667 546.811 5.02533 547.21 4.964C547.609 5.08666 548.023 5.24 548.452 5.424C548.881 5.57733 549.111 5.838 549.142 6.206C549.602 10.3767 549.801 13.6887 549.74 16.142C550.997 15.0073 552.439 13.5047 554.064 11.634C555.444 10.07 556.809 8.49066 558.158 6.896C558.526 6.74266 558.925 6.666 559.354 6.666C560.55 6.666 561.179 7.08 561.24 7.908C560.381 9.80933 558.695 12.0633 556.18 14.67C553.236 17.706 551.35 19.868 550.522 21.156C552.423 22.2907 554.34 23.4253 556.272 24.56C558.419 25.9093 560.228 27.2127 561.7 28.47ZM578.95 8C577.815 8.46 576.144 8.99667 573.936 9.61C571.728 10.2233 570.057 10.76 568.922 11.22C568.646 12.0173 568.447 13.796 568.324 16.556C568.815 16.74 569.382 16.832 570.026 16.832C570.486 16.832 571.207 16.7553 572.188 16.602C573.169 16.4487 573.89 16.372 574.35 16.372C575.209 16.372 575.945 16.556 576.558 16.924C576.987 17.5373 577.202 17.936 577.202 18.12C577.202 18.3347 577.095 18.5033 576.88 18.626C576.819 18.6567 576.604 18.8713 576.236 19.27C575.991 19.546 575.684 19.6687 575.316 19.638C574.672 19.7913 573.491 19.8833 571.774 19.914C570.333 19.9447 569.183 20.1287 568.324 20.466C567.741 22.7353 567.45 24.5293 567.45 25.848C567.45 26.7373 567.573 27.4427 567.818 27.964C569.259 28.976 571.759 29.4053 575.316 29.252C575.561 29.252 575.822 29.1447 576.098 28.93C576.374 28.6847 576.604 28.562 576.788 28.562C577.647 28.378 578.214 29.022 578.49 30.494C578.582 30.9847 578.49 31.4293 578.214 31.828C577.969 32.2573 577.601 32.4873 577.11 32.518C573.399 32.6407 570.179 32.3493 567.45 31.644C566.591 31.4293 565.809 30.954 565.104 30.218C564.399 29.482 564 28.654 563.908 27.734C563.632 25.066 563.632 22.674 563.908 20.558C563.049 19.9753 562.666 19.408 562.758 18.856C562.789 18.58 563.019 18.3347 563.448 18.12C563.908 17.8747 564.169 17.6293 564.23 17.384C564.291 17.1387 564.414 15.682 564.598 13.014C562.881 12.6767 562.037 12.0327 562.068 11.082C562.099 10.1927 562.635 9.48733 563.678 8.966C564.659 8.56733 565.641 8.16867 566.622 7.77C567.787 7.18733 569.229 6.666 570.946 6.206C572.418 5.80733 573.905 5.424 575.408 5.056C575.561 5.02533 575.745 5.01 575.96 5.01C576.788 5.01 577.754 5.332 578.858 5.976C578.889 6.09867 578.965 6.32867 579.088 6.666C579.211 7.00333 579.272 7.24867 579.272 7.402C579.272 7.64733 579.165 7.84667 578.95 8ZM603.156 2.342C602.88 3.446 602.358 4.09 601.592 4.274C599.598 4.76467 596.133 5.40867 591.196 6.206C590.582 13.842 590.276 20.2053 590.276 25.296C590.276 27.228 590.306 29.1293 590.368 31C590.398 31.5827 590.368 32.0273 590.276 32.334C590.122 32.8247 589.816 33.0547 589.356 33.024C588.466 32.9933 587.73 32.61 587.148 31.874C586.565 31.1687 586.243 30.3713 586.182 29.482C586.12 28.3473 586.09 27.1513 586.09 25.894C586.09 23.87 586.228 20.6653 586.504 16.28C586.78 12.0787 586.902 8.874 586.872 6.666C586.044 6.60467 584.894 6.68133 583.422 6.896C581.735 7.14133 580.57 7.264 579.926 7.264C578.423 7.264 577.196 6.86533 576.246 6.068C575.878 5.27067 575.694 4.85667 575.694 4.826C575.694 4.61133 575.801 4.38133 576.016 4.136C576.997 3.79867 579.006 3.492 582.042 3.216C584.71 2.94 586.703 2.44933 588.022 1.744C589.095 2.08133 590.322 2.25 591.702 2.25C593.082 2.25 594.4 2.08133 595.658 1.744C596.026 1.71333 596.961 1.49867 598.464 1.1C599.568 0.823998 600.488 0.731999 601.224 0.823999C601.776 0.823999 602.006 1.054 601.914 1.514C602.742 1.514 603.156 1.79 603.156 2.342Z" fill="#11315F"/>
</svg>
