<svg width="147" height="53" viewBox="0 0 147 53" fill="none" xmlns="http://www.w3.org/2000/svg">
<path d="M24.486 14.29C23.914 16.666 22.462 18.822 20.13 20.758C17.886 22.342 15.642 23.904 13.398 25.444C13.53 26.104 13.97 26.61 14.718 26.962C15.51 27.27 16.258 27.578 16.962 27.886C20.614 30.262 22.44 33.078 22.44 36.334C22.44 38.842 21.582 41.152 19.866 43.264C18.546 44.892 16.588 46.498 13.992 48.082C11.88 49.314 9.768 50.546 7.656 51.778C7.128 52.086 6.556 52.24 5.94 52.24C4.488 52.24 3.476 51.646 2.904 50.458C2.992 46.762 3.08 43.088 3.168 39.436C3.256 35.036 3.498 31.406 3.894 28.546C2.97 27.93 2.508 27.226 2.508 26.434C2.508 26.038 2.662 25.686 2.97 25.378C3.322 25.026 3.784 24.652 4.356 24.256C4.884 17.568 4.994 11.408 4.686 5.776C2.618 5.38 1.254 4.456 0.594 3.004C0.55 2.828 0.616 2.564 0.792 2.212C1.012 1.86 1.122 1.574 1.122 1.354C2.134 0.605999 3.256 0.232 4.488 0.232C5.368 0.232 7.392 0.517999 10.56 1.09C12.188 1.354 13.882 1.948 15.642 2.872C20.394 5.336 23.188 7.734 24.024 10.066C24.596 11.738 24.75 13.146 24.486 14.29ZM18.282 10.99C18.062 9.362 16.742 8.108 14.322 7.228C13.97 7.096 13.42 6.81 12.672 6.37C12.144 6.018 11.704 5.842 11.352 5.842C11.176 5.842 10.978 5.886 10.758 5.974C10.714 6.722 10.692 7.514 10.692 8.35C10.692 9.494 10.78 11.43 10.956 14.158C11.088 16.666 11.132 18.624 11.088 20.032C11.396 20.032 11.858 19.812 12.474 19.372C13.09 18.888 13.442 18.624 13.53 18.58C14.85 17.964 16.016 16.93 17.028 15.478C18.04 14.026 18.458 12.53 18.282 10.99ZM16.302 36.862C16.39 36.378 16.434 35.916 16.434 35.476C16.434 34.156 16.016 32.99 15.18 31.978C12.936 30.878 11.506 30.328 10.89 30.328C10.538 30.328 10.208 30.394 9.9 30.526C9.944 30.966 9.966 31.45 9.966 31.978C9.966 32.902 9.834 34.332 9.57 36.268C9.35 38.16 9.24 39.59 9.24 40.558C9.24 41.966 9.416 43.242 9.768 44.386C10.296 43.77 11.11 43.132 12.21 42.472C13.354 41.768 14.146 41.152 14.586 40.624C15.378 39.7 15.95 38.446 16.302 36.862ZM50.9381 39.832C51.2021 40.536 51.3341 41.152 51.3341 41.68C51.3341 42.56 50.9601 43.33 50.2121 43.99C49.4641 44.65 48.9581 44.958 48.6941 44.914C46.5381 44.518 45.1741 42.78 44.6021 39.7C43.9861 36.356 43.2601 33.562 42.4241 31.318C40.9281 31.45 39.4321 31.582 37.9361 31.714C36.2201 31.934 34.8781 32.462 33.9101 33.298C33.4261 34.662 32.7881 37.082 31.9961 40.558C31.2481 43.77 30.5221 46.212 29.8181 47.884C29.4661 48.676 28.7181 48.896 27.5741 48.544C26.1221 48.06 25.3521 47.4 25.2641 46.564C25.1321 44.892 25.6161 42.648 26.7161 39.832C28.0361 36.62 28.7621 34.332 28.8941 32.968C28.9381 32.572 28.6521 32.132 28.0361 31.648C27.4201 31.164 27.1121 30.79 27.1121 30.526C27.1121 30.306 27.2001 30.086 27.3761 29.866C27.5961 29.602 28.0581 29.404 28.7621 29.272C29.5101 29.096 29.9281 28.854 30.0161 28.546C30.8081 26.346 32.0621 22.254 33.7781 16.27C35.2301 11.078 36.5281 7.096 37.6721 4.324C37.9361 3.708 38.4861 3.4 39.3221 3.4C39.9381 3.4 40.4881 3.598 40.9721 3.994C42.2041 5.05 42.9961 6.634 43.3481 8.746C43.6121 10.55 43.8541 12.354 44.0741 14.158C46.2741 24.542 48.5621 33.1 50.9381 39.832ZM41.3021 27.226C41.1701 25.598 40.8841 23.772 40.4441 21.748C40.0041 19.988 39.5861 18.228 39.1901 16.468C37.8701 20.12 36.7261 23.772 35.7581 27.424C36.4621 27.292 38.3101 27.226 41.3021 27.226ZM66.942 0.759997L68.262 1.816C68.086 4.456 67.998 6.392 67.998 7.624V12.112C71.21 6.304 73.498 3.4 74.862 3.4H75.654C76.578 3.4 77.282 3.84 77.766 4.72V5.512C77.766 5.908 75.566 9.78 71.166 17.128C70.638 18.404 70.374 19.196 70.374 19.504C74.774 26.94 76.974 31.428 76.974 32.968L75.39 34.288H74.862C72.486 34.288 70.55 31.912 69.054 27.16H68.79V27.424C70.022 34.772 70.638 39.612 70.638 41.944V43.792C70.022 44.672 69.054 45.112 67.734 45.112H67.206C65.974 45.112 64.742 38.16 63.51 24.256H63.246C62.014 26.808 59.638 32.352 56.118 40.888C55.458 41.944 55.018 42.472 54.798 42.472C52.774 42.472 51.63 42.032 51.366 41.152V40.096C53.83 32.528 56.558 25.928 59.55 20.296C60.43 18.712 60.958 17.92 61.134 17.92C60.386 15.896 58.274 12.992 54.798 9.208V8.416C55.414 7.36 56.47 6.832 57.966 6.832C59.242 6.832 60.914 8.328 62.982 11.32V11.056C62.982 10.44 62.894 9.648 62.718 8.68C62.718 3.4 63.686 0.759997 65.622 0.759997H66.942ZM102.344 6.106C102.256 10.022 101.618 16.226 100.43 24.718C99.3298 32.77 98.7798 38.952 98.7798 43.264C98.7798 44.628 98.8238 45.926 98.9118 47.158C98.9118 47.466 98.7798 47.752 98.5158 48.016C98.2518 48.324 97.9438 48.478 97.5918 48.478C96.3598 48.478 95.5458 48.368 95.1498 48.148C93.4778 47.18 92.6418 45.354 92.6418 42.67C92.6418 42.142 92.6638 41.328 92.7078 40.228C92.7958 39.084 92.8398 38.248 92.8398 37.72C92.8398 36.84 92.9498 35.498 93.1698 33.694C93.3898 31.89 93.4998 30.504 93.4998 29.536C92.8838 29.58 92.0258 29.492 90.9258 29.272C89.8698 29.052 89.0998 28.942 88.6158 28.942C88.0438 28.942 87.4938 29.03 86.9658 29.206C85.9098 32.682 85.2938 37.808 85.1178 44.584C83.6218 45.2 82.1698 45.134 80.7618 44.386C79.7498 43.858 79.2438 42.802 79.2438 41.218C79.2438 40.866 79.2658 40.404 79.3098 39.832C79.3978 39.216 79.4418 38.842 79.4418 38.71C79.5738 36.334 80.0798 31.626 80.9598 24.586C81.7078 18.69 82.0598 14.004 82.0158 10.528C82.0158 10.044 82.3458 9.736 83.0058 9.604C83.7098 9.472 84.1058 9.34 84.1938 9.208C84.4578 9.516 85.0958 9.78 86.1078 10C86.9438 10.176 87.4498 10.572 87.6258 11.188C87.9778 12.288 88.1538 13.52 88.1538 14.884C88.1538 15.852 87.9998 17.392 87.6918 19.504C87.4278 21.572 87.2958 23.156 87.2958 24.256C87.8238 24.652 88.4838 24.894 89.2758 24.982C89.8038 25.07 90.5518 25.092 91.5198 25.048C92.7958 24.96 93.5658 24.916 93.8298 24.916C94.9298 20.296 95.8978 14.312 96.7338 6.964C96.9098 5.424 97.4598 4.654 98.3838 4.654C100.716 4.434 102.036 4.918 102.344 6.106ZM129.024 28.744C126.428 34.596 122.754 38.072 118.002 39.172C117.43 39.304 116.858 39.37 116.286 39.37C113.778 39.37 111.248 38.006 108.696 35.278C106.98 33.43 106.122 31.032 106.122 28.084C106.122 24.828 107.09 21.33 109.026 17.59C109.862 16.006 110.874 14.642 112.062 13.498C113.426 12.134 114.724 11.452 115.956 11.452C116.66 11.452 117.32 11.716 117.936 12.244C118.552 12.772 120.202 13.476 122.886 14.356C124.998 15.06 126.494 16.248 127.374 17.92C128.914 20.868 129.684 23.398 129.684 25.51C129.684 26.698 129.464 27.776 129.024 28.744ZM123.744 24.652C123.436 21.44 122.578 19.526 121.17 18.91C120.95 18.822 120.752 18.778 120.576 18.778C120.048 18.778 119.388 19.218 118.596 20.098C117.716 21.11 117.034 21.704 116.55 21.88C116.242 22.012 115.802 21.88 115.23 21.484C114.658 21.088 114.284 20.89 114.108 20.89C113.976 20.89 113.866 20.934 113.778 21.022C112.238 22.342 111.468 24.388 111.468 27.16C111.468 29.052 111.908 30.658 112.788 31.978C114.02 33.782 115.054 34.684 115.89 34.684C117.826 34.684 119.696 33.474 121.5 31.054C123.216 28.766 123.964 26.632 123.744 24.652ZM146.434 4.06C146.17 7.14 145.048 12.684 143.068 20.692C141.352 27.644 140.56 33.342 140.692 37.786C140.692 38.182 140.45 38.556 139.966 38.908C139.526 39.216 139.108 39.326 138.712 39.238C136.468 38.798 135.28 37.698 135.148 35.938C135.104 35.014 135.082 34.09 135.082 33.166C135.082 29.03 135.742 23.97 137.062 17.986C139.086 9.142 140.186 4.126 140.362 2.938C140.45 2.41 140.78 2.036 141.352 1.816C141.924 1.596 142.474 1.574 143.002 1.75C143.75 1.97 144.498 2.19 145.246 2.41C146.082 2.762 146.478 3.312 146.434 4.06ZM140.032 44.32C140.12 44.936 140.032 45.53 139.768 46.102C139.504 46.718 139.174 47.026 138.778 47.026C138.426 47.07 138.162 47.18 137.986 47.356C137.81 47.532 137.634 47.598 137.458 47.554C135.126 46.674 133.806 45.53 133.498 44.122C133.366 43.506 133.784 42.89 134.752 42.274C135.72 41.614 136.402 41.306 136.798 41.35C137.502 41.438 138.184 41.746 138.844 42.274C139.548 42.802 139.944 43.484 140.032 44.32Z" fill="#11315F"/>
</svg>
