<svg width="217" height="103" viewBox="0 0 217 103" fill="none" xmlns="http://www.w3.org/2000/svg">
<path d="M-401 30.98C-401 30.98 -357.351 3 -305.868 3C-254.385 3 -241.514 30.98 -192.269 30.98C-143.025 30.98 -122.879 3 -76.9918 3C-31.1046 3 -17.1146 30.98 26.5341 30.98C70.1829 30.98 94.8053 3 140.133 3C185.46 3 214 30.98 214 30.98" stroke="white" stroke-width="4.02357" stroke-linecap="round" stroke-linejoin="round"/>
<path d="M-401 58.96C-401 58.96 -357.351 30.98 -305.868 30.98C-254.385 30.98 -241.514 58.96 -192.269 58.96C-143.025 58.96 -122.879 30.98 -76.9918 30.98C-31.1046 30.98 -17.1146 58.96 26.5341 58.96C70.1829 58.96 94.8053 30.98 140.133 30.98C185.46 30.98 214 58.96 214 58.96" stroke="white" stroke-width="4.02357" stroke-linecap="round" stroke-linejoin="round"/>
<path d="M-401 86.94C-401 86.94 -357.351 58.96 -305.868 58.96C-254.385 58.96 -241.514 86.94 -192.269 86.94C-143.025 86.94 -122.879 58.96 -76.9918 58.96C-31.1046 58.96 -17.1146 86.94 26.5341 86.94C70.1829 86.94 94.8053 58.96 140.133 58.96C185.46 58.96 214 86.94 214 86.94" stroke="white" stroke-width="4.02357" stroke-linecap="round" stroke-linejoin="round"/>
<path d="M-401 44.4104C-401 44.4104 -357.351 16.4304 -305.868 16.4304C-254.385 16.4304 -241.514 44.4104 -192.269 44.4104C-143.025 44.4104 -122.879 16.4304 -76.9918 16.4304C-31.1046 16.4304 -17.1146 44.4104 26.5341 44.4104C70.1829 44.4104 94.8053 16.4304 140.133 16.4304C185.46 16.4304 214 44.4104 214 44.4104" stroke="white" stroke-width="4.02357" stroke-linecap="round" stroke-linejoin="round"/>
<path d="M-401 72.3904C-401 72.3904 -357.351 44.4104 -305.868 44.4104C-254.385 44.4104 -241.514 72.3904 -192.269 72.3904C-143.025 72.3904 -122.879 44.4104 -76.9918 44.4104C-31.1046 44.4104 -17.1146 72.3904 26.5341 72.3904C70.1829 72.3904 94.8053 44.4104 140.133 44.4104C185.46 44.4104 214 72.3904 214 72.3904" stroke="white" stroke-width="4.02357" stroke-linecap="round" stroke-linejoin="round"/>
<path d="M-401 100.37C-401 100.37 -357.351 72.3904 -305.868 72.3904C-254.385 72.3904 -241.514 100.37 -192.269 100.37C-143.025 100.37 -122.879 72.3904 -76.9918 72.3904C-31.1046 72.3904 -17.1146 100.37 26.5341 100.37C70.1829 100.37 94.8053 72.3904 140.133 72.3904C185.46 72.3904 214 100.37 214 100.37" stroke="white" stroke-width="4.02357" stroke-linecap="round" stroke-linejoin="round"/>
</svg>
